<svg width="158" height="251" viewBox="0 0 158 251" fill="none" xmlns="http://www.w3.org/2000/svg">
<ellipse opacity="0.2" cx="79" cy="183" rx="79" ry="16" fill="black"/>
<path d="M56.0313 19.0557C54.8259 19.0557 53.6475 18.6983 52.6451 18.0285C51.6428 17.3588 50.8616 16.4069 50.4003 15.2932C49.939 14.1795 49.8183 12.954 50.0535 11.7716C50.2886 10.5893 50.8691 9.50331 51.7215 8.65091C52.5739 7.79851 53.66 7.21802 54.8423 6.98284C56.0246 6.74766 57.2501 6.86836 58.3638 7.32968C59.4775 7.791 60.4294 8.57221 61.0991 9.57452C61.7689 10.5768 62.1263 11.7552 62.1263 12.9607C62.1243 14.5766 61.4815 16.1257 60.3389 17.2683C59.1963 18.4109 57.6472 19.0537 56.0313 19.0557V19.0557ZM56.0313 11.4802C55.7385 11.4802 55.4523 11.5671 55.2088 11.7297C54.9654 11.8924 54.7756 12.1236 54.6635 12.3942C54.5515 12.6647 54.5222 12.9624 54.5793 13.2496C54.6364 13.5367 54.7774 13.8005 54.9845 14.0076C55.1915 14.2146 55.4553 14.3556 55.7425 14.4128C56.0297 14.4699 56.3274 14.4406 56.5979 14.3285C56.8684 14.2165 57.0996 14.0267 57.2623 13.7832C57.425 13.5398 57.5118 13.2535 57.5118 12.9607C57.5118 12.7663 57.4735 12.5738 57.3991 12.3942C57.3247 12.2145 57.2157 12.0513 57.0782 11.9139C56.9407 11.7764 56.7775 11.6673 56.5979 11.5929C56.4183 11.5185 56.2258 11.4802 56.0313 11.4802V11.4802Z" fill="#E7F6FF"/>
<path d="M66.9061 15.9276C68.0869 15.9276 69.0441 14.9704 69.0441 13.7895C69.0441 12.6087 68.0869 11.6515 66.9061 11.6515C65.7252 11.6515 64.768 12.6087 64.768 13.7895C64.768 14.9704 65.7252 15.9276 66.9061 15.9276Z" fill="#E7F6FF"/>
<g opacity="0.5">
<path opacity="0.5" d="M97.8967 125.319V130.014C96.5393 134.332 94.405 139.385 91.6017 144.957C90.4481 147.168 89.2137 149.502 87.8909 151.902C88.7946 150.364 89.6636 148.86 90.5019 147.361C89.5252 149.214 88.4908 151.141 87.3987 153.098V145.792L87.7217 145.18L87.3987 145.757V145.488C87.8858 144.568 88.36 143.67 88.8215 142.796C91.8632 136.743 94.1205 131.31 95.451 126.757C96.2778 126.291 97.093 125.811 97.8967 125.319Z" fill="#BBD2E5"/>
</g>
<path d="M118.097 57.1274C118.05 78.4695 100.554 95.8816 79.2194 95.8354C60.7421 95.797 45.1989 82.6687 41.4035 65.2874C41.0114 63.0541 40.8171 60.7907 40.8228 58.5233C40.869 37.1927 58.3656 19.7691 79.6962 19.8152C98.1542 19.8537 113.671 32.9473 117.501 50.2825C117.499 50.2914 117.499 50.3005 117.501 50.3094C117.901 52.5599 118.101 54.8415 118.097 57.1274Z" fill="white"/>
<path d="M76.9429 3.25117C41.0613 3.17426 18.7078 25.7546 18.6194 61.3132C18.5963 72.3035 24.3875 89.4464 34.3548 110.15C38.8617 118.891 44.3529 128.608 50.1211 138.31C57.2043 150.285 64.9375 162.263 72.6745 173.269L76.543 178.453C77.8389 176.834 79.1348 175.222 80.4307 173.284C88.2177 161.99 95.997 150.366 103.119 138.426C108.96 128.739 114.155 119.052 118.697 110.335C129.079 89.6694 134.943 72.5496 134.967 61.5593C135.078 26.9736 111.856 3.32808 76.9429 3.25117ZM76.7391 96.9834C55.4047 96.9373 37.9849 79.4483 38.0311 58.11C38.0772 36.7717 55.5739 19.3673 76.9083 19.4135C98.2427 19.4596 115.662 36.9525 115.616 58.2869C115.57 79.6213 98.0735 97.0411 76.7391 96.9834Z" fill="#6C89EF"/>
<path d="M119.189 114.651C115.197 122.215 110.748 130.356 105.837 138.493C98.704 150.433 90.9209 162.058 83.1493 173.352C81.8533 175.274 80.5574 176.901 79.2577 178.52L75.3777 173.34C67.6407 162.335 59.9075 150.356 52.8435 138.385C47.0407 128.672 41.5687 118.962 37.0772 110.225C27.0791 89.5139 21.2879 72.3671 21.311 61.3769C21.3417 46.7027 25.1564 34.2436 32.1705 24.6685C29.3979 31.8902 27.9405 40.1155 27.9097 49.183C27.8867 60.1733 33.6779 77.32 43.6452 98.0199C48.152 106.757 53.6241 116.478 59.4114 126.18C66.4947 138.151 74.2279 150.129 81.961 161.135L85.8295 166.319C87.1293 164.7 88.4252 163.088 89.7211 161.15C97.5042 149.856 105.287 138.232 112.409 126.291C114.793 122.4 117.043 118.493 119.189 114.651Z" fill="#5572D6"/>
<path d="M79.1692 182.3L73.1781 174.267C65.418 163.231 57.581 151.083 50.5093 139.131C44.4527 128.991 38.973 119.2 34.6546 110.833L34.6238 110.767C23.9797 88.6793 18.5961 71.8479 18.6192 60.7577C18.6576 42.5342 24.3873 27.2179 35.1545 16.4546C45.9217 5.69123 61.2265 0 79.4423 0H79.6307C97.4542 0.0384542 112.701 5.92195 123.688 17.0083C134.674 28.0947 140.415 43.2726 140.381 61.0077C140.358 72.2094 134.613 89.4946 123.826 110.998V111.033C119.773 118.812 114.332 129.049 108.168 139.274C100.531 152.056 92.359 164.138 85.3758 174.267C84.0491 176.247 82.7109 177.916 81.4188 179.531L79.1692 182.3ZM77.558 171.148L79.3 173.482C79.8345 172.775 80.3652 172.037 80.8958 171.244C87.8368 161.123 95.9661 149.149 103.526 136.493C109.617 126.399 115.001 116.263 119.019 108.556C129.448 87.8141 134.97 71.3711 134.993 61C135.066 27.8063 112.809 5.45666 79.6192 5.38359H79.4423C45.3141 5.38359 24.0758 26.5873 24.0028 60.7577C23.9797 70.8904 29.3248 87.3604 39.4575 108.395C43.7183 116.659 49.1403 126.334 55.1507 136.378C62.1379 148.207 69.8864 160.223 77.558 171.121V171.148ZM79.5076 99.1389H79.4153C68.4104 99.1272 57.8609 94.7442 50.0876 86.9543C42.3142 79.1644 37.9538 68.6055 37.9655 57.6006C37.9772 46.5957 42.3602 36.0462 50.1501 28.2728C57.94 20.4995 68.4989 16.1391 79.5038 16.1508H79.5961C87.8011 16.1595 95.8189 18.6039 102.633 23.1741C109.448 27.7444 114.752 34.2348 117.874 41.8227C120.996 49.4107 121.795 57.7547 120.169 65.7971C118.544 73.8396 114.568 81.2186 108.744 86.9989C104.912 90.8485 100.355 93.9019 95.3375 95.9834C90.3198 98.065 84.9399 99.1334 79.5076 99.1274V99.1389ZM79.5076 21.5575C69.9977 21.6449 60.9064 25.4815 54.209 32.2337C47.5116 38.9858 43.7491 48.108 43.739 57.6183C43.7288 67.1287 47.4719 76.2588 54.1549 83.0252C60.8379 89.7916 69.921 93.6475 79.4307 93.7553H79.5115C89.0886 93.765 98.2773 89.9698 105.056 83.2046C111.835 76.4394 115.649 67.2585 115.658 57.6814C115.668 48.1043 111.873 38.9156 105.108 32.1367C98.3426 25.3578 89.1616 21.5441 79.5845 21.5344L79.5076 21.5575Z" fill="#426572"/>
<path d="M68.6966 57.1595L78.1591 47.6984L75.057 44.5963L70.7202 48.9331C70.6685 48.9849 70.607 49.026 70.5394 49.0541C70.4718 49.0821 70.3993 49.0965 70.3261 49.0965C70.2529 49.0965 70.1804 49.0821 70.1128 49.0541C70.0451 49.026 69.9837 48.9849 69.932 48.9331L69.1438 48.1449C68.9258 47.9269 68.9258 47.574 69.1438 47.3567L73.4806 43.0199L71.1153 40.6539C70.2442 39.7827 68.8323 39.7827 67.9612 40.6539L61.6535 46.9615C60.7831 47.8327 60.7824 49.2446 61.6535 50.1157L68.6966 57.1595V57.1595ZM96.0105 48.9471C97.3296 47.6281 97.3289 45.4899 96.0105 44.1709L92.8289 40.9893C91.5099 39.6702 89.371 39.6702 88.0513 40.9893L84.8155 44.2243L92.7748 52.1836L96.0105 48.9471V48.9471ZM83.2244 45.8162L62.3419 66.6959L61.0228 74.2501C60.8449 75.269 61.7323 76.1563 62.7518 75.977L70.3068 74.6523L91.1836 53.7747L83.2244 45.8162ZM96.3466 65.8852L93.9813 63.5199L89.6445 67.8567C89.4266 68.0747 89.0736 68.0747 88.8563 67.8567L88.0681 67.0685C87.8509 66.8506 87.8509 66.4976 88.0681 66.2803L92.405 61.9435L89.3014 58.84L79.8389 68.3011L86.8848 75.3463C87.756 76.2175 89.1678 76.2175 90.039 75.3463L96.3466 69.0394C97.2178 68.1682 97.2178 66.7563 96.3466 65.8852Z" fill="#282C4D"/>
<path d="M127.417 40.1836C128.531 42.8926 129.4 45.6962 130.012 48.5605C130.143 49.2209 130.243 49.8697 130.35 50.4801C130.458 51.0905 130.577 51.7163 130.615 52.3113L130.772 54.0313C130.815 54.5841 130.88 55.11 130.872 55.6168C130.872 56.6303 130.891 57.5363 130.872 58.3464C130.853 59.1564 130.757 59.8398 130.688 60.4003C130.542 61.5252 130.362 62.1394 130.162 62.1394C129.962 62.1394 129.751 61.5252 129.544 60.431C129.436 59.882 129.356 59.214 129.229 58.4424C129.102 57.6707 128.941 56.7954 128.795 55.8318C128.734 55.3481 128.611 54.849 128.511 54.3269L128.196 52.7029C128.108 52.1386 127.931 51.5704 127.812 50.9792C127.693 50.3879 127.536 49.7775 127.375 49.1594C126.647 46.4879 125.756 43.8634 124.707 41.3008C123.616 38.7573 122.36 36.2885 120.944 33.9105L119.965 32.3288L118.983 30.8585C118.675 30.3747 118.349 29.9332 118.038 29.5033C117.727 29.0733 117.439 28.651 117.147 28.2594C114.809 25.1344 113.197 23.2686 113.489 22.9499C113.781 22.6313 115.881 24.0095 118.729 26.9119C119.086 27.2728 119.436 27.6797 119.808 28.0828C120.18 28.4859 120.576 28.9236 120.933 29.3958C121.29 29.868 121.701 30.344 122.085 30.8508L123.236 32.4594C124.87 34.8967 126.27 37.483 127.417 40.1836V40.1836Z" fill="white"/>
<path d="M104.386 14.4156C106.943 15.8975 108.471 17.8516 107.995 18.4927C107.519 19.1338 105.308 18.343 102.908 16.9571C100.509 15.5712 98.7428 14.097 99.0308 13.3522C99.3187 12.6074 101.837 12.926 104.386 14.4156Z" fill="white"/>
<path d="M52.8398 238.64H56.3438C56.2734 239.788 55.957 240.808 55.3945 241.698C54.8398 242.589 54.0625 243.284 53.0625 243.784C52.0703 244.284 50.875 244.534 49.4766 244.534C48.3828 244.534 47.4023 244.347 46.5352 243.972C45.668 243.589 44.9258 243.042 44.3086 242.331C43.6992 241.62 43.2344 240.761 42.9141 239.753C42.5938 238.745 42.4336 237.616 42.4336 236.366V235.183C42.4336 233.933 42.5977 232.804 42.9258 231.796C43.2617 230.781 43.7383 229.917 44.3555 229.206C44.9805 228.495 45.7266 227.948 46.5938 227.566C47.4609 227.183 48.4297 226.991 49.5 226.991C50.9219 226.991 52.1211 227.249 53.0977 227.765C54.082 228.281 54.8438 228.991 55.3828 229.898C55.9297 230.804 56.2578 231.835 56.3672 232.991H52.8516C52.8125 232.304 52.6758 231.722 52.4414 231.245C52.207 230.761 51.8516 230.398 51.375 230.156C50.9062 229.906 50.2812 229.781 49.5 229.781C48.9141 229.781 48.4023 229.89 47.9648 230.109C47.5273 230.327 47.1602 230.659 46.8633 231.105C46.5664 231.55 46.3438 232.113 46.1953 232.792C46.0547 233.464 45.9844 234.253 45.9844 235.159V236.366C45.9844 237.249 46.0508 238.027 46.1836 238.698C46.3164 239.363 46.5195 239.925 46.793 240.386C47.0742 240.839 47.4336 241.183 47.8711 241.417C48.3164 241.644 48.8516 241.757 49.4766 241.757C50.2109 241.757 50.8164 241.64 51.293 241.406C51.7695 241.171 52.1328 240.823 52.3828 240.363C52.6406 239.902 52.793 239.327 52.8398 238.64ZM65.9414 241.265V231.62H69.3164V244.3H66.1406L65.9414 241.265ZM66.3164 238.663L67.3125 238.64C67.3125 239.484 67.2148 240.269 67.0195 240.995C66.8242 241.714 66.5312 242.339 66.1406 242.87C65.75 243.394 65.2578 243.804 64.6641 244.101C64.0703 244.39 63.3711 244.534 62.5664 244.534C61.9492 244.534 61.3789 244.448 60.8555 244.277C60.3398 244.097 59.8945 243.82 59.5195 243.445C59.1523 243.062 58.8633 242.573 58.6523 241.98C58.4492 241.378 58.3477 240.656 58.3477 239.812V231.62H61.7227V239.835C61.7227 240.21 61.7656 240.527 61.8516 240.784C61.9453 241.042 62.0742 241.253 62.2383 241.417C62.4023 241.581 62.5938 241.698 62.8125 241.769C63.0391 241.839 63.2891 241.874 63.5625 241.874C64.2578 241.874 64.8047 241.734 65.2031 241.452C65.6094 241.171 65.8945 240.788 66.0586 240.304C66.2305 239.812 66.3164 239.265 66.3164 238.663ZM75.2695 234.386V244.3H71.8945V231.62H75.0703L75.2695 234.386ZM79.0898 231.538L79.0312 234.667C78.8672 234.644 78.668 234.624 78.4336 234.609C78.207 234.585 78 234.573 77.8125 234.573C77.3359 234.573 76.9219 234.636 76.5703 234.761C76.2266 234.878 75.9375 235.054 75.7031 235.288C75.4766 235.523 75.3047 235.808 75.1875 236.144C75.0781 236.48 75.0156 236.863 75 237.292L74.3203 237.081C74.3203 236.261 74.4023 235.507 74.5664 234.82C74.7305 234.124 74.9688 233.519 75.2812 233.003C75.6016 232.488 75.9922 232.089 76.4531 231.808C76.9141 231.527 77.4414 231.386 78.0352 231.386C78.2227 231.386 78.4141 231.402 78.6094 231.433C78.8047 231.456 78.9648 231.491 79.0898 231.538ZM87.5391 240.796C87.5391 240.554 87.4688 240.335 87.3281 240.14C87.1875 239.945 86.9258 239.765 86.543 239.601C86.168 239.429 85.625 239.273 84.9141 239.132C84.2734 238.991 83.6758 238.816 83.1211 238.605C82.5742 238.386 82.0977 238.124 81.6914 237.82C81.293 237.515 80.9805 237.156 80.7539 236.741C80.5273 236.32 80.4141 235.839 80.4141 235.3C80.4141 234.769 80.5273 234.269 80.7539 233.8C80.9883 233.331 81.3203 232.917 81.75 232.558C82.1875 232.191 82.7188 231.906 83.3438 231.702C83.9766 231.491 84.6875 231.386 85.4766 231.386C86.5781 231.386 87.5234 231.562 88.3125 231.913C89.1094 232.265 89.7188 232.749 90.1406 233.366C90.5703 233.976 90.7852 234.671 90.7852 235.452H87.4102C87.4102 235.124 87.3398 234.831 87.1992 234.573C87.0664 234.308 86.8555 234.101 86.5664 233.952C86.2852 233.796 85.918 233.718 85.4648 233.718C85.0898 233.718 84.7656 233.784 84.4922 233.917C84.2188 234.042 84.0078 234.214 83.8594 234.433C83.7188 234.644 83.6484 234.878 83.6484 235.136C83.6484 235.331 83.6875 235.507 83.7656 235.663C83.8516 235.812 83.9883 235.948 84.1758 236.073C84.3633 236.198 84.6055 236.316 84.9023 236.425C85.207 236.527 85.582 236.62 86.0273 236.706C86.9414 236.894 87.7578 237.14 88.4766 237.445C89.1953 237.741 89.7656 238.148 90.1875 238.663C90.6094 239.171 90.8203 239.839 90.8203 240.667C90.8203 241.23 90.6953 241.745 90.4453 242.214C90.1953 242.683 89.8359 243.093 89.3672 243.445C88.8984 243.788 88.3359 244.058 87.6797 244.253C87.0312 244.441 86.3008 244.534 85.4883 244.534C84.3086 244.534 83.3086 244.323 82.4883 243.902C81.6758 243.48 81.0586 242.945 80.6367 242.296C80.2227 241.64 80.0156 240.968 80.0156 240.281H83.2148C83.2305 240.741 83.3477 241.113 83.5664 241.394C83.793 241.675 84.0781 241.878 84.4219 242.003C84.7734 242.128 85.1523 242.191 85.5586 242.191C85.9961 242.191 86.3594 242.132 86.6484 242.015C86.9375 241.89 87.1562 241.726 87.3047 241.523C87.4609 241.312 87.5391 241.07 87.5391 240.796ZM92.4727 238.089V237.843C92.4727 236.913 92.6055 236.058 92.8711 235.277C93.1367 234.488 93.5234 233.804 94.0312 233.226C94.5391 232.648 95.1641 232.198 95.9062 231.878C96.6484 231.55 97.5 231.386 98.4609 231.386C99.4219 231.386 100.277 231.55 101.027 231.878C101.777 232.198 102.406 232.648 102.914 233.226C103.43 233.804 103.82 234.488 104.086 235.277C104.352 236.058 104.484 236.913 104.484 237.843V238.089C104.484 239.011 104.352 239.866 104.086 240.656C103.82 241.437 103.43 242.12 102.914 242.706C102.406 243.284 101.781 243.734 101.039 244.054C100.297 244.374 99.4453 244.534 98.4844 244.534C97.5234 244.534 96.668 244.374 95.918 244.054C95.1758 243.734 94.5469 243.284 94.0312 242.706C93.5234 242.12 93.1367 241.437 92.8711 240.656C92.6055 239.866 92.4727 239.011 92.4727 238.089ZM95.8477 237.843V238.089C95.8477 238.62 95.8945 239.116 95.9883 239.577C96.082 240.038 96.2305 240.445 96.4336 240.796C96.6445 241.14 96.918 241.409 97.2539 241.605C97.5898 241.8 98 241.898 98.4844 241.898C98.9531 241.898 99.3555 241.8 99.6914 241.605C100.027 241.409 100.297 241.14 100.5 240.796C100.703 240.445 100.852 240.038 100.945 239.577C101.047 239.116 101.098 238.62 101.098 238.089V237.843C101.098 237.327 101.047 236.843 100.945 236.39C100.852 235.929 100.699 235.523 100.488 235.171C100.285 234.812 100.016 234.531 99.6797 234.327C99.3438 234.124 98.9375 234.023 98.4609 234.023C97.9844 234.023 97.5781 234.124 97.2422 234.327C96.9141 234.531 96.6445 234.812 96.4336 235.171C96.2305 235.523 96.082 235.929 95.9883 236.39C95.8945 236.843 95.8477 237.327 95.8477 237.843ZM113.414 240.796C113.414 240.554 113.344 240.335 113.203 240.14C113.062 239.945 112.801 239.765 112.418 239.601C112.043 239.429 111.5 239.273 110.789 239.132C110.148 238.991 109.551 238.816 108.996 238.605C108.449 238.386 107.973 238.124 107.566 237.82C107.168 237.515 106.855 237.156 106.629 236.741C106.402 236.32 106.289 235.839 106.289 235.3C106.289 234.769 106.402 234.269 106.629 233.8C106.863 233.331 107.195 232.917 107.625 232.558C108.062 232.191 108.594 231.906 109.219 231.702C109.852 231.491 110.562 231.386 111.352 231.386C112.453 231.386 113.398 231.562 114.188 231.913C114.984 232.265 115.594 232.749 116.016 233.366C116.445 233.976 116.66 234.671 116.66 235.452H113.285C113.285 235.124 113.215 234.831 113.074 234.573C112.941 234.308 112.73 234.101 112.441 233.952C112.16 233.796 111.793 233.718 111.34 233.718C110.965 233.718 110.641 233.784 110.367 233.917C110.094 234.042 109.883 234.214 109.734 234.433C109.594 234.644 109.523 234.878 109.523 235.136C109.523 235.331 109.562 235.507 109.641 235.663C109.727 235.812 109.863 235.948 110.051 236.073C110.238 236.198 110.48 236.316 110.777 236.425C111.082 236.527 111.457 236.62 111.902 236.706C112.816 236.894 113.633 237.14 114.352 237.445C115.07 237.741 115.641 238.148 116.062 238.663C116.484 239.171 116.695 239.839 116.695 240.667C116.695 241.23 116.57 241.745 116.32 242.214C116.07 242.683 115.711 243.093 115.242 243.445C114.773 243.788 114.211 244.058 113.555 244.253C112.906 244.441 112.176 244.534 111.363 244.534C110.184 244.534 109.184 244.323 108.363 243.902C107.551 243.48 106.934 242.945 106.512 242.296C106.098 241.64 105.891 240.968 105.891 240.281H109.09C109.105 240.741 109.223 241.113 109.441 241.394C109.668 241.675 109.953 241.878 110.297 242.003C110.648 242.128 111.027 242.191 111.434 242.191C111.871 242.191 112.234 242.132 112.523 242.015C112.812 241.89 113.031 241.726 113.18 241.523C113.336 241.312 113.414 241.07 113.414 240.796Z" fill="white"/>
</svg>
