<svg width="158" height="251" viewBox="0 0 158 251" fill="none" xmlns="http://www.w3.org/2000/svg">
<ellipse opacity="0.2" cx="79" cy="183" rx="79" ry="16" fill="black"/>
<path d="M56.0313 19.0557C54.8259 19.0557 53.6475 18.6983 52.6451 18.0285C51.6428 17.3588 50.8616 16.4069 50.4003 15.2932C49.939 14.1795 49.8183 12.954 50.0535 11.7716C50.2886 10.5893 50.8691 9.50331 51.7215 8.65091C52.5739 7.79851 53.66 7.21802 54.8423 6.98284C56.0246 6.74766 57.2501 6.86836 58.3638 7.32968C59.4775 7.791 60.4294 8.57221 61.0991 9.57452C61.7689 10.5768 62.1263 11.7552 62.1263 12.9607C62.1243 14.5766 61.4815 16.1257 60.3389 17.2683C59.1963 18.4109 57.6472 19.0537 56.0313 19.0557ZM56.0313 11.4802C55.7385 11.4802 55.4523 11.5671 55.2088 11.7297C54.9654 11.8924 54.7756 12.1236 54.6635 12.3942C54.5515 12.6647 54.5222 12.9624 54.5793 13.2496C54.6364 13.5367 54.7774 13.8005 54.9845 14.0076C55.1915 14.2146 55.4553 14.3556 55.7425 14.4128C56.0297 14.4699 56.3274 14.4406 56.5979 14.3285C56.8684 14.2165 57.0996 14.0267 57.2623 13.7832C57.425 13.5398 57.5118 13.2535 57.5118 12.9607C57.5118 12.7663 57.4735 12.5738 57.3991 12.3942C57.3247 12.2145 57.2157 12.0513 57.0782 11.9139C56.9407 11.7764 56.7775 11.6673 56.5979 11.5929C56.4183 11.5185 56.2258 11.4802 56.0313 11.4802Z" fill="#E7F6FF"/>
<path d="M66.9061 15.9276C68.0869 15.9276 69.0441 14.9704 69.0441 13.7895C69.0441 12.6087 68.0869 11.6515 66.9061 11.6515C65.7252 11.6515 64.768 12.6087 64.768 13.7895C64.768 14.9704 65.7252 15.9276 66.9061 15.9276Z" fill="#E7F6FF"/>
<g opacity="0.5">
<path opacity="0.5" d="M97.8967 125.319V130.014C96.5393 134.332 94.405 139.385 91.6017 144.957C90.4481 147.168 89.2137 149.502 87.8909 151.902C88.7946 150.364 89.6636 148.86 90.5019 147.361C89.5252 149.214 88.4908 151.141 87.3987 153.098V145.792L87.7217 145.18L87.3987 145.757V145.488C87.8858 144.568 88.36 143.67 88.8215 142.796C91.8632 136.743 94.1205 131.31 95.451 126.757C96.2778 126.291 97.093 125.811 97.8967 125.319Z" fill="#BBD2E5"/>
</g>
<path d="M118.097 57.1274C118.05 78.4695 100.554 95.8816 79.2194 95.8354C60.7421 95.797 45.1989 82.6687 41.4035 65.2874C41.0114 63.0541 40.8171 60.7907 40.8228 58.5233C40.869 37.1927 58.3656 19.7691 79.6962 19.8152C98.1542 19.8537 113.671 32.9473 117.501 50.2825C117.499 50.2914 117.499 50.3005 117.501 50.3094C117.901 52.5599 118.101 54.8415 118.097 57.1274Z" fill="white"/>
<path d="M76.9429 3.25117C41.0613 3.17426 18.7078 25.7546 18.6194 61.3132C18.5963 72.3035 24.3875 89.4464 34.3548 110.15C38.8617 118.891 44.3529 128.608 50.1211 138.31C57.2043 150.285 64.9375 162.263 72.6745 173.269L76.543 178.453C77.8389 176.834 79.1348 175.222 80.4307 173.284C88.2177 161.99 95.997 150.366 103.119 138.426C108.96 128.739 114.155 119.052 118.697 110.335C129.079 89.6694 134.943 72.5496 134.967 61.5593C135.078 26.9736 111.856 3.32808 76.9429 3.25117ZM76.7391 96.9834C55.4047 96.9372 37.9849 79.4483 38.0311 58.11C38.0772 36.7717 55.5739 19.3673 76.9083 19.4135C98.2427 19.4596 115.662 36.9525 115.616 58.2869C115.57 79.6213 98.0735 97.0411 76.7391 96.9834Z" fill="#6C89EF"/>
<path d="M119.189 114.651C115.197 122.215 110.748 130.356 105.837 138.493C98.704 150.433 90.9209 162.058 83.1493 173.352C81.8533 175.275 80.5574 176.901 79.2577 178.52L75.3777 173.34C67.6407 162.335 59.9075 150.356 52.8435 138.385C47.0407 128.672 41.5687 118.962 37.0772 110.225C27.0791 89.5139 21.2879 72.3671 21.311 61.3769C21.3417 46.7027 25.1564 34.2436 32.1705 24.6685C29.3979 31.8902 27.9405 40.1155 27.9097 49.183C27.8867 60.1733 33.6779 77.32 43.6452 98.0199C48.152 106.757 53.6241 116.478 59.4114 126.18C66.4947 138.151 74.2279 150.129 81.961 161.135L85.8295 166.319C87.1293 164.7 88.4252 163.088 89.7211 161.15C97.5042 149.856 105.287 138.232 112.409 126.291C114.793 122.4 117.043 118.493 119.189 114.651Z" fill="#5572D6"/>
<path d="M79.1692 182.3L73.1781 174.267C65.418 163.231 57.581 151.083 50.5093 139.131C44.4527 128.991 38.973 119.2 34.6546 110.833L34.6238 110.767C23.9797 88.6793 18.5961 71.8479 18.6192 60.7577C18.6576 42.5342 24.3873 27.2179 35.1545 16.4546C45.9217 5.69123 61.2265 0 79.4423 0H79.6307C97.4542 0.0384542 112.701 5.92195 123.688 17.0083C134.674 28.0947 140.415 43.2726 140.381 61.0077C140.358 72.2094 134.613 89.4946 123.826 110.998V111.033C119.773 118.812 114.332 129.049 108.168 139.274C100.531 152.056 92.359 164.138 85.3758 174.267C84.0491 176.247 82.7109 177.916 81.4188 179.531L79.1692 182.3ZM77.558 171.148L79.3 173.482C79.8345 172.775 80.3652 172.037 80.8958 171.244C87.8368 161.123 95.9661 149.149 103.526 136.493C109.617 126.399 115.001 116.263 119.019 108.556C129.448 87.8141 134.97 71.3711 134.993 61C135.066 27.8063 112.809 5.45666 79.6192 5.38359H79.4423C45.3141 5.38359 24.0758 26.5873 24.0028 60.7577C23.9797 70.8904 29.3248 87.3604 39.4575 108.395C43.7183 116.659 49.1403 126.334 55.1507 136.378C62.1379 148.207 69.8864 160.223 77.558 171.121V171.148ZM79.5076 99.1389H79.4153C68.4104 99.1272 57.8609 94.7442 50.0876 86.9543C42.3142 79.1644 37.9538 68.6055 37.9655 57.6006C37.9772 46.5957 42.3602 36.0462 50.1501 28.2728C57.94 20.4995 68.4989 16.1391 79.5038 16.1508H79.5961C87.8011 16.1595 95.8189 18.6039 102.633 23.1741C109.448 27.7444 114.752 34.2348 117.874 41.8227C120.996 49.4107 121.795 57.7547 120.169 65.7971C118.544 73.8396 114.568 81.2186 108.744 86.9989C104.912 90.8485 100.355 93.9019 95.3375 95.9834C90.3198 98.0649 84.9399 99.1334 79.5076 99.1274V99.1389ZM79.5076 21.5575C69.9977 21.6449 60.9064 25.4815 54.209 32.2337C47.5116 38.9858 43.7491 48.108 43.739 57.6183C43.7288 67.1286 47.4719 76.2588 54.1549 83.0252C60.8379 89.7916 69.921 93.6475 79.4307 93.7553H79.5115C89.0886 93.765 98.2773 89.9698 105.056 83.2046C111.835 76.4394 115.649 67.2585 115.658 57.6814C115.668 48.1043 111.873 38.9156 105.108 32.1367C98.3426 25.3578 89.1616 21.5441 79.5845 21.5344L79.5076 21.5575Z" fill="#426572"/>
<path d="M68.6966 57.1595L78.1591 47.6984L75.057 44.5963L70.7202 48.9331C70.6685 48.9849 70.607 49.026 70.5394 49.0541C70.4718 49.0821 70.3993 49.0965 70.3261 49.0965C70.2529 49.0965 70.1804 49.0821 70.1128 49.0541C70.0451 49.026 69.9837 48.9849 69.932 48.9331L69.1438 48.1449C68.9258 47.9269 68.9258 47.574 69.1438 47.3567L73.4806 43.0199L71.1153 40.6539C70.2442 39.7827 68.8323 39.7827 67.9612 40.6539L61.6535 46.9615C60.7831 47.8327 60.7824 49.2446 61.6535 50.1157L68.6966 57.1595ZM96.0105 48.9471C97.3296 47.6281 97.3289 45.4899 96.0105 44.1709L92.8289 40.9893C91.5099 39.6702 89.371 39.6702 88.0513 40.9893L84.8155 44.2243L92.7748 52.1836L96.0105 48.9471ZM83.2244 45.8162L62.3419 66.6959L61.0228 74.2501C60.8449 75.269 61.7323 76.1563 62.7518 75.977L70.3068 74.6523L91.1836 53.7747L83.2244 45.8162ZM96.3466 65.8852L93.9813 63.5199L89.6445 67.8567C89.4266 68.0747 89.0736 68.0747 88.8563 67.8567L88.0681 67.0685C87.8509 66.8506 87.8509 66.4976 88.0681 66.2803L92.405 61.9435L89.3014 58.84L79.8389 68.3011L86.8848 75.3463C87.756 76.2175 89.1678 76.2175 90.039 75.3463L96.3466 69.0394C97.2178 68.1682 97.2178 66.7563 96.3466 65.8852Z" fill="#282C4D"/>
<path d="M127.417 40.1836C128.531 42.8926 129.4 45.6962 130.012 48.5605C130.143 49.2209 130.243 49.8697 130.35 50.4801C130.458 51.0905 130.577 51.7163 130.615 52.3113L130.772 54.0312C130.815 54.5841 130.88 55.11 130.872 55.6168C130.872 56.6303 130.891 57.5363 130.872 58.3464C130.853 59.1564 130.757 59.8398 130.688 60.4003C130.542 61.5252 130.362 62.1394 130.162 62.1394C129.962 62.1394 129.751 61.5252 129.544 60.431C129.436 59.882 129.356 59.214 129.229 58.4424C129.102 57.6707 128.941 56.7954 128.795 55.8318C128.734 55.3481 128.611 54.849 128.511 54.3269L128.196 52.7029C128.108 52.1386 127.931 51.5704 127.812 50.9792C127.693 50.3879 127.536 49.7775 127.375 49.1594C126.647 46.4879 125.756 43.8634 124.707 41.3008C123.616 38.7573 122.36 36.2885 120.944 33.9105L119.965 32.3288L118.983 30.8585C118.675 30.3747 118.349 29.9332 118.038 29.5033C117.727 29.0733 117.439 28.651 117.147 28.2594C114.809 25.1344 113.197 23.2686 113.489 22.9499C113.781 22.6313 115.881 24.0095 118.729 26.9119C119.086 27.2728 119.436 27.6797 119.808 28.0828C120.18 28.4859 120.576 28.9236 120.933 29.3958C121.29 29.868 121.701 30.344 122.085 30.8508L123.236 32.4594C124.87 34.8967 126.27 37.483 127.417 40.1836Z" fill="white"/>
<path d="M104.386 14.4156C106.943 15.8975 108.471 17.8516 107.995 18.4927C107.519 19.1338 105.308 18.343 102.908 16.9571C100.509 15.5712 98.7428 14.097 99.0308 13.3522C99.3187 12.6074 101.837 12.926 104.386 14.4156Z" fill="white"/>
<path d="M59.0039 238.64H62.5078C62.4375 239.788 62.1211 240.808 61.5586 241.698C61.0039 242.589 60.2266 243.284 59.2266 243.784C58.2344 244.284 57.0391 244.534 55.6406 244.534C54.5469 244.534 53.5664 244.347 52.6992 243.972C51.832 243.589 51.0898 243.042 50.4727 242.331C49.8633 241.62 49.3984 240.761 49.0781 239.753C48.7578 238.745 48.5977 237.616 48.5977 236.366V235.183C48.5977 233.933 48.7617 232.804 49.0898 231.796C49.4258 230.781 49.9023 229.917 50.5195 229.206C51.1445 228.495 51.8906 227.948 52.7578 227.566C53.625 227.183 54.5938 226.991 55.6641 226.991C57.0859 226.991 58.2852 227.249 59.2617 227.765C60.2461 228.281 61.0078 228.991 61.5469 229.898C62.0938 230.804 62.4219 231.835 62.5312 232.991H59.0156C58.9766 232.304 58.8398 231.722 58.6055 231.245C58.3711 230.761 58.0156 230.398 57.5391 230.156C57.0703 229.906 56.4453 229.781 55.6641 229.781C55.0781 229.781 54.5664 229.89 54.1289 230.109C53.6914 230.327 53.3242 230.659 53.0273 231.105C52.7305 231.55 52.5078 232.113 52.3594 232.792C52.2188 233.464 52.1484 234.253 52.1484 235.159V236.366C52.1484 237.249 52.2148 238.027 52.3477 238.698C52.4805 239.363 52.6836 239.925 52.957 240.386C53.2383 240.839 53.5977 241.183 54.0352 241.417C54.4805 241.644 55.0156 241.757 55.6406 241.757C56.375 241.757 56.9805 241.64 57.457 241.406C57.9336 241.171 58.2969 240.823 58.5469 240.363C58.8047 239.902 58.957 239.327 59.0039 238.64ZM72.1055 241.265V231.62H75.4805V244.3H72.3047L72.1055 241.265ZM72.4805 238.663L73.4766 238.64C73.4766 239.484 73.3789 240.269 73.1836 240.995C72.9883 241.714 72.6953 242.339 72.3047 242.87C71.9141 243.394 71.4219 243.804 70.8281 244.101C70.2344 244.39 69.5352 244.534 68.7305 244.534C68.1133 244.534 67.543 244.448 67.0195 244.277C66.5039 244.097 66.0586 243.82 65.6836 243.445C65.3164 243.062 65.0273 242.573 64.8164 241.98C64.6133 241.378 64.5117 240.656 64.5117 239.812V231.62H67.8867V239.835C67.8867 240.21 67.9297 240.527 68.0156 240.784C68.1094 241.042 68.2383 241.253 68.4023 241.417C68.5664 241.581 68.7578 241.698 68.9766 241.769C69.2031 241.839 69.4531 241.874 69.7266 241.874C70.4219 241.874 70.9688 241.734 71.3672 241.452C71.7734 241.171 72.0586 240.788 72.2227 240.304C72.3945 239.812 72.4805 239.265 72.4805 238.663ZM81.4336 234.386V244.3H78.0586V231.62H81.2344L81.4336 234.386ZM85.2539 231.538L85.1953 234.667C85.0312 234.644 84.832 234.624 84.5977 234.609C84.3711 234.585 84.1641 234.573 83.9766 234.573C83.5 234.573 83.0859 234.636 82.7344 234.761C82.3906 234.878 82.1016 235.054 81.8672 235.288C81.6406 235.523 81.4688 235.808 81.3516 236.144C81.2422 236.48 81.1797 236.863 81.1641 237.292L80.4844 237.081C80.4844 236.261 80.5664 235.507 80.7305 234.82C80.8945 234.124 81.1328 233.519 81.4453 233.003C81.7656 232.488 82.1562 232.089 82.6172 231.808C83.0781 231.527 83.6055 231.386 84.1992 231.386C84.3867 231.386 84.5781 231.402 84.7734 231.433C84.9688 231.456 85.1289 231.491 85.2539 231.538ZM93.7031 240.796C93.7031 240.554 93.6328 240.335 93.4922 240.14C93.3516 239.945 93.0898 239.765 92.707 239.601C92.332 239.429 91.7891 239.273 91.0781 239.132C90.4375 238.991 89.8398 238.816 89.2852 238.605C88.7383 238.386 88.2617 238.124 87.8555 237.82C87.457 237.515 87.1445 237.156 86.918 236.741C86.6914 236.32 86.5781 235.839 86.5781 235.3C86.5781 234.769 86.6914 234.269 86.918 233.8C87.1523 233.331 87.4844 232.917 87.9141 232.558C88.3516 232.191 88.8828 231.906 89.5078 231.702C90.1406 231.491 90.8516 231.386 91.6406 231.386C92.7422 231.386 93.6875 231.562 94.4766 231.913C95.2734 232.265 95.8828 232.749 96.3047 233.366C96.7344 233.976 96.9492 234.671 96.9492 235.452H93.5742C93.5742 235.124 93.5039 234.831 93.3633 234.573C93.2305 234.308 93.0195 234.101 92.7305 233.952C92.4492 233.796 92.082 233.718 91.6289 233.718C91.2539 233.718 90.9297 233.784 90.6562 233.917C90.3828 234.042 90.1719 234.214 90.0234 234.433C89.8828 234.644 89.8125 234.878 89.8125 235.136C89.8125 235.331 89.8516 235.507 89.9297 235.663C90.0156 235.812 90.1523 235.948 90.3398 236.073C90.5273 236.198 90.7695 236.316 91.0664 236.425C91.3711 236.527 91.7461 236.62 92.1914 236.706C93.1055 236.894 93.9219 237.14 94.6406 237.445C95.3594 237.741 95.9297 238.148 96.3516 238.663C96.7734 239.171 96.9844 239.839 96.9844 240.667C96.9844 241.23 96.8594 241.745 96.6094 242.214C96.3594 242.683 96 243.093 95.5312 243.445C95.0625 243.788 94.5 244.058 93.8438 244.253C93.1953 244.441 92.4648 244.534 91.6523 244.534C90.4727 244.534 89.4727 244.323 88.6523 243.902C87.8398 243.48 87.2227 242.945 86.8008 242.296C86.3867 241.64 86.1797 240.968 86.1797 240.281H89.3789C89.3945 240.741 89.5117 241.113 89.7305 241.394C89.957 241.675 90.2422 241.878 90.5859 242.003C90.9375 242.128 91.3164 242.191 91.7227 242.191C92.1602 242.191 92.5234 242.132 92.8125 242.015C93.1016 241.89 93.3203 241.726 93.4688 241.523C93.625 241.312 93.7031 241.07 93.7031 240.796ZM98.6367 238.089V237.843C98.6367 236.913 98.7695 236.058 99.0352 235.277C99.3008 234.488 99.6875 233.804 100.195 233.226C100.703 232.648 101.328 232.198 102.07 231.878C102.812 231.55 103.664 231.386 104.625 231.386C105.586 231.386 106.441 231.55 107.191 231.878C107.941 232.198 108.57 232.648 109.078 233.226C109.594 233.804 109.984 234.488 110.25 235.277C110.516 236.058 110.648 236.913 110.648 237.843V238.089C110.648 239.011 110.516 239.866 110.25 240.656C109.984 241.437 109.594 242.12 109.078 242.706C108.57 243.284 107.945 243.734 107.203 244.054C106.461 244.374 105.609 244.534 104.648 244.534C103.688 244.534 102.832 244.374 102.082 244.054C101.34 243.734 100.711 243.284 100.195 242.706C99.6875 242.12 99.3008 241.437 99.0352 240.656C98.7695 239.866 98.6367 239.011 98.6367 238.089ZM102.012 237.843V238.089C102.012 238.62 102.059 239.116 102.152 239.577C102.246 240.038 102.395 240.445 102.598 240.796C102.809 241.14 103.082 241.409 103.418 241.605C103.754 241.8 104.164 241.898 104.648 241.898C105.117 241.898 105.52 241.8 105.855 241.605C106.191 241.409 106.461 241.14 106.664 240.796C106.867 240.445 107.016 240.038 107.109 239.577C107.211 239.116 107.262 238.62 107.262 238.089V237.843C107.262 237.327 107.211 236.843 107.109 236.39C107.016 235.929 106.863 235.523 106.652 235.171C106.449 234.812 106.18 234.531 105.844 234.327C105.508 234.124 105.102 234.023 104.625 234.023C104.148 234.023 103.742 234.124 103.406 234.327C103.078 234.531 102.809 234.812 102.598 235.171C102.395 235.523 102.246 235.929 102.152 236.39C102.059 236.843 102.012 237.327 102.012 237.843Z" fill="white"/>
</svg>
