<svg width="158" height="251" viewBox="0 0 158 251" fill="none" xmlns="http://www.w3.org/2000/svg">
<ellipse opacity="0.2" cx="79" cy="182" rx="79" ry="16" fill="black"/>
<path d="M56.0312 19.0557C54.8257 19.0557 53.6473 18.6983 52.645 18.0285C51.6426 17.3588 50.8614 16.4069 50.4001 15.2932C49.9388 14.1795 49.8181 12.954 50.0533 11.7716C50.2884 10.5893 50.8689 9.50331 51.7213 8.65091C52.5737 7.79851 53.6598 7.21802 54.8421 6.98284C56.0244 6.74766 57.2499 6.86836 58.3636 7.32968C59.4773 7.791 60.4292 8.57221 61.099 9.57452C61.7687 10.5768 62.1261 11.7552 62.1261 12.9607C62.1241 14.5766 61.4813 16.1257 60.3387 17.2683C59.1961 18.4109 57.647 19.0537 56.0312 19.0557ZM56.0312 11.4802C55.7383 11.4802 55.4521 11.5671 55.2086 11.7297C54.9652 11.8924 54.7754 12.1236 54.6634 12.3942C54.5513 12.6647 54.522 12.9624 54.5791 13.2496C54.6362 13.5367 54.7772 13.8005 54.9843 14.0076C55.1913 14.2146 55.4551 14.3556 55.7423 14.4128C56.0295 14.4699 56.3272 14.4406 56.5977 14.3285C56.8682 14.2165 57.0995 14.0267 57.2621 13.7832C57.4248 13.5398 57.5116 13.2535 57.5116 12.9607C57.5116 12.7663 57.4733 12.5738 57.3989 12.3942C57.3245 12.2145 57.2155 12.0513 57.078 11.9139C56.9405 11.7764 56.7773 11.6673 56.5977 11.5929C56.4181 11.5185 56.2256 11.4802 56.0312 11.4802Z" fill="#E7F6FF"/>
<path d="M66.9057 15.9276C68.0866 15.9276 69.0438 14.9704 69.0438 13.7895C69.0438 12.6087 68.0866 11.6515 66.9057 11.6515C65.7249 11.6515 64.7677 12.6087 64.7677 13.7895C64.7677 14.9704 65.7249 15.9276 66.9057 15.9276Z" fill="#E7F6FF"/>
<g opacity="0.5">
<path opacity="0.5" d="M97.8964 125.319V130.014C96.5389 134.332 94.4047 139.385 91.6014 144.957C90.4478 147.168 89.2134 149.502 87.8906 151.902C88.7942 150.364 89.6633 148.86 90.5016 147.361C89.5249 149.214 88.4905 151.141 87.3984 153.098V145.792L87.7214 145.18L87.3984 145.757V145.488C87.8854 144.568 88.3597 143.67 88.8212 142.796C91.8629 136.743 94.1202 131.31 95.4507 126.757C96.2774 126.291 97.0927 125.811 97.8964 125.319Z" fill="#BBD2E5"/>
</g>
<path d="M118.096 57.1274C118.05 78.4695 100.554 95.8816 79.2192 95.8354C60.742 95.797 45.1988 82.6687 41.4033 65.2874C41.0113 63.0541 40.817 60.7907 40.8227 58.5233C40.8688 37.1927 58.3655 19.7691 79.6961 19.8152C98.1541 19.8537 113.67 32.9473 117.5 50.2825C117.499 50.2914 117.499 50.3005 117.5 50.3094C117.901 52.5599 118.1 54.8415 118.096 57.1274Z" fill="white"/>
<path d="M76.9428 3.25117C41.0612 3.17426 18.7077 25.7546 18.6193 61.3132C18.5962 72.3035 24.3874 89.4464 34.3547 110.15C38.8616 118.891 44.3528 128.608 50.121 138.31C57.2042 150.285 64.9374 162.263 72.6744 173.269L76.5429 178.453C77.8388 176.834 79.1347 175.222 80.4306 173.284C88.2176 161.99 95.9969 150.366 103.119 138.426C108.96 128.739 114.155 119.052 118.696 110.335C129.079 89.6694 134.943 72.5496 134.966 61.5593C135.078 26.9736 111.855 3.32808 76.9428 3.25117ZM76.739 96.9834C55.4046 96.9372 37.9848 79.4483 38.031 58.11C38.0771 36.7717 55.5738 19.3673 76.9082 19.4135C98.2426 19.4596 115.662 36.9525 115.616 58.2869C115.57 79.6213 98.0734 97.0411 76.739 96.9834Z" fill="#E47066"/>
<path d="M119.189 114.651C115.197 122.215 110.748 130.356 105.837 138.493C98.7041 150.433 90.9209 162.058 83.1493 173.352C81.8534 175.275 80.5575 176.901 79.2578 178.52L75.3777 173.34C67.6407 162.335 59.9076 150.356 52.8435 138.385C47.0408 128.672 41.5688 118.962 37.0773 110.225C27.0792 89.5139 21.288 72.3671 21.3111 61.3769C21.3418 46.7027 25.1565 34.2436 32.1705 24.6685C29.398 31.8902 27.9406 40.1155 27.9098 49.183C27.8867 60.1733 33.6779 77.32 43.6453 98.0199C48.1521 106.757 53.6242 116.478 59.4115 126.18C66.4948 138.151 74.2279 150.129 81.9611 161.135L85.8296 166.319C87.1293 164.7 88.4253 163.088 89.7212 161.15C97.5043 149.856 105.287 138.232 112.409 126.291C114.793 122.4 117.043 118.493 119.189 114.651Z" fill="#BE5A52"/>
<path d="M79.1693 182.3L73.1781 174.267C65.418 163.231 57.581 151.083 50.5093 139.131C44.4528 128.991 38.973 119.2 34.6546 110.833L34.6239 110.767C23.9797 88.6793 18.5961 71.8479 18.6192 60.7577C18.6577 42.5342 24.3873 27.2179 35.1545 16.4546C45.9217 5.69123 61.2265 0 79.4423 0H79.6307C97.4542 0.0384542 112.701 5.92195 123.688 17.0083C134.674 28.0947 140.415 43.2726 140.381 61.0077C140.358 72.2094 134.613 89.4946 123.826 110.998V111.033C119.773 118.812 114.332 129.049 108.168 139.274C100.531 152.056 92.3591 164.138 85.3758 174.267C84.0491 176.247 82.7109 177.916 81.4188 179.531L79.1693 182.3ZM77.558 171.148L79.3 173.482C79.8345 172.775 80.3652 172.037 80.8958 171.244C87.8368 161.123 95.9661 149.149 103.526 136.493C109.617 126.399 115.001 116.263 119.019 108.556C129.448 87.8141 134.97 71.3711 134.993 61C135.066 27.8063 112.809 5.45666 79.6192 5.38359H79.4423C45.3141 5.38359 24.0759 26.5873 24.0028 60.7577C23.9797 70.8904 29.3249 87.3604 39.4576 108.395C43.7183 116.659 49.1403 126.334 55.1507 136.378C62.1379 148.207 69.8864 160.223 77.558 171.121V171.148ZM79.5076 99.1389H79.4154C68.4105 99.1272 57.8609 94.7442 50.0876 86.9543C42.3142 79.1644 37.9538 68.6055 37.9655 57.6006C37.9773 46.5957 42.3602 36.0462 50.1501 28.2728C57.9401 20.4995 68.4989 16.1391 79.5038 16.1508H79.5961C87.8012 16.1595 95.8189 18.6039 102.633 23.1741C109.448 27.7444 114.752 34.2348 117.874 41.8227C120.996 49.4107 121.795 57.7547 120.169 65.7971C118.544 73.8396 114.568 81.2186 108.744 86.9989C104.912 90.8485 100.355 93.9019 95.3375 95.9834C90.3198 98.0649 84.9399 99.1334 79.5076 99.1274V99.1389ZM79.5076 21.5575C69.9977 21.6449 60.9064 25.4815 54.209 32.2337C47.5116 38.9858 43.7491 48.108 43.739 57.6183C43.7288 67.1286 47.4719 76.2588 54.1549 83.0252C60.8379 89.7916 69.921 93.6475 79.4307 93.7553H79.5115C89.0886 93.765 98.2773 89.9698 105.056 83.2046C111.835 76.4394 115.649 67.2585 115.658 57.6814C115.668 48.1043 111.873 38.9156 105.108 32.1367C98.3426 25.3578 89.1616 21.5441 79.5846 21.5344L79.5076 21.5575Z" fill="#426572"/>
<path d="M74.875 40C73.781 40 72.7318 40.4346 71.9582 41.2082C71.1846 41.9818 70.75 43.031 70.75 44.125V45.5H61.125C60.031 45.5 58.9818 45.9346 58.2082 46.7082C57.4346 47.4818 57 48.531 57 49.625V53.431L77.9385 59.0135C78.634 59.1987 79.3659 59.1987 80.0615 59.0135L101 53.431V49.625C101 48.531 100.565 47.4818 99.7918 46.7082C99.0182 45.9346 97.969 45.5 96.875 45.5H87.25V44.125C87.25 43.031 86.8154 41.9818 86.0418 41.2082C85.2682 40.4346 84.219 40 83.125 40H74.875ZM74.875 42.75H83.125C83.4897 42.75 83.8394 42.8949 84.0973 43.1527C84.3551 43.4106 84.5 43.7603 84.5 44.125V45.5H73.5V44.125C73.5 43.7603 73.6448 43.4106 73.9027 43.1527C74.1606 42.8949 74.5103 42.75 74.875 42.75Z" fill="#282C4D"/>
<path d="M57 71.625C57 72.719 57.4346 73.7683 58.2082 74.5418C58.9818 75.3154 60.031 75.75 61.125 75.75H96.875C97.969 75.75 99.0182 75.3154 99.7918 74.5418C100.565 73.7683 101 72.719 101 71.625V56.0875L79.3547 61.8543C79.1223 61.9163 78.8777 61.9163 78.6452 61.8543L57 56.0875V71.625Z" fill="#282C4D"/>
<path d="M127.417 40.1836C128.531 42.8926 129.4 45.6962 130.012 48.5605C130.143 49.2209 130.243 49.8697 130.35 50.4801C130.458 51.0905 130.577 51.7163 130.615 52.3113L130.772 54.0312C130.815 54.5841 130.88 55.11 130.872 55.6168C130.872 56.6303 130.891 57.5363 130.872 58.3464C130.853 59.1564 130.757 59.8398 130.688 60.4003C130.542 61.5252 130.362 62.1394 130.162 62.1394C129.962 62.1394 129.751 61.5252 129.544 60.431C129.436 59.882 129.356 59.214 129.229 58.4424C129.102 57.6707 128.941 56.7954 128.795 55.8318C128.734 55.3481 128.611 54.849 128.511 54.3269L128.196 52.7029C128.108 52.1386 127.931 51.5704 127.812 50.9792C127.693 50.3879 127.536 49.7775 127.375 49.1594C126.647 46.4879 125.756 43.8634 124.707 41.3008C123.616 38.7573 122.36 36.2885 120.944 33.9105L119.965 32.3288L118.983 30.8585C118.675 30.3747 118.349 29.9332 118.038 29.5033C117.727 29.0733 117.439 28.651 117.147 28.2594C114.809 25.1344 113.197 23.2686 113.489 22.9499C113.781 22.6313 115.881 24.0095 118.729 26.9119C119.086 27.2728 119.436 27.6797 119.808 28.0828C120.18 28.4859 120.576 28.9236 120.933 29.3958C121.29 29.868 121.701 30.344 122.085 30.8508L123.236 32.4594C124.87 34.8967 126.27 37.483 127.417 40.1836Z" fill="white"/>
<path d="M104.386 14.4156C106.943 15.8975 108.471 17.8516 107.995 18.4927C107.519 19.1338 105.308 18.343 102.908 16.9571C100.509 15.5712 98.7428 14.097 99.0308 13.3522C99.3187 12.6074 101.837 12.926 104.386 14.4156Z" fill="white"/>
<path d="M33.1406 238.64H36.6445C36.5742 239.788 36.2578 240.808 35.6953 241.698C35.1406 242.589 34.3633 243.284 33.3633 243.784C32.3711 244.284 31.1758 244.534 29.7773 244.534C28.6836 244.534 27.7031 244.347 26.8359 243.972C25.9688 243.589 25.2266 243.042 24.6094 242.331C24 241.62 23.5352 240.761 23.2148 239.753C22.8945 238.745 22.7344 237.616 22.7344 236.366V235.183C22.7344 233.933 22.8984 232.804 23.2266 231.796C23.5625 230.781 24.0391 229.917 24.6562 229.206C25.2812 228.495 26.0273 227.948 26.8945 227.566C27.7617 227.183 28.7305 226.991 29.8008 226.991C31.2227 226.991 32.4219 227.249 33.3984 227.765C34.3828 228.281 35.1445 228.991 35.6836 229.898C36.2305 230.804 36.5586 231.835 36.668 232.991H33.1523C33.1133 232.304 32.9766 231.722 32.7422 231.245C32.5078 230.761 32.1523 230.398 31.6758 230.156C31.207 229.906 30.582 229.781 29.8008 229.781C29.2148 229.781 28.7031 229.89 28.2656 230.109C27.8281 230.327 27.4609 230.659 27.1641 231.105C26.8672 231.55 26.6445 232.113 26.4961 232.792C26.3555 233.464 26.2852 234.253 26.2852 235.159V236.366C26.2852 237.249 26.3516 238.027 26.4844 238.698C26.6172 239.363 26.8203 239.925 27.0938 240.386C27.375 240.839 27.7344 241.183 28.1719 241.417C28.6172 241.644 29.1523 241.757 29.7773 241.757C30.5117 241.757 31.1172 241.64 31.5938 241.406C32.0703 241.171 32.4336 240.823 32.6836 240.363C32.9414 239.902 33.0938 239.327 33.1406 238.64ZM38.2031 238.089V237.843C38.2031 236.913 38.3359 236.058 38.6016 235.277C38.8672 234.488 39.2539 233.804 39.7617 233.226C40.2695 232.648 40.8945 232.198 41.6367 231.878C42.3789 231.55 43.2305 231.386 44.1914 231.386C45.1523 231.386 46.0078 231.55 46.7578 231.878C47.5078 232.198 48.1367 232.648 48.6445 233.226C49.1602 233.804 49.5508 234.488 49.8164 235.277C50.082 236.058 50.2148 236.913 50.2148 237.843V238.089C50.2148 239.011 50.082 239.866 49.8164 240.656C49.5508 241.437 49.1602 242.12 48.6445 242.706C48.1367 243.284 47.5117 243.734 46.7695 244.054C46.0273 244.374 45.1758 244.534 44.2148 244.534C43.2539 244.534 42.3984 244.374 41.6484 244.054C40.9062 243.734 40.2773 243.284 39.7617 242.706C39.2539 242.12 38.8672 241.437 38.6016 240.656C38.3359 239.866 38.2031 239.011 38.2031 238.089ZM41.5781 237.843V238.089C41.5781 238.62 41.625 239.116 41.7188 239.577C41.8125 240.038 41.9609 240.445 42.1641 240.796C42.375 241.14 42.6484 241.409 42.9844 241.605C43.3203 241.8 43.7305 241.898 44.2148 241.898C44.6836 241.898 45.0859 241.8 45.4219 241.605C45.7578 241.409 46.0273 241.14 46.2305 240.796C46.4336 240.445 46.582 240.038 46.6758 239.577C46.7773 239.116 46.8281 238.62 46.8281 238.089V237.843C46.8281 237.327 46.7773 236.843 46.6758 236.39C46.582 235.929 46.4297 235.523 46.2188 235.171C46.0156 234.812 45.7461 234.531 45.4102 234.327C45.0742 234.124 44.668 234.023 44.1914 234.023C43.7148 234.023 43.3086 234.124 42.9727 234.327C42.6445 234.531 42.375 234.812 42.1641 235.171C41.9609 235.523 41.8125 235.929 41.7188 236.39C41.625 236.843 41.5781 237.327 41.5781 237.843ZM55.9102 241.019L58.5469 231.62H60.6914L60 235.312L57.3633 244.3H55.5703L55.9102 241.019ZM54.5742 231.62L56.4609 241.007L56.6367 244.3H54.5273L51.3164 231.62H54.5742ZM63.1055 240.855L64.9453 231.62H68.2148L65.0039 244.3H62.9062L63.1055 240.855ZM60.9844 231.62L63.6094 240.948L63.9727 244.3H62.168L59.5312 235.323L58.8633 231.62H60.9844ZM69.375 238.089V237.843C69.375 236.913 69.5078 236.058 69.7734 235.277C70.0391 234.488 70.4258 233.804 70.9336 233.226C71.4414 232.648 72.0664 232.198 72.8086 231.878C73.5508 231.55 74.4023 231.386 75.3633 231.386C76.3242 231.386 77.1797 231.55 77.9297 231.878C78.6797 232.198 79.3086 232.648 79.8164 233.226C80.332 233.804 80.7227 234.488 80.9883 235.277C81.2539 236.058 81.3867 236.913 81.3867 237.843V238.089C81.3867 239.011 81.2539 239.866 80.9883 240.656C80.7227 241.437 80.332 242.12 79.8164 242.706C79.3086 243.284 78.6836 243.734 77.9414 244.054C77.1992 244.374 76.3477 244.534 75.3867 244.534C74.4258 244.534 73.5703 244.374 72.8203 244.054C72.0781 243.734 71.4492 243.284 70.9336 242.706C70.4258 242.12 70.0391 241.437 69.7734 240.656C69.5078 239.866 69.375 239.011 69.375 238.089ZM72.75 237.843V238.089C72.75 238.62 72.7969 239.116 72.8906 239.577C72.9844 240.038 73.1328 240.445 73.3359 240.796C73.5469 241.14 73.8203 241.409 74.1562 241.605C74.4922 241.8 74.9023 241.898 75.3867 241.898C75.8555 241.898 76.2578 241.8 76.5938 241.605C76.9297 241.409 77.1992 241.14 77.4023 240.796C77.6055 240.445 77.7539 240.038 77.8477 239.577C77.9492 239.116 78 238.62 78 238.089V237.843C78 237.327 77.9492 236.843 77.8477 236.39C77.7539 235.929 77.6016 235.523 77.3906 235.171C77.1875 234.812 76.918 234.531 76.582 234.327C76.2461 234.124 75.8398 234.023 75.3633 234.023C74.8867 234.023 74.4805 234.124 74.1445 234.327C73.8164 234.531 73.5469 234.812 73.3359 235.171C73.1328 235.523 72.9844 235.929 72.8906 236.39C72.7969 236.843 72.75 237.327 72.75 237.843ZM86.8359 234.386V244.3H83.4609V231.62H86.6367L86.8359 234.386ZM90.6562 231.538L90.5977 234.667C90.4336 234.644 90.2344 234.624 90 234.609C89.7734 234.585 89.5664 234.573 89.3789 234.573C88.9023 234.573 88.4883 234.636 88.1367 234.761C87.793 234.878 87.5039 235.054 87.2695 235.288C87.043 235.523 86.8711 235.808 86.7539 236.144C86.6445 236.48 86.582 236.863 86.5664 237.292L85.8867 237.081C85.8867 236.261 85.9688 235.507 86.1328 234.82C86.2969 234.124 86.5352 233.519 86.8477 233.003C87.168 232.488 87.5586 232.089 88.0195 231.808C88.4805 231.527 89.0078 231.386 89.6016 231.386C89.7891 231.386 89.9805 231.402 90.1758 231.433C90.3711 231.456 90.5312 231.491 90.6562 231.538ZM95.625 226.288V244.3H92.25V226.288H95.625ZM103.617 231.62L98.1094 237.902L95.1562 240.89L93.9258 238.452L96.2695 235.476L99.5625 231.62H103.617ZM100.113 244.3L96.3633 238.441L98.6953 236.402L104.004 244.3H100.113ZM108.633 231.62V244.3H105.246V231.62H108.633ZM105.035 228.316C105.035 227.823 105.207 227.417 105.551 227.097C105.895 226.777 106.355 226.616 106.934 226.616C107.504 226.616 107.961 226.777 108.305 227.097C108.656 227.417 108.832 227.823 108.832 228.316C108.832 228.808 108.656 229.214 108.305 229.534C107.961 229.855 107.504 230.015 106.934 230.015C106.355 230.015 105.895 229.855 105.551 229.534C105.207 229.214 105.035 228.808 105.035 228.316ZM114.727 234.327V244.3H111.352V231.62H114.516L114.727 234.327ZM114.234 237.515H113.32C113.32 236.577 113.441 235.734 113.684 234.984C113.926 234.226 114.266 233.581 114.703 233.05C115.141 232.511 115.66 232.101 116.262 231.82C116.871 231.531 117.551 231.386 118.301 231.386C118.895 231.386 119.438 231.472 119.93 231.644C120.422 231.816 120.844 232.089 121.195 232.464C121.555 232.839 121.828 233.335 122.016 233.952C122.211 234.57 122.309 235.323 122.309 236.214V244.3H118.91V236.202C118.91 235.64 118.832 235.202 118.676 234.89C118.52 234.577 118.289 234.359 117.984 234.234C117.688 234.101 117.32 234.034 116.883 234.034C116.43 234.034 116.035 234.124 115.699 234.304C115.371 234.484 115.098 234.734 114.879 235.054C114.668 235.366 114.508 235.734 114.398 236.156C114.289 236.577 114.234 237.031 114.234 237.515ZM132.902 231.62H135.961V243.878C135.961 245.034 135.703 246.015 135.188 246.82C134.68 247.632 133.969 248.245 133.055 248.659C132.141 249.081 131.078 249.292 129.867 249.292C129.336 249.292 128.773 249.222 128.18 249.081C127.594 248.941 127.031 248.722 126.492 248.425C125.961 248.128 125.516 247.753 125.156 247.3L126.645 245.308C127.035 245.761 127.488 246.113 128.004 246.363C128.52 246.62 129.09 246.749 129.715 246.749C130.324 246.749 130.84 246.636 131.262 246.409C131.684 246.191 132.008 245.866 132.234 245.437C132.461 245.015 132.574 244.503 132.574 243.902V234.55L132.902 231.62ZM124.371 238.113V237.866C124.371 236.898 124.488 236.019 124.723 235.23C124.965 234.433 125.305 233.749 125.742 233.179C126.188 232.609 126.727 232.167 127.359 231.855C127.992 231.542 128.707 231.386 129.504 231.386C130.348 231.386 131.055 231.542 131.625 231.855C132.195 232.167 132.664 232.613 133.031 233.191C133.398 233.761 133.684 234.437 133.887 235.218C134.098 235.991 134.262 236.839 134.379 237.761V238.3C134.262 239.183 134.086 240.003 133.852 240.761C133.617 241.519 133.309 242.183 132.926 242.753C132.543 243.316 132.066 243.753 131.496 244.066C130.934 244.378 130.262 244.534 129.48 244.534C128.699 244.534 127.992 244.374 127.359 244.054C126.734 243.734 126.199 243.284 125.754 242.706C125.309 242.128 124.965 241.448 124.723 240.667C124.488 239.886 124.371 239.034 124.371 238.113ZM127.746 237.866V238.113C127.746 238.636 127.797 239.124 127.898 239.577C128 240.031 128.156 240.433 128.367 240.784C128.586 241.128 128.855 241.398 129.176 241.593C129.504 241.781 129.891 241.874 130.336 241.874C130.953 241.874 131.457 241.745 131.848 241.488C132.238 241.222 132.531 240.859 132.727 240.398C132.922 239.937 133.035 239.406 133.066 238.804V237.269C133.051 236.777 132.984 236.335 132.867 235.945C132.75 235.546 132.586 235.206 132.375 234.925C132.164 234.644 131.891 234.425 131.555 234.269C131.219 234.113 130.82 234.034 130.359 234.034C129.914 234.034 129.527 234.136 129.199 234.339C128.879 234.534 128.609 234.804 128.391 235.148C128.18 235.491 128.02 235.898 127.91 236.366C127.801 236.827 127.746 237.327 127.746 237.866Z" fill="white"/>
</svg>
