<svg width="158" height="251" viewBox="0 0 158 251" fill="none" xmlns="http://www.w3.org/2000/svg">
<ellipse opacity="0.2" cx="79" cy="182" rx="79" ry="16" fill="black"/>
<path d="M56.0312 19.0557C54.8257 19.0557 53.6473 18.6983 52.645 18.0285C51.6426 17.3588 50.8614 16.4069 50.4001 15.2932C49.9388 14.1795 49.8181 12.954 50.0533 11.7716C50.2884 10.5893 50.8689 9.50331 51.7213 8.65091C52.5737 7.79851 53.6598 7.21802 54.8421 6.98284C56.0244 6.74766 57.2499 6.86836 58.3636 7.32968C59.4773 7.791 60.4292 8.57221 61.099 9.57452C61.7687 10.5768 62.1261 11.7552 62.1261 12.9607C62.1241 14.5766 61.4813 16.1257 60.3387 17.2683C59.1961 18.4109 57.647 19.0537 56.0312 19.0557V19.0557ZM56.0312 11.4802C55.7383 11.4802 55.4521 11.5671 55.2086 11.7297C54.9652 11.8924 54.7754 12.1236 54.6634 12.3942C54.5513 12.6647 54.522 12.9624 54.5791 13.2496C54.6362 13.5367 54.7772 13.8005 54.9843 14.0076C55.1913 14.2146 55.4551 14.3556 55.7423 14.4128C56.0295 14.4699 56.3272 14.4406 56.5977 14.3285C56.8682 14.2165 57.0995 14.0267 57.2621 13.7832C57.4248 13.5398 57.5116 13.2535 57.5116 12.9607C57.5116 12.7663 57.4733 12.5738 57.3989 12.3942C57.3245 12.2145 57.2155 12.0513 57.078 11.9139C56.9405 11.7764 56.7773 11.6673 56.5977 11.5929C56.4181 11.5185 56.2256 11.4802 56.0312 11.4802V11.4802Z" fill="#E7F6FF"/>
<path d="M66.9057 15.9276C68.0866 15.9276 69.0438 14.9704 69.0438 13.7895C69.0438 12.6087 68.0866 11.6515 66.9057 11.6515C65.7249 11.6515 64.7677 12.6087 64.7677 13.7895C64.7677 14.9704 65.7249 15.9276 66.9057 15.9276Z" fill="#E7F6FF"/>
<g opacity="0.5">
<path opacity="0.5" d="M97.8964 125.319V130.014C96.5389 134.332 94.4047 139.385 91.6014 144.957C90.4478 147.168 89.2134 149.502 87.8906 151.902C88.7942 150.364 89.6633 148.86 90.5016 147.361C89.5249 149.214 88.4905 151.141 87.3984 153.098V145.792L87.7214 145.18L87.3984 145.757V145.488C87.8854 144.568 88.3597 143.67 88.8212 142.796C91.8629 136.743 94.1202 131.31 95.4507 126.757C96.2774 126.291 97.0927 125.811 97.8964 125.319Z" fill="#BBD2E5"/>
</g>
<path d="M118.096 57.1274C118.05 78.4695 100.554 95.8816 79.2192 95.8354C60.742 95.797 45.1988 82.6687 41.4033 65.2874C41.0113 63.0541 40.817 60.7907 40.8227 58.5233C40.8688 37.1927 58.3655 19.7691 79.6961 19.8152C98.1541 19.8537 113.67 32.9473 117.5 50.2825C117.499 50.2914 117.499 50.3005 117.5 50.3094C117.901 52.5599 118.1 54.8415 118.096 57.1274V57.1274Z" fill="white"/>
<path d="M76.9428 3.25117C41.0612 3.17426 18.7077 25.7546 18.6193 61.3132C18.5962 72.3035 24.3874 89.4464 34.3547 110.15C38.8616 118.891 44.3528 128.608 50.121 138.31C57.2042 150.285 64.9374 162.263 72.6744 173.269L76.5429 178.453C77.8388 176.834 79.1347 175.222 80.4306 173.284C88.2176 161.99 95.9969 150.366 103.119 138.426C108.96 128.739 114.155 119.052 118.696 110.335C129.079 89.6694 134.943 72.5496 134.966 61.5593C135.078 26.9736 111.855 3.32808 76.9428 3.25117ZM76.739 96.9834C55.4046 96.9373 37.9848 79.4483 38.031 58.11C38.0771 36.7717 55.5738 19.3673 76.9082 19.4135C98.2426 19.4596 115.662 36.9525 115.616 58.2869C115.57 79.6213 98.0734 97.0411 76.739 96.9834Z" fill="#E47066"/>
<path d="M119.189 114.651C115.197 122.215 110.748 130.356 105.837 138.493C98.7041 150.433 90.9209 162.058 83.1493 173.352C81.8534 175.274 80.5575 176.901 79.2578 178.52L75.3777 173.34C67.6407 162.335 59.9076 150.356 52.8435 138.385C47.0408 128.672 41.5688 118.962 37.0773 110.225C27.0792 89.5139 21.288 72.3671 21.3111 61.3769C21.3418 46.7027 25.1565 34.2436 32.1705 24.6685C29.398 31.8902 27.9406 40.1155 27.9098 49.183C27.8867 60.1733 33.6779 77.32 43.6453 98.0199C48.1521 106.757 53.6242 116.478 59.4115 126.18C66.4948 138.151 74.2279 150.129 81.9611 161.135L85.8296 166.319C87.1293 164.7 88.4253 163.088 89.7212 161.15C97.5043 149.856 105.287 138.232 112.409 126.291C114.793 122.4 117.043 118.493 119.189 114.651Z" fill="#BE5A52"/>
<path d="M79.1693 182.3L73.1781 174.267C65.418 163.231 57.581 151.083 50.5093 139.131C44.4528 128.991 38.973 119.2 34.6546 110.833L34.6239 110.767C23.9797 88.6793 18.5961 71.8479 18.6192 60.7577C18.6577 42.5342 24.3873 27.2179 35.1545 16.4546C45.9217 5.69123 61.2265 0 79.4423 0H79.6307C97.4542 0.0384542 112.701 5.92195 123.688 17.0083C134.674 28.0947 140.415 43.2726 140.381 61.0077C140.358 72.2094 134.613 89.4946 123.826 110.998V111.033C119.773 118.812 114.332 129.049 108.168 139.274C100.531 152.056 92.3591 164.138 85.3758 174.267C84.0491 176.247 82.7109 177.916 81.4188 179.531L79.1693 182.3ZM77.558 171.148L79.3 173.482C79.8345 172.775 80.3652 172.037 80.8958 171.244C87.8368 161.123 95.9661 149.149 103.526 136.493C109.617 126.399 115.001 116.263 119.019 108.556C129.448 87.8141 134.97 71.3711 134.993 61C135.066 27.8063 112.809 5.45666 79.6192 5.38359H79.4423C45.3141 5.38359 24.0759 26.5873 24.0028 60.7577C23.9797 70.8904 29.3249 87.3604 39.4576 108.395C43.7183 116.659 49.1403 126.334 55.1507 136.378C62.1379 148.207 69.8864 160.223 77.558 171.121V171.148ZM79.5076 99.1389H79.4154C68.4105 99.1272 57.8609 94.7442 50.0876 86.9543C42.3142 79.1644 37.9538 68.6055 37.9655 57.6006C37.9773 46.5957 42.3602 36.0462 50.1501 28.2728C57.9401 20.4995 68.4989 16.1391 79.5038 16.1508H79.5961C87.8012 16.1595 95.8189 18.6039 102.633 23.1741C109.448 27.7444 114.752 34.2348 117.874 41.8227C120.996 49.4107 121.795 57.7547 120.169 65.7971C118.544 73.8396 114.568 81.2186 108.744 86.9989C104.912 90.8485 100.355 93.9019 95.3375 95.9834C90.3198 98.065 84.9399 99.1334 79.5076 99.1274V99.1389ZM79.5076 21.5575C69.9977 21.6449 60.9064 25.4815 54.209 32.2337C47.5116 38.9858 43.7491 48.108 43.739 57.6183C43.7288 67.1287 47.4719 76.2588 54.1549 83.0252C60.8379 89.7916 69.921 93.6475 79.4307 93.7553H79.5115C89.0886 93.765 98.2773 89.9698 105.056 83.2046C111.835 76.4394 115.649 67.2585 115.658 57.6814C115.668 48.1043 111.873 38.9156 105.108 32.1367C98.3426 25.3578 89.1616 21.5441 79.5846 21.5344L79.5076 21.5575Z" fill="#426572"/>
<path d="M74.875 40C73.781 40 72.7318 40.4346 71.9582 41.2082C71.1846 41.9818 70.75 43.031 70.75 44.125V45.5H61.125C60.031 45.5 58.9818 45.9346 58.2082 46.7082C57.4346 47.4818 57 48.531 57 49.625V53.431L77.9385 59.0135C78.634 59.1987 79.3659 59.1987 80.0615 59.0135L101 53.431V49.625C101 48.531 100.565 47.4818 99.7918 46.7082C99.0182 45.9346 97.969 45.5 96.875 45.5H87.25V44.125C87.25 43.031 86.8154 41.9818 86.0418 41.2082C85.2682 40.4346 84.219 40 83.125 40H74.875ZM74.875 42.75H83.125C83.4897 42.75 83.8394 42.8949 84.0973 43.1527C84.3551 43.4106 84.5 43.7603 84.5 44.125V45.5H73.5V44.125C73.5 43.7603 73.6449 43.4106 73.9027 43.1527C74.1606 42.8949 74.5103 42.75 74.875 42.75V42.75Z" fill="#282C4D"/>
<path d="M57 71.625C57 72.719 57.4346 73.7683 58.2082 74.5418C58.9818 75.3154 60.031 75.75 61.125 75.75H96.875C97.969 75.75 99.0182 75.3154 99.7918 74.5418C100.565 73.7683 101 72.719 101 71.625V56.0875L79.3547 61.8543C79.1223 61.9163 78.8777 61.9163 78.6452 61.8543L57 56.0875V71.625Z" fill="#282C4D"/>
<path d="M127.417 40.1836C128.531 42.8926 129.4 45.6962 130.012 48.5605C130.143 49.2209 130.243 49.8697 130.35 50.4801C130.458 51.0905 130.577 51.7163 130.615 52.3113L130.772 54.0313C130.815 54.5841 130.88 55.11 130.872 55.6168C130.872 56.6303 130.891 57.5363 130.872 58.3464C130.853 59.1564 130.757 59.8398 130.688 60.4003C130.542 61.5252 130.362 62.1394 130.162 62.1394C129.962 62.1394 129.751 61.5252 129.544 60.431C129.436 59.882 129.356 59.214 129.229 58.4424C129.102 57.6707 128.941 56.7954 128.795 55.8318C128.734 55.3481 128.611 54.849 128.511 54.3269L128.196 52.7029C128.108 52.1386 127.931 51.5704 127.812 50.9792C127.693 50.3879 127.536 49.7775 127.375 49.1594C126.647 46.4879 125.756 43.8634 124.707 41.3008C123.616 38.7573 122.36 36.2885 120.944 33.9105L119.965 32.3288L118.983 30.8585C118.675 30.3747 118.349 29.9332 118.038 29.5033C117.727 29.0733 117.439 28.651 117.147 28.2594C114.809 25.1344 113.197 23.2686 113.489 22.9499C113.781 22.6313 115.881 24.0095 118.729 26.9119C119.086 27.2728 119.436 27.6797 119.808 28.0828C120.18 28.4859 120.576 28.9236 120.933 29.3958C121.29 29.868 121.701 30.344 122.085 30.8508L123.236 32.4594C124.87 34.8967 126.27 37.483 127.417 40.1836V40.1836Z" fill="white"/>
<path d="M104.386 14.4156C106.943 15.8975 108.471 17.8516 107.995 18.4927C107.519 19.1338 105.308 18.343 102.908 16.9571C100.509 15.5712 98.7428 14.097 99.0308 13.3522C99.3187 12.6074 101.837 12.926 104.386 14.4156Z" fill="white"/>
<path d="M26.9766 238.64H30.4805C30.4102 239.788 30.0938 240.808 29.5312 241.698C28.9766 242.589 28.1992 243.284 27.1992 243.784C26.207 244.284 25.0117 244.534 23.6133 244.534C22.5195 244.534 21.5391 244.347 20.6719 243.972C19.8047 243.589 19.0625 243.042 18.4453 242.331C17.8359 241.62 17.3711 240.761 17.0508 239.753C16.7305 238.745 16.5703 237.616 16.5703 236.366V235.183C16.5703 233.933 16.7344 232.804 17.0625 231.796C17.3984 230.781 17.875 229.917 18.4922 229.206C19.1172 228.495 19.8633 227.948 20.7305 227.566C21.5977 227.183 22.5664 226.991 23.6367 226.991C25.0586 226.991 26.2578 227.249 27.2344 227.765C28.2188 228.281 28.9805 228.991 29.5195 229.898C30.0664 230.804 30.3945 231.835 30.5039 232.991H26.9883C26.9492 232.304 26.8125 231.722 26.5781 231.245C26.3438 230.761 25.9883 230.398 25.5117 230.156C25.043 229.906 24.418 229.781 23.6367 229.781C23.0508 229.781 22.5391 229.89 22.1016 230.109C21.6641 230.327 21.2969 230.659 21 231.105C20.7031 231.55 20.4805 232.113 20.332 232.792C20.1914 233.464 20.1211 234.253 20.1211 235.159V236.366C20.1211 237.249 20.1875 238.027 20.3203 238.698C20.4531 239.363 20.6562 239.925 20.9297 240.386C21.2109 240.839 21.5703 241.183 22.0078 241.417C22.4531 241.644 22.9883 241.757 23.6133 241.757C24.3477 241.757 24.9531 241.64 25.4297 241.406C25.9062 241.171 26.2695 240.823 26.5195 240.363C26.7773 239.902 26.9297 239.327 26.9766 238.64ZM32.0391 238.089V237.843C32.0391 236.913 32.1719 236.058 32.4375 235.277C32.7031 234.488 33.0898 233.804 33.5977 233.226C34.1055 232.648 34.7305 232.198 35.4727 231.878C36.2148 231.55 37.0664 231.386 38.0273 231.386C38.9883 231.386 39.8438 231.55 40.5938 231.878C41.3438 232.198 41.9727 232.648 42.4805 233.226C42.9961 233.804 43.3867 234.488 43.6523 235.277C43.918 236.058 44.0508 236.913 44.0508 237.843V238.089C44.0508 239.011 43.918 239.866 43.6523 240.656C43.3867 241.437 42.9961 242.12 42.4805 242.706C41.9727 243.284 41.3477 243.734 40.6055 244.054C39.8633 244.374 39.0117 244.534 38.0508 244.534C37.0898 244.534 36.2344 244.374 35.4844 244.054C34.7422 243.734 34.1133 243.284 33.5977 242.706C33.0898 242.12 32.7031 241.437 32.4375 240.656C32.1719 239.866 32.0391 239.011 32.0391 238.089ZM35.4141 237.843V238.089C35.4141 238.62 35.4609 239.116 35.5547 239.577C35.6484 240.038 35.7969 240.445 36 240.796C36.2109 241.14 36.4844 241.409 36.8203 241.605C37.1562 241.8 37.5664 241.898 38.0508 241.898C38.5195 241.898 38.9219 241.8 39.2578 241.605C39.5938 241.409 39.8633 241.14 40.0664 240.796C40.2695 240.445 40.418 240.038 40.5117 239.577C40.6133 239.116 40.6641 238.62 40.6641 238.089V237.843C40.6641 237.327 40.6133 236.843 40.5117 236.39C40.418 235.929 40.2656 235.523 40.0547 235.171C39.8516 234.812 39.582 234.531 39.2461 234.327C38.9102 234.124 38.5039 234.023 38.0273 234.023C37.5508 234.023 37.1445 234.124 36.8086 234.327C36.4805 234.531 36.2109 234.812 36 235.171C35.7969 235.523 35.6484 235.929 35.5547 236.39C35.4609 236.843 35.4141 237.327 35.4141 237.843ZM49.7461 241.019L52.3828 231.62H54.5273L53.8359 235.312L51.1992 244.3H49.4062L49.7461 241.019ZM48.4102 231.62L50.2969 241.007L50.4727 244.3H48.3633L45.1523 231.62H48.4102ZM56.9414 240.855L58.7812 231.62H62.0508L58.8398 244.3H56.7422L56.9414 240.855ZM54.8203 231.62L57.4453 240.948L57.8086 244.3H56.0039L53.3672 235.323L52.6992 231.62H54.8203ZM63.2109 238.089V237.843C63.2109 236.913 63.3438 236.058 63.6094 235.277C63.875 234.488 64.2617 233.804 64.7695 233.226C65.2773 232.648 65.9023 232.198 66.6445 231.878C67.3867 231.55 68.2383 231.386 69.1992 231.386C70.1602 231.386 71.0156 231.55 71.7656 231.878C72.5156 232.198 73.1445 232.648 73.6523 233.226C74.168 233.804 74.5586 234.488 74.8242 235.277C75.0898 236.058 75.2227 236.913 75.2227 237.843V238.089C75.2227 239.011 75.0898 239.866 74.8242 240.656C74.5586 241.437 74.168 242.12 73.6523 242.706C73.1445 243.284 72.5195 243.734 71.7773 244.054C71.0352 244.374 70.1836 244.534 69.2227 244.534C68.2617 244.534 67.4062 244.374 66.6562 244.054C65.9141 243.734 65.2852 243.284 64.7695 242.706C64.2617 242.12 63.875 241.437 63.6094 240.656C63.3438 239.866 63.2109 239.011 63.2109 238.089ZM66.5859 237.843V238.089C66.5859 238.62 66.6328 239.116 66.7266 239.577C66.8203 240.038 66.9688 240.445 67.1719 240.796C67.3828 241.14 67.6562 241.409 67.9922 241.605C68.3281 241.8 68.7383 241.898 69.2227 241.898C69.6914 241.898 70.0938 241.8 70.4297 241.605C70.7656 241.409 71.0352 241.14 71.2383 240.796C71.4414 240.445 71.5898 240.038 71.6836 239.577C71.7852 239.116 71.8359 238.62 71.8359 238.089V237.843C71.8359 237.327 71.7852 236.843 71.6836 236.39C71.5898 235.929 71.4375 235.523 71.2266 235.171C71.0234 234.812 70.7539 234.531 70.418 234.327C70.082 234.124 69.6758 234.023 69.1992 234.023C68.7227 234.023 68.3164 234.124 67.9805 234.327C67.6523 234.531 67.3828 234.812 67.1719 235.171C66.9688 235.523 66.8203 235.929 66.7266 236.39C66.6328 236.843 66.5859 237.327 66.5859 237.843ZM80.6719 234.386V244.3H77.2969V231.62H80.4727L80.6719 234.386ZM84.4922 231.538L84.4336 234.667C84.2695 234.644 84.0703 234.624 83.8359 234.609C83.6094 234.585 83.4023 234.573 83.2148 234.573C82.7383 234.573 82.3242 234.636 81.9727 234.761C81.6289 234.878 81.3398 235.054 81.1055 235.288C80.8789 235.523 80.707 235.808 80.5898 236.144C80.4805 236.48 80.418 236.863 80.4023 237.292L79.7227 237.081C79.7227 236.261 79.8047 235.507 79.9688 234.82C80.1328 234.124 80.3711 233.519 80.6836 233.003C81.0039 232.488 81.3945 232.089 81.8555 231.808C82.3164 231.527 82.8438 231.386 83.4375 231.386C83.625 231.386 83.8164 231.402 84.0117 231.433C84.207 231.456 84.3672 231.491 84.4922 231.538ZM89.4609 226.288V244.3H86.0859V226.288H89.4609ZM97.4531 231.62L91.9453 237.902L88.9922 240.89L87.7617 238.452L90.1055 235.476L93.3984 231.62H97.4531ZM93.9492 244.3L90.1992 238.441L92.5312 236.402L97.8398 244.3H93.9492ZM102.469 231.62V244.3H99.082V231.62H102.469ZM98.8711 228.316C98.8711 227.823 99.043 227.417 99.3867 227.097C99.7305 226.777 100.191 226.616 100.77 226.616C101.34 226.616 101.797 226.777 102.141 227.097C102.492 227.417 102.668 227.823 102.668 228.316C102.668 228.808 102.492 229.214 102.141 229.534C101.797 229.855 101.34 230.015 100.77 230.015C100.191 230.015 99.7305 229.855 99.3867 229.534C99.043 229.214 98.8711 228.808 98.8711 228.316ZM108.562 234.327V244.3H105.188V231.62H108.352L108.562 234.327ZM108.07 237.515H107.156C107.156 236.577 107.277 235.734 107.52 234.984C107.762 234.226 108.102 233.581 108.539 233.05C108.977 232.511 109.496 232.101 110.098 231.82C110.707 231.531 111.387 231.386 112.137 231.386C112.73 231.386 113.273 231.472 113.766 231.644C114.258 231.816 114.68 232.089 115.031 232.464C115.391 232.839 115.664 233.335 115.852 233.952C116.047 234.57 116.145 235.323 116.145 236.214V244.3H112.746V236.202C112.746 235.64 112.668 235.202 112.512 234.89C112.355 234.577 112.125 234.359 111.82 234.234C111.523 234.101 111.156 234.034 110.719 234.034C110.266 234.034 109.871 234.124 109.535 234.304C109.207 234.484 108.934 234.734 108.715 235.054C108.504 235.366 108.344 235.734 108.234 236.156C108.125 236.577 108.07 237.031 108.07 237.515ZM126.738 231.62H129.797V243.878C129.797 245.034 129.539 246.015 129.023 246.82C128.516 247.632 127.805 248.245 126.891 248.659C125.977 249.081 124.914 249.292 123.703 249.292C123.172 249.292 122.609 249.222 122.016 249.081C121.43 248.941 120.867 248.722 120.328 248.425C119.797 248.128 119.352 247.753 118.992 247.3L120.48 245.308C120.871 245.761 121.324 246.113 121.84 246.363C122.355 246.62 122.926 246.749 123.551 246.749C124.16 246.749 124.676 246.636 125.098 246.409C125.52 246.191 125.844 245.866 126.07 245.437C126.297 245.015 126.41 244.503 126.41 243.902V234.55L126.738 231.62ZM118.207 238.113V237.866C118.207 236.898 118.324 236.019 118.559 235.23C118.801 234.433 119.141 233.749 119.578 233.179C120.023 232.609 120.562 232.167 121.195 231.855C121.828 231.542 122.543 231.386 123.34 231.386C124.184 231.386 124.891 231.542 125.461 231.855C126.031 232.167 126.5 232.613 126.867 233.191C127.234 233.761 127.52 234.437 127.723 235.218C127.934 235.991 128.098 236.839 128.215 237.761V238.3C128.098 239.183 127.922 240.003 127.688 240.761C127.453 241.519 127.145 242.183 126.762 242.753C126.379 243.316 125.902 243.753 125.332 244.066C124.77 244.378 124.098 244.534 123.316 244.534C122.535 244.534 121.828 244.374 121.195 244.054C120.57 243.734 120.035 243.284 119.59 242.706C119.145 242.128 118.801 241.448 118.559 240.667C118.324 239.886 118.207 239.034 118.207 238.113ZM121.582 237.866V238.113C121.582 238.636 121.633 239.124 121.734 239.577C121.836 240.031 121.992 240.433 122.203 240.784C122.422 241.128 122.691 241.398 123.012 241.593C123.34 241.781 123.727 241.874 124.172 241.874C124.789 241.874 125.293 241.745 125.684 241.488C126.074 241.222 126.367 240.859 126.562 240.398C126.758 239.937 126.871 239.406 126.902 238.804V237.269C126.887 236.777 126.82 236.335 126.703 235.945C126.586 235.546 126.422 235.206 126.211 234.925C126 234.644 125.727 234.425 125.391 234.269C125.055 234.113 124.656 234.034 124.195 234.034C123.75 234.034 123.363 234.136 123.035 234.339C122.715 234.534 122.445 234.804 122.227 235.148C122.016 235.491 121.855 235.898 121.746 236.366C121.637 236.827 121.582 237.327 121.582 237.866ZM139.277 240.796C139.277 240.554 139.207 240.335 139.066 240.14C138.926 239.945 138.664 239.765 138.281 239.601C137.906 239.429 137.363 239.273 136.652 239.132C136.012 238.991 135.414 238.816 134.859 238.605C134.312 238.386 133.836 238.124 133.43 237.82C133.031 237.515 132.719 237.156 132.492 236.741C132.266 236.32 132.152 235.839 132.152 235.3C132.152 234.769 132.266 234.269 132.492 233.8C132.727 233.331 133.059 232.917 133.488 232.558C133.926 232.191 134.457 231.906 135.082 231.702C135.715 231.491 136.426 231.386 137.215 231.386C138.316 231.386 139.262 231.562 140.051 231.913C140.848 232.265 141.457 232.749 141.879 233.366C142.309 233.976 142.523 234.671 142.523 235.452H139.148C139.148 235.124 139.078 234.831 138.938 234.573C138.805 234.308 138.594 234.101 138.305 233.952C138.023 233.796 137.656 233.718 137.203 233.718C136.828 233.718 136.504 233.784 136.23 233.917C135.957 234.042 135.746 234.214 135.598 234.433C135.457 234.644 135.387 234.878 135.387 235.136C135.387 235.331 135.426 235.507 135.504 235.663C135.59 235.812 135.727 235.948 135.914 236.073C136.102 236.198 136.344 236.316 136.641 236.425C136.945 236.527 137.32 236.62 137.766 236.706C138.68 236.894 139.496 237.14 140.215 237.445C140.934 237.741 141.504 238.148 141.926 238.663C142.348 239.171 142.559 239.839 142.559 240.667C142.559 241.23 142.434 241.745 142.184 242.214C141.934 242.683 141.574 243.093 141.105 243.445C140.637 243.788 140.074 244.058 139.418 244.253C138.77 244.441 138.039 244.534 137.227 244.534C136.047 244.534 135.047 244.323 134.227 243.902C133.414 243.48 132.797 242.945 132.375 242.296C131.961 241.64 131.754 240.968 131.754 240.281H134.953C134.969 240.741 135.086 241.113 135.305 241.394C135.531 241.675 135.816 241.878 136.16 242.003C136.512 242.128 136.891 242.191 137.297 242.191C137.734 242.191 138.098 242.132 138.387 242.015C138.676 241.89 138.895 241.726 139.043 241.523C139.199 241.312 139.277 241.07 139.277 240.796Z" fill="white"/>
</svg>
