<svg width="158" height="251" viewBox="0 0 158 251" fill="none" xmlns="http://www.w3.org/2000/svg">
<ellipse opacity="0.2" cx="79" cy="183" rx="79" ry="16" fill="black"/>
<path d="M56.0311 19.0557C54.8257 19.0557 53.6473 18.6983 52.6449 18.0285C51.6426 17.3588 50.8614 16.4069 50.4001 15.2932C49.9388 14.1795 49.8181 12.954 50.0533 11.7716C50.2884 10.5893 50.8689 9.50331 51.7213 8.65091C52.5737 7.79851 53.6598 7.21802 54.8421 6.98284C56.0244 6.74766 57.2499 6.86836 58.3636 7.32968C59.4773 7.791 60.4292 8.57221 61.0989 9.57452C61.7687 10.5768 62.1261 11.7552 62.1261 12.9607C62.1241 14.5766 61.4813 16.1257 60.3387 17.2683C59.1961 18.4109 57.647 19.0537 56.0311 19.0557V19.0557ZM56.0311 11.4802C55.7383 11.4802 55.4521 11.5671 55.2086 11.7297C54.9652 11.8924 54.7754 12.1236 54.6633 12.3942C54.5513 12.6647 54.522 12.9624 54.5791 13.2496C54.6362 13.5367 54.7772 13.8005 54.9843 14.0076C55.1913 14.2146 55.4551 14.3556 55.7423 14.4128C56.0295 14.4699 56.3272 14.4406 56.5977 14.3285C56.8682 14.2165 57.0994 14.0267 57.2621 13.7832C57.4248 13.5398 57.5116 13.2535 57.5116 12.9607C57.5116 12.7663 57.4733 12.5738 57.3989 12.3942C57.3245 12.2145 57.2155 12.0513 57.078 11.9139C56.9405 11.7764 56.7773 11.6673 56.5977 11.5929C56.4181 11.5185 56.2256 11.4802 56.0311 11.4802V11.4802Z" fill="#E7F6FF"/>
<path d="M66.9059 15.9276C68.0867 15.9276 69.044 14.9704 69.044 13.7895C69.044 12.6087 68.0867 11.6515 66.9059 11.6515C65.7251 11.6515 64.7678 12.6087 64.7678 13.7895C64.7678 14.9704 65.7251 15.9276 66.9059 15.9276Z" fill="#E7F6FF"/>
<g opacity="0.5">
<path opacity="0.5" d="M97.8965 125.319V130.014C96.5391 134.332 94.4049 139.385 91.6015 144.957C90.4479 147.168 89.2135 149.502 87.8907 151.902C88.7944 150.364 89.6635 148.86 90.5018 147.361C89.525 149.214 88.4906 151.141 87.3985 153.098V145.792L87.7215 145.18L87.3985 145.757V145.488C87.8856 144.568 88.3599 143.67 88.8213 142.796C91.863 136.743 94.1203 131.31 95.4508 126.757C96.2776 126.291 97.0928 125.811 97.8965 125.319Z" fill="#BBD2E5"/>
</g>
<path d="M118.096 57.1274C118.05 78.4695 100.554 95.8816 79.2192 95.8354C60.7419 95.797 45.1987 82.6687 41.4033 65.2874C41.0112 63.0541 40.8169 60.7907 40.8226 58.5233C40.8688 37.1927 58.3654 19.7691 79.696 19.8152C98.154 19.8537 113.67 32.9473 117.5 50.2825C117.499 50.2914 117.499 50.3005 117.5 50.3094C117.901 52.5599 118.1 54.8415 118.096 57.1274V57.1274Z" fill="white"/>
<path d="M76.9427 3.25166C41.0611 3.17475 18.7076 25.7551 18.6192 61.3137C18.5961 72.304 24.3873 89.4469 34.3547 110.151C38.8615 118.891 44.3528 128.609 50.1209 138.311C57.2042 150.285 64.9373 162.264 72.6743 173.269L76.5428 178.453C77.8387 176.834 79.1346 175.223 80.4305 173.285C88.2175 161.991 95.9968 150.366 103.119 138.426C108.96 128.739 114.155 119.053 118.696 110.335C129.079 89.6699 134.943 72.5501 134.966 61.5598C135.078 26.9741 111.855 3.32857 76.9427 3.25166ZM76.7389 96.9839C55.4045 96.9377 37.9847 79.4488 38.0309 58.1105C38.077 36.7722 55.5737 19.3678 76.9081 19.414C98.2425 19.4601 115.662 36.953 115.616 58.2874C115.57 79.6218 98.0733 97.0416 76.7389 96.9839Z" fill="#9FF3CB"/>
<path d="M119.189 114.651C115.197 122.215 110.748 130.356 105.837 138.493C98.7042 150.433 90.9211 162.058 83.1495 173.352C81.8536 175.274 80.5577 176.901 79.2579 178.52L75.3779 173.34C67.6409 162.335 59.9077 150.356 52.8437 138.385C47.0409 128.672 41.5689 118.962 37.0775 110.225C27.0793 89.5139 21.2881 72.3671 21.3112 61.3769C21.342 46.7027 25.1566 34.2436 32.1707 24.6685C29.3981 31.8902 27.9407 40.1155 27.91 49.183C27.8869 60.1733 33.6781 77.32 43.6454 98.0199C48.1523 106.757 53.6243 116.478 59.4117 126.18C66.4949 138.151 74.2281 150.129 81.9613 161.135L85.8297 166.319C87.1295 164.7 88.4254 163.088 89.7213 161.15C97.5045 149.856 105.288 138.232 112.409 126.291C114.793 122.4 117.043 118.493 119.189 114.651Z" fill="#88C9AA"/>
<path d="M79.1693 182.3L73.1781 174.267C65.418 163.231 57.581 151.083 50.5093 139.131C44.4528 128.991 38.973 119.2 34.6546 110.833L34.6239 110.767C23.9797 88.6793 18.5961 71.8479 18.6192 60.7577C18.6577 42.5342 24.3873 27.2179 35.1545 16.4546C45.9217 5.69123 61.2265 0 79.4423 0H79.6307C97.4542 0.0384542 112.701 5.92195 123.688 17.0083C134.674 28.0947 140.415 43.2726 140.381 61.0077C140.358 72.2094 134.613 89.4946 123.826 110.998V111.033C119.773 118.812 114.332 129.049 108.168 139.274C100.531 152.056 92.3591 164.138 85.3758 174.267C84.0491 176.247 82.7109 177.916 81.4188 179.531L79.1693 182.3ZM77.558 171.148L79.3 173.482C79.8345 172.775 80.3652 172.037 80.8958 171.244C87.8368 161.123 95.9661 149.149 103.526 136.493C109.617 126.399 115.001 116.263 119.019 108.556C129.448 87.8141 134.97 71.3711 134.993 61C135.066 27.8063 112.809 5.45666 79.6192 5.38359H79.4423C45.3141 5.38359 24.0759 26.5873 24.0028 60.7577C23.9797 70.8904 29.3249 87.3604 39.4576 108.395C43.7183 116.659 49.1403 126.334 55.1507 136.378C62.1379 148.207 69.8864 160.223 77.558 171.121V171.148ZM79.5076 99.1389H79.4154C68.4105 99.1272 57.8609 94.7442 50.0876 86.9543C42.3142 79.1644 37.9538 68.6055 37.9655 57.6006C37.9773 46.5957 42.3602 36.0462 50.1501 28.2728C57.9401 20.4995 68.4989 16.1391 79.5038 16.1508H79.5961C87.8012 16.1595 95.8189 18.6039 102.633 23.1741C109.448 27.7444 114.752 34.2348 117.874 41.8227C120.996 49.4107 121.795 57.7547 120.169 65.7971C118.544 73.8396 114.568 81.2186 108.744 86.9989C104.912 90.8485 100.355 93.9019 95.3375 95.9834C90.3198 98.065 84.9399 99.1334 79.5076 99.1274V99.1389ZM79.5076 21.5575C69.9977 21.6449 60.9064 25.4815 54.209 32.2337C47.5116 38.9858 43.7491 48.108 43.739 57.6183C43.7288 67.1287 47.4719 76.2588 54.1549 83.0252C60.8379 89.7916 69.921 93.6475 79.4307 93.7553H79.5115C89.0886 93.765 98.2773 89.9698 105.056 83.2046C111.835 76.4394 115.649 67.2585 115.658 57.6814C115.668 48.1043 111.873 38.9156 105.108 32.1367C98.3426 25.3578 89.1616 21.5441 79.5846 21.5344L79.5076 21.5575Z" fill="#426572"/>
<path d="M65.4643 76H60.9643C60.7085 76 60.4633 75.8984 60.2824 75.7176C60.1016 75.5367 60 75.2915 60 75.0357V44.8214C60 44.5657 60.1016 44.3204 60.2824 44.1396C60.4633 43.9587 60.7085 43.8571 60.9643 43.8571H65.4643C65.72 43.8571 65.9653 43.9587 66.1461 44.1396C66.327 44.3204 66.4286 44.5657 66.4286 44.8214V75.0357C66.4286 75.2915 66.327 75.5367 66.1461 75.7176C65.9653 75.8984 65.72 76 65.4643 76ZM78 54.1429V49.9643C78 49.7085 77.8984 49.4633 77.7176 49.2824C77.5367 49.1016 77.2914 49 77.0357 49H68.6786C68.4228 49 68.1775 49.1016 67.9967 49.2824C67.8159 49.4633 67.7143 49.7085 67.7143 49.9643V54.1429H78ZM67.7143 70.8571V75.0357C67.7143 75.2915 67.8159 75.5367 67.9967 75.7176C68.1775 75.8984 68.4228 76 68.6786 76H77.0357C77.2914 76 77.5367 75.8984 77.7176 75.7176C77.8984 75.5367 78 75.2915 78 75.0357V70.8571H67.7143ZM67.7143 56.7143H78V68.2857H67.7143V56.7143ZM86.0357 76H80.25C79.9942 76 79.749 75.8984 79.5681 75.7176C79.3873 75.5367 79.2857 75.2915 79.2857 75.0357V40.9643C79.2857 40.7085 79.3873 40.4633 79.5681 40.2824C79.749 40.1016 79.9942 40 80.25 40H86.0357C86.2914 40 86.5367 40.1016 86.7176 40.2824C86.8984 40.4633 87 40.7085 87 40.9643V75.0357C87 75.2915 86.8984 75.5367 86.7176 75.7176C86.5367 75.8984 86.2914 76 86.0357 76ZM88.3661 45.5205L90.7768 75.0783C90.7875 75.2079 90.8243 75.334 90.885 75.4491C90.9457 75.5641 91.029 75.6656 91.13 75.7476C91.231 75.8296 91.3475 75.8903 91.4725 75.9261C91.5975 75.9618 91.7285 75.972 91.8576 75.9558L97.6561 75.2326C97.903 75.2017 98.1284 75.0766 98.2852 74.8834C98.442 74.6902 98.5181 74.4439 98.4975 74.196L96.0803 44.7579C96.0697 44.6301 96.0336 44.5056 95.9743 44.3919C95.9149 44.2781 95.8335 44.1774 95.7347 44.0955C95.6359 44.0136 95.5218 43.9523 95.399 43.9151C95.2762 43.8779 95.1472 43.8656 95.0196 43.8788L89.2235 44.4823C88.9734 44.5093 88.7437 44.633 88.5835 44.827C88.4234 45.021 88.3453 45.2698 88.3661 45.5205V45.5205Z" fill="#282C4D"/>
<path d="M127.417 40.1836C128.531 42.8926 129.4 45.6962 130.012 48.5605C130.143 49.2209 130.243 49.8697 130.35 50.4801C130.458 51.0905 130.577 51.7163 130.615 52.3113L130.772 54.0313C130.815 54.5841 130.88 55.11 130.872 55.6168C130.872 56.6303 130.891 57.5363 130.872 58.3464C130.853 59.1564 130.757 59.8398 130.688 60.4003C130.542 61.5252 130.362 62.1394 130.162 62.1394C129.962 62.1394 129.751 61.5252 129.544 60.431C129.436 59.882 129.356 59.214 129.229 58.4424C129.102 57.6707 128.941 56.7954 128.795 55.8318C128.734 55.3481 128.611 54.849 128.511 54.3269L128.196 52.7029C128.108 52.1386 127.931 51.5704 127.812 50.9792C127.693 50.3879 127.536 49.7775 127.375 49.1594C126.647 46.4879 125.756 43.8634 124.707 41.3008C123.616 38.7573 122.36 36.2885 120.944 33.9105L119.965 32.3288L118.983 30.8585C118.675 30.3747 118.349 29.9332 118.038 29.5033C117.727 29.0733 117.439 28.651 117.147 28.2594C114.809 25.1344 113.197 23.2686 113.489 22.9499C113.781 22.6313 115.881 24.0095 118.729 26.9119C119.086 27.2728 119.436 27.6797 119.808 28.0828C120.18 28.4859 120.576 28.9236 120.933 29.3958C121.29 29.868 121.701 30.344 122.085 30.8508L123.236 32.4594C124.87 34.8967 126.27 37.483 127.417 40.1836V40.1836Z" fill="white"/>
<path d="M104.386 14.4156C106.943 15.8975 108.471 17.8516 107.995 18.4927C107.519 19.1338 105.308 18.343 102.908 16.9571C100.509 15.5712 98.7428 14.097 99.0308 13.3522C99.3187 12.6074 101.837 12.926 104.386 14.4156Z" fill="white"/>
<path d="M27.5977 236.812H23.2148L23.1914 234.398H26.8711C27.5195 234.398 28.0508 234.316 28.4648 234.152C28.8789 233.98 29.1875 233.734 29.3906 233.413C29.6016 233.085 29.707 232.687 29.707 232.218C29.707 231.687 29.6055 231.257 29.4023 230.929C29.207 230.601 28.8984 230.363 28.4766 230.214C28.0625 230.066 27.5273 229.991 26.8711 229.991H24.4336V244.3H20.918V227.238H26.8711C27.8633 227.238 28.75 227.331 29.5312 227.519C30.3203 227.706 30.9883 227.991 31.5352 228.374C32.082 228.757 32.5 229.241 32.7891 229.827C33.0781 230.406 33.2227 231.093 33.2227 231.89C33.2227 232.593 33.0625 233.241 32.7422 233.835C32.4297 234.429 31.9336 234.913 31.2539 235.288C30.582 235.663 29.7031 235.87 28.6172 235.909L27.5977 236.812ZM27.4453 244.3H22.2539L23.625 241.558H27.4453C28.0625 241.558 28.5664 241.46 28.957 241.265C29.3477 241.062 29.6367 240.788 29.8242 240.445C30.0117 240.101 30.1055 239.706 30.1055 239.261C30.1055 238.761 30.0195 238.327 29.8477 237.96C29.6836 237.593 29.418 237.312 29.0508 237.116C28.6836 236.913 28.1992 236.812 27.5977 236.812H24.2109L24.2344 234.398H28.4531L29.2617 235.347C30.3008 235.331 31.1367 235.515 31.7695 235.898C32.4102 236.273 32.875 236.761 33.1641 237.363C33.4609 237.964 33.6094 238.609 33.6094 239.296C33.6094 240.39 33.3711 241.312 32.8945 242.062C32.418 242.804 31.7188 243.363 30.7969 243.738C29.8828 244.113 28.7656 244.3 27.4453 244.3ZM39.5977 231.62V244.3H36.2109V231.62H39.5977ZM36 228.316C36 227.823 36.1719 227.417 36.5156 227.097C36.8594 226.777 37.3203 226.616 37.8984 226.616C38.4688 226.616 38.9258 226.777 39.2695 227.097C39.6211 227.417 39.7969 227.823 39.7969 228.316C39.7969 228.808 39.6211 229.214 39.2695 229.534C38.9258 229.855 38.4688 230.015 37.8984 230.015C37.3203 230.015 36.8594 229.855 36.5156 229.534C36.1719 229.214 36 228.808 36 228.316ZM42.3867 226.3H45.7617V241.394L45.4219 244.3H42.3867V226.3ZM53.7891 237.831V238.077C53.7891 239.023 53.6875 239.89 53.4844 240.679C53.2891 241.468 52.9844 242.152 52.5703 242.73C52.1562 243.3 51.6406 243.745 51.0234 244.066C50.4141 244.378 49.6953 244.534 48.8672 244.534C48.0938 244.534 47.4219 244.378 46.8516 244.066C46.2891 243.753 45.8164 243.312 45.4336 242.741C45.0508 242.171 44.7422 241.503 44.5078 240.738C44.2734 239.972 44.0977 239.136 43.9805 238.23V237.691C44.0977 236.784 44.2734 235.948 44.5078 235.183C44.7422 234.417 45.0508 233.749 45.4336 233.179C45.8164 232.609 46.2891 232.167 46.8516 231.855C47.4141 231.542 48.0781 231.386 48.8438 231.386C49.6797 231.386 50.4062 231.546 51.0234 231.866C51.6484 232.179 52.1641 232.624 52.5703 233.202C52.9844 233.773 53.2891 234.452 53.4844 235.241C53.6875 236.023 53.7891 236.886 53.7891 237.831ZM50.4141 238.077V237.831C50.4141 237.316 50.375 236.831 50.2969 236.378C50.2266 235.917 50.1016 235.515 49.9219 235.171C49.7422 234.82 49.4961 234.542 49.1836 234.339C48.8789 234.136 48.4844 234.034 48 234.034C47.5391 234.034 47.1484 234.113 46.8281 234.269C46.5078 234.425 46.2422 234.644 46.0312 234.925C45.8281 235.206 45.6758 235.542 45.5742 235.933C45.4727 236.316 45.4102 236.738 45.3867 237.198V238.734C45.4102 239.351 45.5117 239.898 45.6914 240.374C45.8789 240.843 46.1602 241.214 46.5352 241.488C46.918 241.753 47.4141 241.886 48.0234 241.886C48.5 241.886 48.8945 241.792 49.207 241.605C49.5195 241.417 49.7617 241.152 49.9336 240.808C50.1133 240.464 50.2383 240.062 50.3086 239.601C50.3789 239.132 50.4141 238.624 50.4141 238.077ZM59.4492 226.3V244.3H56.0625V226.3H59.4492ZM65.8008 231.62V244.3H62.4141V231.62H65.8008ZM62.2031 228.316C62.2031 227.823 62.375 227.417 62.7188 227.097C63.0625 226.777 63.5234 226.616 64.1016 226.616C64.6719 226.616 65.1289 226.777 65.4727 227.097C65.8242 227.417 66 227.823 66 228.316C66 228.808 65.8242 229.214 65.4727 229.534C65.1289 229.855 64.6719 230.015 64.1016 230.015C63.5234 230.015 63.0625 229.855 62.7188 229.534C62.375 229.214 62.2031 228.808 62.2031 228.316ZM68.0508 238.089V237.843C68.0508 236.913 68.1836 236.058 68.4492 235.277C68.7148 234.488 69.1016 233.804 69.6094 233.226C70.1172 232.648 70.7422 232.198 71.4844 231.878C72.2266 231.55 73.0781 231.386 74.0391 231.386C75 231.386 75.8555 231.55 76.6055 231.878C77.3555 232.198 77.9844 232.648 78.4922 233.226C79.0078 233.804 79.3984 234.488 79.6641 235.277C79.9297 236.058 80.0625 236.913 80.0625 237.843V238.089C80.0625 239.011 79.9297 239.866 79.6641 240.656C79.3984 241.437 79.0078 242.12 78.4922 242.706C77.9844 243.284 77.3594 243.734 76.6172 244.054C75.875 244.374 75.0234 244.534 74.0625 244.534C73.1016 244.534 72.2461 244.374 71.4961 244.054C70.7539 243.734 70.125 243.284 69.6094 242.706C69.1016 242.12 68.7148 241.437 68.4492 240.656C68.1836 239.866 68.0508 239.011 68.0508 238.089ZM71.4258 237.843V238.089C71.4258 238.62 71.4727 239.116 71.5664 239.577C71.6602 240.038 71.8086 240.445 72.0117 240.796C72.2227 241.14 72.4961 241.409 72.832 241.605C73.168 241.8 73.5781 241.898 74.0625 241.898C74.5312 241.898 74.9336 241.8 75.2695 241.605C75.6055 241.409 75.875 241.14 76.0781 240.796C76.2812 240.445 76.4297 240.038 76.5234 239.577C76.625 239.116 76.6758 238.62 76.6758 238.089V237.843C76.6758 237.327 76.625 236.843 76.5234 236.39C76.4297 235.929 76.2773 235.523 76.0664 235.171C75.8633 234.812 75.5938 234.531 75.2578 234.327C74.9219 234.124 74.5156 234.023 74.0391 234.023C73.5625 234.023 73.1562 234.124 72.8203 234.327C72.4922 234.531 72.2227 234.812 72.0117 235.171C71.8086 235.523 71.6602 235.929 71.5664 236.39C71.4727 236.843 71.4258 237.327 71.4258 237.843ZM88.3477 231.62V234.011H80.9648V231.62H88.3477ZM82.793 228.491H86.168V240.48C86.168 240.847 86.2148 241.128 86.3086 241.323C86.4102 241.519 86.5586 241.656 86.7539 241.734C86.9492 241.804 87.1953 241.839 87.4922 241.839C87.7031 241.839 87.8906 241.831 88.0547 241.816C88.2266 241.792 88.3711 241.769 88.4883 241.745L88.5 244.23C88.2109 244.323 87.8984 244.398 87.5625 244.452C87.2266 244.507 86.8555 244.534 86.4492 244.534C85.707 244.534 85.0586 244.413 84.5039 244.171C83.957 243.921 83.5352 243.523 83.2383 242.976C82.9414 242.429 82.793 241.71 82.793 240.82V228.491ZM96.1055 244.534C95.1211 244.534 94.2383 244.378 93.457 244.066C92.6758 243.745 92.0117 243.304 91.4648 242.741C90.9258 242.179 90.5117 241.527 90.2227 240.784C89.9336 240.034 89.7891 239.238 89.7891 238.394V237.925C89.7891 236.964 89.9258 236.085 90.1992 235.288C90.4727 234.491 90.8633 233.8 91.3711 233.214C91.8867 232.628 92.5117 232.179 93.2461 231.866C93.9805 231.546 94.8086 231.386 95.7305 231.386C96.6289 231.386 97.4258 231.534 98.1211 231.831C98.8164 232.128 99.3984 232.55 99.8672 233.097C100.344 233.644 100.703 234.3 100.945 235.066C101.188 235.823 101.309 236.667 101.309 237.597V239.003H91.2305V236.753H97.9922V236.495C97.9922 236.027 97.9062 235.609 97.7344 235.241C97.5703 234.866 97.3203 234.57 96.9844 234.351C96.6484 234.132 96.2188 234.023 95.6953 234.023C95.25 234.023 94.8672 234.12 94.5469 234.316C94.2266 234.511 93.9648 234.784 93.7617 235.136C93.5664 235.488 93.418 235.902 93.3164 236.378C93.2227 236.847 93.1758 237.363 93.1758 237.925V238.394C93.1758 238.902 93.2461 239.37 93.3867 239.8C93.5352 240.23 93.7422 240.601 94.0078 240.913C94.2812 241.226 94.6094 241.468 94.9922 241.64C95.3828 241.812 95.8242 241.898 96.3164 241.898C96.9258 241.898 97.4922 241.781 98.0156 241.546C98.5469 241.304 99.0039 240.941 99.3867 240.456L101.027 242.238C100.762 242.62 100.398 242.988 99.9375 243.339C99.4844 243.691 98.9375 243.98 98.2969 244.206C97.6562 244.425 96.9258 244.534 96.1055 244.534ZM108.469 241.898C108.883 241.898 109.25 241.82 109.57 241.663C109.891 241.499 110.141 241.273 110.32 240.984C110.508 240.687 110.605 240.339 110.613 239.941H113.789C113.781 240.831 113.543 241.624 113.074 242.32C112.605 243.007 111.977 243.55 111.188 243.948C110.398 244.339 109.516 244.534 108.539 244.534C107.555 244.534 106.695 244.37 105.961 244.042C105.234 243.714 104.629 243.261 104.145 242.683C103.66 242.097 103.297 241.417 103.055 240.644C102.812 239.863 102.691 239.027 102.691 238.136V237.796C102.691 236.898 102.812 236.062 103.055 235.288C103.297 234.507 103.66 233.827 104.145 233.249C104.629 232.663 105.234 232.206 105.961 231.878C106.688 231.55 107.539 231.386 108.516 231.386C109.555 231.386 110.465 231.585 111.246 231.984C112.035 232.382 112.652 232.952 113.098 233.695C113.551 234.429 113.781 235.3 113.789 236.308H110.613C110.605 235.886 110.516 235.503 110.344 235.159C110.18 234.816 109.938 234.542 109.617 234.339C109.305 234.128 108.918 234.023 108.457 234.023C107.965 234.023 107.562 234.128 107.25 234.339C106.938 234.542 106.695 234.823 106.523 235.183C106.352 235.534 106.23 235.937 106.16 236.39C106.098 236.835 106.066 237.304 106.066 237.796V238.136C106.066 238.628 106.098 239.101 106.16 239.554C106.223 240.007 106.34 240.409 106.512 240.761C106.691 241.113 106.938 241.39 107.25 241.593C107.562 241.796 107.969 241.898 108.469 241.898ZM122.59 241.441V235.792C122.59 235.386 122.523 235.038 122.391 234.749C122.258 234.452 122.051 234.222 121.77 234.058C121.496 233.894 121.141 233.812 120.703 233.812C120.328 233.812 120.004 233.878 119.73 234.011C119.457 234.136 119.246 234.32 119.098 234.562C118.949 234.796 118.875 235.073 118.875 235.394H115.5C115.5 234.855 115.625 234.343 115.875 233.859C116.125 233.374 116.488 232.948 116.965 232.581C117.441 232.206 118.008 231.913 118.664 231.702C119.328 231.491 120.07 231.386 120.891 231.386C121.875 231.386 122.75 231.55 123.516 231.878C124.281 232.206 124.883 232.698 125.32 233.355C125.766 234.011 125.988 234.831 125.988 235.816V241.241C125.988 241.937 126.031 242.507 126.117 242.952C126.203 243.39 126.328 243.773 126.492 244.101V244.3H123.082C122.918 243.956 122.793 243.527 122.707 243.011C122.629 242.488 122.59 241.964 122.59 241.441ZM123.035 236.577L123.059 238.488H121.172C120.727 238.488 120.34 238.538 120.012 238.64C119.684 238.741 119.414 238.886 119.203 239.073C118.992 239.253 118.836 239.464 118.734 239.706C118.641 239.948 118.594 240.214 118.594 240.503C118.594 240.792 118.66 241.054 118.793 241.288C118.926 241.515 119.117 241.695 119.367 241.827C119.617 241.952 119.91 242.015 120.246 242.015C120.754 242.015 121.195 241.913 121.57 241.71C121.945 241.507 122.234 241.257 122.438 240.96C122.648 240.663 122.758 240.382 122.766 240.116L123.656 241.546C123.531 241.866 123.359 242.198 123.141 242.542C122.93 242.886 122.66 243.21 122.332 243.515C122.004 243.812 121.609 244.058 121.148 244.253C120.688 244.441 120.141 244.534 119.508 244.534C118.703 244.534 117.973 244.374 117.316 244.054C116.668 243.726 116.152 243.277 115.77 242.706C115.395 242.128 115.207 241.472 115.207 240.738C115.207 240.073 115.332 239.484 115.582 238.968C115.832 238.452 116.199 238.019 116.684 237.667C117.176 237.308 117.789 237.038 118.523 236.859C119.258 236.671 120.109 236.577 121.078 236.577H123.035ZM135.445 240.796C135.445 240.554 135.375 240.335 135.234 240.14C135.094 239.945 134.832 239.765 134.449 239.601C134.074 239.429 133.531 239.273 132.82 239.132C132.18 238.991 131.582 238.816 131.027 238.605C130.48 238.386 130.004 238.124 129.598 237.82C129.199 237.515 128.887 237.156 128.66 236.741C128.434 236.32 128.32 235.839 128.32 235.3C128.32 234.769 128.434 234.269 128.66 233.8C128.895 233.331 129.227 232.917 129.656 232.558C130.094 232.191 130.625 231.906 131.25 231.702C131.883 231.491 132.594 231.386 133.383 231.386C134.484 231.386 135.43 231.562 136.219 231.913C137.016 232.265 137.625 232.749 138.047 233.366C138.477 233.976 138.691 234.671 138.691 235.452H135.316C135.316 235.124 135.246 234.831 135.105 234.573C134.973 234.308 134.762 234.101 134.473 233.952C134.191 233.796 133.824 233.718 133.371 233.718C132.996 233.718 132.672 233.784 132.398 233.917C132.125 234.042 131.914 234.214 131.766 234.433C131.625 234.644 131.555 234.878 131.555 235.136C131.555 235.331 131.594 235.507 131.672 235.663C131.758 235.812 131.895 235.948 132.082 236.073C132.27 236.198 132.512 236.316 132.809 236.425C133.113 236.527 133.488 236.62 133.934 236.706C134.848 236.894 135.664 237.14 136.383 237.445C137.102 237.741 137.672 238.148 138.094 238.663C138.516 239.171 138.727 239.839 138.727 240.667C138.727 241.23 138.602 241.745 138.352 242.214C138.102 242.683 137.742 243.093 137.273 243.445C136.805 243.788 136.242 244.058 135.586 244.253C134.938 244.441 134.207 244.534 133.395 244.534C132.215 244.534 131.215 244.323 130.395 243.902C129.582 243.48 128.965 242.945 128.543 242.296C128.129 241.64 127.922 240.968 127.922 240.281H131.121C131.137 240.741 131.254 241.113 131.473 241.394C131.699 241.675 131.984 241.878 132.328 242.003C132.68 242.128 133.059 242.191 133.465 242.191C133.902 242.191 134.266 242.132 134.555 242.015C134.844 241.89 135.062 241.726 135.211 241.523C135.367 241.312 135.445 241.07 135.445 240.796Z" fill="white"/>
</svg>
