<svg width="158" height="251" viewBox="0 0 158 251" fill="none" xmlns="http://www.w3.org/2000/svg">
<ellipse opacity="0.2" cx="79" cy="183" rx="79" ry="16" fill="black"/>
<path d="M56.0311 19.0557C54.8257 19.0557 53.6473 18.6983 52.6449 18.0285C51.6426 17.3588 50.8614 16.4069 50.4001 15.2932C49.9388 14.1795 49.8181 12.954 50.0533 11.7716C50.2884 10.5893 50.8689 9.50331 51.7213 8.65091C52.5737 7.79851 53.6598 7.21802 54.8421 6.98284C56.0244 6.74766 57.2499 6.86836 58.3636 7.32968C59.4773 7.791 60.4292 8.57221 61.0989 9.57452C61.7687 10.5768 62.1261 11.7552 62.1261 12.9607C62.1241 14.5766 61.4813 16.1257 60.3387 17.2683C59.1961 18.4109 57.647 19.0537 56.0311 19.0557ZM56.0311 11.4802C55.7383 11.4802 55.4521 11.5671 55.2086 11.7297C54.9652 11.8924 54.7754 12.1236 54.6633 12.3942C54.5513 12.6647 54.522 12.9624 54.5791 13.2496C54.6362 13.5367 54.7772 13.8005 54.9843 14.0076C55.1913 14.2146 55.4551 14.3556 55.7423 14.4128C56.0295 14.4699 56.3272 14.4406 56.5977 14.3285C56.8682 14.2165 57.0994 14.0267 57.2621 13.7832C57.4248 13.5398 57.5116 13.2535 57.5116 12.9607C57.5116 12.7663 57.4733 12.5738 57.3989 12.3942C57.3245 12.2145 57.2155 12.0513 57.078 11.9139C56.9405 11.7764 56.7773 11.6673 56.5977 11.5929C56.4181 11.5185 56.2256 11.4802 56.0311 11.4802Z" fill="#E7F6FF"/>
<path d="M66.9059 15.9276C68.0867 15.9276 69.044 14.9704 69.044 13.7895C69.044 12.6087 68.0867 11.6515 66.9059 11.6515C65.7251 11.6515 64.7678 12.6087 64.7678 13.7895C64.7678 14.9704 65.7251 15.9276 66.9059 15.9276Z" fill="#E7F6FF"/>
<g opacity="0.5">
<path opacity="0.5" d="M97.8965 125.319V130.014C96.5391 134.332 94.4049 139.385 91.6015 144.957C90.4479 147.168 89.2135 149.502 87.8907 151.902C88.7944 150.364 89.6635 148.86 90.5018 147.361C89.525 149.214 88.4906 151.141 87.3985 153.098V145.792L87.7215 145.18L87.3985 145.757V145.488C87.8856 144.568 88.3599 143.67 88.8213 142.796C91.863 136.743 94.1203 131.31 95.4508 126.757C96.2776 126.291 97.0928 125.811 97.8965 125.319Z" fill="#BBD2E5"/>
</g>
<path d="M118.096 57.1274C118.05 78.4695 100.554 95.8816 79.2192 95.8354C60.7419 95.797 45.1987 82.6687 41.4033 65.2874C41.0112 63.0541 40.8169 60.7907 40.8226 58.5233C40.8688 37.1927 58.3654 19.7691 79.696 19.8152C98.154 19.8537 113.67 32.9473 117.5 50.2825C117.499 50.2914 117.499 50.3005 117.5 50.3094C117.901 52.5599 118.1 54.8415 118.096 57.1274Z" fill="white"/>
<path d="M76.9427 3.25166C41.0611 3.17475 18.7076 25.7551 18.6192 61.3137C18.5961 72.3039 24.3873 89.4469 34.3547 110.151C38.8615 118.891 44.3528 128.609 50.1209 138.311C57.2042 150.285 64.9373 162.264 72.6743 173.269L76.5428 178.453C77.8387 176.834 79.1346 175.223 80.4305 173.285C88.2175 161.991 95.9968 150.366 103.119 138.426C108.96 128.739 114.155 119.053 118.696 110.335C129.079 89.6699 134.943 72.5501 134.966 61.5598C135.078 26.9741 111.855 3.32857 76.9427 3.25166ZM76.7389 96.9839C55.4045 96.9377 37.9847 79.4488 38.0309 58.1105C38.077 36.7722 55.5737 19.3678 76.9081 19.414C98.2425 19.4601 115.662 36.953 115.616 58.2874C115.57 79.6218 98.0733 97.0416 76.7389 96.9839Z" fill="#F2F47C"/>
<path d="M119.189 114.651C115.197 122.215 110.748 130.356 105.837 138.493C98.7042 150.433 90.9211 162.058 83.1495 173.352C81.8536 175.275 80.5577 176.901 79.2579 178.52L75.3779 173.34C67.6409 162.335 59.9077 150.356 52.8437 138.385C47.0409 128.672 41.5689 118.962 37.0775 110.225C27.0793 89.5139 21.2881 72.3671 21.3112 61.3769C21.342 46.7027 25.1566 34.2436 32.1707 24.6685C29.3981 31.8902 27.9407 40.1155 27.91 49.183C27.8869 60.1733 33.6781 77.32 43.6454 98.0199C48.1523 106.757 53.6243 116.478 59.4117 126.18C66.4949 138.151 74.2281 150.129 81.9613 161.135L85.8298 166.319C87.1295 164.7 88.4254 163.088 89.7213 161.15C97.5045 149.856 105.288 138.232 112.409 126.291C114.793 122.4 117.043 118.493 119.189 114.651Z" fill="#DCDE6E"/>
<path d="M79.1693 182.3L73.1781 174.267C65.418 163.231 57.581 151.083 50.5093 139.131C44.4528 128.991 38.973 119.2 34.6546 110.833L34.6239 110.767C23.9797 88.6793 18.5961 71.8479 18.6192 60.7577C18.6577 42.5342 24.3873 27.2179 35.1545 16.4546C45.9217 5.69123 61.2265 0 79.4423 0H79.6307C97.4542 0.0384542 112.701 5.92195 123.688 17.0083C134.674 28.0947 140.415 43.2726 140.381 61.0077C140.358 72.2094 134.613 89.4946 123.826 110.998V111.033C119.773 118.812 114.332 129.049 108.168 139.274C100.531 152.056 92.3591 164.138 85.3758 174.267C84.0491 176.247 82.7109 177.916 81.4188 179.531L79.1693 182.3ZM77.558 171.148L79.3 173.482C79.8345 172.775 80.3652 172.037 80.8958 171.244C87.8368 161.123 95.9661 149.149 103.526 136.493C109.617 126.399 115.001 116.263 119.019 108.556C129.448 87.8141 134.97 71.3711 134.993 61C135.066 27.8063 112.809 5.45666 79.6192 5.38359H79.4423C45.3141 5.38359 24.0759 26.5873 24.0028 60.7577C23.9797 70.8904 29.3249 87.3604 39.4576 108.395C43.7183 116.659 49.1403 126.334 55.1507 136.378C62.1379 148.207 69.8864 160.223 77.558 171.121V171.148ZM79.5076 99.1389H79.4154C68.4105 99.1272 57.8609 94.7442 50.0876 86.9543C42.3142 79.1644 37.9538 68.6055 37.9655 57.6006C37.9773 46.5957 42.3602 36.0462 50.1501 28.2728C57.9401 20.4995 68.4989 16.1391 79.5038 16.1508H79.5961C87.8012 16.1595 95.8189 18.6039 102.633 23.1741C109.448 27.7444 114.752 34.2348 117.874 41.8227C120.996 49.4107 121.795 57.7547 120.169 65.7971C118.544 73.8396 114.568 81.2186 108.744 86.9989C104.912 90.8485 100.355 93.9019 95.3375 95.9834C90.3198 98.0649 84.9399 99.1334 79.5076 99.1274V99.1389ZM79.5076 21.5575C69.9977 21.6449 60.9064 25.4815 54.209 32.2337C47.5116 38.9858 43.7491 48.108 43.739 57.6183C43.7288 67.1286 47.4719 76.2588 54.1549 83.0252C60.8379 89.7916 69.921 93.6475 79.4307 93.7553H79.5115C89.0886 93.765 98.2773 89.9698 105.056 83.2046C111.835 76.4394 115.649 67.2585 115.658 57.6814C115.668 48.1043 111.873 38.9156 105.108 32.1367C98.3426 25.3578 89.1616 21.5441 79.5846 21.5344L79.5076 21.5575Z" fill="#426572"/>
<path d="M65.4643 76H60.9643C60.7085 76 60.4633 75.8984 60.2824 75.7176C60.1016 75.5367 60 75.2915 60 75.0357V44.8214C60 44.5657 60.1016 44.3204 60.2824 44.1396C60.4633 43.9587 60.7085 43.8571 60.9643 43.8571H65.4643C65.72 43.8571 65.9653 43.9587 66.1461 44.1396C66.327 44.3204 66.4286 44.5657 66.4286 44.8214V75.0357C66.4286 75.2915 66.327 75.5367 66.1461 75.7176C65.9653 75.8984 65.72 76 65.4643 76ZM78 54.1429V49.9643C78 49.7085 77.8984 49.4633 77.7176 49.2824C77.5367 49.1016 77.2914 49 77.0357 49H68.6786C68.4228 49 68.1775 49.1016 67.9967 49.2824C67.8159 49.4633 67.7143 49.7085 67.7143 49.9643V54.1429H78ZM67.7143 70.8571V75.0357C67.7143 75.2915 67.8159 75.5367 67.9967 75.7176C68.1775 75.8984 68.4228 76 68.6786 76H77.0357C77.2914 76 77.5367 75.8984 77.7176 75.7176C77.8984 75.5367 78 75.2915 78 75.0357V70.8571H67.7143ZM67.7143 56.7143H78V68.2857H67.7143V56.7143ZM86.0357 76H80.25C79.9942 76 79.749 75.8984 79.5681 75.7176C79.3873 75.5367 79.2857 75.2915 79.2857 75.0357V40.9643C79.2857 40.7085 79.3873 40.4633 79.5681 40.2824C79.749 40.1016 79.9942 40 80.25 40H86.0357C86.2914 40 86.5367 40.1016 86.7176 40.2824C86.8984 40.4633 87 40.7085 87 40.9643V75.0357C87 75.2915 86.8984 75.5367 86.7176 75.7176C86.5367 75.8984 86.2914 76 86.0357 76ZM88.3661 45.5205L90.7768 75.0783C90.7875 75.2079 90.8243 75.334 90.885 75.4491C90.9457 75.5641 91.029 75.6656 91.13 75.7476C91.231 75.8296 91.3475 75.8903 91.4725 75.9261C91.5975 75.9618 91.7285 75.972 91.8576 75.9558L97.6561 75.2326C97.903 75.2017 98.1284 75.0766 98.2852 74.8834C98.442 74.6903 98.5181 74.4439 98.4975 74.196L96.0803 44.7579C96.0697 44.6301 96.0336 44.5056 95.9743 44.3919C95.9149 44.2781 95.8335 44.1774 95.7347 44.0955C95.6359 44.0136 95.5218 43.9523 95.399 43.9151C95.2762 43.8779 95.1472 43.8656 95.0196 43.8788L89.2235 44.4823C88.9734 44.5093 88.7437 44.633 88.5835 44.827C88.4234 45.021 88.3453 45.2698 88.3661 45.5205Z" fill="#282C4D"/>
<path d="M127.417 40.1836C128.531 42.8926 129.4 45.6962 130.012 48.5605C130.143 49.2209 130.243 49.8697 130.35 50.4801C130.458 51.0905 130.577 51.7163 130.615 52.3113L130.772 54.0312C130.815 54.5841 130.88 55.11 130.872 55.6168C130.872 56.6303 130.891 57.5363 130.872 58.3464C130.853 59.1564 130.757 59.8398 130.688 60.4003C130.542 61.5252 130.362 62.1394 130.162 62.1394C129.962 62.1394 129.751 61.5252 129.544 60.431C129.436 59.882 129.356 59.214 129.229 58.4424C129.102 57.6707 128.941 56.7954 128.795 55.8318C128.734 55.3481 128.611 54.849 128.511 54.3269L128.196 52.7029C128.108 52.1386 127.931 51.5704 127.812 50.9792C127.693 50.3879 127.536 49.7775 127.375 49.1594C126.647 46.4879 125.756 43.8634 124.707 41.3008C123.616 38.7573 122.36 36.2885 120.944 33.9105L119.965 32.3288L118.983 30.8585C118.675 30.3747 118.349 29.9332 118.038 29.5033C117.727 29.0733 117.439 28.651 117.147 28.2594C114.809 25.1344 113.197 23.2686 113.489 22.9499C113.781 22.6313 115.881 24.0095 118.729 26.9119C119.086 27.2728 119.436 27.6797 119.808 28.0828C120.18 28.4859 120.576 28.9236 120.933 29.3958C121.29 29.868 121.701 30.344 122.085 30.8508L123.236 32.4594C124.87 34.8967 126.27 37.483 127.417 40.1836Z" fill="white"/>
<path d="M104.386 14.4156C106.943 15.8975 108.471 17.8516 107.995 18.4927C107.519 19.1338 105.308 18.343 102.908 16.9571C100.509 15.5712 98.7428 14.097 99.0308 13.3522C99.3187 12.6074 101.837 12.926 104.386 14.4156Z" fill="white"/>
<path d="M33.7617 236.812H29.3789L29.3555 234.398H33.0352C33.6836 234.398 34.2148 234.316 34.6289 234.152C35.043 233.98 35.3516 233.734 35.5547 233.413C35.7656 233.085 35.8711 232.687 35.8711 232.218C35.8711 231.687 35.7695 231.257 35.5664 230.929C35.3711 230.601 35.0625 230.363 34.6406 230.214C34.2266 230.066 33.6914 229.991 33.0352 229.991H30.5977V244.3H27.082V227.238H33.0352C34.0273 227.238 34.9141 227.331 35.6953 227.519C36.4844 227.706 37.1523 227.991 37.6992 228.374C38.2461 228.757 38.6641 229.241 38.9531 229.827C39.2422 230.406 39.3867 231.093 39.3867 231.89C39.3867 232.593 39.2266 233.241 38.9062 233.835C38.5938 234.429 38.0977 234.913 37.418 235.288C36.7461 235.663 35.8672 235.87 34.7812 235.909L33.7617 236.812ZM33.6094 244.3H28.418L29.7891 241.558H33.6094C34.2266 241.558 34.7305 241.46 35.1211 241.265C35.5117 241.062 35.8008 240.788 35.9883 240.445C36.1758 240.101 36.2695 239.706 36.2695 239.261C36.2695 238.761 36.1836 238.327 36.0117 237.96C35.8477 237.593 35.582 237.312 35.2148 237.116C34.8477 236.913 34.3633 236.812 33.7617 236.812H30.375L30.3984 234.398H34.6172L35.4258 235.347C36.4648 235.331 37.3008 235.515 37.9336 235.898C38.5742 236.273 39.0391 236.761 39.3281 237.363C39.625 237.964 39.7734 238.609 39.7734 239.296C39.7734 240.39 39.5352 241.312 39.0586 242.062C38.582 242.804 37.8828 243.363 36.9609 243.738C36.0469 244.113 34.9297 244.3 33.6094 244.3ZM45.7617 231.62V244.3H42.375V231.62H45.7617ZM42.1641 228.316C42.1641 227.823 42.3359 227.417 42.6797 227.097C43.0234 226.777 43.4844 226.616 44.0625 226.616C44.6328 226.616 45.0898 226.777 45.4336 227.097C45.7852 227.417 45.9609 227.823 45.9609 228.316C45.9609 228.808 45.7852 229.214 45.4336 229.534C45.0898 229.855 44.6328 230.015 44.0625 230.015C43.4844 230.015 43.0234 229.855 42.6797 229.534C42.3359 229.214 42.1641 228.808 42.1641 228.316ZM48.5508 226.3H51.9258V241.394L51.5859 244.3H48.5508V226.3ZM59.9531 237.831V238.077C59.9531 239.023 59.8516 239.89 59.6484 240.679C59.4531 241.468 59.1484 242.152 58.7344 242.73C58.3203 243.3 57.8047 243.745 57.1875 244.066C56.5781 244.378 55.8594 244.534 55.0312 244.534C54.2578 244.534 53.5859 244.378 53.0156 244.066C52.4531 243.753 51.9805 243.312 51.5977 242.741C51.2148 242.171 50.9062 241.503 50.6719 240.738C50.4375 239.972 50.2617 239.136 50.1445 238.23V237.691C50.2617 236.784 50.4375 235.948 50.6719 235.183C50.9062 234.417 51.2148 233.749 51.5977 233.179C51.9805 232.609 52.4531 232.167 53.0156 231.855C53.5781 231.542 54.2422 231.386 55.0078 231.386C55.8438 231.386 56.5703 231.546 57.1875 231.866C57.8125 232.179 58.3281 232.624 58.7344 233.202C59.1484 233.773 59.4531 234.452 59.6484 235.241C59.8516 236.023 59.9531 236.886 59.9531 237.831ZM56.5781 238.077V237.831C56.5781 237.316 56.5391 236.831 56.4609 236.378C56.3906 235.917 56.2656 235.515 56.0859 235.171C55.9062 234.82 55.6602 234.542 55.3477 234.339C55.043 234.136 54.6484 234.034 54.1641 234.034C53.7031 234.034 53.3125 234.113 52.9922 234.269C52.6719 234.425 52.4062 234.644 52.1953 234.925C51.9922 235.206 51.8398 235.542 51.7383 235.933C51.6367 236.316 51.5742 236.738 51.5508 237.198V238.734C51.5742 239.351 51.6758 239.898 51.8555 240.374C52.043 240.843 52.3242 241.214 52.6992 241.488C53.082 241.753 53.5781 241.886 54.1875 241.886C54.6641 241.886 55.0586 241.792 55.3711 241.605C55.6836 241.417 55.9258 241.152 56.0977 240.808C56.2773 240.464 56.4023 240.062 56.4727 239.601C56.543 239.132 56.5781 238.624 56.5781 238.077ZM65.6133 226.3V244.3H62.2266V226.3H65.6133ZM71.9648 231.62V244.3H68.5781V231.62H71.9648ZM68.3672 228.316C68.3672 227.823 68.5391 227.417 68.8828 227.097C69.2266 226.777 69.6875 226.616 70.2656 226.616C70.8359 226.616 71.293 226.777 71.6367 227.097C71.9883 227.417 72.1641 227.823 72.1641 228.316C72.1641 228.808 71.9883 229.214 71.6367 229.534C71.293 229.855 70.8359 230.015 70.2656 230.015C69.6875 230.015 69.2266 229.855 68.8828 229.534C68.5391 229.214 68.3672 228.808 68.3672 228.316ZM74.2148 238.089V237.843C74.2148 236.913 74.3477 236.058 74.6133 235.277C74.8789 234.488 75.2656 233.804 75.7734 233.226C76.2812 232.648 76.9062 232.198 77.6484 231.878C78.3906 231.55 79.2422 231.386 80.2031 231.386C81.1641 231.386 82.0195 231.55 82.7695 231.878C83.5195 232.198 84.1484 232.648 84.6562 233.226C85.1719 233.804 85.5625 234.488 85.8281 235.277C86.0938 236.058 86.2266 236.913 86.2266 237.843V238.089C86.2266 239.011 86.0938 239.866 85.8281 240.656C85.5625 241.437 85.1719 242.12 84.6562 242.706C84.1484 243.284 83.5234 243.734 82.7812 244.054C82.0391 244.374 81.1875 244.534 80.2266 244.534C79.2656 244.534 78.4102 244.374 77.6602 244.054C76.918 243.734 76.2891 243.284 75.7734 242.706C75.2656 242.12 74.8789 241.437 74.6133 240.656C74.3477 239.866 74.2148 239.011 74.2148 238.089ZM77.5898 237.843V238.089C77.5898 238.62 77.6367 239.116 77.7305 239.577C77.8242 240.038 77.9727 240.445 78.1758 240.796C78.3867 241.14 78.6602 241.409 78.9961 241.605C79.332 241.8 79.7422 241.898 80.2266 241.898C80.6953 241.898 81.0977 241.8 81.4336 241.605C81.7695 241.409 82.0391 241.14 82.2422 240.796C82.4453 240.445 82.5938 240.038 82.6875 239.577C82.7891 239.116 82.8398 238.62 82.8398 238.089V237.843C82.8398 237.327 82.7891 236.843 82.6875 236.39C82.5938 235.929 82.4414 235.523 82.2305 235.171C82.0273 234.812 81.7578 234.531 81.4219 234.327C81.0859 234.124 80.6797 234.023 80.2031 234.023C79.7266 234.023 79.3203 234.124 78.9844 234.327C78.6562 234.531 78.3867 234.812 78.1758 235.171C77.9727 235.523 77.8242 235.929 77.7305 236.39C77.6367 236.843 77.5898 237.327 77.5898 237.843ZM94.5117 231.62V234.011H87.1289V231.62H94.5117ZM88.957 228.491H92.332V240.48C92.332 240.847 92.3789 241.128 92.4727 241.323C92.5742 241.519 92.7227 241.656 92.918 241.734C93.1133 241.804 93.3594 241.839 93.6562 241.839C93.8672 241.839 94.0547 241.831 94.2188 241.816C94.3906 241.792 94.5352 241.769 94.6523 241.745L94.6641 244.23C94.375 244.323 94.0625 244.398 93.7266 244.452C93.3906 244.507 93.0195 244.534 92.6133 244.534C91.8711 244.534 91.2227 244.413 90.668 244.171C90.1211 243.921 89.6992 243.523 89.4023 242.976C89.1055 242.429 88.957 241.71 88.957 240.82V228.491ZM102.27 244.534C101.285 244.534 100.402 244.378 99.6211 244.066C98.8398 243.745 98.1758 243.304 97.6289 242.741C97.0898 242.179 96.6758 241.527 96.3867 240.784C96.0977 240.034 95.9531 239.238 95.9531 238.394V237.925C95.9531 236.964 96.0898 236.085 96.3633 235.288C96.6367 234.491 97.0273 233.8 97.5352 233.214C98.0508 232.628 98.6758 232.179 99.4102 231.866C100.145 231.546 100.973 231.386 101.895 231.386C102.793 231.386 103.59 231.534 104.285 231.831C104.98 232.128 105.562 232.55 106.031 233.097C106.508 233.644 106.867 234.3 107.109 235.066C107.352 235.823 107.473 236.667 107.473 237.597V239.003H97.3945V236.753H104.156V236.495C104.156 236.027 104.07 235.609 103.898 235.241C103.734 234.866 103.484 234.57 103.148 234.351C102.812 234.132 102.383 234.023 101.859 234.023C101.414 234.023 101.031 234.12 100.711 234.316C100.391 234.511 100.129 234.784 99.9258 235.136C99.7305 235.488 99.582 235.902 99.4805 236.378C99.3867 236.847 99.3398 237.363 99.3398 237.925V238.394C99.3398 238.902 99.4102 239.37 99.5508 239.8C99.6992 240.23 99.9062 240.601 100.172 240.913C100.445 241.226 100.773 241.468 101.156 241.64C101.547 241.812 101.988 241.898 102.48 241.898C103.09 241.898 103.656 241.781 104.18 241.546C104.711 241.304 105.168 240.941 105.551 240.456L107.191 242.238C106.926 242.62 106.562 242.988 106.102 243.339C105.648 243.691 105.102 243.98 104.461 244.206C103.82 244.425 103.09 244.534 102.27 244.534ZM114.633 241.898C115.047 241.898 115.414 241.82 115.734 241.663C116.055 241.499 116.305 241.273 116.484 240.984C116.672 240.687 116.77 240.339 116.777 239.941H119.953C119.945 240.831 119.707 241.624 119.238 242.32C118.77 243.007 118.141 243.55 117.352 243.948C116.562 244.339 115.68 244.534 114.703 244.534C113.719 244.534 112.859 244.37 112.125 244.042C111.398 243.714 110.793 243.261 110.309 242.683C109.824 242.097 109.461 241.417 109.219 240.644C108.977 239.863 108.855 239.027 108.855 238.136V237.796C108.855 236.898 108.977 236.062 109.219 235.288C109.461 234.507 109.824 233.827 110.309 233.249C110.793 232.663 111.398 232.206 112.125 231.878C112.852 231.55 113.703 231.386 114.68 231.386C115.719 231.386 116.629 231.585 117.41 231.984C118.199 232.382 118.816 232.952 119.262 233.695C119.715 234.429 119.945 235.3 119.953 236.308H116.777C116.77 235.886 116.68 235.503 116.508 235.159C116.344 234.816 116.102 234.542 115.781 234.339C115.469 234.128 115.082 234.023 114.621 234.023C114.129 234.023 113.727 234.128 113.414 234.339C113.102 234.542 112.859 234.823 112.688 235.183C112.516 235.534 112.395 235.937 112.324 236.39C112.262 236.835 112.23 237.304 112.23 237.796V238.136C112.23 238.628 112.262 239.101 112.324 239.554C112.387 240.007 112.504 240.409 112.676 240.761C112.855 241.113 113.102 241.39 113.414 241.593C113.727 241.796 114.133 241.898 114.633 241.898ZM128.754 241.441V235.792C128.754 235.386 128.688 235.038 128.555 234.749C128.422 234.452 128.215 234.222 127.934 234.058C127.66 233.894 127.305 233.812 126.867 233.812C126.492 233.812 126.168 233.878 125.895 234.011C125.621 234.136 125.41 234.32 125.262 234.562C125.113 234.796 125.039 235.073 125.039 235.394H121.664C121.664 234.855 121.789 234.343 122.039 233.859C122.289 233.374 122.652 232.948 123.129 232.581C123.605 232.206 124.172 231.913 124.828 231.702C125.492 231.491 126.234 231.386 127.055 231.386C128.039 231.386 128.914 231.55 129.68 231.878C130.445 232.206 131.047 232.698 131.484 233.355C131.93 234.011 132.152 234.831 132.152 235.816V241.241C132.152 241.937 132.195 242.507 132.281 242.952C132.367 243.39 132.492 243.773 132.656 244.101V244.3H129.246C129.082 243.956 128.957 243.527 128.871 243.011C128.793 242.488 128.754 241.964 128.754 241.441ZM129.199 236.577L129.223 238.488H127.336C126.891 238.488 126.504 238.538 126.176 238.64C125.848 238.741 125.578 238.886 125.367 239.073C125.156 239.253 125 239.464 124.898 239.706C124.805 239.948 124.758 240.214 124.758 240.503C124.758 240.792 124.824 241.054 124.957 241.288C125.09 241.515 125.281 241.695 125.531 241.827C125.781 241.952 126.074 242.015 126.41 242.015C126.918 242.015 127.359 241.913 127.734 241.71C128.109 241.507 128.398 241.257 128.602 240.96C128.812 240.663 128.922 240.382 128.93 240.116L129.82 241.546C129.695 241.866 129.523 242.198 129.305 242.542C129.094 242.886 128.824 243.21 128.496 243.515C128.168 243.812 127.773 244.058 127.312 244.253C126.852 244.441 126.305 244.534 125.672 244.534C124.867 244.534 124.137 244.374 123.48 244.054C122.832 243.726 122.316 243.277 121.934 242.706C121.559 242.128 121.371 241.472 121.371 240.738C121.371 240.073 121.496 239.484 121.746 238.968C121.996 238.452 122.363 238.019 122.848 237.667C123.34 237.308 123.953 237.038 124.688 236.859C125.422 236.671 126.273 236.577 127.242 236.577H129.199Z" fill="white"/>
</svg>
