<svg width="159" height="251" viewBox="0 0 159 251" fill="none" xmlns="http://www.w3.org/2000/svg">
<ellipse opacity="0.2" cx="79.5" cy="182" rx="79" ry="16" fill="black"/>
<path d="M56.5315 19.0557C55.326 19.0557 54.1476 18.6983 53.1453 18.0285C52.1429 17.3588 51.3617 16.4069 50.9004 15.2932C50.4391 14.1795 50.3184 12.954 50.5536 11.7716C50.7888 10.5893 51.3692 9.50331 52.2216 8.65091C53.0741 7.79851 54.1601 7.21802 55.3424 6.98284C56.5247 6.74766 57.7502 6.86836 58.8639 7.32968C59.9776 7.791 60.9295 8.57221 61.5993 9.57452C62.269 10.5768 62.6265 11.7552 62.6265 12.9607C62.6244 14.5766 61.9816 16.1257 60.839 17.2683C59.6964 18.4109 58.1473 19.0537 56.5315 19.0557V19.0557ZM56.5315 11.4802C56.2387 11.4802 55.9524 11.5671 55.7089 11.7297C55.4655 11.8924 55.2757 12.1236 55.1637 12.3942C55.0516 12.6647 55.0223 12.9624 55.0794 13.2496C55.1365 13.5367 55.2776 13.8005 55.4846 14.0076C55.6917 14.2146 55.9554 14.3556 56.2426 14.4128C56.5298 14.4699 56.8275 14.4406 57.098 14.3285C57.3685 14.2165 57.5998 14.0267 57.7624 13.7832C57.9251 13.5398 58.012 13.2535 58.012 12.9607C58.012 12.7663 57.9737 12.5738 57.8993 12.3942C57.8249 12.2145 57.7158 12.0513 57.5783 11.9139C57.4409 11.7764 57.2776 11.6673 57.098 11.5929C56.9184 11.5185 56.7259 11.4802 56.5315 11.4802V11.4802Z" fill="#E7F6FF"/>
<path d="M67.4059 15.9276C68.5868 15.9276 69.544 14.9704 69.544 13.7895C69.544 12.6087 68.5868 11.6515 67.4059 11.6515C66.2251 11.6515 65.2679 12.6087 65.2679 13.7895C65.2679 14.9704 66.2251 15.9276 67.4059 15.9276Z" fill="#E7F6FF"/>
<g opacity="0.5">
<path opacity="0.5" d="M98.3969 125.319V130.014C97.0395 134.332 94.9053 139.385 92.102 144.957C90.9483 147.168 89.714 149.502 88.3911 151.902C89.2948 150.364 90.1639 148.86 91.0022 147.361C90.0254 149.214 88.991 151.141 87.8989 153.098V145.792L88.2219 145.18L87.8989 145.757V145.488C88.386 144.568 88.8603 143.67 89.3217 142.796C92.3635 136.743 94.6207 131.31 95.9512 126.757C96.778 126.291 97.5932 125.811 98.3969 125.319Z" fill="#BBD2E5"/>
</g>
<path d="M118.597 57.1274C118.551 78.4695 101.054 95.8816 79.7196 95.8354C61.2423 95.797 45.6991 82.6687 41.9037 65.2874C41.5116 63.0541 41.3173 60.7907 41.323 58.5233C41.3691 37.1927 58.8658 19.7691 80.1964 19.8152C98.6544 19.8537 114.171 32.9473 118.001 50.2825C117.999 50.2914 117.999 50.3005 118.001 50.3094C118.401 52.5599 118.601 54.8415 118.597 57.1274V57.1274Z" fill="white"/>
<path d="M77.4427 3.25117C41.561 3.17426 19.2076 25.7546 19.1191 61.3132C19.0961 72.3035 24.8873 89.4464 34.8546 110.15C39.3615 118.891 44.8527 128.608 50.6209 138.31C57.7041 150.285 65.4373 162.263 73.1743 173.269L77.0428 178.453C78.3387 176.834 79.6346 175.222 80.9305 173.284C88.7175 161.99 96.4968 150.366 103.619 138.426C109.46 128.739 114.655 119.052 119.196 110.335C129.579 89.6694 135.443 72.5496 135.466 61.5593C135.578 26.9736 112.355 3.32808 77.4427 3.25117ZM77.2389 96.9834C55.9045 96.9373 38.4847 79.4483 38.5309 58.11C38.577 36.7717 56.0737 19.3673 77.4081 19.4135C98.7425 19.4596 116.162 36.9525 116.116 58.2869C116.07 79.6213 98.5733 97.0411 77.2389 96.9834Z" fill="#9FF3CB"/>
<path d="M119.689 114.651C115.697 122.215 111.248 130.356 106.337 138.493C99.2039 150.433 91.4208 162.058 83.6492 173.352C82.3533 175.274 81.0574 176.901 79.7576 178.52L75.8776 173.34C68.1406 162.335 60.4074 150.356 53.3434 138.385C47.5407 128.672 42.0686 118.962 37.5772 110.225C27.5791 89.5139 21.7878 72.3671 21.8109 61.3769C21.8417 46.7027 25.6563 34.2436 32.6704 24.6685C29.8978 31.8902 28.4404 40.1155 28.4097 49.183C28.3866 60.1733 34.1778 77.32 44.1451 98.0199C48.652 106.757 54.124 116.478 59.9114 126.18C66.9947 138.151 74.7278 150.129 82.461 161.135L86.3295 166.319C87.6292 164.7 88.9251 163.088 90.221 161.15C98.0042 149.856 105.787 138.232 112.909 126.291C115.293 122.4 117.543 118.493 119.689 114.651Z" fill="#88C9AA"/>
<path d="M79.6693 182.3L73.6781 174.267C65.918 163.231 58.0811 151.083 51.0093 139.131C44.9528 128.991 39.473 119.2 35.1546 110.833L35.1239 110.767C24.4797 88.6793 19.0961 71.8479 19.1192 60.7577C19.1577 42.5342 24.8874 27.2179 35.6545 16.4546C46.4217 5.69123 61.7265 0 79.9423 0H80.1307C97.9543 0.0384542 113.201 5.92195 124.188 17.0083C135.174 28.0947 140.915 43.2726 140.881 61.0077C140.858 72.2094 135.113 89.4946 124.326 110.998V111.033C120.273 118.812 114.832 129.049 108.668 139.274C101.031 152.056 92.8591 164.138 85.8758 174.267C84.5491 176.247 83.2109 177.916 81.9188 179.531L79.6693 182.3ZM78.058 171.148L79.8 173.482C80.3345 172.775 80.8652 172.037 81.3959 171.244C88.3369 161.123 96.4661 149.149 104.026 136.493C110.117 126.399 115.501 116.263 119.519 108.556C129.948 87.8141 135.47 71.3711 135.493 61C135.566 27.8063 113.309 5.45666 80.1192 5.38359H79.9423C45.8142 5.38359 24.5759 26.5873 24.5028 60.7577C24.4797 70.8904 29.8249 87.3604 39.9576 108.395C44.2183 116.659 49.6403 126.334 55.6507 136.378C62.6379 148.207 70.3864 160.223 78.058 171.121V171.148ZM80.0077 99.1389H79.9154C68.9105 99.1272 58.361 94.7442 50.5876 86.9543C42.8143 79.1644 38.4538 68.6055 38.4655 57.6006C38.4773 46.5957 42.8602 36.0462 50.6501 28.2728C58.4401 20.4995 68.9989 16.1391 80.0038 16.1508H80.0961C88.3012 16.1595 96.319 18.6039 103.133 23.1741C109.948 27.7444 115.252 34.2348 118.374 41.8227C121.496 49.4107 122.295 57.7547 120.669 65.7971C119.044 73.8396 115.068 81.2186 109.244 86.9989C105.412 90.8485 100.855 93.9019 95.8375 95.9834C90.8198 98.065 85.44 99.1334 80.0077 99.1274V99.1389ZM80.0077 21.5575C70.4977 21.6449 61.4064 25.4815 54.709 32.2337C48.0116 38.9858 44.2491 48.108 44.239 57.6183C44.2289 67.1287 47.9719 76.2588 54.6549 83.0252C61.3379 89.7916 70.421 93.6475 79.9308 93.7553H80.0115C89.5886 93.765 98.7773 89.9698 105.556 83.2046C112.335 76.4394 116.149 67.2585 116.159 57.6814C116.168 48.1043 112.373 38.9156 105.608 32.1367C98.8427 25.3578 89.6617 21.5441 80.0846 21.5344L80.0077 21.5575Z" fill="#426572"/>
<path d="M58 55.575V74.4876C58 75.1022 58.4978 75.6001 59.1125 75.6001H64.675V53.35H60.225C58.9964 53.35 58 54.3464 58 55.575ZM83.0313 52.2375H81.3625V49.4563C81.3625 49.1489 81.1136 48.9 80.8063 48.9H79.6938C79.3865 48.9 79.1375 49.1489 79.1375 49.4563V53.9063C79.1375 54.2136 79.3865 54.4625 79.6938 54.4625H83.0313C83.3386 54.4625 83.5876 54.2136 83.5876 53.9063V52.7938C83.5876 52.4865 83.3386 52.2375 83.0313 52.2375ZM92.6093 47.7903L81.4842 40.3734C81.1187 40.1299 80.6893 40 80.25 40C79.8108 40 79.3814 40.1299 79.0159 40.3734L67.8908 47.7903C67.5861 47.9935 67.3363 48.2687 67.1634 48.5916C66.9906 48.9144 66.9001 49.275 66.9 49.6412V75.6001H75.8V65.5876C75.8 64.9729 76.2979 64.4751 76.9125 64.4751H83.5876C84.2022 64.4751 84.7001 64.9729 84.7001 65.5876V75.6001H93.6001V49.6419C93.6001 48.8979 93.2281 48.2026 92.6093 47.7903ZM80.25 57.8C77.1781 57.8 74.6875 55.3094 74.6875 52.2375C74.6875 49.1656 77.1781 46.675 80.25 46.675C83.3219 46.675 85.8126 49.1656 85.8126 52.2375C85.8126 55.3094 83.3219 57.8 80.25 57.8ZM100.275 53.35H95.8251V75.6001H101.388C102.002 75.6001 102.5 75.1022 102.5 74.4876V55.575C102.5 54.3464 101.504 53.35 100.275 53.35Z" fill="#282C4D"/>
<path d="M127.417 40.1836C128.531 42.8926 129.4 45.6962 130.012 48.5605C130.143 49.2209 130.242 49.8697 130.35 50.4801C130.457 51.0905 130.576 51.7163 130.615 52.3113L130.772 54.0313C130.815 54.5841 130.88 55.11 130.872 55.6168C130.872 56.6303 130.891 57.5363 130.872 58.3464C130.853 59.1564 130.757 59.8398 130.688 60.4003C130.542 61.5252 130.361 62.1394 130.162 62.1394C129.962 62.1394 129.751 61.5252 129.544 60.431C129.436 59.882 129.356 59.214 129.229 58.4424C129.102 57.6707 128.941 56.7954 128.795 55.8318C128.734 55.3481 128.611 54.849 128.511 54.3269L128.196 52.7029C128.108 52.1386 127.931 51.5704 127.812 50.9792C127.693 50.3879 127.536 49.7775 127.375 49.1594C126.647 46.4879 125.756 43.8634 124.707 41.3008C123.616 38.7573 122.359 36.2885 120.944 33.9105L119.965 32.3288L118.982 30.8585C118.675 30.3747 118.349 29.9332 118.038 29.5033C117.727 29.0733 117.439 28.651 117.147 28.2594C114.809 25.1344 113.197 23.2686 113.489 22.9499C113.78 22.6313 115.88 24.0095 118.729 26.9119C119.086 27.2728 119.435 27.6797 119.808 28.0828C120.18 28.4859 120.576 28.9236 120.933 29.3958C121.29 29.868 121.701 30.344 122.084 30.8508L123.236 32.4594C124.87 34.8967 126.27 37.483 127.417 40.1836V40.1836Z" fill="white"/>
<path d="M104.386 14.4156C106.943 15.8975 108.471 17.8516 107.995 18.4927C107.519 19.1338 105.308 18.343 102.908 16.9571C100.509 15.5712 98.7428 14.097 99.0308 13.3522C99.3187 12.6074 101.837 12.926 104.386 14.4156Z" fill="white"/>
<path d="M17.2109 241.558V244.3H8.12891V241.558H17.2109ZM9.27734 227.238V244.3H5.76172V227.238H9.27734ZM16.0273 234.187V236.859H8.12891V234.187H16.0273ZM17.1992 227.238V229.991H8.12891V227.238H17.1992ZM22.3555 234.327V244.3H18.9805V231.62H22.1445L22.3555 234.327ZM21.8633 237.515H20.9492C20.9492 236.577 21.0703 235.734 21.3125 234.984C21.5547 234.226 21.8945 233.581 22.332 233.05C22.7695 232.511 23.2891 232.101 23.8906 231.82C24.5 231.531 25.1797 231.386 25.9297 231.386C26.5234 231.386 27.0664 231.472 27.5586 231.644C28.0508 231.816 28.4727 232.089 28.8242 232.464C29.1836 232.839 29.457 233.335 29.6445 233.952C29.8398 234.57 29.9375 235.323 29.9375 236.214V244.3H26.5391V236.202C26.5391 235.64 26.4609 235.202 26.3047 234.89C26.1484 234.577 25.918 234.359 25.6133 234.234C25.3164 234.101 24.9492 234.034 24.5117 234.034C24.0586 234.034 23.6641 234.124 23.3281 234.304C23 234.484 22.7266 234.734 22.5078 235.054C22.2969 235.366 22.1367 235.734 22.0273 236.156C21.918 236.577 21.8633 237.031 21.8633 237.515ZM39.3594 240.796C39.3594 240.554 39.2891 240.335 39.1484 240.14C39.0078 239.945 38.7461 239.765 38.3633 239.601C37.9883 239.429 37.4453 239.273 36.7344 239.132C36.0938 238.991 35.4961 238.816 34.9414 238.605C34.3945 238.386 33.918 238.124 33.5117 237.82C33.1133 237.515 32.8008 237.156 32.5742 236.741C32.3477 236.32 32.2344 235.839 32.2344 235.3C32.2344 234.769 32.3477 234.269 32.5742 233.8C32.8086 233.331 33.1406 232.917 33.5703 232.558C34.0078 232.191 34.5391 231.906 35.1641 231.702C35.7969 231.491 36.5078 231.386 37.2969 231.386C38.3984 231.386 39.3438 231.562 40.1328 231.913C40.9297 232.265 41.5391 232.749 41.9609 233.366C42.3906 233.976 42.6055 234.671 42.6055 235.452H39.2305C39.2305 235.124 39.1602 234.831 39.0195 234.573C38.8867 234.308 38.6758 234.101 38.3867 233.952C38.1055 233.796 37.7383 233.718 37.2852 233.718C36.9102 233.718 36.5859 233.784 36.3125 233.917C36.0391 234.042 35.8281 234.214 35.6797 234.433C35.5391 234.644 35.4688 234.878 35.4688 235.136C35.4688 235.331 35.5078 235.507 35.5859 235.663C35.6719 235.812 35.8086 235.948 35.9961 236.073C36.1836 236.198 36.4258 236.316 36.7227 236.425C37.0273 236.527 37.4023 236.62 37.8477 236.706C38.7617 236.894 39.5781 237.14 40.2969 237.445C41.0156 237.741 41.5859 238.148 42.0078 238.663C42.4297 239.171 42.6406 239.839 42.6406 240.667C42.6406 241.23 42.5156 241.745 42.2656 242.214C42.0156 242.683 41.6562 243.093 41.1875 243.445C40.7188 243.788 40.1562 244.058 39.5 244.253C38.8516 244.441 38.1211 244.534 37.3086 244.534C36.1289 244.534 35.1289 244.323 34.3086 243.902C33.4961 243.48 32.8789 242.945 32.457 242.296C32.043 241.64 31.8359 240.968 31.8359 240.281H35.0352C35.0508 240.741 35.168 241.113 35.3867 241.394C35.6133 241.675 35.8984 241.878 36.2422 242.003C36.5938 242.128 36.9727 242.191 37.3789 242.191C37.8164 242.191 38.1797 242.132 38.4688 242.015C38.7578 241.89 38.9766 241.726 39.125 241.523C39.2812 241.312 39.3594 241.07 39.3594 240.796ZM48.3945 231.62V244.3H45.0078V231.62H48.3945ZM44.7969 228.316C44.7969 227.823 44.9688 227.417 45.3125 227.097C45.6562 226.777 46.1172 226.616 46.6953 226.616C47.2656 226.616 47.7227 226.777 48.0664 227.097C48.418 227.417 48.5938 227.823 48.5938 228.316C48.5938 228.808 48.418 229.214 48.0664 229.534C47.7227 229.855 47.2656 230.015 46.6953 230.015C46.1172 230.015 45.6562 229.855 45.3125 229.534C44.9688 229.214 44.7969 228.808 44.7969 228.316ZM54.4883 234.327V244.3H51.1133V231.62H54.2773L54.4883 234.327ZM53.9961 237.515H53.082C53.082 236.577 53.2031 235.734 53.4453 234.984C53.6875 234.226 54.0273 233.581 54.4648 233.05C54.9023 232.511 55.4219 232.101 56.0234 231.82C56.6328 231.531 57.3125 231.386 58.0625 231.386C58.6562 231.386 59.1992 231.472 59.6914 231.644C60.1836 231.816 60.6055 232.089 60.957 232.464C61.3164 232.839 61.5898 233.335 61.7773 233.952C61.9727 234.57 62.0703 235.323 62.0703 236.214V244.3H58.6719V236.202C58.6719 235.64 58.5938 235.202 58.4375 234.89C58.2812 234.577 58.0508 234.359 57.7461 234.234C57.4492 234.101 57.082 234.034 56.6445 234.034C56.1914 234.034 55.7969 234.124 55.4609 234.304C55.1328 234.484 54.8594 234.734 54.6406 235.054C54.4297 235.366 54.2695 235.734 54.1602 236.156C54.0508 236.577 53.9961 237.031 53.9961 237.515ZM64.0977 238.089V237.843C64.0977 236.913 64.2305 236.058 64.4961 235.277C64.7617 234.488 65.1484 233.804 65.6562 233.226C66.1641 232.648 66.7891 232.198 67.5312 231.878C68.2734 231.55 69.125 231.386 70.0859 231.386C71.0469 231.386 71.9023 231.55 72.6523 231.878C73.4023 232.198 74.0312 232.648 74.5391 233.226C75.0547 233.804 75.4453 234.488 75.7109 235.277C75.9766 236.058 76.1094 236.913 76.1094 237.843V238.089C76.1094 239.011 75.9766 239.866 75.7109 240.656C75.4453 241.437 75.0547 242.12 74.5391 242.706C74.0312 243.284 73.4062 243.734 72.6641 244.054C71.9219 244.374 71.0703 244.534 70.1094 244.534C69.1484 244.534 68.293 244.374 67.543 244.054C66.8008 243.734 66.1719 243.284 65.6562 242.706C65.1484 242.12 64.7617 241.437 64.4961 240.656C64.2305 239.866 64.0977 239.011 64.0977 238.089ZM67.4727 237.843V238.089C67.4727 238.62 67.5195 239.116 67.6133 239.577C67.707 240.038 67.8555 240.445 68.0586 240.796C68.2695 241.14 68.543 241.409 68.8789 241.605C69.2148 241.8 69.625 241.898 70.1094 241.898C70.5781 241.898 70.9805 241.8 71.3164 241.605C71.6523 241.409 71.9219 241.14 72.125 240.796C72.3281 240.445 72.4766 240.038 72.5703 239.577C72.6719 239.116 72.7227 238.62 72.7227 238.089V237.843C72.7227 237.327 72.6719 236.843 72.5703 236.39C72.4766 235.929 72.3242 235.523 72.1133 235.171C71.9102 234.812 71.6406 234.531 71.3047 234.327C70.9688 234.124 70.5625 234.023 70.0859 234.023C69.6094 234.023 69.2031 234.124 68.8672 234.327C68.5391 234.531 68.2695 234.812 68.0586 235.171C67.8555 235.523 67.707 235.929 67.6133 236.39C67.5195 236.843 67.4727 237.327 67.4727 237.843ZM91.0508 236.812H86.668L86.6445 234.398H90.3242C90.9727 234.398 91.5039 234.316 91.918 234.152C92.332 233.98 92.6406 233.734 92.8438 233.413C93.0547 233.085 93.1602 232.687 93.1602 232.218C93.1602 231.687 93.0586 231.257 92.8555 230.929C92.6602 230.601 92.3516 230.363 91.9297 230.214C91.5156 230.066 90.9805 229.991 90.3242 229.991H87.8867V244.3H84.3711V227.238H90.3242C91.3164 227.238 92.2031 227.331 92.9844 227.519C93.7734 227.706 94.4414 227.991 94.9883 228.374C95.5352 228.757 95.9531 229.241 96.2422 229.827C96.5312 230.406 96.6758 231.093 96.6758 231.89C96.6758 232.593 96.5156 233.241 96.1953 233.835C95.8828 234.429 95.3867 234.913 94.707 235.288C94.0352 235.663 93.1562 235.87 92.0703 235.909L91.0508 236.812ZM90.8984 244.3H85.707L87.0781 241.558H90.8984C91.5156 241.558 92.0195 241.46 92.4102 241.265C92.8008 241.062 93.0898 240.788 93.2773 240.445C93.4648 240.101 93.5586 239.706 93.5586 239.261C93.5586 238.761 93.4727 238.327 93.3008 237.96C93.1367 237.593 92.8711 237.312 92.5039 237.116C92.1367 236.913 91.6523 236.812 91.0508 236.812H87.6641L87.6875 234.398H91.9062L92.7148 235.347C93.7539 235.331 94.5898 235.515 95.2227 235.898C95.8633 236.273 96.3281 236.761 96.6172 237.363C96.9141 237.964 97.0625 238.609 97.0625 239.296C97.0625 240.39 96.8242 241.312 96.3477 242.062C95.8711 242.804 95.1719 243.363 94.25 243.738C93.3359 244.113 92.2188 244.3 90.8984 244.3ZM106.332 241.441V235.792C106.332 235.386 106.266 235.038 106.133 234.749C106 234.452 105.793 234.222 105.512 234.058C105.238 233.894 104.883 233.812 104.445 233.812C104.07 233.812 103.746 233.878 103.473 234.011C103.199 234.136 102.988 234.32 102.84 234.562C102.691 234.796 102.617 235.073 102.617 235.394H99.2422C99.2422 234.855 99.3672 234.343 99.6172 233.859C99.8672 233.374 100.23 232.948 100.707 232.581C101.184 232.206 101.75 231.913 102.406 231.702C103.07 231.491 103.812 231.386 104.633 231.386C105.617 231.386 106.492 231.55 107.258 231.878C108.023 232.206 108.625 232.698 109.062 233.355C109.508 234.011 109.73 234.831 109.73 235.816V241.241C109.73 241.937 109.773 242.507 109.859 242.952C109.945 243.39 110.07 243.773 110.234 244.101V244.3H106.824C106.66 243.956 106.535 243.527 106.449 243.011C106.371 242.488 106.332 241.964 106.332 241.441ZM106.777 236.577L106.801 238.488H104.914C104.469 238.488 104.082 238.538 103.754 238.64C103.426 238.741 103.156 238.886 102.945 239.073C102.734 239.253 102.578 239.464 102.477 239.706C102.383 239.948 102.336 240.214 102.336 240.503C102.336 240.792 102.402 241.054 102.535 241.288C102.668 241.515 102.859 241.695 103.109 241.827C103.359 241.952 103.652 242.015 103.988 242.015C104.496 242.015 104.938 241.913 105.312 241.71C105.688 241.507 105.977 241.257 106.18 240.96C106.391 240.663 106.5 240.382 106.508 240.116L107.398 241.546C107.273 241.866 107.102 242.198 106.883 242.542C106.672 242.886 106.402 243.21 106.074 243.515C105.746 243.812 105.352 244.058 104.891 244.253C104.43 244.441 103.883 244.534 103.25 244.534C102.445 244.534 101.715 244.374 101.059 244.054C100.41 243.726 99.8945 243.277 99.5117 242.706C99.1367 242.128 98.9492 241.472 98.9492 240.738C98.9492 240.073 99.0742 239.484 99.3242 238.968C99.5742 238.452 99.9414 238.019 100.426 237.667C100.918 237.308 101.531 237.038 102.266 236.859C103 236.671 103.852 236.577 104.82 236.577H106.777ZM103.016 229.909L105.312 226.3H108.98L105.758 229.909H103.016ZM119.188 240.796C119.188 240.554 119.117 240.335 118.977 240.14C118.836 239.945 118.574 239.765 118.191 239.601C117.816 239.429 117.273 239.273 116.562 239.132C115.922 238.991 115.324 238.816 114.77 238.605C114.223 238.386 113.746 238.124 113.34 237.82C112.941 237.515 112.629 237.156 112.402 236.741C112.176 236.32 112.062 235.839 112.062 235.3C112.062 234.769 112.176 234.269 112.402 233.8C112.637 233.331 112.969 232.917 113.398 232.558C113.836 232.191 114.367 231.906 114.992 231.702C115.625 231.491 116.336 231.386 117.125 231.386C118.227 231.386 119.172 231.562 119.961 231.913C120.758 232.265 121.367 232.749 121.789 233.366C122.219 233.976 122.434 234.671 122.434 235.452H119.059C119.059 235.124 118.988 234.831 118.848 234.573C118.715 234.308 118.504 234.101 118.215 233.952C117.934 233.796 117.566 233.718 117.113 233.718C116.738 233.718 116.414 233.784 116.141 233.917C115.867 234.042 115.656 234.214 115.508 234.433C115.367 234.644 115.297 234.878 115.297 235.136C115.297 235.331 115.336 235.507 115.414 235.663C115.5 235.812 115.637 235.948 115.824 236.073C116.012 236.198 116.254 236.316 116.551 236.425C116.855 236.527 117.23 236.62 117.676 236.706C118.59 236.894 119.406 237.14 120.125 237.445C120.844 237.741 121.414 238.148 121.836 238.663C122.258 239.171 122.469 239.839 122.469 240.667C122.469 241.23 122.344 241.745 122.094 242.214C121.844 242.683 121.484 243.093 121.016 243.445C120.547 243.788 119.984 244.058 119.328 244.253C118.68 244.441 117.949 244.534 117.137 244.534C115.957 244.534 114.957 244.323 114.137 243.902C113.324 243.48 112.707 242.945 112.285 242.296C111.871 241.64 111.664 240.968 111.664 240.281H114.863C114.879 240.741 114.996 241.113 115.215 241.394C115.441 241.675 115.727 241.878 116.07 242.003C116.422 242.128 116.801 242.191 117.207 242.191C117.645 242.191 118.008 242.132 118.297 242.015C118.586 241.89 118.805 241.726 118.953 241.523C119.109 241.312 119.188 241.07 119.188 240.796ZM128.223 231.62V244.3H124.836V231.62H128.223ZM124.625 228.316C124.625 227.823 124.797 227.417 125.141 227.097C125.484 226.777 125.945 226.616 126.523 226.616C127.094 226.616 127.551 226.777 127.895 227.097C128.246 227.417 128.422 227.823 128.422 228.316C128.422 228.808 128.246 229.214 127.895 229.534C127.551 229.855 127.094 230.015 126.523 230.015C125.945 230.015 125.484 229.855 125.141 229.534C124.797 229.214 124.625 228.808 124.625 228.316ZM136.25 241.898C136.664 241.898 137.031 241.82 137.352 241.663C137.672 241.499 137.922 241.273 138.102 240.984C138.289 240.687 138.387 240.339 138.395 239.941H141.57C141.562 240.831 141.324 241.624 140.855 242.32C140.387 243.007 139.758 243.55 138.969 243.948C138.18 244.339 137.297 244.534 136.32 244.534C135.336 244.534 134.477 244.37 133.742 244.042C133.016 243.714 132.41 243.261 131.926 242.683C131.441 242.097 131.078 241.417 130.836 240.644C130.594 239.863 130.473 239.027 130.473 238.136V237.796C130.473 236.898 130.594 236.062 130.836 235.288C131.078 234.507 131.441 233.827 131.926 233.249C132.41 232.663 133.016 232.206 133.742 231.878C134.469 231.55 135.32 231.386 136.297 231.386C137.336 231.386 138.246 231.585 139.027 231.984C139.816 232.382 140.434 232.952 140.879 233.695C141.332 234.429 141.562 235.3 141.57 236.308H138.395C138.387 235.886 138.297 235.503 138.125 235.159C137.961 234.816 137.719 234.542 137.398 234.339C137.086 234.128 136.699 234.023 136.238 234.023C135.746 234.023 135.344 234.128 135.031 234.339C134.719 234.542 134.477 234.823 134.305 235.183C134.133 235.534 134.012 235.937 133.941 236.39C133.879 236.835 133.848 237.304 133.848 237.796V238.136C133.848 238.628 133.879 239.101 133.941 239.554C134.004 240.007 134.121 240.409 134.293 240.761C134.473 241.113 134.719 241.39 135.031 241.593C135.344 241.796 135.75 241.898 136.25 241.898ZM142.988 238.089V237.843C142.988 236.913 143.121 236.058 143.387 235.277C143.652 234.488 144.039 233.804 144.547 233.226C145.055 232.648 145.68 232.198 146.422 231.878C147.164 231.55 148.016 231.386 148.977 231.386C149.938 231.386 150.793 231.55 151.543 231.878C152.293 232.198 152.922 232.648 153.43 233.226C153.945 233.804 154.336 234.488 154.602 235.277C154.867 236.058 155 236.913 155 237.843V238.089C155 239.011 154.867 239.866 154.602 240.656C154.336 241.437 153.945 242.12 153.43 242.706C152.922 243.284 152.297 243.734 151.555 244.054C150.812 244.374 149.961 244.534 149 244.534C148.039 244.534 147.184 244.374 146.434 244.054C145.691 243.734 145.062 243.284 144.547 242.706C144.039 242.12 143.652 241.437 143.387 240.656C143.121 239.866 142.988 239.011 142.988 238.089ZM146.363 237.843V238.089C146.363 238.62 146.41 239.116 146.504 239.577C146.598 240.038 146.746 240.445 146.949 240.796C147.16 241.14 147.434 241.409 147.77 241.605C148.105 241.8 148.516 241.898 149 241.898C149.469 241.898 149.871 241.8 150.207 241.605C150.543 241.409 150.812 241.14 151.016 240.796C151.219 240.445 151.367 240.038 151.461 239.577C151.562 239.116 151.613 238.62 151.613 238.089V237.843C151.613 237.327 151.562 236.843 151.461 236.39C151.367 235.929 151.215 235.523 151.004 235.171C150.801 234.812 150.531 234.531 150.195 234.327C149.859 234.124 149.453 234.023 148.977 234.023C148.5 234.023 148.094 234.124 147.758 234.327C147.43 234.531 147.16 234.812 146.949 235.171C146.746 235.523 146.598 235.929 146.504 236.39C146.41 236.843 146.363 237.327 146.363 237.843Z" fill="white"/>
</svg>
