<svg width="159" height="251" viewBox="0 0 159 251" fill="none" xmlns="http://www.w3.org/2000/svg">
<ellipse opacity="0.2" cx="79.4999" cy="182" rx="79" ry="16" fill="black"/>
<path d="M55.5318 19.056C54.3263 19.056 53.148 18.6985 52.1457 18.0288C51.1434 17.359 50.3621 16.4071 49.9008 15.2934C49.4395 14.1797 49.3188 12.9542 49.554 11.7719C49.7892 10.5896 50.3697 9.50355 51.2221 8.65115C52.0744 7.79875 53.1604 7.21826 54.3427 6.98308C55.525 6.74791 56.7505 6.86861 57.8642 7.32992C58.9779 7.79124 59.9298 8.57245 60.5995 9.57477C61.2693 10.5771 61.6267 11.7555 61.6267 12.961C61.6247 14.5768 60.9819 16.1259 59.8393 17.2685C58.6967 18.4111 57.1476 19.0539 55.5318 19.056V19.056ZM55.5318 11.4805C55.239 11.4805 54.9528 11.5673 54.7093 11.73C54.4658 11.8927 54.2761 12.1239 54.164 12.3944C54.052 12.6649 54.0227 12.9626 54.0798 13.2498C54.1369 13.537 54.2779 13.8008 54.485 14.0078C54.692 14.2149 54.9558 14.3559 55.243 14.413C55.5302 14.4701 55.8278 14.4408 56.0984 14.3288C56.3689 14.2167 56.6001 14.0269 56.7628 13.7835C56.9254 13.54 57.0123 13.2538 57.0123 12.961C57.0123 12.7665 56.974 12.574 56.8996 12.3944C56.8252 12.2148 56.7161 12.0516 56.5786 11.9141C56.4412 11.7766 56.278 11.6676 56.0984 11.5932C55.9187 11.5188 55.7262 11.4805 55.5318 11.4805V11.4805Z" fill="#E7F6FF"/>
<path d="M66.4062 15.9275C67.587 15.9275 68.5442 14.9703 68.5442 13.7895C68.5442 12.6087 67.587 11.6514 66.4062 11.6514C65.2254 11.6514 64.2681 12.6087 64.2681 13.7895C64.2681 14.9703 65.2254 15.9275 66.4062 15.9275Z" fill="#E7F6FF"/>
<g opacity="0.5">
<path opacity="0.5" d="M97.397 125.318V130.014C96.0395 134.332 93.9054 139.385 91.1021 144.957C89.9485 147.168 88.7141 149.502 87.3913 151.902C88.295 150.364 89.164 148.86 90.0023 147.36C89.0256 149.214 87.9912 151.14 86.8991 153.098V145.792L87.2221 145.18L86.8991 145.757V145.488C87.3862 144.567 87.8604 143.67 88.3219 142.796C91.3636 136.743 93.6208 131.31 94.9513 126.757C95.7781 126.291 96.5933 125.811 97.397 125.318Z" fill="#BBD2E5"/>
</g>
<path d="M117.596 57.1275C117.55 78.4697 100.054 95.8817 78.7197 95.8356C60.2427 95.7971 44.6997 82.6689 40.9043 65.2875C40.5122 63.0543 40.3179 60.7908 40.3237 58.5234C40.3698 37.1929 57.8662 19.7693 79.1965 19.8154C97.6543 19.8539 113.17 32.9475 117 50.2827C116.999 50.2916 116.999 50.3007 117 50.3096C117.401 52.5601 117.6 54.8417 117.596 57.1275V57.1275Z" fill="white"/>
<path d="M76.4428 3.25136C40.5616 3.17445 18.2085 25.7548 18.1201 61.3134C18.097 72.3036 23.8881 89.4465 33.8553 110.15C38.3621 118.891 43.8533 128.608 49.6213 138.31C56.7045 150.285 64.4375 162.263 72.1744 173.269L76.0429 178.453C77.3387 176.834 78.6346 175.223 79.9305 173.284C87.7174 161.99 95.4966 150.366 102.618 138.426C108.459 128.739 113.654 119.052 118.196 110.335C128.578 89.6696 134.442 72.5497 134.466 61.5595C134.577 26.9738 111.355 3.32826 76.4428 3.25136ZM76.239 96.9835C54.9049 96.9374 37.4853 79.4484 37.5315 58.1102C37.5776 36.7719 55.0741 19.3675 76.4082 19.4137C97.7423 19.4598 115.162 36.9526 115.116 58.287C115.069 79.6215 97.5731 97.0412 76.239 96.9835Z" fill="#F2F47C"/>
<path d="M118.688 114.651C114.696 122.215 110.247 130.356 105.337 138.493C98.2034 150.433 90.4204 162.057 82.6489 173.351C81.353 175.274 80.0571 176.901 78.7574 178.52L74.8774 173.34C67.1405 162.334 59.4075 150.356 52.3436 138.385C46.5409 128.672 41.0689 118.962 36.5775 110.225C26.5796 89.5136 20.7885 72.3668 20.8115 61.3766C20.8423 46.7025 24.6569 34.2433 31.6709 24.6682C28.8983 31.8899 27.4409 40.1153 27.4102 49.1828C27.3871 60.173 33.1782 77.3197 43.1454 98.0197C47.6522 106.756 53.1242 116.478 58.9114 126.18C65.9946 138.15 73.7277 150.129 81.4607 161.135L85.3291 166.318C86.6289 164.699 87.9248 163.088 89.2206 161.15C97.0037 149.856 104.787 138.231 111.908 126.291C114.292 122.4 116.542 118.493 118.688 114.651Z" fill="#DCDE6E"/>
<path d="M78.6693 182.3L72.6782 174.267C64.9182 163.231 57.0813 151.083 50.0097 139.131C43.9533 128.991 38.4736 119.2 34.1553 110.833L34.1245 110.767C23.4805 88.6793 18.097 71.8479 18.1201 60.7577C18.1585 42.5342 23.8881 27.2179 34.6552 16.4546C45.4222 5.69123 60.7268 0 78.9423 0H79.1307C96.954 0.0384542 112.201 5.92195 123.187 17.0083C134.173 28.0947 139.914 43.2726 139.88 61.0076C139.857 72.2094 134.112 89.4945 123.326 110.998V111.033C119.272 118.812 113.831 129.049 107.667 139.274C100.03 152.056 91.8589 164.138 84.8757 174.267C83.549 176.247 82.2108 177.916 80.9188 179.531L78.6693 182.3ZM77.058 171.148L78.8 173.482C79.3345 172.775 79.8652 172.037 80.3958 171.244C87.3367 161.123 95.4658 149.149 103.026 136.493C109.117 126.399 114.5 116.263 118.519 108.556C128.947 87.8141 134.469 71.3711 134.492 61C134.566 27.8063 112.309 5.45666 79.1192 5.38359H78.9423C44.8146 5.38359 23.5766 26.5873 23.5036 60.7577C23.4805 70.8904 28.8256 87.3603 38.9581 108.395C43.2188 116.659 48.6408 126.334 54.6511 136.378C61.6381 148.206 69.3865 160.223 77.058 171.121V171.148ZM79.0076 99.1389H78.9154C67.9106 99.1271 57.3612 94.7442 49.588 86.9543C41.8148 79.1643 37.4544 68.6055 37.4661 57.6006C37.4778 46.5957 41.8607 36.0462 49.6505 28.2728C57.4404 20.4995 67.9991 16.1391 79.0038 16.1508H79.0961C87.301 16.1595 95.3187 18.6039 102.133 23.1741C108.947 27.7444 114.251 34.2348 117.373 41.8227C120.495 49.4107 121.294 57.7546 119.669 65.7971C118.043 73.8396 114.067 81.2186 108.244 86.9989C104.411 90.8485 99.8549 93.9019 94.8372 95.9834C89.8196 98.0649 84.4399 99.1334 79.0076 99.1273V99.1389ZM79.0076 21.5574C69.4978 21.6449 60.4067 25.4815 53.7094 32.2337C47.012 38.9858 43.2496 48.108 43.2395 57.6183C43.2293 67.1286 46.9723 76.2588 53.6553 83.0252C60.3382 89.7916 69.4211 93.6475 78.9307 93.7553H79.0115C88.5884 93.765 97.777 89.9698 104.556 83.2046C111.335 76.4394 115.148 67.2584 115.158 57.6814C115.168 48.1043 111.373 38.9156 104.607 32.1367C97.8424 25.3578 88.6615 21.5441 79.0845 21.5344L79.0076 21.5574Z" fill="#426572"/>
<path d="M57.4999 55.575V74.4876C57.4999 75.1022 57.9977 75.6001 58.6124 75.6001H64.1749V53.35H59.7249C58.4963 53.35 57.4999 54.3464 57.4999 55.575ZM82.5312 52.2375H80.8624V49.4563C80.8624 49.1489 80.6135 48.9 80.3062 48.9H79.1937C78.8863 48.9 78.6374 49.1489 78.6374 49.4563V53.9063C78.6374 54.2136 78.8863 54.4625 79.1937 54.4625H82.5312C82.8385 54.4625 83.0874 54.2136 83.0874 53.9063V52.7938C83.0874 52.4865 82.8385 52.2375 82.5312 52.2375ZM92.1091 47.7903L80.9841 40.3734C80.6185 40.1299 80.1891 40 79.7499 40C79.3107 40 78.8813 40.1299 78.5157 40.3734L67.3907 47.7903C67.086 47.9935 66.8361 48.2687 66.6633 48.5916C66.4905 48.9144 66.4 49.275 66.3999 49.6412V75.6001H75.2999V65.5876C75.2999 64.9729 75.7978 64.4751 76.4124 64.4751H83.0874C83.7021 64.4751 84.1999 64.9729 84.1999 65.5876V75.6001H93.1V49.6419C93.1 48.8979 92.728 48.2026 92.1091 47.7903ZM79.7499 57.8C76.678 57.8 74.1874 55.3094 74.1874 52.2375C74.1874 49.1656 76.678 46.675 79.7499 46.675C82.8218 46.675 85.3124 49.1656 85.3124 52.2375C85.3124 55.3094 82.8218 57.8 79.7499 57.8ZM99.775 53.35H95.325V75.6001H100.887C101.502 75.6001 102 75.1022 102 74.4876V55.575C102 54.3464 101.004 53.35 99.775 53.35Z" fill="#282C4D"/>
<path d="M126.417 40.1836C127.531 42.8926 128.399 45.6962 129.012 48.5605C129.143 49.2209 129.242 49.8697 129.35 50.4801C129.457 51.0905 129.576 51.7163 129.615 52.3113L129.772 54.0313C129.814 54.5841 129.88 55.11 129.872 55.6168C129.872 56.6303 129.891 57.5363 129.872 58.3464C129.853 59.1564 129.757 59.8398 129.688 60.4003C129.542 61.5252 129.361 62.1394 129.162 62.1394C128.962 62.1394 128.751 61.5252 128.544 60.431C128.436 59.882 128.356 59.214 128.229 58.4424C128.102 57.6707 127.941 56.7954 127.795 55.8318C127.734 55.3481 127.611 54.849 127.511 54.3269L127.196 52.7029C127.108 52.1386 126.931 51.5704 126.812 50.9792C126.693 50.3879 126.536 49.7775 126.375 49.1594C125.646 46.4879 124.755 43.8634 123.706 41.3008C122.616 38.7573 121.359 36.2885 119.944 33.9105L118.965 32.3288L117.982 30.8585C117.675 30.3747 117.349 29.9332 117.038 29.5033C116.727 29.0733 116.439 28.651 116.147 28.2594C113.809 25.1344 112.197 23.2686 112.489 22.9499C112.78 22.6313 114.88 24.0095 117.729 26.9119C118.086 27.2728 118.435 27.6797 118.808 28.0828C119.18 28.4859 119.576 28.9236 119.933 29.3958C120.29 29.868 120.7 30.344 121.084 30.8508L122.236 32.4594C123.87 34.8967 125.27 37.483 126.417 40.1836V40.1836Z" fill="white"/>
<path d="M103.386 14.4156C105.943 15.8975 107.471 17.8516 106.995 18.4927C106.519 19.1338 104.308 18.343 101.908 16.9571C99.5087 15.5712 97.7427 14.097 98.0307 13.3522C98.3186 12.6074 100.837 12.926 103.386 14.4156Z" fill="white"/>
<path d="M16.2109 241.558V244.3H7.12891V241.558H16.2109ZM8.27734 227.238V244.3H4.76172V227.238H8.27734ZM15.0273 234.187V236.859H7.12891V234.187H15.0273ZM16.1992 227.238V229.991H7.12891V227.238H16.1992ZM21.3555 234.327V244.3H17.9805V231.62H21.1445L21.3555 234.327ZM20.8633 237.515H19.9492C19.9492 236.577 20.0703 235.734 20.3125 234.984C20.5547 234.226 20.8945 233.581 21.332 233.05C21.7695 232.511 22.2891 232.101 22.8906 231.82C23.5 231.531 24.1797 231.386 24.9297 231.386C25.5234 231.386 26.0664 231.472 26.5586 231.644C27.0508 231.816 27.4727 232.089 27.8242 232.464C28.1836 232.839 28.457 233.335 28.6445 233.952C28.8398 234.57 28.9375 235.323 28.9375 236.214V244.3H25.5391V236.202C25.5391 235.64 25.4609 235.202 25.3047 234.89C25.1484 234.577 24.918 234.359 24.6133 234.234C24.3164 234.101 23.9492 234.034 23.5117 234.034C23.0586 234.034 22.6641 234.124 22.3281 234.304C22 234.484 21.7266 234.734 21.5078 235.054C21.2969 235.366 21.1367 235.734 21.0273 236.156C20.918 236.577 20.8633 237.031 20.8633 237.515ZM38.3594 240.796C38.3594 240.554 38.2891 240.335 38.1484 240.14C38.0078 239.945 37.7461 239.765 37.3633 239.601C36.9883 239.429 36.4453 239.273 35.7344 239.132C35.0938 238.991 34.4961 238.816 33.9414 238.605C33.3945 238.386 32.918 238.124 32.5117 237.82C32.1133 237.515 31.8008 237.156 31.5742 236.741C31.3477 236.32 31.2344 235.839 31.2344 235.3C31.2344 234.769 31.3477 234.269 31.5742 233.8C31.8086 233.331 32.1406 232.917 32.5703 232.558C33.0078 232.191 33.5391 231.906 34.1641 231.702C34.7969 231.491 35.5078 231.386 36.2969 231.386C37.3984 231.386 38.3438 231.562 39.1328 231.913C39.9297 232.265 40.5391 232.749 40.9609 233.366C41.3906 233.976 41.6055 234.671 41.6055 235.452H38.2305C38.2305 235.124 38.1602 234.831 38.0195 234.573C37.8867 234.308 37.6758 234.101 37.3867 233.952C37.1055 233.796 36.7383 233.718 36.2852 233.718C35.9102 233.718 35.5859 233.784 35.3125 233.917C35.0391 234.042 34.8281 234.214 34.6797 234.433C34.5391 234.644 34.4688 234.878 34.4688 235.136C34.4688 235.331 34.5078 235.507 34.5859 235.663C34.6719 235.812 34.8086 235.948 34.9961 236.073C35.1836 236.198 35.4258 236.316 35.7227 236.425C36.0273 236.527 36.4023 236.62 36.8477 236.706C37.7617 236.894 38.5781 237.14 39.2969 237.445C40.0156 237.741 40.5859 238.148 41.0078 238.663C41.4297 239.171 41.6406 239.839 41.6406 240.667C41.6406 241.23 41.5156 241.745 41.2656 242.214C41.0156 242.683 40.6562 243.093 40.1875 243.445C39.7188 243.788 39.1562 244.058 38.5 244.253C37.8516 244.441 37.1211 244.534 36.3086 244.534C35.1289 244.534 34.1289 244.323 33.3086 243.902C32.4961 243.48 31.8789 242.945 31.457 242.296C31.043 241.64 30.8359 240.968 30.8359 240.281H34.0352C34.0508 240.741 34.168 241.113 34.3867 241.394C34.6133 241.675 34.8984 241.878 35.2422 242.003C35.5938 242.128 35.9727 242.191 36.3789 242.191C36.8164 242.191 37.1797 242.132 37.4688 242.015C37.7578 241.89 37.9766 241.726 38.125 241.523C38.2812 241.312 38.3594 241.07 38.3594 240.796ZM47.3945 231.62V244.3H44.0078V231.62H47.3945ZM43.7969 228.316C43.7969 227.823 43.9688 227.417 44.3125 227.097C44.6562 226.777 45.1172 226.616 45.6953 226.616C46.2656 226.616 46.7227 226.777 47.0664 227.097C47.418 227.417 47.5938 227.823 47.5938 228.316C47.5938 228.808 47.418 229.214 47.0664 229.534C46.7227 229.855 46.2656 230.015 45.6953 230.015C45.1172 230.015 44.6562 229.855 44.3125 229.534C43.9688 229.214 43.7969 228.808 43.7969 228.316ZM53.4883 234.327V244.3H50.1133V231.62H53.2773L53.4883 234.327ZM52.9961 237.515H52.082C52.082 236.577 52.2031 235.734 52.4453 234.984C52.6875 234.226 53.0273 233.581 53.4648 233.05C53.9023 232.511 54.4219 232.101 55.0234 231.82C55.6328 231.531 56.3125 231.386 57.0625 231.386C57.6562 231.386 58.1992 231.472 58.6914 231.644C59.1836 231.816 59.6055 232.089 59.957 232.464C60.3164 232.839 60.5898 233.335 60.7773 233.952C60.9727 234.57 61.0703 235.323 61.0703 236.214V244.3H57.6719V236.202C57.6719 235.64 57.5938 235.202 57.4375 234.89C57.2812 234.577 57.0508 234.359 56.7461 234.234C56.4492 234.101 56.082 234.034 55.6445 234.034C55.1914 234.034 54.7969 234.124 54.4609 234.304C54.1328 234.484 53.8594 234.734 53.6406 235.054C53.4297 235.366 53.2695 235.734 53.1602 236.156C53.0508 236.577 52.9961 237.031 52.9961 237.515ZM63.0977 238.089V237.843C63.0977 236.913 63.2305 236.058 63.4961 235.277C63.7617 234.488 64.1484 233.804 64.6562 233.226C65.1641 232.648 65.7891 232.198 66.5312 231.878C67.2734 231.55 68.125 231.386 69.0859 231.386C70.0469 231.386 70.9023 231.55 71.6523 231.878C72.4023 232.198 73.0312 232.648 73.5391 233.226C74.0547 233.804 74.4453 234.488 74.7109 235.277C74.9766 236.058 75.1094 236.913 75.1094 237.843V238.089C75.1094 239.011 74.9766 239.866 74.7109 240.656C74.4453 241.437 74.0547 242.12 73.5391 242.706C73.0312 243.284 72.4062 243.734 71.6641 244.054C70.9219 244.374 70.0703 244.534 69.1094 244.534C68.1484 244.534 67.293 244.374 66.543 244.054C65.8008 243.734 65.1719 243.284 64.6562 242.706C64.1484 242.12 63.7617 241.437 63.4961 240.656C63.2305 239.866 63.0977 239.011 63.0977 238.089ZM66.4727 237.843V238.089C66.4727 238.62 66.5195 239.116 66.6133 239.577C66.707 240.038 66.8555 240.445 67.0586 240.796C67.2695 241.14 67.543 241.409 67.8789 241.605C68.2148 241.8 68.625 241.898 69.1094 241.898C69.5781 241.898 69.9805 241.8 70.3164 241.605C70.6523 241.409 70.9219 241.14 71.125 240.796C71.3281 240.445 71.4766 240.038 71.5703 239.577C71.6719 239.116 71.7227 238.62 71.7227 238.089V237.843C71.7227 237.327 71.6719 236.843 71.5703 236.39C71.4766 235.929 71.3242 235.523 71.1133 235.171C70.9102 234.812 70.6406 234.531 70.3047 234.327C69.9688 234.124 69.5625 234.023 69.0859 234.023C68.6094 234.023 68.2031 234.124 67.8672 234.327C67.5391 234.531 67.2695 234.812 67.0586 235.171C66.8555 235.523 66.707 235.929 66.6133 236.39C66.5195 236.843 66.4727 237.327 66.4727 237.843ZM90.0508 236.812H85.668L85.6445 234.398H89.3242C89.9727 234.398 90.5039 234.316 90.918 234.152C91.332 233.98 91.6406 233.734 91.8438 233.413C92.0547 233.085 92.1602 232.687 92.1602 232.218C92.1602 231.687 92.0586 231.257 91.8555 230.929C91.6602 230.601 91.3516 230.363 90.9297 230.214C90.5156 230.066 89.9805 229.991 89.3242 229.991H86.8867V244.3H83.3711V227.238H89.3242C90.3164 227.238 91.2031 227.331 91.9844 227.519C92.7734 227.706 93.4414 227.991 93.9883 228.374C94.5352 228.757 94.9531 229.241 95.2422 229.827C95.5312 230.406 95.6758 231.093 95.6758 231.89C95.6758 232.593 95.5156 233.241 95.1953 233.835C94.8828 234.429 94.3867 234.913 93.707 235.288C93.0352 235.663 92.1562 235.87 91.0703 235.909L90.0508 236.812ZM89.8984 244.3H84.707L86.0781 241.558H89.8984C90.5156 241.558 91.0195 241.46 91.4102 241.265C91.8008 241.062 92.0898 240.788 92.2773 240.445C92.4648 240.101 92.5586 239.706 92.5586 239.261C92.5586 238.761 92.4727 238.327 92.3008 237.96C92.1367 237.593 91.8711 237.312 91.5039 237.116C91.1367 236.913 90.6523 236.812 90.0508 236.812H86.6641L86.6875 234.398H90.9062L91.7148 235.347C92.7539 235.331 93.5898 235.515 94.2227 235.898C94.8633 236.273 95.3281 236.761 95.6172 237.363C95.9141 237.964 96.0625 238.609 96.0625 239.296C96.0625 240.39 95.8242 241.312 95.3477 242.062C94.8711 242.804 94.1719 243.363 93.25 243.738C92.3359 244.113 91.2188 244.3 89.8984 244.3ZM105.332 241.441V235.792C105.332 235.386 105.266 235.038 105.133 234.749C105 234.452 104.793 234.222 104.512 234.058C104.238 233.894 103.883 233.812 103.445 233.812C103.07 233.812 102.746 233.878 102.473 234.011C102.199 234.136 101.988 234.32 101.84 234.562C101.691 234.796 101.617 235.073 101.617 235.394H98.2422C98.2422 234.855 98.3672 234.343 98.6172 233.859C98.8672 233.374 99.2305 232.948 99.707 232.581C100.184 232.206 100.75 231.913 101.406 231.702C102.07 231.491 102.812 231.386 103.633 231.386C104.617 231.386 105.492 231.55 106.258 231.878C107.023 232.206 107.625 232.698 108.062 233.355C108.508 234.011 108.73 234.831 108.73 235.816V241.241C108.73 241.937 108.773 242.507 108.859 242.952C108.945 243.39 109.07 243.773 109.234 244.101V244.3H105.824C105.66 243.956 105.535 243.527 105.449 243.011C105.371 242.488 105.332 241.964 105.332 241.441ZM105.777 236.577L105.801 238.488H103.914C103.469 238.488 103.082 238.538 102.754 238.64C102.426 238.741 102.156 238.886 101.945 239.073C101.734 239.253 101.578 239.464 101.477 239.706C101.383 239.948 101.336 240.214 101.336 240.503C101.336 240.792 101.402 241.054 101.535 241.288C101.668 241.515 101.859 241.695 102.109 241.827C102.359 241.952 102.652 242.015 102.988 242.015C103.496 242.015 103.938 241.913 104.312 241.71C104.688 241.507 104.977 241.257 105.18 240.96C105.391 240.663 105.5 240.382 105.508 240.116L106.398 241.546C106.273 241.866 106.102 242.198 105.883 242.542C105.672 242.886 105.402 243.21 105.074 243.515C104.746 243.812 104.352 244.058 103.891 244.253C103.43 244.441 102.883 244.534 102.25 244.534C101.445 244.534 100.715 244.374 100.059 244.054C99.4102 243.726 98.8945 243.277 98.5117 242.706C98.1367 242.128 97.9492 241.472 97.9492 240.738C97.9492 240.073 98.0742 239.484 98.3242 238.968C98.5742 238.452 98.9414 238.019 99.4258 237.667C99.918 237.308 100.531 237.038 101.266 236.859C102 236.671 102.852 236.577 103.82 236.577H105.777ZM102.016 229.909L104.312 226.3H107.98L104.758 229.909H102.016ZM118.188 240.796C118.188 240.554 118.117 240.335 117.977 240.14C117.836 239.945 117.574 239.765 117.191 239.601C116.816 239.429 116.273 239.273 115.562 239.132C114.922 238.991 114.324 238.816 113.77 238.605C113.223 238.386 112.746 238.124 112.34 237.82C111.941 237.515 111.629 237.156 111.402 236.741C111.176 236.32 111.062 235.839 111.062 235.3C111.062 234.769 111.176 234.269 111.402 233.8C111.637 233.331 111.969 232.917 112.398 232.558C112.836 232.191 113.367 231.906 113.992 231.702C114.625 231.491 115.336 231.386 116.125 231.386C117.227 231.386 118.172 231.562 118.961 231.913C119.758 232.265 120.367 232.749 120.789 233.366C121.219 233.976 121.434 234.671 121.434 235.452H118.059C118.059 235.124 117.988 234.831 117.848 234.573C117.715 234.308 117.504 234.101 117.215 233.952C116.934 233.796 116.566 233.718 116.113 233.718C115.738 233.718 115.414 233.784 115.141 233.917C114.867 234.042 114.656 234.214 114.508 234.433C114.367 234.644 114.297 234.878 114.297 235.136C114.297 235.331 114.336 235.507 114.414 235.663C114.5 235.812 114.637 235.948 114.824 236.073C115.012 236.198 115.254 236.316 115.551 236.425C115.855 236.527 116.23 236.62 116.676 236.706C117.59 236.894 118.406 237.14 119.125 237.445C119.844 237.741 120.414 238.148 120.836 238.663C121.258 239.171 121.469 239.839 121.469 240.667C121.469 241.23 121.344 241.745 121.094 242.214C120.844 242.683 120.484 243.093 120.016 243.445C119.547 243.788 118.984 244.058 118.328 244.253C117.68 244.441 116.949 244.534 116.137 244.534C114.957 244.534 113.957 244.323 113.137 243.902C112.324 243.48 111.707 242.945 111.285 242.296C110.871 241.64 110.664 240.968 110.664 240.281H113.863C113.879 240.741 113.996 241.113 114.215 241.394C114.441 241.675 114.727 241.878 115.07 242.003C115.422 242.128 115.801 242.191 116.207 242.191C116.645 242.191 117.008 242.132 117.297 242.015C117.586 241.89 117.805 241.726 117.953 241.523C118.109 241.312 118.188 241.07 118.188 240.796ZM127.223 231.62V244.3H123.836V231.62H127.223ZM123.625 228.316C123.625 227.823 123.797 227.417 124.141 227.097C124.484 226.777 124.945 226.616 125.523 226.616C126.094 226.616 126.551 226.777 126.895 227.097C127.246 227.417 127.422 227.823 127.422 228.316C127.422 228.808 127.246 229.214 126.895 229.534C126.551 229.855 126.094 230.015 125.523 230.015C124.945 230.015 124.484 229.855 124.141 229.534C123.797 229.214 123.625 228.808 123.625 228.316ZM135.25 241.898C135.664 241.898 136.031 241.82 136.352 241.663C136.672 241.499 136.922 241.273 137.102 240.984C137.289 240.687 137.387 240.339 137.395 239.941H140.57C140.562 240.831 140.324 241.624 139.855 242.32C139.387 243.007 138.758 243.55 137.969 243.948C137.18 244.339 136.297 244.534 135.32 244.534C134.336 244.534 133.477 244.37 132.742 244.042C132.016 243.714 131.41 243.261 130.926 242.683C130.441 242.097 130.078 241.417 129.836 240.644C129.594 239.863 129.473 239.027 129.473 238.136V237.796C129.473 236.898 129.594 236.062 129.836 235.288C130.078 234.507 130.441 233.827 130.926 233.249C131.41 232.663 132.016 232.206 132.742 231.878C133.469 231.55 134.32 231.386 135.297 231.386C136.336 231.386 137.246 231.585 138.027 231.984C138.816 232.382 139.434 232.952 139.879 233.695C140.332 234.429 140.562 235.3 140.57 236.308H137.395C137.387 235.886 137.297 235.503 137.125 235.159C136.961 234.816 136.719 234.542 136.398 234.339C136.086 234.128 135.699 234.023 135.238 234.023C134.746 234.023 134.344 234.128 134.031 234.339C133.719 234.542 133.477 234.823 133.305 235.183C133.133 235.534 133.012 235.937 132.941 236.39C132.879 236.835 132.848 237.304 132.848 237.796V238.136C132.848 238.628 132.879 239.101 132.941 239.554C133.004 240.007 133.121 240.409 133.293 240.761C133.473 241.113 133.719 241.39 134.031 241.593C134.344 241.796 134.75 241.898 135.25 241.898ZM141.988 238.089V237.843C141.988 236.913 142.121 236.058 142.387 235.277C142.652 234.488 143.039 233.804 143.547 233.226C144.055 232.648 144.68 232.198 145.422 231.878C146.164 231.55 147.016 231.386 147.977 231.386C148.938 231.386 149.793 231.55 150.543 231.878C151.293 232.198 151.922 232.648 152.43 233.226C152.945 233.804 153.336 234.488 153.602 235.277C153.867 236.058 154 236.913 154 237.843V238.089C154 239.011 153.867 239.866 153.602 240.656C153.336 241.437 152.945 242.12 152.43 242.706C151.922 243.284 151.297 243.734 150.555 244.054C149.812 244.374 148.961 244.534 148 244.534C147.039 244.534 146.184 244.374 145.434 244.054C144.691 243.734 144.062 243.284 143.547 242.706C143.039 242.12 142.652 241.437 142.387 240.656C142.121 239.866 141.988 239.011 141.988 238.089ZM145.363 237.843V238.089C145.363 238.62 145.41 239.116 145.504 239.577C145.598 240.038 145.746 240.445 145.949 240.796C146.16 241.14 146.434 241.409 146.77 241.605C147.105 241.8 147.516 241.898 148 241.898C148.469 241.898 148.871 241.8 149.207 241.605C149.543 241.409 149.812 241.14 150.016 240.796C150.219 240.445 150.367 240.038 150.461 239.577C150.562 239.116 150.613 238.62 150.613 238.089V237.843C150.613 237.327 150.562 236.843 150.461 236.39C150.367 235.929 150.215 235.523 150.004 235.171C149.801 234.812 149.531 234.531 149.195 234.327C148.859 234.124 148.453 234.023 147.977 234.023C147.5 234.023 147.094 234.124 146.758 234.327C146.43 234.531 146.16 234.812 145.949 235.171C145.746 235.523 145.598 235.929 145.504 236.39C145.41 236.843 145.363 237.327 145.363 237.843Z" fill="white"/>
</svg>
