<svg width="175" height="251" viewBox="0 0 175 251" fill="none" xmlns="http://www.w3.org/2000/svg">
<ellipse opacity="0.2" cx="87" cy="182" rx="79" ry="16" fill="black"/>
<path d="M64.0316 19.0563C62.8261 19.0563 61.6477 18.6989 60.6454 18.0291C59.6431 17.3594 58.8619 16.4075 58.4005 15.2938C57.9392 14.1801 57.8185 12.9546 58.0537 11.7723C58.2889 10.5899 58.8694 9.50392 59.7218 8.65152C60.5742 7.79912 61.6602 7.21863 62.8425 6.98345C64.0248 6.74827 65.2503 6.86897 66.364 7.33029C67.4778 7.79161 68.4297 8.57282 69.0994 9.57513C69.7691 10.5775 70.1266 11.7559 70.1266 12.9613C70.1245 14.5772 69.4817 16.1263 68.3392 17.2689C67.1966 18.4115 65.6475 19.0543 64.0316 19.0563V19.0563ZM64.0316 11.4808C63.7388 11.4808 63.4525 11.5677 63.2091 11.7304C62.9656 11.893 62.7758 12.1243 62.6638 12.3948C62.5517 12.6653 62.5224 12.963 62.5795 13.2502C62.6367 13.5373 62.7777 13.8011 62.9847 14.0082C63.1918 14.2152 63.4556 14.3562 63.7428 14.4134C64.0299 14.4705 64.3276 14.4412 64.5981 14.3291C64.8687 14.2171 65.0999 14.0273 65.2626 13.7838C65.4252 13.5404 65.5121 13.2541 65.5121 12.9613C65.5121 12.7669 65.4738 12.5744 65.3994 12.3948C65.325 12.2152 65.2159 12.0519 65.0784 11.9145C64.941 11.777 64.7778 11.6679 64.5981 11.5935C64.4185 11.5191 64.226 11.4808 64.0316 11.4808V11.4808Z" fill="#E7F6FF"/>
<path d="M74.9057 15.9279C76.0865 15.9279 77.0438 14.9707 77.0438 13.7899C77.0438 12.609 76.0865 11.6518 74.9057 11.6518C73.7249 11.6518 72.7676 12.609 72.7676 13.7899C72.7676 14.9707 73.7249 15.9279 74.9057 15.9279Z" fill="#E7F6FF"/>
<g opacity="0.5">
<path opacity="0.5" d="M105.896 125.319V130.014C104.539 134.332 102.404 139.385 99.6012 144.957C98.4476 147.168 97.2132 149.502 95.8903 151.902C96.794 150.364 97.6631 148.86 98.5014 147.361C97.5246 149.214 96.4902 151.141 95.3981 153.098V145.792L95.7211 145.18L95.3981 145.757V145.488C95.8852 144.568 96.3595 143.67 96.8209 142.796C99.8627 136.743 102.12 131.31 103.45 126.757C104.277 126.291 105.092 125.811 105.896 125.319Z" fill="#BBD2E5"/>
</g>
<path d="M126.096 57.1277C126.05 78.4698 108.554 95.8819 87.2192 95.8357C68.742 95.7973 53.1988 82.669 49.4034 65.2877C49.0113 63.0544 48.817 60.791 48.8227 58.5236C48.8688 37.193 66.3655 19.7694 87.6961 19.8155C106.154 19.854 121.67 32.9476 125.5 50.2828C125.499 50.2917 125.499 50.3008 125.5 50.3097C125.901 52.5602 126.1 54.8419 126.096 57.1277V57.1277Z" fill="white"/>
<path d="M84.9428 3.25166C49.0611 3.17475 26.7077 25.7551 26.6192 61.3137C26.5961 72.304 32.3873 89.4469 42.3547 110.151C46.8615 118.891 52.3528 128.609 58.1209 138.311C65.2042 150.285 72.9373 162.264 80.6743 173.269L84.5428 178.453C85.8387 176.834 87.1347 175.223 88.4306 173.285C96.2175 161.991 103.997 150.366 111.119 138.426C116.96 128.739 122.155 119.053 126.696 110.335C137.079 89.6699 142.943 72.5501 142.966 61.5598C143.078 26.9741 119.855 3.32857 84.9428 3.25166ZM84.739 96.9839C63.4045 96.9377 45.9848 79.4488 46.0309 58.1105C46.0771 36.7722 63.5737 19.3678 84.9082 19.414C106.243 19.4601 123.662 36.953 123.616 58.2874C123.57 79.6218 106.073 97.0416 84.739 96.9839Z" fill="#B169DD"/>
<path d="M127.188 114.652C123.197 122.216 118.748 130.357 113.837 138.494C106.704 150.434 98.9205 162.058 91.1489 173.352C89.853 175.275 88.5571 176.902 87.2574 178.521L83.3773 173.341C75.6403 162.335 67.9072 150.357 60.8431 138.386C55.0404 128.672 49.5683 118.963 45.0769 110.226C35.0788 89.5145 29.2876 72.3677 29.3106 61.3775C29.3414 46.7033 33.1561 34.2442 40.1701 24.6691C37.3976 31.8908 35.9402 40.1161 35.9094 49.1836C35.8863 60.1739 41.6775 77.3206 51.6449 98.0205C56.1517 106.757 61.6237 116.479 67.4111 126.181C74.4944 138.151 82.2275 150.13 89.9607 161.135L93.8292 166.319C95.1289 164.7 96.4248 163.089 97.7208 161.151C105.504 149.857 113.287 138.232 120.409 126.292C122.793 122.401 125.042 118.494 127.188 114.652Z" fill="#9D5EC4"/>
<path d="M87.1692 182.3L81.1781 174.267C73.418 163.231 65.581 151.083 58.5093 139.131C52.4527 128.991 46.973 119.2 42.6546 110.833L42.6238 110.767C31.9797 88.6793 26.5961 71.8479 26.6192 60.7577C26.6576 42.5342 32.3873 27.2179 43.1545 16.4546C53.9217 5.69123 69.2265 0 87.4423 0H87.6307C105.454 0.0384542 120.701 5.92195 131.688 17.0083C142.674 28.0947 148.415 43.2726 148.381 61.0077C148.358 72.2094 142.613 89.4946 131.826 110.998V111.033C127.773 118.812 122.332 129.049 116.168 139.274C108.531 152.056 100.359 164.138 93.3758 174.267C92.0491 176.247 90.7109 177.916 89.4188 179.531L87.1692 182.3ZM85.558 171.148L87.3 173.482C87.8345 172.775 88.3652 172.037 88.8958 171.244C95.8368 161.123 103.966 149.149 111.526 136.493C117.617 126.399 123.001 116.263 127.019 108.556C137.448 87.8141 142.97 71.3711 142.993 61C143.066 27.8063 120.809 5.45666 87.6192 5.38359H87.4423C53.3141 5.38359 32.0758 26.5873 32.0028 60.7577C31.9797 70.8904 37.3248 87.3604 47.4575 108.395C51.7183 116.659 57.1403 126.334 63.1507 136.378C70.1379 148.207 77.8864 160.223 85.558 171.121V171.148ZM87.5076 99.1389H87.4153C76.4104 99.1272 65.8609 94.7442 58.0876 86.9543C50.3142 79.1644 45.9538 68.6055 45.9655 57.6006C45.9772 46.5957 50.3602 36.0462 58.1501 28.2728C65.94 20.4995 76.4989 16.1391 87.5038 16.1508H87.5961C95.8011 16.1595 103.819 18.6039 110.633 23.1741C117.448 27.7444 122.752 34.2348 125.874 41.8227C128.996 49.4107 129.795 57.7547 128.169 65.7971C126.544 73.8396 122.568 81.2186 116.744 86.9989C112.912 90.8485 108.355 93.9019 103.337 95.9834C98.3198 98.065 92.9399 99.1334 87.5076 99.1274V99.1389ZM87.5076 21.5575C77.9977 21.6449 68.9064 25.4815 62.209 32.2337C55.5116 38.9858 51.7491 48.108 51.739 57.6183C51.7288 67.1287 55.4719 76.2588 62.1549 83.0252C68.8379 89.7916 77.921 93.6475 87.4307 93.7553H87.5115C97.0886 93.765 106.277 89.9698 113.056 83.2046C119.835 76.4394 123.649 67.2585 123.658 57.6814C123.668 48.1043 119.873 38.9156 113.108 32.1367C106.343 25.3578 97.1616 21.5441 87.5845 21.5344L87.5076 21.5575Z" fill="#426572"/>
<path d="M87 40L65 52L87 64L105 54.18V68H109V52L87 40ZM73 60.36V68.36L87 76L101 68.36V60.36L87 68L73 60.36Z" fill="#282C4D"/>
<path d="M135.417 40.1836C136.531 42.8926 137.4 45.6962 138.012 48.5605C138.143 49.2209 138.243 49.8697 138.35 50.4801C138.458 51.0905 138.577 51.7163 138.615 52.3113L138.772 54.0313C138.815 54.5841 138.88 55.11 138.872 55.6168C138.872 56.6303 138.891 57.5363 138.872 58.3464C138.853 59.1564 138.757 59.8398 138.688 60.4003C138.542 61.5252 138.362 62.1394 138.162 62.1394C137.962 62.1394 137.751 61.5252 137.544 60.431C137.436 59.882 137.356 59.214 137.229 58.4424C137.102 57.6707 136.941 56.7954 136.795 55.8318C136.734 55.3481 136.611 54.849 136.511 54.3269L136.196 52.7029C136.108 52.1386 135.931 51.5704 135.812 50.9792C135.693 50.3879 135.536 49.7775 135.375 49.1594C134.647 46.4879 133.756 43.8634 132.707 41.3008C131.616 38.7573 130.36 36.2885 128.944 33.9105L127.965 32.3288L126.983 30.8585C126.675 30.3747 126.349 29.9332 126.038 29.5033C125.727 29.0733 125.439 28.651 125.147 28.2594C122.809 25.1344 121.197 23.2686 121.489 22.9499C121.781 22.6313 123.881 24.0095 126.729 26.9119C127.086 27.2728 127.436 27.6797 127.808 28.0828C128.18 28.4859 128.576 28.9236 128.933 29.3958C129.29 29.868 129.701 30.344 130.085 30.8508L131.236 32.4594C132.87 34.8967 134.27 37.483 135.417 40.1836V40.1836Z" fill="white"/>
<path d="M112.386 14.4156C114.943 15.8975 116.471 17.8516 115.995 18.4927C115.519 19.1338 113.308 18.343 110.908 16.9571C108.509 15.5712 106.743 14.097 107.031 13.3522C107.319 12.6074 109.837 12.926 112.386 14.4156Z" fill="white"/>
<path d="M16.3086 241.558V244.3H7.22656V241.558H16.3086ZM8.375 227.238V244.3H4.85938V227.238H8.375ZM15.125 234.187V236.859H7.22656V234.187H15.125ZM16.2969 227.238V229.991H7.22656V227.238H16.2969ZM21.4531 234.327V244.3H18.0781V231.62H21.2422L21.4531 234.327ZM20.9609 237.515H20.0469C20.0469 236.577 20.168 235.734 20.4102 234.984C20.6523 234.226 20.9922 233.581 21.4297 233.05C21.8672 232.511 22.3867 232.101 22.9883 231.82C23.5977 231.531 24.2773 231.386 25.0273 231.386C25.6211 231.386 26.1641 231.472 26.6562 231.644C27.1484 231.816 27.5703 232.089 27.9219 232.464C28.2812 232.839 28.5547 233.335 28.7422 233.952C28.9375 234.57 29.0352 235.323 29.0352 236.214V244.3H25.6367V236.202C25.6367 235.64 25.5586 235.202 25.4023 234.89C25.2461 234.577 25.0156 234.359 24.7109 234.234C24.4141 234.101 24.0469 234.034 23.6094 234.034C23.1562 234.034 22.7617 234.124 22.4258 234.304C22.0977 234.484 21.8242 234.734 21.6055 235.054C21.3945 235.366 21.2344 235.734 21.125 236.156C21.0156 236.577 20.9609 237.031 20.9609 237.515ZM38.457 240.796C38.457 240.554 38.3867 240.335 38.2461 240.14C38.1055 239.945 37.8438 239.765 37.4609 239.601C37.0859 239.429 36.543 239.273 35.832 239.132C35.1914 238.991 34.5938 238.816 34.0391 238.605C33.4922 238.386 33.0156 238.124 32.6094 237.82C32.2109 237.515 31.8984 237.156 31.6719 236.741C31.4453 236.32 31.332 235.839 31.332 235.3C31.332 234.769 31.4453 234.269 31.6719 233.8C31.9062 233.331 32.2383 232.917 32.668 232.558C33.1055 232.191 33.6367 231.906 34.2617 231.702C34.8945 231.491 35.6055 231.386 36.3945 231.386C37.4961 231.386 38.4414 231.562 39.2305 231.913C40.0273 232.265 40.6367 232.749 41.0586 233.366C41.4883 233.976 41.7031 234.671 41.7031 235.452H38.3281C38.3281 235.124 38.2578 234.831 38.1172 234.573C37.9844 234.308 37.7734 234.101 37.4844 233.952C37.2031 233.796 36.8359 233.718 36.3828 233.718C36.0078 233.718 35.6836 233.784 35.4102 233.917C35.1367 234.042 34.9258 234.214 34.7773 234.433C34.6367 234.644 34.5664 234.878 34.5664 235.136C34.5664 235.331 34.6055 235.507 34.6836 235.663C34.7695 235.812 34.9062 235.948 35.0938 236.073C35.2812 236.198 35.5234 236.316 35.8203 236.425C36.125 236.527 36.5 236.62 36.9453 236.706C37.8594 236.894 38.6758 237.14 39.3945 237.445C40.1133 237.741 40.6836 238.148 41.1055 238.663C41.5273 239.171 41.7383 239.839 41.7383 240.667C41.7383 241.23 41.6133 241.745 41.3633 242.214C41.1133 242.683 40.7539 243.093 40.2852 243.445C39.8164 243.788 39.2539 244.058 38.5977 244.253C37.9492 244.441 37.2188 244.534 36.4062 244.534C35.2266 244.534 34.2266 244.323 33.4062 243.902C32.5938 243.48 31.9766 242.945 31.5547 242.296C31.1406 241.64 30.9336 240.968 30.9336 240.281H34.1328C34.1484 240.741 34.2656 241.113 34.4844 241.394C34.7109 241.675 34.9961 241.878 35.3398 242.003C35.6914 242.128 36.0703 242.191 36.4766 242.191C36.9141 242.191 37.2773 242.132 37.5664 242.015C37.8555 241.89 38.0742 241.726 38.2227 241.523C38.3789 241.312 38.457 241.07 38.457 240.796ZM47.4922 231.62V244.3H44.1055V231.62H47.4922ZM43.8945 228.316C43.8945 227.823 44.0664 227.417 44.4102 227.097C44.7539 226.777 45.2148 226.616 45.793 226.616C46.3633 226.616 46.8203 226.777 47.1641 227.097C47.5156 227.417 47.6914 227.823 47.6914 228.316C47.6914 228.808 47.5156 229.214 47.1641 229.534C46.8203 229.855 46.3633 230.015 45.793 230.015C45.2148 230.015 44.7539 229.855 44.4102 229.534C44.0664 229.214 43.8945 228.808 43.8945 228.316ZM53.5859 234.327V244.3H50.2109V231.62H53.375L53.5859 234.327ZM53.0938 237.515H52.1797C52.1797 236.577 52.3008 235.734 52.543 234.984C52.7852 234.226 53.125 233.581 53.5625 233.05C54 232.511 54.5195 232.101 55.1211 231.82C55.7305 231.531 56.4102 231.386 57.1602 231.386C57.7539 231.386 58.2969 231.472 58.7891 231.644C59.2812 231.816 59.7031 232.089 60.0547 232.464C60.4141 232.839 60.6875 233.335 60.875 233.952C61.0703 234.57 61.168 235.323 61.168 236.214V244.3H57.7695V236.202C57.7695 235.64 57.6914 235.202 57.5352 234.89C57.3789 234.577 57.1484 234.359 56.8438 234.234C56.5469 234.101 56.1797 234.034 55.7422 234.034C55.2891 234.034 54.8945 234.124 54.5586 234.304C54.2305 234.484 53.957 234.734 53.7383 235.054C53.5273 235.366 53.3672 235.734 53.2578 236.156C53.1484 236.577 53.0938 237.031 53.0938 237.515ZM63.1953 238.089V237.843C63.1953 236.913 63.3281 236.058 63.5938 235.277C63.8594 234.488 64.2461 233.804 64.7539 233.226C65.2617 232.648 65.8867 232.198 66.6289 231.878C67.3711 231.55 68.2227 231.386 69.1836 231.386C70.1445 231.386 71 231.55 71.75 231.878C72.5 232.198 73.1289 232.648 73.6367 233.226C74.1523 233.804 74.543 234.488 74.8086 235.277C75.0742 236.058 75.207 236.913 75.207 237.843V238.089C75.207 239.011 75.0742 239.866 74.8086 240.656C74.543 241.437 74.1523 242.12 73.6367 242.706C73.1289 243.284 72.5039 243.734 71.7617 244.054C71.0195 244.374 70.168 244.534 69.207 244.534C68.2461 244.534 67.3906 244.374 66.6406 244.054C65.8984 243.734 65.2695 243.284 64.7539 242.706C64.2461 242.12 63.8594 241.437 63.5938 240.656C63.3281 239.866 63.1953 239.011 63.1953 238.089ZM66.5703 237.843V238.089C66.5703 238.62 66.6172 239.116 66.7109 239.577C66.8047 240.038 66.9531 240.445 67.1562 240.796C67.3672 241.14 67.6406 241.409 67.9766 241.605C68.3125 241.8 68.7227 241.898 69.207 241.898C69.6758 241.898 70.0781 241.8 70.4141 241.605C70.75 241.409 71.0195 241.14 71.2227 240.796C71.4258 240.445 71.5742 240.038 71.668 239.577C71.7695 239.116 71.8203 238.62 71.8203 238.089V237.843C71.8203 237.327 71.7695 236.843 71.668 236.39C71.5742 235.929 71.4219 235.523 71.2109 235.171C71.0078 234.812 70.7383 234.531 70.4023 234.327C70.0664 234.124 69.6602 234.023 69.1836 234.023C68.707 234.023 68.3008 234.124 67.9648 234.327C67.6367 234.531 67.3672 234.812 67.1562 235.171C66.9531 235.523 66.8047 235.929 66.7109 236.39C66.6172 236.843 66.5703 237.327 66.5703 237.843ZM90.1133 240.796C90.1133 240.554 90.043 240.335 89.9023 240.14C89.7617 239.945 89.5 239.765 89.1172 239.601C88.7422 239.429 88.1992 239.273 87.4883 239.132C86.8477 238.991 86.25 238.816 85.6953 238.605C85.1484 238.386 84.6719 238.124 84.2656 237.82C83.8672 237.515 83.5547 237.156 83.3281 236.741C83.1016 236.32 82.9883 235.839 82.9883 235.3C82.9883 234.769 83.1016 234.269 83.3281 233.8C83.5625 233.331 83.8945 232.917 84.3242 232.558C84.7617 232.191 85.293 231.906 85.918 231.702C86.5508 231.491 87.2617 231.386 88.0508 231.386C89.1523 231.386 90.0977 231.562 90.8867 231.913C91.6836 232.265 92.293 232.749 92.7148 233.366C93.1445 233.976 93.3594 234.671 93.3594 235.452H89.9844C89.9844 235.124 89.9141 234.831 89.7734 234.573C89.6406 234.308 89.4297 234.101 89.1406 233.952C88.8594 233.796 88.4922 233.718 88.0391 233.718C87.6641 233.718 87.3398 233.784 87.0664 233.917C86.793 234.042 86.582 234.214 86.4336 234.433C86.293 234.644 86.2227 234.878 86.2227 235.136C86.2227 235.331 86.2617 235.507 86.3398 235.663C86.4258 235.812 86.5625 235.948 86.75 236.073C86.9375 236.198 87.1797 236.316 87.4766 236.425C87.7812 236.527 88.1562 236.62 88.6016 236.706C89.5156 236.894 90.332 237.14 91.0508 237.445C91.7695 237.741 92.3398 238.148 92.7617 238.663C93.1836 239.171 93.3945 239.839 93.3945 240.667C93.3945 241.23 93.2695 241.745 93.0195 242.214C92.7695 242.683 92.4102 243.093 91.9414 243.445C91.4727 243.788 90.9102 244.058 90.2539 244.253C89.6055 244.441 88.875 244.534 88.0625 244.534C86.8828 244.534 85.8828 244.323 85.0625 243.902C84.25 243.48 83.6328 242.945 83.2109 242.296C82.7969 241.64 82.5898 240.968 82.5898 240.281H85.7891C85.8047 240.741 85.9219 241.113 86.1406 241.394C86.3672 241.675 86.6523 241.878 86.9961 242.003C87.3477 242.128 87.7266 242.191 88.1328 242.191C88.5703 242.191 88.9336 242.132 89.2227 242.015C89.5117 241.89 89.7305 241.726 89.8789 241.523C90.0352 241.312 90.1133 241.07 90.1133 240.796ZM103.086 241.265V231.62H106.461V244.3H103.285L103.086 241.265ZM103.461 238.663L104.457 238.64C104.457 239.484 104.359 240.269 104.164 240.995C103.969 241.714 103.676 242.339 103.285 242.87C102.895 243.394 102.402 243.804 101.809 244.101C101.215 244.39 100.516 244.534 99.7109 244.534C99.0938 244.534 98.5234 244.448 98 244.277C97.4844 244.097 97.0391 243.82 96.6641 243.445C96.2969 243.062 96.0078 242.573 95.7969 241.98C95.5938 241.378 95.4922 240.656 95.4922 239.812V231.62H98.8672V239.835C98.8672 240.21 98.9102 240.527 98.9961 240.784C99.0898 241.042 99.2188 241.253 99.3828 241.417C99.5469 241.581 99.7383 241.698 99.957 241.769C100.184 241.839 100.434 241.874 100.707 241.874C101.402 241.874 101.949 241.734 102.348 241.452C102.754 241.171 103.039 240.788 103.203 240.304C103.375 239.812 103.461 239.265 103.461 238.663ZM112.414 234.058V249.175H109.039V231.62H112.168L112.414 234.058ZM120.441 237.82V238.066C120.441 238.988 120.332 239.843 120.113 240.632C119.902 241.421 119.59 242.109 119.176 242.695C118.762 243.273 118.246 243.726 117.629 244.054C117.02 244.374 116.316 244.534 115.52 244.534C114.746 244.534 114.074 244.378 113.504 244.066C112.934 243.753 112.453 243.316 112.062 242.753C111.68 242.183 111.371 241.523 111.137 240.773C110.902 240.023 110.723 239.218 110.598 238.359V237.714C110.723 236.792 110.902 235.948 111.137 235.183C111.371 234.409 111.68 233.741 112.062 233.179C112.453 232.609 112.93 232.167 113.492 231.855C114.062 231.542 114.73 231.386 115.496 231.386C116.301 231.386 117.008 231.538 117.617 231.843C118.234 232.148 118.75 232.585 119.164 233.156C119.586 233.726 119.902 234.406 120.113 235.195C120.332 235.984 120.441 236.859 120.441 237.82ZM117.055 238.066V237.82C117.055 237.281 117.008 236.784 116.914 236.331C116.828 235.87 116.688 235.468 116.492 235.124C116.305 234.781 116.055 234.515 115.742 234.327C115.438 234.132 115.066 234.034 114.629 234.034C114.168 234.034 113.773 234.109 113.445 234.257C113.125 234.406 112.863 234.62 112.66 234.902C112.457 235.183 112.305 235.519 112.203 235.909C112.102 236.3 112.039 236.741 112.016 237.234V238.863C112.055 239.441 112.164 239.96 112.344 240.421C112.523 240.874 112.801 241.234 113.176 241.499C113.551 241.765 114.043 241.898 114.652 241.898C115.098 241.898 115.473 241.8 115.777 241.605C116.082 241.402 116.328 241.124 116.516 240.773C116.711 240.421 116.848 240.015 116.926 239.554C117.012 239.093 117.055 238.597 117.055 238.066ZM128.375 244.534C127.391 244.534 126.508 244.378 125.727 244.066C124.945 243.745 124.281 243.304 123.734 242.741C123.195 242.179 122.781 241.527 122.492 240.784C122.203 240.034 122.059 239.238 122.059 238.394V237.925C122.059 236.964 122.195 236.085 122.469 235.288C122.742 234.491 123.133 233.8 123.641 233.214C124.156 232.628 124.781 232.179 125.516 231.866C126.25 231.546 127.078 231.386 128 231.386C128.898 231.386 129.695 231.534 130.391 231.831C131.086 232.128 131.668 232.55 132.137 233.097C132.613 233.644 132.973 234.3 133.215 235.066C133.457 235.823 133.578 236.667 133.578 237.597V239.003H123.5V236.753H130.262V236.495C130.262 236.027 130.176 235.609 130.004 235.241C129.84 234.866 129.59 234.57 129.254 234.351C128.918 234.132 128.488 234.023 127.965 234.023C127.52 234.023 127.137 234.12 126.816 234.316C126.496 234.511 126.234 234.784 126.031 235.136C125.836 235.488 125.688 235.902 125.586 236.378C125.492 236.847 125.445 237.363 125.445 237.925V238.394C125.445 238.902 125.516 239.37 125.656 239.8C125.805 240.23 126.012 240.601 126.277 240.913C126.551 241.226 126.879 241.468 127.262 241.64C127.652 241.812 128.094 241.898 128.586 241.898C129.195 241.898 129.762 241.781 130.285 241.546C130.816 241.304 131.273 240.941 131.656 240.456L133.297 242.238C133.031 242.62 132.668 242.988 132.207 243.339C131.754 243.691 131.207 243.98 130.566 244.206C129.926 244.425 129.195 244.534 128.375 244.534ZM138.875 234.386V244.3H135.5V231.62H138.676L138.875 234.386ZM142.695 231.538L142.637 234.667C142.473 234.644 142.273 234.624 142.039 234.609C141.812 234.585 141.605 234.573 141.418 234.573C140.941 234.573 140.527 234.636 140.176 234.761C139.832 234.878 139.543 235.054 139.309 235.288C139.082 235.523 138.91 235.808 138.793 236.144C138.684 236.48 138.621 236.863 138.605 237.292L137.926 237.081C137.926 236.261 138.008 235.507 138.172 234.82C138.336 234.124 138.574 233.519 138.887 233.003C139.207 232.488 139.598 232.089 140.059 231.808C140.52 231.527 141.047 231.386 141.641 231.386C141.828 231.386 142.02 231.402 142.215 231.433C142.41 231.456 142.57 231.491 142.695 231.538ZM147.852 231.62V244.3H144.465V231.62H147.852ZM144.254 228.316C144.254 227.823 144.426 227.417 144.77 227.097C145.113 226.777 145.574 226.616 146.152 226.616C146.723 226.616 147.18 226.777 147.523 227.097C147.875 227.417 148.051 227.823 148.051 228.316C148.051 228.808 147.875 229.214 147.523 229.534C147.18 229.855 146.723 230.015 146.152 230.015C145.574 230.015 145.113 229.855 144.77 229.534C144.426 229.214 144.254 228.808 144.254 228.316ZM150.102 238.089V237.843C150.102 236.913 150.234 236.058 150.5 235.277C150.766 234.488 151.152 233.804 151.66 233.226C152.168 232.648 152.793 232.198 153.535 231.878C154.277 231.55 155.129 231.386 156.09 231.386C157.051 231.386 157.906 231.55 158.656 231.878C159.406 232.198 160.035 232.648 160.543 233.226C161.059 233.804 161.449 234.488 161.715 235.277C161.98 236.058 162.113 236.913 162.113 237.843V238.089C162.113 239.011 161.98 239.866 161.715 240.656C161.449 241.437 161.059 242.12 160.543 242.706C160.035 243.284 159.41 243.734 158.668 244.054C157.926 244.374 157.074 244.534 156.113 244.534C155.152 244.534 154.297 244.374 153.547 244.054C152.805 243.734 152.176 243.284 151.66 242.706C151.152 242.12 150.766 241.437 150.5 240.656C150.234 239.866 150.102 239.011 150.102 238.089ZM153.477 237.843V238.089C153.477 238.62 153.523 239.116 153.617 239.577C153.711 240.038 153.859 240.445 154.062 240.796C154.273 241.14 154.547 241.409 154.883 241.605C155.219 241.8 155.629 241.898 156.113 241.898C156.582 241.898 156.984 241.8 157.32 241.605C157.656 241.409 157.926 241.14 158.129 240.796C158.332 240.445 158.48 240.038 158.574 239.577C158.676 239.116 158.727 238.62 158.727 238.089V237.843C158.727 237.327 158.676 236.843 158.574 236.39C158.48 235.929 158.328 235.523 158.117 235.171C157.914 234.812 157.645 234.531 157.309 234.327C156.973 234.124 156.566 234.023 156.09 234.023C155.613 234.023 155.207 234.124 154.871 234.327C154.543 234.531 154.273 234.812 154.062 235.171C153.859 235.523 153.711 235.929 153.617 236.39C153.523 236.843 153.477 237.327 153.477 237.843ZM167.562 234.386V244.3H164.188V231.62H167.363L167.562 234.386ZM171.383 231.538L171.324 234.667C171.16 234.644 170.961 234.624 170.727 234.609C170.5 234.585 170.293 234.573 170.105 234.573C169.629 234.573 169.215 234.636 168.863 234.761C168.52 234.878 168.23 235.054 167.996 235.288C167.77 235.523 167.598 235.808 167.48 236.144C167.371 236.48 167.309 236.863 167.293 237.292L166.613 237.081C166.613 236.261 166.695 235.507 166.859 234.82C167.023 234.124 167.262 233.519 167.574 233.003C167.895 232.488 168.285 232.089 168.746 231.808C169.207 231.527 169.734 231.386 170.328 231.386C170.516 231.386 170.707 231.402 170.902 231.433C171.098 231.456 171.258 231.491 171.383 231.538Z" fill="white"/>
</svg>
