<svg width="317" height="475" viewBox="0 0 317 475" fill="none" xmlns="http://www.w3.org/2000/svg">
<g clip-path="url(#clip0_105_9476)">
<path d="M97.2904 41.1C94.1556 41.1 91.0912 40.1704 88.4847 38.4288C85.8781 36.6872 83.8466 34.2117 82.6469 31.3155C81.4473 28.4193 81.1334 25.2324 81.745 22.1578C82.3566 19.0832 83.8661 16.259 86.0828 14.0424C88.2995 11.8257 91.1237 10.3161 94.1983 9.70455C97.2729 9.09298 100.46 9.40686 103.356 10.6065C106.252 11.8062 108.728 13.8377 110.469 16.4442C112.211 19.0507 113.14 22.1152 113.14 25.25C113.135 29.4521 111.464 33.4805 108.492 36.4518C105.521 39.4231 101.492 41.0947 97.2904 41.1V41.1ZM97.2904 21.4C96.529 21.4 95.7846 21.6258 95.1515 22.0488C94.5184 22.4719 94.0249 23.0732 93.7335 23.7767C93.4421 24.4802 93.3659 25.2543 93.5144 26.0011C93.663 26.7479 94.0296 27.4339 94.5681 27.9724C95.1065 28.5108 95.7925 28.8775 96.5393 29.026C97.2862 29.1746 98.0603 29.0983 98.7638 28.8069C99.4673 28.5155 100.069 28.0221 100.492 27.3889C100.915 26.7558 101.14 26.0115 101.14 25.25C101.14 24.7444 101.041 24.2438 100.847 23.7767C100.654 23.3096 100.37 22.8851 100.013 22.5276C99.6553 22.1701 99.2309 21.8865 98.7638 21.6931C98.2967 21.4996 97.796 21.4 97.2904 21.4V21.4Z" fill="#E7F6FF"/>
<path d="M125.57 41.42C128.64 41.42 131.13 38.9307 131.13 35.86C131.13 32.7893 128.64 30.3 125.57 30.3C122.499 30.3 120.01 32.7893 120.01 35.86C120.01 38.9307 122.499 41.42 125.57 41.42Z" fill="#E7F6FF"/>
<g opacity="0.5">
<path opacity="0.5" d="M206.16 325.89V338.1C202.63 349.33 197.08 362.47 189.79 376.96C186.79 382.71 183.58 388.78 180.14 395.02C182.49 391.02 184.75 387.11 186.93 383.21C184.39 388.03 181.7 393.04 178.86 398.13V379.13L179.7 377.54L178.86 379.04V378.34C180.127 375.947 181.36 373.613 182.56 371.34C190.47 355.6 196.34 341.47 199.8 329.63C201.95 328.42 204.07 327.17 206.16 325.89Z" fill="#BBD2E5"/>
</g>
<path d="M258.691 148.56C258.571 204.06 213.071 249.34 157.591 249.22C109.541 249.12 69.1206 214.98 59.2506 169.78C58.231 163.972 57.7257 158.086 57.7406 152.19C57.8606 96.72 103.361 51.41 158.831 51.53C206.831 51.63 247.181 85.68 257.141 130.76C257.137 130.783 257.137 130.807 257.141 130.83C258.182 136.682 258.701 142.616 258.691 148.56V148.56Z" fill="white"/>
<path d="M158.67 6.25C65.3602 6.05 7.23018 64.77 7.00018 157.24C6.94018 185.82 22.0002 230.4 47.9202 284.24C59.6402 306.97 73.9202 332.24 88.9202 357.47C107.34 388.61 127.45 419.76 147.57 448.38L157.63 461.86C161 457.65 164.37 453.46 167.74 448.42C187.99 419.05 208.22 388.82 226.74 357.77C241.93 332.58 255.44 307.39 267.25 284.72C294.25 230.98 309.5 186.46 309.56 157.88C309.85 67.94 249.46 6.45 158.67 6.25ZM158.14 250C102.66 249.88 57.3602 204.4 57.4802 148.91C57.6002 93.42 103.1 48.16 158.58 48.28C214.06 48.4 259.36 93.89 259.24 149.37C259.12 204.85 213.62 250.15 158.14 250Z" fill="#F3AA9F"/>
<path d="M261.53 298.15C251.15 317.82 239.58 338.99 226.81 360.15C208.26 391.2 188.02 421.43 167.81 450.8C164.44 455.8 161.07 460.03 157.69 464.24L147.6 450.77C127.48 422.15 107.37 391 89.0002 359.87C73.9102 334.61 59.6802 309.36 48.0002 286.64C22.0002 232.78 6.94018 188.19 7.00018 159.61C7.08018 121.45 17.0002 89.05 35.2402 64.15C28.0302 82.93 24.2402 104.32 24.1602 127.9C24.1002 156.48 39.1602 201.07 65.0802 254.9C76.8002 277.62 91.0302 302.9 106.08 328.13C124.5 359.26 144.61 390.41 164.72 419.03L174.78 432.51C178.16 428.3 181.53 424.11 184.9 419.07C205.14 389.7 225.38 359.47 243.9 328.42C250.1 318.3 255.95 308.14 261.53 298.15Z" fill="#E1978F"/>
<path d="M157.46 474.07L141.88 453.18C121.7 424.48 101.32 392.89 82.9302 361.81C67.1802 335.44 52.9302 309.98 41.7002 288.22L41.6202 288.05C13.9402 230.61 -0.059808 186.84 0.000192038 158C0.100192 110.61 15.0002 70.78 43.0002 42.79C71.0002 14.8 110.8 0 158.17 0H158.66C205.01 0.1 244.66 15.4 273.23 44.23C301.8 73.06 316.73 112.53 316.64 158.65C316.58 187.78 301.64 232.73 273.59 288.65V288.74C263.05 308.97 248.9 335.59 232.87 362.18C213.01 395.42 191.76 426.84 173.6 453.18C170.15 458.33 166.67 462.67 163.31 466.87L157.46 474.07ZM153.27 445.07L157.8 451.14C159.19 449.3 160.57 447.38 161.95 445.32C180 419 201.14 387.86 220.8 354.95C236.64 328.7 250.64 302.34 261.09 282.3C288.21 228.36 302.57 185.6 302.63 158.63C302.82 72.31 244.94 14.19 158.63 14H158.17C69.4202 14 14.1902 69.14 14.0002 158C13.9402 184.35 27.8402 227.18 54.1902 281.88C65.2702 303.37 79.3702 328.53 95.0002 354.65C113.17 385.41 133.32 416.66 153.27 445V445.07ZM158.34 257.81H158.1C129.482 257.779 102.048 246.382 81.8335 226.124C61.619 205.866 50.2797 178.408 50.3102 149.79C50.3407 121.172 61.7385 93.7379 81.9961 73.5233C102.254 53.3088 129.712 41.9695 158.33 42H158.57C179.907 42.0227 200.758 48.3793 218.478 60.2642C236.199 72.1491 249.993 89.0273 258.111 108.76C266.229 128.492 268.307 150.191 264.08 171.105C259.854 192.019 249.514 211.208 234.37 226.24C224.403 236.251 212.554 244.191 199.506 249.604C186.457 255.017 172.467 257.796 158.34 257.78V257.81ZM158.34 56.06C133.61 56.2875 109.968 66.2645 92.5513 83.8234C75.1347 101.382 65.3503 125.104 65.324 149.836C65.2976 174.568 75.0314 198.311 92.4106 215.906C109.79 233.502 133.41 243.53 158.14 243.81H158.35C183.255 243.835 207.15 233.966 224.779 216.373C242.407 198.78 252.325 174.905 252.35 150C252.375 125.095 242.506 101.2 224.913 83.5713C207.32 65.9429 183.445 56.0252 158.54 56L158.34 56.06Z" fill="#426572"/>
<path d="M279.18 99.46C282.082 106.516 284.345 113.819 285.94 121.28C286.28 123 286.54 124.69 286.82 126.28C287.1 127.87 287.41 129.5 287.51 131.05L287.92 135.53C288.03 136.97 288.2 138.34 288.18 139.66C288.18 142.3 288.23 144.66 288.18 146.77C288.13 148.88 287.88 150.66 287.7 152.12C287.32 155.05 286.85 156.65 286.33 156.65C285.81 156.65 285.26 155.05 284.72 152.2C284.44 150.77 284.23 149.03 283.9 147.02C283.57 145.01 283.15 142.73 282.77 140.22C282.61 138.96 282.29 137.66 282.03 136.3L281.21 132.07C280.98 130.6 280.52 129.12 280.21 127.58C279.9 126.04 279.49 124.45 279.07 122.84C277.174 115.881 274.853 109.045 272.12 102.37C269.281 95.7448 266.007 89.3141 262.32 83.12L259.77 79L257.21 75.17C256.41 73.91 255.56 72.76 254.75 71.64C253.94 70.52 253.19 69.42 252.43 68.4C246.34 60.26 242.14 55.4 242.9 54.57C243.66 53.74 249.13 57.33 256.55 64.89C257.48 65.83 258.39 66.89 259.36 67.94C260.33 68.99 261.36 70.13 262.29 71.36C263.22 72.59 264.29 73.83 265.29 75.15L268.29 79.34C272.546 85.6888 276.192 92.4254 279.18 99.46V99.46Z" fill="white"/>
<path d="M219.19 32.34C225.85 36.2 229.83 41.29 228.59 42.96C227.35 44.63 221.59 42.57 215.34 38.96C209.09 35.35 204.49 31.51 205.24 29.57C205.99 27.63 212.55 28.46 219.19 32.34Z" fill="white"/>
</g>
<defs>
<clipPath id="clip0_105_9476">
<rect width="316.63" height="474.07" fill="white"/>
</clipPath>
</defs>
</svg>
