<svg width="31" height="46" viewBox="0 0 31 46" fill="none" xmlns="http://www.w3.org/2000/svg">
<path d="M10.0974 5.60016C9.80207 5.60016 9.51336 5.51258 9.26779 5.34849C9.02222 5.18441 8.83082 4.95119 8.7178 4.67833C8.60477 4.40546 8.5752 4.10521 8.63282 3.81555C8.69044 3.52588 8.83266 3.2598 9.0415 3.05096C9.25034 2.84212 9.51642 2.6999 9.80609 2.64228C10.0958 2.58466 10.396 2.61423 10.6689 2.72726C10.9417 2.84028 11.1749 3.03168 11.339 3.27725C11.5031 3.52282 11.5907 3.81153 11.5907 4.10687C11.5902 4.50276 11.4327 4.88229 11.1528 5.16223C10.8728 5.44217 10.4933 5.59966 10.0974 5.60016ZM10.0974 3.74415C10.0257 3.74415 9.95554 3.76542 9.89589 3.80528C9.83624 3.84514 9.78975 3.90178 9.7623 3.96806C9.73485 4.03434 9.72766 4.10727 9.74166 4.17763C9.75565 4.248 9.7902 4.31263 9.84093 4.36335C9.89166 4.41408 9.95629 4.44863 10.0266 4.46262C10.097 4.47662 10.1699 4.46944 10.2362 4.44198C10.3025 4.41453 10.3591 4.36804 10.399 4.30839C10.4389 4.24874 10.4601 4.17861 10.4601 4.10687C10.4601 4.05924 10.4508 4.01207 10.4325 3.96806C10.4143 3.92406 10.3876 3.88407 10.3539 3.85039C10.3202 3.81671 10.2802 3.78999 10.2362 3.77176C10.1922 3.75353 10.145 3.74415 10.0974 3.74415Z" fill="#E7F6FF"/>
<path d="M12.7617 4.83373C13.051 4.83373 13.2856 4.5992 13.2856 4.3099C13.2856 4.0206 13.051 3.78607 12.7617 3.78607C12.4724 3.78607 12.2379 4.0206 12.2379 4.3099C12.2379 4.5992 12.4724 4.83373 12.7617 4.83373Z" fill="#E7F6FF"/>
<g opacity="0.5">
<path opacity="0.5" d="M20.3545 31.6346V32.785C20.0219 33.843 19.499 35.081 18.8122 36.4461C18.5296 36.9879 18.2272 37.5597 17.9031 38.1476C18.1245 37.7708 18.3374 37.4024 18.5428 37.035C18.3035 37.4891 18.05 37.9611 17.7825 38.4406V36.6506L17.8616 36.5008L17.7825 36.6421V36.5761C17.9018 36.3507 18.018 36.1308 18.1311 35.9166C18.8763 34.4337 19.4293 33.1025 19.7553 31.987C19.9579 31.873 20.1576 31.7552 20.3545 31.6346Z" fill="#BBD2E5"/>
</g>
<path d="M25.3036 14.9278C25.2923 20.1567 21.0056 24.4227 15.7786 24.4114C11.2516 24.4019 7.44352 21.1855 6.51363 16.927C6.41757 16.3799 6.36997 15.8253 6.37137 15.2698C6.38267 10.0438 10.6694 5.77497 15.8954 5.78628C20.4177 5.7957 24.2192 9.00367 25.1575 13.2508C25.1572 13.253 25.1572 13.2552 25.1575 13.2574C25.2557 13.8088 25.3045 14.3678 25.3036 14.9278Z" fill="white"/>
<path d="M15.2208 1.72808C6.42972 1.70923 0.953082 7.24145 0.931413 15.9534C0.925761 18.646 2.34462 22.846 4.78663 27.9185C5.89081 30.06 7.23618 32.4407 8.64938 34.8177C10.3848 37.7516 12.2794 40.6863 14.175 43.3827L15.1228 44.6527C15.4403 44.2561 15.7578 43.8613 16.0753 43.3865C17.9831 40.6194 19.8891 37.7713 21.6339 34.846C23.065 32.4728 24.3378 30.0995 25.4505 27.9637C27.9942 22.9007 29.431 18.7063 29.4367 16.0137C29.464 7.54011 23.7744 1.74692 15.2208 1.72808ZM15.1708 24.6926C9.94388 24.6813 5.67601 20.3965 5.68731 15.1686C5.69862 9.94067 9.98533 5.67656 15.2123 5.68787C20.4393 5.69918 24.7071 9.98495 24.6958 15.2119C24.6845 20.4389 20.3978 24.7068 15.1708 24.6926Z" fill="#F3AA9F"/>
<path d="M25.571 29.0212C24.5931 30.8744 23.503 32.8689 22.2999 34.8624C20.5523 37.7878 18.6454 40.6358 16.7413 43.4029C16.4238 43.8739 16.1063 44.2725 15.7879 44.6691L14.8373 43.4C12.9417 40.7037 11.047 37.7689 9.31635 34.836C7.89466 32.4562 6.55401 30.0773 5.45359 27.9368C3.00404 22.8624 1.58518 18.6615 1.59084 15.9688C1.59837 12.3737 2.53297 9.32114 4.25143 6.97522C3.57215 8.74455 3.21508 10.7598 3.20754 12.9813C3.20189 15.674 4.62074 19.8749 7.06276 24.9464C8.16694 27.087 9.5076 29.4687 10.9255 31.8457C12.6609 34.7786 14.5556 37.7133 16.4502 40.4097L17.398 41.6797C17.7164 41.2831 18.0339 40.8883 18.3514 40.4135C20.2583 37.6464 22.1652 34.7984 23.91 31.873C24.4941 30.9196 25.0453 29.9624 25.571 29.0212Z" fill="#E1978F"/>
<path d="M15.7663 45.5953L14.2984 43.6271C12.3972 40.9232 10.4771 37.947 8.74454 35.0189C7.26068 32.5344 5.91814 30.1358 4.86012 28.0857L4.85258 28.0697C2.24475 22.658 0.925762 18.5343 0.931415 15.8172C0.940836 11.3524 2.34462 7.59989 4.9826 4.96285C7.62057 2.32582 11.3703 0.931458 15.8332 0.931458H15.8793C20.2461 0.940879 23.9817 2.38235 26.6734 5.09852C29.3651 7.8147 30.7717 11.5333 30.7632 15.8784C30.7575 18.6229 29.35 22.8578 26.7073 28.1262V28.1347C25.7143 30.0406 24.3812 32.5486 22.8709 35.0537C20.9998 38.1854 18.9978 41.1456 17.2869 43.6271C16.9618 44.1123 16.634 44.5212 16.3174 44.9169L15.7663 45.5953ZM15.3715 42.8631L15.7983 43.4349C15.9293 43.2616 16.0593 43.0807 16.1893 42.8866C17.8898 40.4069 19.8815 37.4731 21.7338 34.3725C23.2261 31.8994 24.5451 29.416 25.5296 27.5279C28.0847 22.4461 29.4376 18.4175 29.4433 15.8765C29.4612 7.74404 24.0081 2.26835 15.8765 2.25045H15.8332C7.47172 2.25045 2.2683 7.44538 2.2504 15.8172C2.24475 18.2997 3.55432 22.3349 6.03685 27.4884C7.08073 29.513 8.40914 31.8834 9.8817 34.3443C11.5936 37.2423 13.492 40.1865 15.3715 42.8565V42.8631ZM15.8492 25.2206H15.8266C13.1304 25.2178 10.5457 24.1439 8.64122 22.2354C6.73674 20.3269 5.66842 17.7399 5.6713 15.0437C5.67417 12.3475 6.74799 9.76283 8.65654 7.85835C10.5651 5.95387 13.152 4.88555 15.8482 4.88843H15.8709C17.8811 4.89056 19.8455 5.48944 21.515 6.60916C23.1845 7.72888 24.4841 9.31903 25.2489 11.1781C26.0138 13.0372 26.2095 15.0814 25.8113 17.0519C25.4132 19.0223 24.439 20.8301 23.0122 22.2463C22.0732 23.1895 20.9569 23.9376 19.7275 24.4476C18.4982 24.9575 17.1801 25.2193 15.8492 25.2178V25.2206ZM15.8492 6.21307C13.5192 6.23451 11.2919 7.17447 9.65098 8.82876C8.0101 10.483 7.08828 12.718 7.0858 15.048C7.08332 17.3781 8.00037 19.615 9.63772 21.2728C11.2751 22.9305 13.5004 23.8753 15.8303 23.9017H15.8501C18.1965 23.904 20.4478 22.9742 22.1086 21.3167C23.7694 19.6592 24.7038 17.4099 24.7062 15.0635C24.7086 12.7171 23.7787 10.4658 22.1213 8.80501C20.4638 7.14417 18.2144 6.20979 15.868 6.20741L15.8492 6.21307Z" fill="#426572"/>
<path d="M27.2339 10.3019C27.5073 10.9667 27.7205 11.6547 27.8708 12.3576C27.9028 12.5197 27.9273 12.6789 27.9537 12.8287C27.9801 12.9785 28.0093 13.1321 28.0187 13.2781L28.0574 13.7002C28.0677 13.8358 28.0837 13.9649 28.0818 14.0893C28.0818 14.338 28.0866 14.5603 28.0818 14.7591C28.0771 14.9579 28.0536 15.1256 28.0366 15.2632C28.0008 15.5392 27.9565 15.6899 27.9076 15.6899C27.8586 15.6899 27.8067 15.5392 27.7559 15.2707C27.7295 15.136 27.7097 14.972 27.6786 14.7827C27.6475 14.5933 27.608 14.3785 27.5722 14.142C27.5571 14.0233 27.5269 13.9008 27.5024 13.7727L27.4252 13.3742C27.4035 13.2357 27.3602 13.0963 27.331 12.9512C27.3018 12.8061 27.2631 12.6563 27.2236 12.5046C27.0449 11.849 26.8262 11.2049 26.5688 10.576C26.3012 9.95185 25.9928 9.346 25.6455 8.76243L25.4052 8.37427L25.1641 8.01343C25.0887 7.89472 25.0086 7.78638 24.9323 7.68086C24.856 7.57534 24.7853 7.4717 24.7137 7.37561C24.14 6.60871 23.7443 6.15083 23.8159 6.07263C23.8875 5.99444 24.4028 6.33266 25.1019 7.04492C25.1895 7.13348 25.2752 7.23334 25.3666 7.33227C25.458 7.43119 25.555 7.5386 25.6427 7.65448C25.7303 7.77036 25.8311 7.88719 25.9253 8.01155L26.2079 8.4063C26.6089 9.00444 26.9524 9.63912 27.2339 10.3019Z" fill="white"/>
<path d="M21.5821 3.97831C22.2095 4.34197 22.5845 4.82152 22.4677 4.97886C22.3509 5.13619 21.8082 4.94211 21.2194 4.602C20.6305 4.26189 20.1971 3.90011 20.2678 3.71734C20.3385 3.53456 20.9565 3.61276 21.5821 3.97831Z" fill="white"/>
<path d="M16.0388 12.2262L18.998 13.7058V19.6243H13.0796V13.7058L16.0388 12.2262ZM16.0388 12.2262V8.89709V12.2262ZM10.4902 19.6243H21.5873H10.4902ZM11.5999 19.6243V15.1854H13.0796L11.5999 19.6243ZM20.4776 19.6243V15.1854H18.998L20.4776 19.6243ZM15.299 19.6243V17.4049H16.7786V19.6243H15.299ZM16.0388 9.267H18.2582V10.7466H16.0388V9.267ZM16.0388 15.9252C15.8426 15.9252 15.6544 15.8473 15.5156 15.7086C15.3769 15.5698 15.299 15.3816 15.299 15.1854C15.299 14.9892 15.3769 14.8011 15.5156 14.6623C15.6544 14.5236 15.8426 14.4456 16.0388 14.4456C16.235 14.4456 16.4232 14.5236 16.5619 14.6623C16.7006 14.8011 16.7786 14.9892 16.7786 15.1854C16.7786 15.3816 16.7006 15.5698 16.5619 15.7086C16.4232 15.8473 16.235 15.9252 16.0388 15.9252Z" stroke="#282C4D" stroke-width="0.750769"/>
</svg>
