<svg width="30" height="45" viewBox="0 0 30 45" fill="none" xmlns="http://www.w3.org/2000/svg">
<path d="M9.16556 4.66832C8.87023 4.66832 8.58154 4.58075 8.33598 4.41668C8.09043 4.25261 7.89904 4.01941 7.78603 3.74657C7.67301 3.47373 7.64344 3.17351 7.70106 2.88386C7.75867 2.59422 7.90088 2.32816 8.10971 2.11934C8.31854 1.91052 8.5846 1.76831 8.87425 1.7107C9.1639 1.65308 9.46413 1.68265 9.73698 1.79567C10.0098 1.90868 10.243 2.10006 10.4071 2.34561C10.5712 2.59116 10.6587 2.87985 10.6587 3.17516C10.6583 3.57102 10.5008 3.95052 10.2209 4.23044C9.94093 4.51035 9.56142 4.66782 9.16556 4.66832V4.66832ZM9.16556 2.81247C9.09382 2.81247 9.0237 2.83374 8.96405 2.8736C8.90441 2.91345 8.85792 2.9701 8.83047 3.03637C8.80301 3.10264 8.79583 3.17557 8.80983 3.24592C8.82382 3.31628 8.85837 3.3809 8.90909 3.43163C8.95981 3.48235 9.02444 3.51689 9.0948 3.53089C9.16515 3.54488 9.23808 3.5377 9.30436 3.51025C9.37063 3.4828 9.42728 3.43631 9.46713 3.37666C9.50698 3.31702 9.52826 3.2469 9.52826 3.17516C9.52826 3.12754 9.51888 3.08037 9.50065 3.03637C9.48242 2.99237 9.4557 2.95238 9.42202 2.9187C9.38834 2.88502 9.34836 2.85831 9.30436 2.84008C9.26035 2.82185 9.21319 2.81247 9.16556 2.81247V2.81247Z" fill="#E7F6FF"/>
<path d="M11.8297 3.90212C12.119 3.90212 12.3535 3.66761 12.3535 3.37834C12.3535 3.08906 12.119 2.85455 11.8297 2.85455C11.5404 2.85455 11.3059 3.08906 11.3059 3.37834C11.3059 3.66761 11.5404 3.90212 11.8297 3.90212Z" fill="#E7F6FF"/>
<g opacity="0.5">
<path opacity="0.5" d="M19.4218 30.7008V31.8511C19.0893 32.909 18.5664 34.1468 17.8797 35.5119C17.597 36.0536 17.2946 36.6254 16.9706 37.2132C17.1919 36.8364 17.4049 36.4681 17.6102 36.1007C17.3709 36.5547 17.1175 37.0267 16.85 37.5062V35.7163L16.9291 35.5665L16.85 35.7078V35.6419C16.9693 35.4164 17.0855 35.1966 17.1985 34.9824C17.9437 33.4996 18.4967 32.1685 18.8227 31.0531C19.0252 30.9391 19.225 30.8214 19.4218 30.7008Z" fill="#BBD2E5"/>
</g>
<path d="M24.3707 13.9952C24.3593 19.2236 20.0729 23.4892 14.8462 23.4779C10.3196 23.4685 6.51169 20.2523 5.58186 15.9942C5.48581 15.4471 5.4382 14.8926 5.43961 14.3371C5.45091 9.11154 9.73736 4.84309 14.9631 4.85439C19.485 4.86381 23.2863 8.07151 24.2246 12.3183C24.2243 12.3205 24.2243 12.3227 24.2246 12.3249C24.3228 12.8762 24.3716 13.4352 24.3707 13.9952V13.9952Z" fill="white"/>
<path d="M14.2885 0.796618C5.49798 0.777777 0.0216846 6.30952 1.68259e-05 15.0207C-0.00563564 17.7131 1.41313 21.9128 3.855 26.9848C4.95911 29.1261 6.3044 31.5067 7.71752 33.8835C9.45282 36.817 11.3473 39.7515 13.2428 42.4477L14.1905 43.7176C14.508 43.321 14.8255 42.9263 15.143 42.4515C17.0507 39.6847 18.9565 36.8368 20.7012 33.9117C22.1322 31.5387 23.405 29.1657 24.5176 27.03C27.0612 21.9674 28.4979 17.7734 28.5035 15.081C28.5308 6.60816 22.8416 0.815459 14.2885 0.796618ZM14.2386 23.7592C9.01193 23.7479 4.74432 19.4634 4.75562 14.236C4.76693 9.00851 9.05338 4.74477 14.28 4.75608C19.5067 4.76738 23.7743 9.05279 23.763 14.2793C23.7517 19.5058 19.4652 23.7733 14.2386 23.7592Z" fill="#66D9E8"/>
<path d="M24.6381 28.0873C23.6603 29.9403 22.5703 31.9347 21.3672 33.928C19.6197 36.8531 17.7129 39.701 15.809 42.4678C15.4915 42.9388 15.174 43.3373 14.8556 43.7339L13.9051 42.4649C12.0096 39.7688 10.1151 36.8343 8.38448 33.9017C6.96288 31.522 5.62231 29.1433 4.52196 27.003C2.07256 21.9291 0.653788 17.7285 0.659441 15.0361C0.666977 11.4412 1.60152 8.38893 3.31987 6.04321C2.64063 7.81239 2.28358 9.82745 2.27605 12.0488C2.27039 14.7412 3.68916 18.9418 6.13103 24.0129C7.23514 26.1533 8.57572 28.5348 9.99355 30.9116C11.7289 33.8442 13.6234 36.7787 15.5179 39.4749L16.4656 40.7448C16.784 40.3481 17.1015 39.9534 17.419 39.4786C19.3258 36.7118 21.2325 33.864 22.9773 30.9389C23.5613 29.9855 24.1125 29.0284 24.6381 28.0873Z" fill="#61BBC7"/>
<path d="M14.834 44.66L13.3662 42.692C11.4651 39.9883 9.54515 37.0124 7.81267 34.0845C6.32889 31.6003 4.98643 29.2018 3.92848 27.1519L3.92094 27.1359C1.31327 21.7247 -0.00563437 17.6014 1.80915e-05 14.8845C0.00943887 10.4201 1.41313 6.66787 4.05095 4.03105C6.68877 1.39424 10.4382 0 14.9009 0H14.947C19.3135 0.00942055 23.0489 1.45076 25.7404 4.16671C28.4319 6.88265 29.8384 10.6009 29.83 14.9457C29.8243 17.6899 28.4168 21.9244 25.7743 27.1924V27.2009C24.7814 29.1067 23.4483 31.6144 21.9382 34.1193C20.0672 37.2507 18.0653 40.2107 16.3545 42.692C16.0295 43.1772 15.7016 43.5861 15.3851 43.9817L14.834 44.66ZM14.4392 41.928L14.866 42.4999C14.997 42.3265 15.127 42.1457 15.257 41.9516C16.9574 39.4721 18.949 36.5385 20.8011 33.4382C22.2933 30.9653 23.6122 28.4821 24.5967 26.5942C27.1516 21.5128 28.5045 17.4845 28.5101 14.9438C28.528 6.812 23.0753 1.33678 14.9442 1.31888H14.9009C6.53992 1.31888 1.33683 6.51337 1.31893 14.8845C1.31327 17.3668 2.62276 21.4016 5.10514 26.5546C6.14896 28.5791 7.47729 30.9493 8.94975 33.41C10.6615 36.3077 12.5598 39.2517 14.4392 41.9214V41.928ZM14.9169 24.2871H14.8943C12.1982 24.2842 9.61372 23.2105 7.70935 21.3021C5.80498 19.3937 4.73674 16.807 4.73961 14.111C4.74248 11.4151 5.81624 8.83062 7.72467 6.9263C9.6331 5.02198 12.2199 3.95376 14.9159 3.95663H14.9385C16.9487 3.95877 18.9129 4.55759 20.5824 5.67722C22.2518 6.79684 23.5513 8.38686 24.3161 10.2458C25.0809 12.1047 25.2766 14.1488 24.8784 16.119C24.4803 18.0893 23.5061 19.897 22.0795 21.3131C21.1405 22.2561 20.0242 23.0042 18.795 23.5141C17.5657 24.024 16.2477 24.2858 14.9169 24.2843V24.2871ZM14.9169 5.28116C12.5871 5.3026 10.3598 6.24248 8.71905 7.89663C7.07827 9.55077 6.15651 11.7855 6.15402 14.1154C6.15154 16.4452 7.06854 18.6819 8.70579 20.3396C10.343 21.9972 12.5683 22.9418 14.898 22.9682H14.9178C17.2641 22.9706 19.5152 22.0409 21.1759 20.3835C22.8366 18.7262 23.771 16.477 23.7733 14.1308C23.7757 11.7846 22.8459 9.53357 21.1886 7.87288C19.5312 6.21218 17.282 5.27788 14.9357 5.27551L14.9169 5.28116Z" fill="#426572"/>
<path d="M14.834 44.66L13.3662 42.692C11.4651 39.9883 9.54515 37.0124 7.81267 34.0845C6.32889 31.6003 4.98643 29.2018 3.92848 27.1519L3.92094 27.1359C1.31327 21.7247 -0.00563437 17.6014 1.80915e-05 14.8845C0.00943887 10.4201 1.41313 6.66787 4.05095 4.03105C6.68877 1.39424 10.4382 0 14.9009 0H14.947C19.3135 0.00942055 23.0489 1.45076 25.7404 4.16671C28.4319 6.88265 29.8384 10.6009 29.83 14.9457C29.8243 17.6899 28.4168 21.9244 25.7743 27.1924V27.2009C24.7814 29.1067 23.4483 31.6144 21.9382 34.1193C20.0672 37.2507 18.0653 40.2107 16.3545 42.692C16.0295 43.1772 15.7016 43.5861 15.3851 43.9817L14.834 44.66ZM14.4392 41.928L14.866 42.4999C14.997 42.3265 15.127 42.1457 15.257 41.9516C16.9574 39.4721 18.949 36.5385 20.8011 33.4382C22.2933 30.9653 23.6122 28.4821 24.5967 26.5942C27.1516 21.5128 28.5045 17.4845 28.5101 14.9438C28.528 6.812 23.0753 1.33678 14.9442 1.31888H14.9009C6.53992 1.31888 1.33683 6.51337 1.31893 14.8845C1.31327 17.3668 2.62276 21.4016 5.10514 26.5546C6.14896 28.5791 7.47729 30.9493 8.94975 33.41C10.6615 36.3077 12.5598 39.2517 14.4392 41.9214V41.928ZM14.9169 24.2871H14.8943C12.1982 24.2842 9.61372 23.2105 7.70935 21.3021C5.80498 19.3937 4.73674 16.807 4.73961 14.111C4.74248 11.4151 5.81624 8.83062 7.72467 6.9263C9.6331 5.02198 12.2199 3.95376 14.9159 3.95663H14.9385C16.9487 3.95877 18.9129 4.55759 20.5824 5.67722C22.2518 6.79684 23.5513 8.38686 24.3161 10.2458C25.0809 12.1047 25.2766 14.1488 24.8784 16.119C24.4803 18.0893 23.5061 19.897 22.0795 21.3131C21.1405 22.2561 20.0242 23.0042 18.795 23.5141C17.5657 24.024 16.2477 24.2858 14.9169 24.2843V24.2871ZM14.9169 5.28116C12.5871 5.3026 10.3598 6.24248 8.71905 7.89663C7.07827 9.55077 6.15651 11.7855 6.15402 14.1154C6.15154 16.4452 7.06854 18.6819 8.70579 20.3396C10.343 21.9972 12.5683 22.9418 14.898 22.9682H14.9178C17.2641 22.9706 19.5152 22.0409 21.1759 20.3835C22.8366 18.7262 23.771 16.477 23.7733 14.1308C23.7757 11.7846 22.8459 9.53357 21.1886 7.87288C19.5312 6.21218 17.282 5.27788 14.9357 5.27551L14.9169 5.28116Z" fill="#426572"/>
<path d="M26.301 9.36975C26.5744 10.0345 26.7875 10.7224 26.9378 11.4253C26.9699 11.5874 26.9943 11.7466 27.0207 11.8963C27.0471 12.0461 27.0763 12.1997 27.0857 12.3457L27.1244 12.7677C27.1347 12.9034 27.1507 13.0325 27.1488 13.1568C27.1488 13.4055 27.1536 13.6278 27.1488 13.8266C27.1441 14.0254 27.1206 14.1931 27.1036 14.3306C27.0678 14.6066 27.0235 14.7574 26.9746 14.7574C26.9256 14.7574 26.8738 14.6066 26.8229 14.3382C26.7965 14.2034 26.7767 14.0395 26.7456 13.8502C26.7145 13.6608 26.675 13.446 26.6392 13.2096C26.6241 13.0909 26.594 12.9684 26.5695 12.8403L26.4922 12.4418C26.4705 12.3033 26.4272 12.1639 26.398 12.0188C26.3688 11.8737 26.3302 11.7239 26.2906 11.5723C26.112 10.9167 25.8933 10.2727 25.6359 9.64389C25.3683 9.01976 25.0599 8.41396 24.7126 7.83044L24.4724 7.44231L24.2312 7.0815C24.1559 6.9628 24.0758 6.85447 23.9995 6.74896C23.9232 6.64345 23.8525 6.53982 23.7809 6.44373C23.2072 5.6769 22.8115 5.21906 22.8831 5.14087C22.9547 5.06268 23.47 5.40088 24.1691 6.11307C24.2567 6.20162 24.3424 6.30148 24.4338 6.4004C24.5252 6.49931 24.6222 6.60671 24.7098 6.72258C24.7974 6.83845 24.8982 6.95527 24.9924 7.07962L25.2751 7.47434C25.676 8.07243 26.0195 8.70705 26.301 9.36975V9.36975Z" fill="white"/>
<path d="M20.6495 3.04658C21.2769 3.41021 21.6519 3.88972 21.5351 4.04704C21.4182 4.20436 20.8756 4.0103 20.2868 3.67022C19.698 3.33014 19.2647 2.96839 19.3353 2.78563C19.406 2.60287 20.024 2.68106 20.6495 3.04658Z" fill="white"/>
</svg>
