<svg width="15" height="23" viewBox="0 0 15 23" fill="none" xmlns="http://www.w3.org/2000/svg">
<path d="M4.60568 2.56743C4.45728 2.56743 4.31221 2.52343 4.18882 2.44098C4.06543 2.35853 3.96925 2.24135 3.91246 2.10424C3.85567 1.96714 3.84081 1.81627 3.86976 1.67072C3.89872 1.52517 3.97018 1.39148 4.07511 1.28654C4.18005 1.1816 4.31375 1.11014 4.4593 1.08119C4.60485 1.05224 4.75571 1.0671 4.89282 1.12389C5.02992 1.18068 5.14711 1.27685 5.22956 1.40024C5.312 1.52363 5.35601 1.6687 5.35601 1.8171C5.35576 2.01603 5.27663 2.20673 5.13597 2.34739C4.99531 2.48805 4.8046 2.56718 4.60568 2.56743V2.56743ZM4.60568 1.63485C4.56963 1.63485 4.53439 1.64554 4.50442 1.66556C4.47445 1.68559 4.45109 1.71405 4.43729 1.74736C4.4235 1.78066 4.41989 1.81731 4.42692 1.85266C4.43396 1.88801 4.45131 1.92049 4.4768 1.94598C4.50229 1.97147 4.53477 1.98883 4.57012 1.99586C4.60548 2.00289 4.64212 1.99928 4.67542 1.98549C4.70873 1.97169 4.73719 1.94833 4.75722 1.91836C4.77725 1.88839 4.78794 1.85315 4.78794 1.8171C4.78794 1.79317 4.78322 1.76947 4.77406 1.74736C4.7649 1.72524 4.75148 1.70515 4.73455 1.68823C4.71763 1.6713 4.69754 1.65788 4.67542 1.64872C4.65331 1.63956 4.62961 1.63485 4.60568 1.63485V1.63485Z" fill="#E7F6FF"/>
<path d="M5.94436 2.1823C6.08973 2.1823 6.20757 2.06446 6.20757 1.91909C6.20757 1.77373 6.08973 1.65588 5.94436 1.65588C5.79899 1.65588 5.68115 1.77373 5.68115 1.91909C5.68115 2.06446 5.79899 2.1823 5.94436 2.1823Z" fill="#E7F6FF"/>
<g opacity="0.5">
<path opacity="0.5" d="M9.75953 15.649V16.2271C9.59242 16.7587 9.32969 17.3807 8.98458 18.0667C8.84256 18.3389 8.69061 18.6262 8.52776 18.9216C8.63901 18.7323 8.74599 18.5472 8.84919 18.3625C8.72895 18.5907 8.60161 18.8279 8.46716 19.0689V18.1694L8.50693 18.0941L8.46716 18.1651V18.132C8.52713 18.0187 8.58551 17.9082 8.64232 17.8006C9.01677 17.0555 9.29466 16.3866 9.45845 15.8261C9.56023 15.7688 9.66059 15.7096 9.75953 15.649Z" fill="#BBD2E5"/>
</g>
<path d="M12.2463 7.25425C12.2406 9.88159 10.0867 12.0251 7.46026 12.0194C5.1856 12.0147 3.27214 10.3985 2.8049 8.2588C2.75663 7.98387 2.73271 7.70522 2.73341 7.42609C2.73909 4.80017 4.89304 2.65522 7.51896 2.6609C9.79126 2.66563 11.7014 4.27754 12.1729 6.41161C12.1727 6.41271 12.1727 6.41382 12.1729 6.41492C12.2222 6.69197 12.2468 6.97285 12.2463 7.25425V7.25425Z" fill="white"/>
<path d="M7.17999 0.62185C2.76274 0.612382 0.0108965 3.39216 8.45506e-06 7.76964C-0.00283191 9.1226 0.710101 11.233 1.93714 13.7818C2.49196 14.8578 3.16797 16.0541 3.87806 17.2484C4.75005 18.7226 5.70205 20.1972 6.65452 21.5521L7.13076 22.1902C7.29029 21.9909 7.44982 21.7925 7.60936 21.554C8.56798 20.1636 9.52566 18.7325 10.4024 17.2626C11.1215 16.0701 11.761 14.8777 12.3201 13.8045C13.5983 11.2605 14.3202 9.1529 14.323 7.79994C14.3368 3.54222 11.4779 0.631318 7.17999 0.62185ZM7.1549 12.1609C4.5285 12.1552 2.38403 10.0022 2.38971 7.3753C2.39539 4.74843 4.54933 2.60585 7.17573 2.61153C9.80212 2.61721 11.9466 4.77068 11.9409 7.39708C11.9352 10.0235 9.78129 12.168 7.1549 12.1609Z" fill="#9FF3CB"/>
<path d="M12.3806 14.3359C11.8892 15.267 11.3415 16.2692 10.737 17.2709C9.85885 18.7408 8.9007 20.1719 7.94397 21.5622C7.78444 21.7989 7.6249 21.9992 7.4649 22.1985L6.98724 21.5608C6.03477 20.206 5.08277 18.7313 4.21315 17.2577C3.49879 16.0619 2.82515 14.8665 2.27223 13.791C1.0414 11.2413 0.328467 9.13041 0.331307 7.77745C0.335094 5.97098 0.804702 4.43718 1.66817 3.25842C1.32686 4.14746 1.14744 5.16005 1.14365 6.27632C1.14081 7.62928 1.85375 9.74015 3.08079 12.2884C3.6356 13.364 4.30925 14.5607 5.0217 15.7551C5.8937 17.2288 6.8457 18.7034 7.79769 20.0583L8.27393 20.6964C8.43394 20.4971 8.59347 20.2987 8.753 20.0602C9.71115 18.6698 10.6693 17.2387 11.546 15.7688C11.8395 15.2898 12.1165 14.8088 12.3806 14.3359Z" fill="#88C9AA"/>
<path d="M7.45409 22.6638L6.71654 21.6749C5.76123 20.3162 4.79645 18.8208 3.92587 17.3495C3.18028 16.1011 2.50569 14.8959 1.97407 13.8657L1.97028 13.8577C0.659922 11.1385 -0.00283128 9.06647 9.09097e-06 7.7012C0.00474304 5.45778 0.710101 3.57225 2.03561 2.24721C3.36111 0.922182 5.24523 0.221558 7.4877 0.221558H7.51089C9.70508 0.226292 11.5821 0.950586 12.9346 2.31538C14.2871 3.68018 14.9938 5.54867 14.9896 7.73197C14.9867 9.11097 14.2795 11.2389 12.9516 13.8861V13.8904C12.4527 14.848 11.7828 16.1082 11.024 17.367C10.0838 18.9405 9.07783 20.4279 8.21815 21.6749C8.05482 21.9187 7.89008 22.1241 7.73102 22.3229L7.45409 22.6638ZM7.25573 21.2909L7.47018 21.5783C7.53598 21.4912 7.60131 21.4003 7.66664 21.3028C8.52112 20.0568 9.52188 18.5827 10.4526 17.0247C11.2024 15.7821 11.8652 14.5342 12.3599 13.5855C13.6437 11.032 14.3235 9.00777 14.3264 7.73102C14.3354 3.64468 11.5953 0.893305 7.50947 0.884311H7.4877C3.28632 0.884311 0.671757 3.49461 0.662762 7.7012C0.659922 8.94859 1.31794 10.9761 2.56534 13.5656C3.08986 14.5829 3.75734 15.774 4.49726 17.0105C5.35742 18.4667 6.31131 19.946 7.25573 21.2876V21.2909ZM7.49574 12.4262H7.48438C6.12961 12.4247 4.8309 11.8851 3.87396 10.9262C2.91701 9.96717 2.38022 8.66731 2.38166 7.31254C2.3831 5.95777 2.92267 4.65906 3.88166 3.70211C4.84064 2.74517 6.1405 2.20837 7.49527 2.20982H7.50663C8.51673 2.21089 9.50376 2.51181 10.3427 3.07443C11.1815 3.63706 11.8345 4.43606 12.2188 5.37019C12.6032 6.30431 12.7015 7.3315 12.5014 8.32158C12.3014 9.31166 11.8119 10.2201 11.095 10.9316C10.6231 11.4056 10.0622 11.7814 9.44449 12.0377C8.82679 12.2939 8.16449 12.4255 7.49574 12.4247V12.4262ZM7.49574 2.87541C6.32501 2.88618 5.20582 3.35849 4.38133 4.18972C3.55684 5.02094 3.09365 6.14394 3.0924 7.31472C3.09116 8.4855 3.55195 9.60948 4.37467 10.4425C5.19739 11.2754 6.31557 11.7501 7.48628 11.7634H7.49622C8.67522 11.7646 9.8064 11.2974 10.6409 10.4645C11.4754 9.63171 11.9449 8.50148 11.9461 7.32248C11.9473 6.14348 11.4801 5.0123 10.6473 4.17778C9.81445 3.34326 8.68421 2.87376 7.50521 2.87257L7.49574 2.87541Z" fill="#426572"/>
<path d="M4.55676 6.80066V9.2565C4.55676 9.33632 4.62141 9.40096 4.70122 9.40096H5.42353V6.51174H4.84569C4.68615 6.51174 4.55676 6.64112 4.55676 6.80066ZM7.80714 6.36727H7.59045V6.00612C7.59045 5.96621 7.55813 5.93389 7.51822 5.93389H7.37376C7.33385 5.93389 7.30153 5.96621 7.30153 6.00612V6.58397C7.30153 6.62387 7.33385 6.6562 7.37376 6.6562H7.80714C7.84705 6.6562 7.87937 6.62387 7.87937 6.58397V6.4395C7.87937 6.3996 7.84705 6.36727 7.80714 6.36727ZM9.05086 5.78979L7.60625 4.82668C7.55878 4.79507 7.50302 4.7782 7.44599 4.7782C7.38896 4.7782 7.3332 4.79507 7.28573 4.82668L5.84111 5.78979C5.80155 5.81617 5.7691 5.85191 5.74666 5.89384C5.72421 5.93576 5.71246 5.98258 5.71245 6.03014V9.40096H6.86814V8.10081C6.86814 8.02099 6.93279 7.95635 7.01261 7.95635H7.87937C7.95919 7.95635 8.02384 8.02099 8.02384 8.10081V9.40096H9.17953V6.03023C9.17953 5.93362 9.13122 5.84333 9.05086 5.78979ZM7.44599 7.08958C7.0471 7.08958 6.72368 6.76617 6.72368 6.36727C6.72368 5.96838 7.0471 5.64497 7.44599 5.64497C7.84488 5.64497 8.1683 5.96838 8.1683 6.36727C8.1683 6.76617 7.84488 7.08958 7.44599 7.08958ZM10.0463 6.51174H9.46845V9.40096H10.1908C10.2706 9.40096 10.3352 9.33632 10.3352 9.2565V6.80066C10.3352 6.64112 10.2058 6.51174 10.0463 6.51174Z" fill="#282C4D"/>
</svg>
