<svg width="16" height="23" viewBox="0 0 16 23" fill="none" xmlns="http://www.w3.org/2000/svg">
<path d="M5.40951 2.56743C5.26111 2.56743 5.11604 2.52343 4.99265 2.44098C4.86926 2.35853 4.77309 2.24135 4.7163 2.10424C4.6595 1.96714 4.64465 1.81627 4.6736 1.67072C4.70255 1.52517 4.77401 1.39148 4.87895 1.28654C4.98388 1.1816 5.11758 1.11014 5.26313 1.08119C5.40868 1.05224 5.55955 1.0671 5.69665 1.12389C5.83376 1.18068 5.95094 1.27685 6.03339 1.40024C6.11584 1.52363 6.15984 1.6687 6.15984 1.8171C6.15959 2.01603 6.08046 2.20673 5.9398 2.34739C5.79914 2.48805 5.60843 2.56718 5.40951 2.56743V2.56743ZM5.40951 1.63485C5.37346 1.63485 5.33823 1.64554 5.30825 1.66556C5.27828 1.68559 5.25492 1.71405 5.24113 1.74736C5.22733 1.78066 5.22372 1.81731 5.23076 1.85266C5.23779 1.88801 5.25515 1.92049 5.28064 1.94598C5.30613 1.97147 5.3386 1.98883 5.37395 1.99586C5.40931 2.00289 5.44595 1.99928 5.47926 1.98549C5.51256 1.97169 5.54103 1.94833 5.56105 1.91836C5.58108 1.88839 5.59177 1.85315 5.59177 1.8171C5.59177 1.79317 5.58705 1.76947 5.57789 1.74736C5.56874 1.72524 5.55531 1.70515 5.53839 1.68823C5.52146 1.6713 5.50137 1.65788 5.47926 1.64872C5.45715 1.63956 5.43345 1.63485 5.40951 1.63485V1.63485Z" fill="#E7F6FF"/>
<path d="M6.74819 2.1823C6.89356 2.1823 7.0114 2.06446 7.0114 1.91909C7.0114 1.77373 6.89356 1.65588 6.74819 1.65588C6.60283 1.65588 6.48499 1.77373 6.48499 1.91909C6.48499 2.06446 6.60283 2.1823 6.74819 2.1823Z" fill="#E7F6FF"/>
<g opacity="0.5">
<path opacity="0.5" d="M10.5634 15.649V16.2271C10.3963 16.7587 10.1335 17.3807 9.78842 18.0667C9.6464 18.3389 9.49444 18.6262 9.33159 18.9216C9.44284 18.7323 9.54983 18.5472 9.65303 18.3625C9.53278 18.5907 9.40544 18.8279 9.271 19.0689V18.1694L9.31076 18.0941L9.271 18.1651V18.132C9.33096 18.0187 9.38934 17.9082 9.44615 17.8006C9.82061 17.0555 10.0985 16.3866 10.2623 15.8261C10.3641 15.7688 10.4644 15.7096 10.5634 15.649Z" fill="#BBD2E5"/>
</g>
<path d="M13.0501 7.25425C13.0444 9.88159 10.8905 12.0251 8.26409 12.0194C5.98943 12.0147 4.07597 10.3985 3.60873 8.2588C3.56046 7.98387 3.53654 7.70522 3.53725 7.42609C3.54293 4.80017 5.69687 2.65522 8.3228 2.6609C10.5951 2.66563 12.5052 4.27754 12.9767 6.41161C12.9766 6.41271 12.9766 6.41382 12.9767 6.41492C13.0261 6.69197 13.0506 6.97285 13.0501 7.25425V7.25425Z" fill="white"/>
<path d="M7.98382 0.62185C3.56657 0.612382 0.81473 3.39216 0.803841 7.76964C0.801001 9.1226 1.51393 11.233 2.74097 13.7818C3.29579 14.8578 3.9718 16.0541 4.68189 17.2484C5.55389 18.7226 6.50588 20.1972 7.45835 21.5521L7.93459 22.1902C8.09412 21.9909 8.25366 21.7925 8.41319 21.554C9.37182 20.1636 10.3295 18.7325 11.2062 17.2626C11.9253 16.0701 12.5649 14.8777 13.1239 13.8045C14.4021 11.2605 15.124 9.1529 15.1269 7.79994C15.1406 3.54222 12.2818 0.631318 7.98382 0.62185ZM7.95873 12.1609C5.33234 12.1552 3.18786 10.0022 3.19354 7.3753C3.19922 4.74843 5.35317 2.60585 7.97956 2.61153C10.606 2.61721 12.7504 4.77068 12.7448 7.39708C12.7391 10.0235 10.5851 12.168 7.95873 12.1609Z" fill="#F2F47C"/>
<path d="M13.1846 14.3359C12.6932 15.267 12.1455 16.2692 11.541 17.2709C10.6628 18.7408 9.70466 20.1719 8.74793 21.5622C8.58839 21.7989 8.42886 21.9992 8.26885 22.1985L7.7912 21.5608C6.83873 20.206 5.88673 18.7313 5.0171 17.2577C4.30275 16.0619 3.62911 14.8665 3.07618 13.791C1.84535 11.2413 1.13242 9.13041 1.13526 7.77745C1.13905 5.97098 1.60866 4.43718 2.47213 3.25842C2.13081 4.14746 1.9514 5.16005 1.94761 6.27632C1.94477 7.62928 2.6577 9.74015 3.88474 12.2884C4.43956 13.364 5.1132 14.5607 5.82566 15.7551C6.69765 17.2288 7.64965 18.7034 8.60165 20.0583L9.07788 20.6964C9.23789 20.4971 9.39742 20.2987 9.55696 20.0602C10.5151 18.6698 11.4733 17.2387 12.35 15.7688C12.6435 15.2898 12.9204 14.8088 13.1846 14.3359Z" fill="#DCDE6E"/>
<path d="M8.25792 22.6638L7.52037 21.6749C6.56506 20.3162 5.60028 18.8208 4.72971 17.3495C3.98411 16.1011 3.30952 14.8959 2.7779 13.8657L2.77411 13.8577C1.46375 11.1385 0.801002 9.06647 0.803842 7.7012C0.808576 5.45778 1.51393 3.57225 2.83944 2.24721C4.16495 0.922182 6.04906 0.221558 8.29153 0.221558H8.31473C10.5089 0.226292 12.3859 0.950586 13.7384 2.31538C15.0909 3.68018 15.7977 5.54867 15.7934 7.73197C15.7906 9.11097 15.0833 11.2389 13.7555 13.8861V13.8904C13.2565 14.848 12.5866 16.1082 11.8278 17.367C10.8876 18.9405 9.88166 20.4279 9.02198 21.6749C8.85866 21.9187 8.69392 22.1241 8.53486 22.3229L8.25792 22.6638ZM8.05957 21.2909L8.27401 21.5783C8.33982 21.4912 8.40515 21.4003 8.47047 21.3028C9.32495 20.0568 10.3257 18.5827 11.2564 17.0247C12.0063 15.7821 12.669 14.5342 13.1637 13.5855C14.4476 11.032 15.1274 9.00777 15.1302 7.73102C15.1392 3.64468 12.3992 0.893305 8.31331 0.884311H8.29153C4.09015 0.884311 1.47559 3.49461 1.4666 7.7012C1.46375 8.94859 2.12177 10.9761 3.36917 13.5656C3.89369 14.5829 4.56118 15.774 5.30109 17.0105C6.16125 18.4667 7.11514 19.946 8.05957 21.2876V21.2909ZM8.29958 12.4262H8.28822C6.93345 12.4247 5.63474 11.8851 4.67779 10.9262C3.72084 9.96717 3.18405 8.66731 3.18549 7.31254C3.18694 5.95777 3.7265 4.65906 4.68549 3.70211C5.64448 2.74517 6.94433 2.20837 8.2991 2.20982H8.31047C9.32056 2.21089 10.3076 2.51181 11.1465 3.07443C11.9854 3.63706 12.6384 4.43606 13.0227 5.37019C13.407 6.30431 13.5053 7.3315 13.3053 8.32158C13.1052 9.31166 12.6157 10.2201 11.8988 10.9316C11.427 11.4056 10.866 11.7814 10.2483 12.0377C9.63062 12.2939 8.96833 12.4255 8.29958 12.4247V12.4262ZM8.29958 2.87541C7.12885 2.88618 6.00966 3.35849 5.18516 4.18972C4.36067 5.02094 3.89748 6.14394 3.89624 7.31472C3.89499 8.4855 4.35578 9.60948 5.1785 10.4425C6.00122 11.2754 7.1194 11.7501 8.29011 11.7634H8.30005C9.47905 11.7646 10.6102 11.2974 11.4448 10.4645C12.2793 9.63171 12.7488 8.50148 12.75 7.32248C12.7512 6.14348 12.2839 5.0123 11.4511 4.17778C10.6183 3.34326 9.48804 2.87376 8.30905 2.87257L8.29958 2.87541Z" fill="#426572"/>
<path d="M6.39859 9.85273H5.75257C5.71585 9.85273 5.68064 9.83814 5.65468 9.81218C5.62872 9.78622 5.61414 9.75101 5.61414 9.7143V5.37673C5.61414 5.34002 5.62872 5.30481 5.65468 5.27885C5.68064 5.25289 5.71585 5.2383 5.75257 5.2383H6.39859C6.4353 5.2383 6.47051 5.25289 6.49647 5.27885C6.52244 5.30481 6.53702 5.34002 6.53702 5.37673V9.7143C6.53702 9.75101 6.52244 9.78622 6.49647 9.81218C6.47051 9.83814 6.4353 9.85273 6.39859 9.85273ZM8.19821 6.71492V6.11504C8.19821 6.07833 8.18363 6.04312 8.15767 6.01716C8.13171 5.99119 8.0965 5.97661 8.05978 5.97661H6.86003C6.82332 5.97661 6.78811 5.99119 6.76214 6.01716C6.73618 6.04312 6.7216 6.07833 6.7216 6.11504V6.71492H8.19821ZM6.7216 9.11442V9.7143C6.7216 9.75101 6.73618 9.78622 6.76214 9.81218C6.78811 9.83814 6.82332 9.85273 6.86003 9.85273H8.05978C8.0965 9.85273 8.13171 9.83814 8.15767 9.81218C8.18363 9.78622 8.19821 9.75101 8.19821 9.7143V9.11442H6.7216ZM6.7216 7.08407H8.19821V8.74527H6.7216V7.08407ZM9.35182 9.85273H8.52122C8.48451 9.85273 8.4493 9.83814 8.42334 9.81218C8.39738 9.78622 8.38279 9.75101 8.38279 9.7143V4.823C8.38279 4.78629 8.39738 4.75108 8.42334 4.72512C8.4493 4.69916 8.48451 4.68457 8.52122 4.68457H9.35182C9.38854 4.68457 9.42375 4.69916 9.44971 4.72512C9.47567 4.75108 9.49025 4.78629 9.49025 4.823V9.7143C9.49025 9.75101 9.47567 9.78622 9.44971 9.81218C9.42375 9.83814 9.38854 9.85273 9.35182 9.85273ZM9.68637 5.4771L10.0324 9.72041C10.034 9.73902 10.0393 9.75712 10.048 9.77363C10.0567 9.79015 10.0687 9.80473 10.0832 9.81649C10.0977 9.82826 10.1144 9.83698 10.1323 9.84211C10.1503 9.84725 10.1691 9.8487 10.1876 9.84638L11.0201 9.74256C11.0555 9.73813 11.0879 9.72017 11.1104 9.69243C11.1329 9.6647 11.1438 9.62934 11.1408 9.59374L10.7938 5.36762C10.7923 5.34927 10.7871 5.3314 10.7786 5.31507C10.7701 5.29874 10.7584 5.28427 10.7442 5.27252C10.73 5.26077 10.7136 5.25196 10.696 5.24662C10.6784 5.24128 10.6599 5.23951 10.6416 5.24142L9.80946 5.32805C9.77355 5.33193 9.74059 5.34969 9.71759 5.37753C9.69459 5.40538 9.68339 5.44111 9.68637 5.4771V5.4771Z" fill="#282C4D"/>
</svg>
