<svg width="31" height="46" viewBox="0 0 31 46" fill="none" xmlns="http://www.w3.org/2000/svg">
<path d="M9.92932 5.19336C9.63398 5.19336 9.34527 5.10578 9.0997 4.94169C8.85413 4.77761 8.66273 4.54439 8.54971 4.27153C8.43668 3.99867 8.40711 3.69842 8.46473 3.40875C8.52235 3.11908 8.66457 2.853 8.87341 2.64416C9.08225 2.43532 9.34833 2.2931 9.63799 2.23548C9.92766 2.17786 10.2279 2.20743 10.5008 2.32046C10.7736 2.43348 11.0069 2.62488 11.1709 2.87045C11.335 3.11602 11.4226 3.40473 11.4226 3.70007C11.4221 4.09596 11.2646 4.4755 10.9847 4.75543C10.7047 5.03537 10.3252 5.19286 9.92932 5.19336ZM9.92932 3.33735C9.85758 3.33735 9.78745 3.35862 9.7278 3.39848C9.66815 3.43834 9.62166 3.49499 9.59421 3.56126C9.56676 3.62754 9.55957 3.70047 9.57357 3.77084C9.58756 3.8412 9.62211 3.90583 9.67284 3.95656C9.72356 4.00728 9.7882 4.04183 9.85856 4.05582C9.92892 4.06982 10.0018 4.06264 10.0681 4.03518C10.1344 4.00773 10.1911 3.96124 10.2309 3.90159C10.2708 3.84194 10.292 3.77181 10.292 3.70007C10.292 3.65244 10.2827 3.60527 10.2644 3.56126C10.2462 3.51726 10.2195 3.47727 10.1858 3.44359C10.1521 3.40991 10.1121 3.38319 10.0681 3.36496C10.0241 3.34673 9.97695 3.33735 9.92932 3.33735Z" fill="#E7F6FF"/>
<path d="M12.5934 4.42687C12.8827 4.42687 13.1172 4.19234 13.1172 3.90304C13.1172 3.61374 12.8827 3.37921 12.5934 3.37921C12.3041 3.37921 12.0696 3.61374 12.0696 3.90304C12.0696 4.19234 12.3041 4.42687 12.5934 4.42687Z" fill="#E7F6FF"/>
<g opacity="0.5">
<path opacity="0.5" d="M20.1862 31.2278V32.3781C19.8536 33.4361 19.3307 34.6741 18.6439 36.0393C18.3612 36.581 18.0588 37.1529 17.7347 37.7408C17.9561 37.3639 18.1691 36.9955 18.3744 36.6281C18.1351 37.0822 17.8817 37.5542 17.6141 38.0338V36.2437L17.6933 36.0939L17.6141 36.2352V36.1693C17.7335 35.9438 17.8497 35.724 17.9627 35.5098C18.708 34.0269 19.261 32.6956 19.587 31.5801C19.7895 31.4661 19.9893 31.3484 20.1862 31.2278Z" fill="#BBD2E5"/>
</g>
<path d="M25.1352 14.521C25.1239 19.7499 20.8372 24.0159 15.6103 24.0046C11.0833 23.9951 7.27518 20.7787 6.3453 16.5202C6.24924 15.9731 6.20163 15.4185 6.20303 14.863C6.21434 9.63699 10.5011 5.36817 15.7271 5.37948C20.2493 5.3889 24.0508 8.59687 24.9892 12.844C24.9889 12.8462 24.9889 12.8484 24.9892 12.8506C25.0873 13.402 25.1362 13.961 25.1352 14.521Z" fill="white"/>
<path d="M15.0526 1.32121C6.2615 1.30237 0.78487 6.83459 0.7632 15.5465C0.757548 18.2391 2.1764 22.4392 4.61842 27.5116C5.7226 29.6531 7.06797 32.0339 8.48117 34.4109C10.2166 37.3447 12.1112 40.2794 14.0068 42.9758L14.9546 44.2458C15.2721 43.8492 15.5896 43.4544 15.9071 42.9796C17.8149 40.2126 19.7208 37.3645 21.4657 34.4392C22.8968 32.0659 24.1696 29.6927 25.2823 27.5569C27.826 22.4938 29.2628 18.2994 29.2684 15.6068C29.2958 7.13325 23.6062 1.34006 15.0526 1.32121ZM15.0026 24.2858C9.77567 24.2745 5.50779 19.9896 5.5191 14.7617C5.5304 9.53381 9.81712 5.2697 15.0441 5.28101C20.2711 5.29232 24.5389 9.57809 24.5276 14.8051C24.5163 20.032 20.2296 24.2999 15.0026 24.2858Z" fill="#B169DD"/>
<path d="M25.4028 28.6144C24.4249 30.4676 23.3348 32.4621 22.1317 34.4556C20.384 37.381 18.4772 40.229 16.5731 42.9961C16.2556 43.4671 15.9381 43.8657 15.6197 44.2623L14.669 42.9932C12.7735 40.2969 10.8788 37.3621 9.14813 34.4292C7.72645 32.0494 6.38579 29.6705 5.28538 27.53C2.83583 22.4556 1.41697 18.2547 1.42262 15.562C1.43016 11.9669 2.36476 8.91434 4.08321 6.56842C3.40393 8.33775 3.04687 10.353 3.03933 12.5745C3.03368 15.2672 4.45253 19.4681 6.89455 24.5396C7.99873 26.6802 9.33939 29.0619 10.7573 31.4389C12.4927 34.3718 14.3873 37.3065 16.282 40.0029L17.2298 41.2729C17.5482 40.8763 17.8657 40.4815 18.1832 40.0067C20.0901 37.2396 21.997 34.3916 23.7418 31.4662C24.3259 30.5128 24.8771 29.5556 25.4028 28.6144Z" fill="#9D5EC4"/>
<path d="M15.5981 45.1883L14.1302 43.2202C12.229 40.5163 10.3089 37.5401 8.57633 34.6119C7.09247 32.1275 5.74992 29.7288 4.69191 27.6788L4.68437 27.6627C2.07654 22.2511 0.757549 18.1274 0.763202 15.4103C0.772623 10.9455 2.1764 7.19297 4.81438 4.55593C7.45236 1.9189 11.2021 0.524536 15.665 0.524536H15.7111C20.0779 0.533957 23.8135 1.97542 26.5052 4.6916C29.1968 7.40778 30.6035 11.1264 30.595 15.4715C30.5893 18.216 29.1818 22.4508 26.5391 27.7193V27.7277C25.5461 29.6337 24.2129 32.1417 22.7027 34.6468C20.8316 37.7784 18.8296 40.7386 17.1187 43.2202C16.7936 43.7054 16.4658 44.1143 16.1492 44.51L15.5981 45.1883ZM15.2033 42.4562L15.6301 43.028C15.7611 42.8547 15.8911 42.6738 16.0211 42.4797C17.7216 40 19.7133 37.0662 21.5655 33.9656C23.0579 31.4925 24.3769 29.0091 25.3614 27.121C27.9165 22.0391 29.2694 18.0106 29.275 15.4696C29.2929 7.33712 23.8399 1.86143 15.7083 1.84353H15.665C7.3035 1.84353 2.10009 7.03846 2.08219 15.4103C2.07654 17.8928 3.38611 21.928 5.86863 27.0814C6.91252 29.1061 8.24093 31.4765 9.71349 33.9374C11.4253 36.8354 13.3237 39.7795 15.2033 42.4496V42.4562ZM15.681 24.8137H15.6584C12.9621 24.8109 10.3775 23.737 8.47301 21.8285C6.56852 19.9199 5.50021 17.333 5.50308 14.6368C5.50596 11.9406 6.57978 9.35591 8.48833 7.45143C10.3969 5.54694 12.9838 4.47863 15.68 4.4815H15.7026C17.7129 4.48364 19.6773 5.08252 21.3468 6.20224C23.0163 7.32196 24.3159 8.91211 25.0807 10.7712C25.8456 12.6302 26.0413 14.6745 25.6431 16.6449C25.2449 18.6154 24.2708 20.4232 22.844 21.8394C21.905 22.7826 20.7886 23.5307 19.5593 24.0406C18.33 24.5506 17.0119 24.8124 15.681 24.8109V24.8137ZM15.681 5.80615C13.351 5.82758 11.1236 6.76755 9.48276 8.42183C7.84189 10.0761 6.92007 12.3111 6.91759 14.6411C6.9151 16.9712 7.83216 19.2081 9.46951 20.8658C11.1069 22.5236 13.3322 23.4683 15.6621 23.4947H15.6819C18.0283 23.4971 20.2796 22.5673 21.9404 20.9098C23.6012 19.2523 24.5356 17.003 24.538 14.6566C24.5404 12.3102 23.6105 10.0589 21.9531 8.39808C20.2956 6.73725 18.0462 5.80287 15.6998 5.80049L15.681 5.80615Z" fill="#426572"/>
<path d="M27.0657 9.89508C27.3391 10.5599 27.5523 11.2479 27.7026 11.9508C27.7346 12.1129 27.7591 12.2721 27.7855 12.4219C27.8119 12.5717 27.8411 12.7253 27.8505 12.8713L27.8891 13.2934C27.8995 13.429 27.9155 13.5581 27.9136 13.6825C27.9136 13.9312 27.9183 14.1535 27.9136 14.3523C27.9089 14.5511 27.8854 14.7188 27.8684 14.8564C27.8326 15.1324 27.7883 15.2831 27.7393 15.2831C27.6903 15.2831 27.6385 15.1324 27.5877 14.8639C27.5613 14.7292 27.5415 14.5652 27.5104 14.3759C27.4793 14.1865 27.4397 13.9717 27.4039 13.7352C27.3889 13.6165 27.3587 13.494 27.3342 13.3659L27.257 12.9674C27.2353 12.8289 27.192 12.6895 27.1628 12.5444C27.1335 12.3993 27.0949 12.2495 27.0553 12.0978C26.8767 11.4422 26.658 10.7981 26.4006 10.1692C26.133 9.54505 25.8246 8.9392 25.4773 8.35563L25.237 7.96747L24.9958 7.60663C24.9205 7.48792 24.8404 7.37958 24.7641 7.27406C24.6878 7.16854 24.6171 7.0649 24.5455 6.96881C23.9717 6.20191 23.576 5.74403 23.6476 5.66583C23.7192 5.58764 24.2346 5.92586 24.9337 6.63812C25.0213 6.72668 25.107 6.82654 25.1984 6.92547C25.2898 7.02439 25.3868 7.1318 25.4744 7.24768C25.5621 7.36356 25.6629 7.48039 25.7571 7.60475L26.0397 7.9995C26.4407 8.59764 26.7842 9.23232 27.0657 9.89508Z" fill="white"/>
<path d="M21.4139 3.57145C22.0413 3.93511 22.4163 4.41466 22.2995 4.572C22.1827 4.72933 21.64 4.53525 21.0512 4.19514C20.4623 3.85503 20.0289 3.49325 20.0996 3.31048C20.1703 3.1277 20.7883 3.2059 21.4139 3.57145Z" fill="white"/>
<path d="M20.8102 13.5061V17.1198H20.5446V13.8485V13.3613L20.8102 13.5061ZM15.3669 10.5371L20.3764 13.2695L19.9558 13.4988L18.8937 14.0776L18.686 14.1908V14.4273V17.3773L15.3669 19.1885L12.0479 17.3773V14.4273V14.1908L11.8402 14.0776L10.3574 13.2695L15.3669 10.5371ZM19.1794 13.6193L19.8204 13.2697L19.1794 12.92L15.5576 10.9445L15.3669 10.8405L15.1762 10.9445L11.5545 12.92L10.9134 13.2697L11.5545 13.6193L15.1762 15.5948L15.3669 15.6988L15.5576 15.5948L19.1794 13.6193ZM18.213 17.3313L18.4204 17.218V16.9817V15.0062V14.3349L17.8313 14.6566L15.3669 16.0022L12.9025 14.6566L12.3134 14.3349V15.0062V16.9817V17.218L12.5208 17.3313L15.1761 18.781L15.3669 18.8852L15.5578 18.781L18.213 17.3313Z" fill="white" stroke="#282C4D" stroke-width="0.796572"/>
</svg>
