<svg width="30" height="45" viewBox="0 0 30 45" fill="none" xmlns="http://www.w3.org/2000/svg">
<path d="M9.16601 4.6687C8.87067 4.6687 8.58196 4.58112 8.33639 4.41703C8.09082 4.25295 7.89942 4.01973 7.7864 3.74687C7.67338 3.47401 7.6438 3.17376 7.70142 2.88409C7.75904 2.59442 7.90126 2.32834 8.1101 2.1195C8.31894 1.91066 8.58502 1.76844 8.87469 1.71082C9.16436 1.6532 9.46461 1.68278 9.73747 1.7958C10.0103 1.90882 10.2436 2.10022 10.4076 2.34579C10.5717 2.59136 10.6593 2.88007 10.6593 3.17541C10.6588 3.5713 10.5013 3.95084 10.2214 4.23077C9.94144 4.51071 9.56191 4.6682 9.16601 4.6687ZM9.16601 2.81269C9.09427 2.81269 9.02415 2.83396 8.9645 2.87382C8.90485 2.91368 8.85836 2.97033 8.8309 3.03661C8.80345 3.10288 8.79627 3.17582 8.81026 3.24618C8.82426 3.31654 8.8588 3.38117 8.90953 3.4319C8.96026 3.48262 9.02489 3.51717 9.09525 3.53117C9.16561 3.54516 9.23854 3.53798 9.30482 3.51053C9.3711 3.48307 9.42775 3.43658 9.46761 3.37693C9.50746 3.31728 9.52874 3.24715 9.52874 3.17541C9.52874 3.12778 9.51935 3.08061 9.50113 3.03661C9.4829 2.9926 9.45618 2.95261 9.4225 2.91893C9.38882 2.88525 9.34883 2.85853 9.30482 2.8403C9.26081 2.82207 9.21365 2.81269 9.16601 2.81269Z" fill="#E7F6FF"/>
<path d="M11.8303 3.90227C12.1196 3.90227 12.3542 3.66774 12.3542 3.37844C12.3542 3.08914 12.1196 2.85461 11.8303 2.85461C11.541 2.85461 11.3065 3.08914 11.3065 3.37844C11.3065 3.66774 11.541 3.90227 11.8303 3.90227Z" fill="#E7F6FF"/>
<g opacity="0.5">
<path opacity="0.5" d="M19.4231 30.7032V31.8535C19.0905 32.9116 18.5676 34.1495 17.8808 35.5147C17.5982 36.0564 17.2958 36.6283 16.9717 37.2162C17.1931 36.8393 17.406 36.4709 17.6114 36.1035C17.3721 36.5576 17.1186 37.0296 16.8511 37.5092V35.7191L16.9302 35.5693L16.8511 35.7106V35.6447C16.9704 35.4192 17.0866 35.1994 17.1997 34.9852C17.9449 33.5023 18.4979 32.171 18.8239 31.0555C19.0265 30.9415 19.2262 30.8238 19.4231 30.7032Z" fill="#BBD2E5"/>
</g>
<path d="M24.3722 13.9964C24.3609 19.2252 20.0742 23.4912 14.8472 23.4799C10.3202 23.4705 6.51212 20.254 5.58223 15.9956C5.48617 15.4484 5.43857 14.8939 5.43997 14.3384C5.45128 9.11233 9.73799 4.84351 14.964 4.85482C19.4863 4.86424 23.2878 8.07221 24.2261 12.3194C24.2258 12.3215 24.2258 12.3238 24.2261 12.326C24.3243 12.8773 24.3732 13.4363 24.3722 13.9964Z" fill="white"/>
<path d="M14.2894 0.796618C5.49832 0.777775 0.0216859 6.30999 1.6827e-05 15.0219C-0.00563598 17.7145 1.41322 21.9146 3.85523 26.987C4.95942 29.1285 6.30479 31.5093 7.71799 33.8863C9.4534 36.8201 11.348 39.7549 13.2436 42.4512L14.1914 43.7212C14.5089 43.3246 14.8264 42.9298 15.1439 42.455C17.0517 39.688 18.9577 36.8399 20.7025 33.9146C22.1336 31.5413 23.4064 29.1681 24.5191 27.0323C27.0629 21.9692 28.4996 17.7748 28.5053 15.0822C28.5326 6.60865 22.843 0.815461 14.2894 0.796618ZM14.2394 23.7612C9.01248 23.7499 4.74461 19.465 4.75592 14.2371C4.76722 9.00921 9.05394 4.74511 14.2809 4.75641C19.5079 4.76772 23.7757 9.05349 23.7644 14.2805C23.7531 19.5074 19.4664 23.7753 14.2394 23.7612Z" fill="#F2F47C"/>
<path d="M24.6396 28.0897C23.6617 29.9429 22.5716 31.9374 21.3685 33.931C19.6209 36.8563 17.714 39.7044 15.8099 42.4714C15.4924 42.9425 15.1749 43.341 14.8565 43.7376L13.9059 42.4686C12.0103 39.7722 10.1157 36.8375 8.38495 33.9046C6.96327 31.5247 5.62261 29.1459 4.5222 27.0053C2.07264 21.931 0.653788 17.73 0.659441 15.0374C0.666978 11.4422 1.60158 8.38968 3.32003 6.04376C2.64075 7.81309 2.28368 9.82832 2.27614 12.0499C2.27049 14.7425 3.68935 18.9435 6.13136 24.015C7.23555 26.1555 8.5762 28.5372 9.99412 30.9142C11.7295 33.8471 13.6242 36.7819 15.5188 39.4783L16.4666 40.7483C16.785 40.3516 17.1025 39.9569 17.42 39.482C19.3269 36.715 21.2338 33.8669 22.9786 30.9416C23.5627 29.9881 24.1139 29.0309 24.6396 28.0897Z" fill="#DCDE6E"/>
<path d="M14.8349 44.6638L13.367 42.6957C11.4658 39.9918 9.54573 37.0156 7.81315 34.0874C6.32928 31.603 4.98674 29.2043 3.92872 27.1542L3.92118 27.1382C1.31335 21.7266 -0.00563472 17.6029 1.80926e-05 14.8857C0.00943945 10.421 1.41322 6.66843 4.0512 4.0314C6.68918 1.39436 10.4389 0 14.9018 0H14.9479C19.3147 0.00942135 23.0503 1.45089 25.742 4.16706C28.4337 6.88324 29.8403 10.6018 29.8318 14.947C29.8261 17.6914 28.4186 21.9263 25.7759 27.1947V27.2032C24.7829 29.1092 23.4498 31.6171 21.9395 34.1223C20.0684 37.2539 18.0664 40.2141 16.3555 42.6957C16.0305 43.1809 15.7026 43.5898 15.386 43.9855L14.8349 44.6638ZM14.4401 41.9316L14.8669 42.5035C14.9979 42.3301 15.1279 42.1492 15.2579 41.9552C16.9585 39.4755 18.9501 36.5417 20.8024 33.4411C22.2947 30.968 23.6137 28.4845 24.5982 26.5965C27.1533 21.5146 28.5062 17.486 28.5119 14.9451C28.5298 6.81258 23.0767 1.33689 14.9451 1.31899H14.9018C6.54032 1.31899 1.33691 6.51392 1.31901 14.8857C1.31335 17.3683 2.62292 21.4034 5.10545 26.5569C6.14933 28.5816 7.47775 30.952 8.9503 33.4128C10.6622 36.3108 12.5606 39.255 14.4401 41.925V41.9316ZM14.9178 24.2892H14.8952C12.199 24.2863 9.61431 23.2125 7.70982 21.3039C5.80534 19.3954 4.73703 16.8085 4.7399 14.1122C4.74277 11.416 5.8166 8.83138 7.72515 6.92689C9.63369 5.02241 12.2206 3.95409 14.9168 3.95697H14.9395C16.9497 3.9591 18.9141 4.55798 20.5836 5.6777C22.2532 6.79742 23.5527 8.38757 24.3176 10.2466C25.0824 12.1057 25.2781 14.15 24.88 16.1204C24.4818 18.0908 23.5076 19.8987 22.0808 21.3149C21.1418 22.258 20.0255 23.0061 18.7961 23.5161C17.5668 24.0261 16.2487 24.2878 14.9178 24.2864V24.2892ZM14.9178 5.28161C12.5878 5.30305 10.3605 6.24302 8.71958 7.8973C7.0787 9.55158 6.15688 11.7865 6.1544 14.1166C6.15192 16.4466 7.06897 18.6835 8.70632 20.3413C10.3437 21.9991 12.569 22.9438 14.8989 22.9702H14.9187C17.2651 22.9726 19.5164 22.0427 21.1772 20.3853C22.838 18.7278 23.7724 16.4784 23.7748 14.132C23.7772 11.7856 22.8473 9.53438 21.1899 7.87355C19.5324 6.21271 17.283 5.27833 14.9366 5.27596L14.9178 5.28161Z" fill="#426572"/>
<path d="M9 13.025V17.9126C9 18.0714 9.12866 18.2001 9.2875 18.2001H10.725V12.45H9.575C9.25749 12.45 9 12.7075 9 13.025ZM15.4688 12.1625H15.0375V11.4438C15.0375 11.3643 14.9732 11.3 14.8938 11.3H14.6063C14.5269 11.3 14.4625 11.3643 14.4625 11.4438V12.5938C14.4625 12.6732 14.5269 12.7375 14.6063 12.7375H15.4688C15.5482 12.7375 15.6126 12.6732 15.6126 12.5938V12.3063C15.6126 12.2269 15.5482 12.1625 15.4688 12.1625ZM17.944 11.0132L15.069 9.09649C14.9745 9.03357 14.8636 9 14.75 9C14.6365 9 14.5256 9.03357 14.4311 9.09649L11.5561 11.0132C11.4773 11.0657 11.4128 11.1369 11.3681 11.2203C11.3234 11.3037 11.3 11.3969 11.3 11.4916V18.2001H13.6V15.6126C13.6 15.4537 13.7287 15.3251 13.8875 15.3251H15.6126C15.7714 15.3251 15.9001 15.4537 15.9001 15.6126V18.2001H18.2001V11.4917C18.2001 11.2995 18.1039 11.1198 17.944 11.0132ZM14.75 13.6C13.9562 13.6 13.3125 12.9564 13.3125 12.1625C13.3125 11.3687 13.9562 10.725 14.75 10.725C15.5439 10.725 16.1876 11.3687 16.1876 12.1625C16.1876 12.9564 15.5439 13.6 14.75 13.6ZM19.9251 12.45H18.7751V18.2001H20.2126C20.3714 18.2001 20.5001 18.0714 20.5001 17.9126V13.025C20.5001 12.7075 20.2426 12.45 19.9251 12.45Z" fill="#282C4D"/>
</svg>
