<svg width="15" height="23" viewBox="0 0 15 23" fill="none" xmlns="http://www.w3.org/2000/svg">
<path d="M4.61674 2.56718C4.46835 2.56718 4.32329 2.52318 4.1999 2.44074C4.07652 2.3583 3.98035 2.24113 3.92357 2.10403C3.86678 1.96694 3.85192 1.81609 3.88087 1.67055C3.90982 1.52501 3.98128 1.39133 4.08621 1.2864C4.19114 1.18147 4.32483 1.11002 4.47037 1.08107C4.61591 1.05212 4.76677 1.06698 4.90386 1.12376C5.04096 1.18055 5.15814 1.27671 5.24058 1.40009C5.32302 1.52347 5.36703 1.66853 5.36703 1.81692C5.36677 2.01582 5.28765 2.20651 5.147 2.34716C5.00634 2.48781 4.81565 2.56693 4.61674 2.56718V2.56718ZM4.61674 1.63468C4.5807 1.63468 4.54546 1.64536 4.51549 1.66539C4.48552 1.68541 4.46216 1.71388 4.44837 1.74718C4.43457 1.78048 4.43096 1.81712 4.438 1.85247C4.44503 1.88782 4.46239 1.92029 4.48787 1.94578C4.51336 1.97127 4.54583 1.98863 4.58119 1.99566C4.61654 2.00269 4.65318 1.99908 4.68648 1.98529C4.71978 1.97149 4.74825 1.94814 4.76827 1.91817C4.7883 1.8882 4.79899 1.85296 4.79899 1.81692C4.79899 1.79299 4.79427 1.76929 4.78511 1.74718C4.77596 1.72507 4.76253 1.70498 4.74561 1.68805C4.72868 1.67113 4.70859 1.65771 4.68648 1.64855C4.66437 1.63939 4.64067 1.63468 4.61674 1.63468V1.63468Z" fill="#E7F6FF"/>
<path d="M5.95533 2.18225C6.10069 2.18225 6.21852 2.06442 6.21852 1.91907C6.21852 1.77372 6.10069 1.65588 5.95533 1.65588C5.80997 1.65588 5.69214 1.77372 5.69214 1.91907C5.69214 2.06442 5.80997 2.18225 5.95533 2.18225Z" fill="#E7F6FF"/>
<g opacity="0.5">
<path opacity="0.5" d="M9.77032 15.6478V16.2258C9.60322 16.7574 9.3405 17.3794 8.99542 18.0652C8.85341 18.3374 8.70146 18.6248 8.53862 18.9201C8.64986 18.7308 8.75684 18.5457 8.86003 18.3611C8.7398 18.5893 8.61246 18.8264 8.47803 19.0673V18.168L8.51779 18.0927L8.47803 18.1637V18.1306C8.53799 18.0173 8.59637 17.9068 8.65317 17.7992C9.02761 17.0542 9.30547 16.3853 9.46926 15.8249C9.57103 15.7676 9.67138 15.7084 9.77032 15.6478Z" fill="#BBD2E5"/>
</g>
<path d="M12.2568 7.25374C12.2511 9.88086 10.0973 12.0242 7.47108 12.0185C5.19656 12.0138 3.28321 10.3978 2.816 8.2582C2.76774 7.98329 2.74382 7.70467 2.74452 7.42557C2.7502 4.79987 4.90402 2.6551 7.52978 2.66078C9.80193 2.66551 11.712 4.27728 12.1834 6.41117C12.1833 6.41226 12.1833 6.41338 12.1834 6.41448C12.2327 6.6915 12.2573 6.97236 12.2568 7.25374V7.25374Z" fill="white"/>
<path d="M7.1909 0.62185C2.77392 0.612383 0.0222484 3.39192 0.011361 7.76903C0.0085208 9.12188 0.72141 11.2321 1.94837 13.7806C2.50316 14.8566 3.17913 16.0527 3.88917 17.247C4.76111 18.721 5.71305 20.1955 6.66547 21.5503L7.14167 22.1884C7.3012 21.9891 7.46072 21.7907 7.62025 21.5522C8.57881 20.1619 9.53643 18.731 10.4131 17.2612C11.1321 16.0688 11.7717 14.8765 12.3307 13.8034C13.6088 11.2595 14.3307 9.15217 14.3335 7.79933C14.3472 3.54198 11.4886 0.631317 7.1909 0.62185ZM7.16581 12.1599C4.53958 12.1542 2.39523 10.0014 2.40091 7.37473C2.40659 4.74808 4.56041 2.60568 7.18664 2.61136C9.81288 2.61704 11.9572 4.77033 11.9515 7.3965C11.9459 10.0227 9.79205 12.167 7.16581 12.1599Z" fill="#66D9E8"/>
<path d="M12.3912 14.3347C11.8999 15.2658 11.3522 16.2679 10.7477 17.2695C9.86962 18.7392 8.91153 20.1702 7.95486 21.5604C7.79533 21.7971 7.63581 21.9973 7.47581 22.1966L6.99819 21.559C6.04577 20.2043 5.09383 18.7298 4.22426 17.2562C3.50995 16.0605 2.83635 14.8653 2.28346 13.7898C1.05271 11.2404 0.33982 9.12967 0.34266 7.77682C0.346447 5.9705 0.816026 4.43683 1.67945 3.25818C1.33815 4.14714 1.15874 5.15964 1.15496 6.27581C1.15212 7.62866 1.865 9.73935 3.09197 12.2874C3.64675 13.3629 4.32035 14.5595 5.03277 15.7538C5.90471 17.2273 6.85665 18.7018 7.80859 20.0566L8.28479 20.6947C8.44479 20.4954 8.60432 20.2971 8.76384 20.0585C9.72193 18.6682 10.68 17.2373 11.5567 15.7675C11.8502 15.2885 12.1271 14.8076 12.3912 14.3347Z" fill="#61BBC7"/>
<path d="M7.46498 22.6619L6.72748 21.673C5.77222 20.3145 4.8075 18.8192 3.93698 17.348C3.19143 16.0998 2.51689 14.8946 1.9853 13.8646L1.98151 13.8565C0.671234 11.1376 0.00852143 9.06571 0.0113616 7.70056C0.0160953 5.45733 0.72141 3.57196 2.04683 2.24704C3.37226 0.922122 5.25626 0.221558 7.49859 0.221558H7.52178C9.71584 0.226291 11.5927 0.950524 12.9451 2.3152C14.2975 3.67989 15.0043 5.54822 15 7.73133C14.9972 9.11021 14.29 11.2379 12.9622 13.8849V13.8892C12.4632 14.8468 11.7934 16.1069 11.0346 17.3655C10.0945 18.9389 9.08863 20.4262 8.22899 21.673C8.06568 21.9168 7.90095 22.1223 7.7419 22.3211L7.46498 22.6619ZM7.26664 21.2891L7.48108 21.5765C7.54687 21.4894 7.6122 21.3985 7.67752 21.301C8.53195 20.0551 9.53264 18.5811 10.4633 17.0233C11.2131 15.7807 11.8758 14.533 12.3705 13.5844C13.6542 11.0311 14.334 9.00702 14.3368 7.73038C14.3458 3.64438 11.606 0.893248 7.52036 0.884254H7.49859C3.29747 0.884254 0.683068 3.49433 0.674074 7.70056C0.671234 8.94785 1.32921 10.9752 2.57653 13.5645C3.10102 14.5817 3.76847 15.7727 4.50834 17.0091C5.36844 18.4651 6.32228 19.9443 7.26664 21.2858V21.2891ZM7.50664 12.4251H7.49528C6.14059 12.4237 4.84196 11.8841 3.88507 10.9252C2.92818 9.96634 2.39142 8.66659 2.39287 7.31193C2.39431 5.95728 2.93384 4.65868 3.89277 3.70182C4.8517 2.74495 6.15148 2.2082 7.50616 2.20965H7.51752C8.52756 2.21072 9.51453 2.51161 10.3534 3.07419C11.1922 3.63677 11.8452 4.4357 12.2294 5.36975C12.6137 6.30379 12.7121 7.3309 12.512 8.32089C12.312 9.31089 11.8225 10.2192 11.1056 10.9307C10.6338 11.4046 10.0729 11.7805 9.45527 12.0367C8.8376 12.2929 8.17534 12.4244 7.50664 12.4237V12.4251ZM7.50664 2.87518C6.33598 2.88595 5.21686 3.35822 4.39241 4.18938C3.56797 5.02053 3.10481 6.14343 3.10357 7.31411C3.10232 8.48479 3.56308 9.60868 4.38575 10.4416C5.20842 11.2745 6.32654 11.7491 7.49717 11.7624H7.50711C8.68604 11.7636 9.81715 11.2964 10.6516 10.4637C11.4861 9.63091 11.9556 8.50077 11.9567 7.32188C11.9579 6.14298 11.4908 5.01189 10.658 4.17744C9.82519 3.34299 8.69503 2.87354 7.5161 2.87234L7.50664 2.87518Z" fill="#426572"/>
<path d="M7.46498 22.6619L6.72748 21.673C5.77222 20.3145 4.8075 18.8192 3.93698 17.348C3.19143 16.0998 2.51689 14.8946 1.9853 13.8646L1.98151 13.8565C0.671234 11.1376 0.00852143 9.06571 0.0113616 7.70056C0.0160953 5.45733 0.72141 3.57196 2.04683 2.24704C3.37226 0.922122 5.25626 0.221558 7.49859 0.221558H7.52178C9.71584 0.226291 11.5927 0.950524 12.9451 2.3152C14.2975 3.67989 15.0043 5.54822 15 7.73133C14.9972 9.11021 14.29 11.2379 12.9622 13.8849V13.8892C12.4632 14.8468 11.7934 16.1069 11.0346 17.3655C10.0945 18.9389 9.08863 20.4262 8.22899 21.673C8.06568 21.9168 7.90095 22.1223 7.7419 22.3211L7.46498 22.6619ZM7.26664 21.2891L7.48108 21.5765C7.54687 21.4894 7.6122 21.3985 7.67752 21.301C8.53195 20.0551 9.53264 18.5811 10.4633 17.0233C11.2131 15.7807 11.8758 14.533 12.3705 13.5844C13.6542 11.0311 14.334 9.00702 14.3368 7.73038C14.3458 3.64438 11.606 0.893248 7.52036 0.884254H7.49859C3.29747 0.884254 0.683068 3.49433 0.674074 7.70056C0.671234 8.94785 1.32921 10.9752 2.57653 13.5645C3.10102 14.5817 3.76847 15.7727 4.50834 17.0091C5.36844 18.4651 6.32228 19.9443 7.26664 21.2858V21.2891ZM7.50664 12.4251H7.49528C6.14059 12.4237 4.84196 11.8841 3.88507 10.9252C2.92818 9.96634 2.39142 8.66659 2.39287 7.31193C2.39431 5.95728 2.93384 4.65868 3.89277 3.70182C4.8517 2.74495 6.15148 2.2082 7.50616 2.20965H7.51752C8.52756 2.21072 9.51453 2.51161 10.3534 3.07419C11.1922 3.63677 11.8452 4.4357 12.2294 5.36975C12.6137 6.30379 12.7121 7.3309 12.512 8.32089C12.312 9.31089 11.8225 10.2192 11.1056 10.9307C10.6338 11.4046 10.0729 11.7805 9.45527 12.0367C8.8376 12.2929 8.17534 12.4244 7.50664 12.4237V12.4251ZM7.50664 2.87518C6.33598 2.88595 5.21686 3.35822 4.39241 4.18938C3.56797 5.02053 3.10481 6.14343 3.10357 7.31411C3.10232 8.48479 3.56308 9.60868 4.38575 10.4416C5.20842 11.2745 6.32654 11.7491 7.49717 11.7624H7.50711C8.68604 11.7636 9.81715 11.2964 10.6516 10.4637C11.4861 9.63091 11.9556 8.50077 11.9567 7.32188C11.9579 6.14298 11.4908 5.01189 10.658 4.17744C9.82519 3.34299 8.69503 2.87354 7.5161 2.87234L7.50664 2.87518Z" fill="#426572"/>
</svg>
