<svg width="16" height="23" viewBox="0 0 16 23" fill="none" xmlns="http://www.w3.org/2000/svg">
<path d="M5.207 2.56756C5.05859 2.56756 4.91353 2.52355 4.79013 2.4411C4.66674 2.35866 4.57057 2.24147 4.51378 2.10436C4.45699 1.96726 4.44213 1.81639 4.47108 1.67084C4.50003 1.52529 4.5715 1.3916 4.67643 1.28666C4.78137 1.18173 4.91506 1.11026 5.06061 1.08131C5.20616 1.05236 5.35703 1.06722 5.49414 1.12401C5.63124 1.1808 5.74843 1.27697 5.83087 1.40036C5.91332 1.52376 5.95733 1.66882 5.95733 1.81723C5.95708 2.01615 5.87794 2.20685 5.73728 2.34751C5.59662 2.48817 5.40592 2.56731 5.207 2.56756V2.56756ZM5.207 1.63497C5.17095 1.63497 5.13571 1.64566 5.10574 1.66568C5.07577 1.68571 5.05241 1.71418 5.03861 1.74748C5.02482 1.78078 5.02121 1.81743 5.02824 1.85278C5.03527 1.88814 5.05263 1.92061 5.07812 1.9461C5.10361 1.97159 5.13609 1.98895 5.17144 1.99598C5.20679 2.00301 5.24344 1.9994 5.27674 1.98561C5.31005 1.97181 5.33851 1.94845 5.35854 1.91848C5.37856 1.88851 5.38925 1.85327 5.38925 1.81723C5.38925 1.79329 5.38454 1.76959 5.37538 1.74748C5.36622 1.72537 5.3528 1.70527 5.33587 1.68835C5.31895 1.67143 5.29886 1.658 5.27674 1.64884C5.25463 1.63968 5.23093 1.63497 5.207 1.63497V1.63497Z" fill="#E7F6FF"/>
<path d="M6.54568 2.18242C6.69104 2.18242 6.80889 2.06458 6.80889 1.91921C6.80889 1.77385 6.69104 1.65601 6.54568 1.65601C6.40031 1.65601 6.28247 1.77385 6.28247 1.91921C6.28247 2.06458 6.40031 2.18242 6.54568 2.18242Z" fill="#E7F6FF"/>
<g opacity="0.5">
<path opacity="0.5" d="M10.3607 15.649V16.2271C10.1936 16.7587 9.93088 17.3807 9.58578 18.0667C9.44376 18.3389 9.2918 18.6262 9.12895 18.9216C9.2402 18.7323 9.34719 18.5472 9.45039 18.3625C9.33015 18.5907 9.2028 18.8279 9.06836 19.0689V18.1694L9.10812 18.0941L9.06836 18.1651V18.132C9.12832 18.0187 9.18671 17.9082 9.24352 17.8006C9.61797 17.0555 9.89585 16.3866 10.0596 15.8261C10.1614 15.7688 10.2618 15.7096 10.3607 15.649Z" fill="#BBD2E5"/>
</g>
<path d="M12.8476 7.25437C12.8419 9.88172 10.688 12.0252 8.06158 12.0196C5.78692 12.0148 3.87346 10.3987 3.40621 8.25892C3.35795 7.98399 3.33403 7.70535 3.33473 7.42622C3.34041 4.80029 5.49436 2.65534 8.12028 2.66102C10.3926 2.66576 12.3027 4.27767 12.7742 6.41173C12.7741 6.41283 12.7741 6.41395 12.7742 6.41504C12.8235 6.69209 12.8481 6.97297 12.8476 7.25437V7.25437Z" fill="white"/>
<path d="M7.78131 0.62185C3.36406 0.612382 0.612215 3.39216 0.601327 7.76964C0.598486 9.1226 1.31142 11.233 2.53846 13.7818C3.09328 14.8578 3.76929 16.0541 4.47938 17.2484C5.35137 18.7226 6.30337 20.1972 7.25584 21.5521L7.73207 22.1902C7.89161 21.9909 8.05114 21.7925 8.21068 21.554C9.1693 20.1636 10.127 18.7325 11.0037 17.2626C11.7228 16.0701 12.3624 14.8777 12.9214 13.8045C14.1996 11.2605 14.9215 9.1529 14.9244 7.79994C14.9381 3.54222 12.0793 0.631318 7.78131 0.62185ZM7.75622 12.1609C5.12982 12.1552 2.98534 10.0022 2.99102 7.3753C2.99671 4.74843 5.15065 2.60585 7.77705 2.61153C10.4034 2.61721 12.5479 4.77068 12.5422 7.39708C12.5366 10.0235 10.3826 12.168 7.75622 12.1609Z" fill="#B169DD"/>
<path d="M12.9819 14.3359C12.4906 15.267 11.9428 16.2692 11.3383 17.2709C10.4602 18.7408 9.50202 20.1719 8.54529 21.5622C8.38576 21.7989 8.22622 21.9992 8.06621 22.1985L7.58856 21.5608C6.63609 20.206 5.68409 18.7313 4.81446 17.2577C4.10011 16.0619 3.42647 14.8665 2.87354 13.791C1.64272 11.2413 0.929785 9.13041 0.932626 7.77745C0.936413 5.97098 1.40602 4.43718 2.26949 3.25842C1.92818 4.14746 1.74876 5.16005 1.74497 6.27632C1.74213 7.62928 2.45506 9.74015 3.6821 12.2884C4.23692 13.364 4.91056 14.5607 5.62302 15.7551C6.49502 17.2288 7.44701 18.7034 8.39901 20.0583L8.87525 20.6964C9.03525 20.4971 9.19479 20.2987 9.35432 20.0602C10.3125 18.6698 11.2706 17.2387 12.1474 15.7688C12.4409 15.2898 12.7178 14.8088 12.9819 14.3359Z" fill="#9D5EC4"/>
<path d="M8.0554 22.6638L7.31786 21.6749C6.36254 20.3162 5.39777 18.8208 4.52719 17.3495C3.78159 16.1011 3.10701 14.8959 2.57538 13.8657L2.5716 13.8577C1.26124 11.1385 0.598487 9.06647 0.601327 7.7012C0.606061 5.45778 1.31142 3.57225 2.63693 2.24721C3.96243 0.922182 5.84654 0.221558 8.08902 0.221558H8.11221C10.3064 0.226292 12.1834 0.950586 13.5359 2.31538C14.8884 3.68018 15.5952 5.54867 15.5909 7.73197C15.5881 9.11097 14.8808 11.2389 13.5529 13.8861V13.8904C13.054 14.848 12.3841 16.1082 11.6253 17.367C10.6851 18.9405 9.67915 20.4279 8.81946 21.6749C8.65614 21.9187 8.4914 22.1241 8.33234 22.3229L8.0554 22.6638ZM7.85705 21.2909L8.0715 21.5783C8.1373 21.4912 8.20263 21.4003 8.26796 21.3028C9.12244 20.0568 10.1232 18.5827 11.0539 17.0247C11.8037 15.7821 12.4665 14.5342 12.9612 13.5855C14.245 11.032 14.9248 9.00777 14.9277 7.73102C14.9367 3.64468 12.1967 0.893305 8.11079 0.884311H8.08902C3.88764 0.884311 1.27307 3.49461 1.26408 7.7012C1.26124 8.94859 1.91926 10.9761 3.16665 13.5656C3.69118 14.5829 4.35866 15.774 5.09858 17.0105C5.95874 18.4667 6.91263 19.946 7.85705 21.2876V21.2909ZM8.09706 12.4262H8.0857C6.73093 12.4247 5.43222 11.8851 4.47528 10.9262C3.51833 9.96717 2.98153 8.66731 2.98298 7.31254C2.98442 5.95777 3.52399 4.65906 4.48297 3.70211C5.44196 2.74517 6.74182 2.20837 8.09659 2.20982H8.10795C9.11804 2.21089 10.1051 2.51181 10.944 3.07443C11.7829 3.63706 12.4358 4.43606 12.8202 5.37019C13.2045 6.30431 13.3028 7.3315 13.1028 8.32158C12.9027 9.31166 12.4132 10.2201 11.6963 10.9316C11.2244 11.4056 10.6635 11.7814 10.0458 12.0377C9.4281 12.2939 8.76581 12.4255 8.09706 12.4247V12.4262ZM8.09706 2.87541C6.92633 2.88618 5.80714 3.35849 4.98265 4.18972C4.15816 5.02094 3.69497 6.14394 3.69372 7.31472C3.69248 8.4855 4.15327 9.60948 4.97599 10.4425C5.79871 11.2754 6.91689 11.7501 8.0876 11.7634H8.09754C9.27653 11.7646 10.4077 11.2974 11.2422 10.4645C12.0768 9.63171 12.5463 8.50148 12.5474 7.32248C12.5486 6.14348 12.0814 5.0123 11.2486 4.17778C10.4158 3.34326 9.28553 2.87376 8.10653 2.87257L8.09706 2.87541Z" fill="#426572"/>
<path d="M8.14572 4.98267L5.24255 6.56621L8.14572 8.14975L10.521 6.85389V8.6776H11.0489V6.56621L8.14572 4.98267ZM6.29825 7.66941V8.72511L8.14572 9.73329L9.99318 8.72511V7.66941L8.14572 8.6776L6.29825 7.66941Z" fill="#282C4D"/>
</svg>
