<svg width="31" height="45" viewBox="0 0 31 45" fill="none" xmlns="http://www.w3.org/2000/svg">
<path d="M9.59277 4.78643C9.29743 4.78643 9.00872 4.69886 8.76315 4.53477C8.51758 4.37069 8.32618 4.13747 8.21316 3.86461C8.10013 3.59174 8.07056 3.29149 8.12818 3.00183C8.1858 2.71216 8.32802 2.44608 8.53686 2.23724C8.7457 2.0284 9.01178 1.88618 9.30145 1.82856C9.59112 1.77094 9.89137 1.80051 10.1642 1.91354C10.4371 2.02656 10.6703 2.21796 10.8344 2.46353C10.9985 2.7091 11.0861 2.99781 11.0861 3.29315C11.0856 3.68904 10.9281 4.06857 10.6481 4.34851C10.3682 4.62845 9.98866 4.78594 9.59277 4.78643ZM9.59277 2.93043C9.52103 2.93043 9.4509 2.9517 9.39125 2.99156C9.33161 3.03141 9.28511 3.08806 9.25766 3.15434C9.23021 3.22062 9.22302 3.29355 9.23702 3.36391C9.25102 3.43428 9.28556 3.49891 9.33629 3.54963C9.38702 3.60036 9.45165 3.63491 9.52201 3.6489C9.59237 3.6629 9.6653 3.65572 9.73158 3.62826C9.79786 3.60081 9.85451 3.55432 9.89436 3.49467C9.93422 3.43502 9.95549 3.36489 9.95549 3.29315C9.95549 3.24552 9.94611 3.19835 9.92788 3.15434C9.90966 3.11034 9.88294 3.07035 9.84926 3.03667C9.81557 3.00299 9.77559 2.97627 9.73158 2.95804C9.68757 2.93981 9.64041 2.93043 9.59277 2.93043Z" fill="#E7F6FF"/>
<path d="M12.2571 4.02001C12.5464 4.02001 12.7809 3.78548 12.7809 3.49618C12.7809 3.20688 12.5464 2.97235 12.2571 2.97235C11.9678 2.97235 11.7333 3.20688 11.7333 3.49618C11.7333 3.78548 11.9678 4.02001 12.2571 4.02001Z" fill="#E7F6FF"/>
<g opacity="0.5">
<path opacity="0.5" d="M19.8499 30.821V31.9713C19.5173 33.0293 18.9944 34.2673 18.3076 35.6325C18.0249 36.1742 17.7225 36.7461 17.3984 37.334C17.6198 36.9571 17.8327 36.5887 18.0381 36.2213C17.7988 36.6754 17.5454 37.1474 17.2778 37.627V35.8369L17.357 35.6871L17.2778 35.8284V35.7625C17.3972 35.537 17.5134 35.3172 17.6264 35.103C18.3717 33.6201 18.9247 32.2888 19.2507 31.1733C19.4532 31.0593 19.653 30.9416 19.8499 30.821Z" fill="#BBD2E5"/>
</g>
<path d="M24.7988 14.1141C24.7875 19.3429 20.5008 23.6089 15.2738 23.5976C10.7469 23.5882 6.93876 20.3718 6.00887 16.1133C5.91281 15.5662 5.8652 15.0116 5.86661 14.4561C5.87791 9.23007 10.1646 4.96125 15.3907 4.97256C19.9129 4.98198 23.7144 8.18995 24.6528 12.4371C24.6524 12.4393 24.6524 12.4415 24.6528 12.4437C24.7509 12.9951 24.7998 13.5541 24.7988 14.1141Z" fill="white"/>
<path d="M14.7161 0.914355C5.92508 0.895512 0.448444 6.42773 0.426775 15.1397C0.421122 17.8323 1.83998 22.0323 4.28199 27.1048C5.38617 29.2462 6.73154 31.627 8.14475 34.004C9.88016 36.9378 11.7748 39.8726 13.6704 42.569L14.6182 43.839C14.9357 43.4423 15.2532 43.0476 15.5707 42.5728C17.4785 39.8057 19.3844 36.9576 21.1293 34.0323C22.5604 31.6591 23.8332 29.2858 24.9458 27.15C27.4896 22.087 28.9264 17.8926 28.932 15.2C28.9593 6.72639 23.2698 0.933197 14.7161 0.914355ZM14.6662 23.8789C9.43924 23.8676 5.17137 19.5828 5.18267 14.3549C5.19398 9.12695 9.48069 4.86284 14.7077 4.87415C19.9346 4.88545 24.2025 9.17123 24.1912 14.3982C24.1799 19.6252 19.8932 23.893 14.6662 23.8789Z" fill="#9FF3CB"/>
<path d="M25.0665 28.2075C24.0886 30.0606 22.9985 32.0551 21.7954 34.0487C20.0477 36.974 18.1409 39.8221 16.2368 42.5892C15.9193 43.0602 15.6018 43.4587 15.2834 43.8554L14.3327 42.5863C12.4372 39.8899 10.5425 36.9552 8.81183 34.0223C7.39015 31.6425 6.04949 29.2636 4.94908 27.1231C2.49952 22.0487 1.08067 17.8477 1.08632 15.1551C1.09386 11.5599 2.02846 8.50742 3.74691 6.1615C3.06763 7.93083 2.71056 9.94606 2.70302 12.1676C2.69737 14.8602 4.11623 19.0612 6.55824 24.1327C7.66243 26.2733 9.00308 28.655 10.421 31.032C12.1564 33.9649 14.051 36.8996 15.9457 39.596L16.8935 40.866C17.2119 40.4694 17.5294 40.0746 17.8469 39.5998C19.7538 36.8327 21.6607 33.9846 23.4055 31.0593C23.9896 30.1059 24.5408 29.1487 25.0665 28.2075Z" fill="#88C9AA"/>
<path d="M15.2616 44.7815L13.7938 42.8134C11.8926 40.1095 9.97249 37.1333 8.2399 34.2051C6.75604 31.7207 5.4135 29.322 4.35548 27.272L4.34794 27.2559C1.74011 21.8443 0.421123 17.7206 0.426776 15.0035C0.436197 10.5387 1.83998 6.78617 4.47796 4.14913C7.11594 1.5121 10.8656 0.117737 15.3285 0.117737H15.3747C19.7415 0.127158 23.4771 1.56863 26.1687 4.2848C28.8604 7.00098 30.267 10.7196 30.2585 15.0647C30.2529 17.8092 28.8453 22.0441 26.2027 27.3125V27.3209C25.2096 29.2269 23.8765 31.7349 22.3663 34.24C20.4952 37.3716 18.4932 40.3318 16.7822 42.8134C16.4572 43.2986 16.1293 43.7075 15.8128 44.1032L15.2616 44.7815ZM14.8669 42.0494L15.2937 42.6212C15.4246 42.4479 15.5546 42.267 15.6847 42.0729C17.3852 39.5932 19.3769 36.6594 21.2291 33.5588C22.7215 31.0857 24.0405 28.6023 25.025 26.7142C27.5801 21.6323 28.933 17.6038 28.9386 15.0628C28.9565 6.93032 23.5034 1.45463 15.3719 1.43673H15.3285C6.96708 1.43673 1.76367 6.63166 1.74577 15.0035C1.74011 17.486 3.04968 21.5212 5.53221 26.6746C6.57609 28.6993 7.9045 31.0697 9.37706 33.5306C11.0889 36.4286 12.9873 39.3727 14.8669 42.0428V42.0494ZM15.3445 24.4069H15.3219C12.6257 24.4041 10.0411 23.3302 8.13658 21.4217C6.2321 19.5131 5.16378 16.9262 5.16666 14.23C5.16953 11.5338 6.24336 8.94911 8.1519 7.04463C10.0605 5.14014 12.6474 4.07183 15.3436 4.0747H15.3662C17.3765 4.07684 19.3408 4.67572 21.0104 5.79544C22.6799 6.91516 23.9795 8.50531 24.7443 10.3644C25.5092 12.2234 25.7049 14.2677 25.3067 16.2381C24.9085 18.2086 23.9343 20.0164 22.5076 21.4326C21.5686 22.3758 20.4522 23.1239 19.2229 23.6338C17.9935 24.1438 16.6755 24.4056 15.3445 24.4041V24.4069ZM15.3445 5.39935C13.0146 5.42078 10.7872 6.36075 9.14634 8.01504C7.50546 9.66932 6.58364 11.9043 6.58116 14.2343C6.57868 16.5644 7.49573 18.8013 9.13308 20.459C10.7704 22.1168 12.9958 23.0615 15.3257 23.0879H15.3455C17.6919 23.0903 19.9431 22.1605 21.604 20.503C23.2648 18.8455 24.1992 16.5962 24.2016 14.2498C24.2039 11.9034 23.2741 9.65212 21.6166 7.99128C19.9591 6.33045 17.7098 5.39607 15.3634 5.39369L15.3445 5.39935Z" fill="#426572"/>
<path d="M11.5612 19.2855H10.2755C10.2024 19.2855 10.1324 19.2565 10.0807 19.2048C10.029 19.1531 10 19.0831 10 19.01V10.3775C10 10.3045 10.029 10.2344 10.0807 10.1827C10.1324 10.131 10.2024 10.102 10.2755 10.102H11.5612C11.6343 10.102 11.7043 10.131 11.756 10.1827C11.8077 10.2344 11.8367 10.3045 11.8367 10.3775V19.01C11.8367 19.0831 11.8077 19.1531 11.756 19.2048C11.7043 19.2565 11.6343 19.2855 11.5612 19.2855ZM15.1427 13.0407V11.8469C15.1427 11.7738 15.1137 11.7037 15.0621 11.6521C15.0104 11.6004 14.9403 11.5714 14.8672 11.5714H12.4795C12.4065 11.5714 12.3364 11.6004 12.2847 11.6521C12.2331 11.7037 12.204 11.7738 12.204 11.8469V13.0407H15.1427ZM12.204 17.8161V19.01C12.204 19.0831 12.2331 19.1531 12.2847 19.2048C12.3364 19.2565 12.4065 19.2855 12.4795 19.2855H14.8672C14.9403 19.2855 15.0104 19.2565 15.0621 19.2048C15.1137 19.1531 15.1427 19.0831 15.1427 19.01V17.8161H12.204ZM12.204 13.7754H15.1427V17.0815H12.204V13.7754ZM17.4386 19.2855H15.7856C15.7125 19.2855 15.6424 19.2565 15.5908 19.2048C15.5391 19.1531 15.5101 19.0831 15.5101 19.01V9.2755C15.5101 9.20244 15.5391 9.13236 15.5908 9.08069C15.6424 9.02903 15.7125 9 15.7856 9H17.4386C17.5117 9 17.5818 9.02903 17.6334 9.08069C17.6851 9.13236 17.7141 9.20244 17.7141 9.2755V19.01C17.7141 19.0831 17.6851 19.1531 17.6334 19.2048C17.5818 19.2565 17.5117 19.2855 17.4386 19.2855ZM18.1044 10.5773L18.7932 19.0222C18.7962 19.0592 18.8068 19.0952 18.8241 19.1281C18.8414 19.161 18.8653 19.19 18.8941 19.2134C18.9229 19.2368 18.9562 19.2542 18.992 19.2644C19.0277 19.2746 19.0651 19.2775 19.102 19.2729L20.7587 19.0662C20.8292 19.0574 20.8936 19.0217 20.9384 18.9665C20.9832 18.9113 21.0049 18.8409 20.9991 18.7701L20.3085 10.3594C20.3054 10.3229 20.2951 10.2873 20.2782 10.2548C20.2612 10.2223 20.2379 10.1935 20.2097 10.1701C20.1815 10.1467 20.1489 10.1292 20.1138 10.1186C20.0787 10.1079 20.0419 10.1044 20.0054 10.1082L18.3494 10.2806C18.2779 10.2884 18.2123 10.3237 18.1666 10.3791C18.1208 10.4345 18.0985 10.5056 18.1044 10.5773V10.5773Z" fill="#282C4D"/>
</svg>
