<svg width="31" height="46" viewBox="0 0 31 46" fill="none" xmlns="http://www.w3.org/2000/svg">
<path d="M9.42456 5.58307C9.12922 5.58307 8.8405 5.49549 8.59494 5.3314C8.34937 5.16732 8.15797 4.9341 8.04494 4.66124C7.93192 4.38837 7.90235 4.08812 7.95997 3.79846C8.01759 3.50879 8.15981 3.24271 8.36865 3.03387C8.57749 2.82503 8.84357 2.68281 9.13323 2.62519C9.4229 2.56757 9.72315 2.59714 9.99601 2.71017C10.2689 2.82319 10.5021 3.01459 10.6662 3.26016C10.8303 3.50573 10.9178 3.79444 10.9178 4.08978C10.9173 4.48567 10.7599 4.86521 10.4799 5.14514C10.2 5.42508 9.82045 5.58257 9.42456 5.58307ZM9.42456 3.72706C9.35282 3.72706 9.28269 3.74833 9.22304 3.78819C9.16339 3.82805 9.1169 3.88469 9.08945 3.95097C9.06199 4.01725 9.05481 4.09018 9.06881 4.16054C9.0828 4.23091 9.11735 4.29554 9.16808 4.34626C9.2188 4.39699 9.28343 4.43154 9.3538 4.44553C9.42416 4.45953 9.49709 4.45235 9.56337 4.42489C9.62965 4.39744 9.6863 4.35095 9.72615 4.2913C9.76601 4.23165 9.78728 4.16152 9.78728 4.08978C9.78728 4.04215 9.7779 3.99498 9.75967 3.95097C9.74144 3.90697 9.71472 3.86698 9.68104 3.8333C9.64736 3.79962 9.60737 3.7729 9.56337 3.75467C9.51936 3.73644 9.47219 3.72706 9.42456 3.72706Z" fill="#E7F6FF"/>
<path d="M12.0889 4.81658C12.3782 4.81658 12.6127 4.58205 12.6127 4.29275C12.6127 4.00345 12.3782 3.76892 12.0889 3.76892C11.7996 3.76892 11.5651 4.00345 11.5651 4.29275C11.5651 4.58205 11.7996 4.81658 12.0889 4.81658Z" fill="#E7F6FF"/>
<g opacity="0.5">
<path opacity="0.5" d="M19.6816 31.6175V32.7678C19.3491 33.8259 18.8262 35.0638 18.1394 36.429C17.8567 36.9707 17.5543 37.5426 17.2302 38.1305C17.4516 37.7536 17.6645 37.3852 17.8699 37.0178C17.6306 37.4719 17.3772 37.9439 17.1096 38.4235V36.6334L17.1888 36.4836L17.1096 36.6249V36.559C17.229 36.3335 17.3452 36.1137 17.4582 35.8995C18.2034 34.4166 18.7565 33.0853 19.0825 31.9699C19.285 31.8559 19.4847 31.7381 19.6816 31.6175Z" fill="#BBD2E5"/>
</g>
<path d="M24.6307 14.9107C24.6194 20.1395 20.3327 24.4055 15.1057 24.3942C10.5788 24.3848 6.77067 21.1683 5.84078 16.9099C5.74472 16.3627 5.69711 15.8082 5.69852 15.2527C5.70982 10.0266 9.99654 5.75782 15.2226 5.76913C19.7448 5.77855 23.5463 8.98652 24.4847 13.2337C24.4844 13.2358 24.4844 13.2381 24.4847 13.2403C24.5828 13.7916 24.6317 14.3506 24.6307 14.9107Z" fill="white"/>
<path d="M14.5479 1.71086C5.75686 1.69202 0.280231 7.22424 0.258562 15.9362C0.252909 18.6288 1.67176 22.8288 4.11378 27.9013C5.21796 30.0428 6.56333 32.4235 7.97653 34.8005C9.71195 37.7343 11.6066 40.6691 13.5022 43.3655L14.4499 44.6355C14.7674 44.2388 15.0849 43.8441 15.4024 43.3693C17.3103 40.6022 19.2162 37.7541 20.961 34.8288C22.3921 32.4556 23.665 30.0823 24.7776 27.9465C27.3214 22.8835 28.7582 18.6891 28.7638 15.9965C28.7911 7.5229 23.1016 1.72971 14.5479 1.71086ZM14.498 24.6754C9.27103 24.6641 5.00315 20.3793 5.01446 15.1514C5.02577 9.92346 9.31248 5.65935 14.5394 5.67066C19.7664 5.68196 24.0343 9.96774 24.023 15.1947C24.0117 20.4217 19.725 24.6895 14.498 24.6754Z" fill="#6C89EF"/>
<path d="M24.8983 29.0041C23.9203 30.8573 22.8303 32.8518 21.6272 34.8453C19.8795 37.7707 17.9726 40.6187 16.0686 43.3858C15.7511 43.8569 15.4336 44.2554 15.1151 44.652L14.1645 43.383C12.269 40.6866 10.3743 37.7518 8.64362 34.819C7.22193 32.4391 5.88128 30.0602 4.78086 27.9197C2.33131 22.8454 0.912455 18.6444 0.918108 15.9518C0.925645 12.3566 1.86024 9.30405 3.5787 6.95813C2.89942 8.72746 2.54235 10.7427 2.53481 12.9642C2.52916 15.6569 3.94801 19.8578 6.39003 24.9294C7.49421 27.0699 8.83487 29.4516 10.2528 31.8286C11.9882 34.7615 13.8828 37.6962 15.7775 40.3926L16.7253 41.6626C17.0437 41.266 17.3612 40.8712 17.6787 40.3964C19.5856 37.6293 21.4925 34.7813 23.2373 31.8559C23.8214 30.9025 24.3726 29.9453 24.8983 29.0041Z" fill="#5572D6"/>
<path d="M15.0934 45.5781L13.6256 43.61C11.7243 40.9061 9.80428 37.9299 8.07169 35.0017C6.58783 32.5173 5.24528 30.1186 4.18727 28.0685L4.17973 28.0525C1.5719 22.6409 0.25291 18.5172 0.258563 15.8C0.267984 11.3353 1.67177 7.58274 4.30974 4.9457C6.94772 2.30867 10.6974 0.914307 15.1603 0.914307H15.2065C19.5733 0.923728 23.3088 2.36519 26.0005 5.08137C28.6922 7.79755 30.0988 11.5162 30.0903 15.8613C30.0847 18.6057 28.6771 22.8406 26.0344 28.109V28.1175C25.0414 30.0235 23.7083 32.5314 22.1981 35.0366C20.327 38.1682 18.3249 41.1284 16.614 43.61C16.289 44.0952 15.9611 44.5041 15.6446 44.8998L15.0934 45.5781ZM14.6987 42.8459L15.1255 43.4178C15.2564 43.2444 15.3864 43.0636 15.5164 42.8695C17.217 40.3898 19.2087 37.456 21.0609 34.3554C22.5533 31.8823 23.8722 29.3988 24.8568 27.5108C27.4118 22.4289 28.7647 18.4003 28.7704 15.8594C28.7883 7.72689 23.3352 2.2512 15.2037 2.2333H15.1603C6.79887 2.2333 1.59545 7.42823 1.57755 15.8C1.5719 18.2826 2.88147 22.3177 5.36399 27.4712C6.40788 29.4959 7.73629 31.8663 9.20885 34.3271C10.9207 37.2251 12.8191 40.1693 14.6987 42.8393V42.8459ZM15.1763 25.2035H15.1537C12.4575 25.2006 9.87285 24.1268 7.96837 22.2182C6.06389 20.3097 4.99557 17.7228 4.99845 15.0265C5.00132 12.3303 6.07514 9.74568 7.98369 7.8412C9.89224 5.93671 12.4792 4.8684 15.1754 4.87127H15.198C17.2083 4.87341 19.1726 5.47229 20.8422 6.59201C22.5117 7.71173 23.8112 9.30188 24.5761 11.1609C25.341 13.02 25.5367 15.0643 25.1385 17.0347C24.7403 19.0051 23.7661 20.813 22.3394 22.2292C21.4003 23.1723 20.284 23.9204 19.0547 24.4304C17.8253 24.9404 16.5073 25.2022 15.1763 25.2007V25.2035ZM15.1763 6.19592C12.8464 6.21735 10.619 7.15732 8.97813 8.81161C7.33725 10.4659 6.41543 12.7008 6.41295 15.0309C6.41046 17.3609 7.32752 19.5978 8.96487 21.2556C10.6022 22.9134 12.8276 23.8581 15.1575 23.8845H15.1773C17.5237 23.8869 19.7749 22.9571 21.4358 21.2996C23.0966 19.6421 24.031 17.3927 24.0333 15.0463C24.0357 12.6999 23.1059 10.4487 21.4484 8.78785C19.7909 7.12702 17.5416 6.19264 15.1952 6.19026L15.1763 6.19592Z" fill="#426572"/>
<path d="M12.138 14.7665L14.7665 12.1385L13.9047 11.2767L12.7001 12.4814C12.6857 12.4958 12.6686 12.5072 12.6499 12.515C12.6311 12.5228 12.6109 12.5268 12.5906 12.5268C12.5703 12.5268 12.5501 12.5228 12.5313 12.515C12.5126 12.5072 12.4955 12.4958 12.4811 12.4814L12.2622 12.2625C12.2016 12.2019 12.2016 12.1039 12.2622 12.0435L13.4669 10.8389L12.8098 10.1816C12.5678 9.93965 12.1757 9.93965 11.9337 10.1816L10.1815 11.9338C9.93975 12.1758 9.93955 12.5679 10.1815 12.8099L12.138 14.7665V14.7665ZM19.7252 12.4853C20.0916 12.1189 20.0914 11.525 19.7252 11.1586L18.8414 10.2748C18.475 9.9084 17.8809 9.9084 17.5143 10.2748L16.6155 11.1734L18.8264 13.3843L19.7252 12.4853V12.4853ZM16.1735 11.6156L10.3728 17.4155L10.0063 19.514C9.95694 19.797 10.2034 20.0434 10.4866 19.9936L12.5852 19.6257L18.3844 13.8263L16.1735 11.6156ZM19.8185 17.1904L19.1615 16.5333L17.9568 17.738C17.8963 17.7985 17.7983 17.7985 17.7379 17.738L17.519 17.5191C17.4586 17.4585 17.4586 17.3605 17.519 17.3001L18.7236 16.0954L17.8615 15.2333L15.233 17.8614L17.1903 19.8184C17.4322 20.0604 17.8244 20.0604 18.0664 19.8184L19.8185 18.0665C20.0605 17.8245 20.0605 17.4323 19.8185 17.1904Z" fill="#282C4D"/>
</svg>
