<svg width="16" height="23" viewBox="0 0 16 23" fill="none" xmlns="http://www.w3.org/2000/svg">
<path d="M5.01071 2.56743C4.86231 2.56743 4.71724 2.52343 4.59385 2.44098C4.47045 2.35853 4.37428 2.24135 4.31749 2.10424C4.2607 1.96714 4.24584 1.81627 4.27479 1.67072C4.30375 1.52517 4.37521 1.39148 4.48014 1.28654C4.58508 1.1816 4.71877 1.11014 4.86432 1.08119C5.00987 1.05224 5.16074 1.0671 5.29785 1.12389C5.43495 1.18068 5.55214 1.27685 5.63458 1.40024C5.71703 1.52363 5.76104 1.6687 5.76104 1.8171C5.76079 2.01603 5.68165 2.20673 5.54099 2.34739C5.40033 2.48805 5.20963 2.56718 5.01071 2.56743V2.56743ZM5.01071 1.63485C4.97466 1.63485 4.93942 1.64554 4.90945 1.66556C4.87948 1.68559 4.85612 1.71405 4.84232 1.74736C4.82853 1.78066 4.82492 1.81731 4.83195 1.85266C4.83898 1.88801 4.85634 1.92049 4.88183 1.94598C4.90732 1.97147 4.9398 1.98883 4.97515 1.99586C5.01051 2.00289 5.04715 1.99928 5.08045 1.98549C5.11376 1.97169 5.14222 1.94833 5.16225 1.91836C5.18228 1.88839 5.19296 1.85315 5.19296 1.8171C5.19296 1.79317 5.18825 1.76947 5.17909 1.74736C5.16993 1.72524 5.15651 1.70515 5.13958 1.68823C5.12266 1.6713 5.10257 1.65788 5.08045 1.64872C5.05834 1.63956 5.03464 1.63485 5.01071 1.63485V1.63485Z" fill="#E7F6FF"/>
<path d="M6.34939 2.1823C6.49475 2.1823 6.6126 2.06446 6.6126 1.91909C6.6126 1.77373 6.49475 1.65588 6.34939 1.65588C6.20402 1.65588 6.08618 1.77373 6.08618 1.91909C6.08618 2.06446 6.20402 2.1823 6.34939 2.1823Z" fill="#E7F6FF"/>
<g opacity="0.5">
<path opacity="0.5" d="M10.1646 15.649V16.2271C9.99745 16.7587 9.73472 17.3807 9.38961 18.0667C9.24759 18.3389 9.09563 18.6262 8.93279 18.9216C9.04403 18.7323 9.15102 18.5472 9.25422 18.3625C9.13398 18.5907 9.00664 18.8279 8.87219 19.0689V18.1694L8.91196 18.0941L8.87219 18.1651V18.132C8.93216 18.0187 8.99054 17.9082 9.04735 17.8006C9.4218 17.0555 9.69969 16.3866 9.86348 15.8261C9.96526 15.7688 10.0656 15.7096 10.1646 15.649Z" fill="#BBD2E5"/>
</g>
<path d="M12.6513 7.25425C12.6456 9.88159 10.4917 12.0251 7.86529 12.0194C5.59063 12.0147 3.67717 10.3985 3.20993 8.2588C3.16166 7.98387 3.13774 7.70522 3.13844 7.42609C3.14412 4.80017 5.29807 2.65522 7.92399 2.6609C10.1963 2.66563 12.1064 4.27754 12.5779 6.41161C12.5778 6.41271 12.5778 6.41382 12.5779 6.41492C12.6272 6.69197 12.6518 6.97285 12.6513 7.25425V7.25425Z" fill="white"/>
<path d="M7.58502 0.62185C3.16777 0.612382 0.415926 3.39216 0.405038 7.76964C0.402197 9.1226 1.11513 11.233 2.34217 13.7818C2.89699 14.8578 3.573 16.0541 4.28309 17.2484C5.15508 18.7226 6.10708 20.1972 7.05955 21.5521L7.53579 22.1902C7.69532 21.9909 7.85485 21.7925 8.01439 21.554C8.97301 20.1636 9.93069 18.7325 10.8074 17.2626C11.5265 16.0701 12.1661 14.8777 12.7251 13.8045C14.0033 11.2605 14.7252 9.1529 14.7281 7.79994C14.7418 3.54222 11.883 0.631318 7.58502 0.62185ZM7.55993 12.1609C4.93353 12.1552 2.78905 10.0022 2.79474 7.3753C2.80042 4.74843 4.95436 2.60585 7.58076 2.61153C10.2072 2.61721 12.3516 4.77068 12.346 7.39708C12.3403 10.0235 10.1863 12.168 7.55993 12.1609Z" fill="#6C89EF"/>
<path d="M12.7858 14.3359C12.2944 15.267 11.7467 16.2692 11.1422 17.2709C10.264 18.7408 9.30585 20.1719 8.34912 21.5622C8.18959 21.7989 8.03006 21.9992 7.87005 22.1985L7.39239 21.5608C6.43992 20.206 5.48792 18.7313 4.6183 17.2577C3.90394 16.0619 3.2303 14.8665 2.67738 13.791C1.44655 11.2413 0.733618 9.13041 0.736459 7.77745C0.740246 5.97098 1.20985 4.43718 2.07333 3.25842C1.73201 4.14746 1.55259 5.16005 1.5488 6.27632C1.54596 7.62928 2.2589 9.74015 3.48594 12.2884C4.04076 13.364 4.7144 14.5607 5.42686 15.7551C6.29885 17.2288 7.25085 18.7034 8.20284 20.0583L8.67908 20.6964C8.83909 20.4971 8.99862 20.2987 9.15815 20.0602C10.1163 18.6698 11.0745 17.2387 11.9512 15.7688C12.2447 15.2898 12.5216 14.8088 12.7858 14.3359Z" fill="#5572D6"/>
<path d="M7.85912 22.6638L7.12157 21.6749C6.16626 20.3162 5.20148 18.8208 4.3309 17.3495C3.58531 16.1011 2.91072 14.8959 2.3791 13.8657L2.37531 13.8577C1.06495 11.1385 0.402198 9.06647 0.405038 7.7012C0.409772 5.45778 1.11513 3.57225 2.44064 2.24721C3.76614 0.922182 5.65025 0.221558 7.89273 0.221558H7.91592C10.1101 0.226292 11.9871 0.950586 13.3396 2.31538C14.6921 3.68018 15.3989 5.54867 15.3946 7.73197C15.3918 9.11097 14.6845 11.2389 13.3567 13.8861V13.8904C12.8577 14.848 12.1878 16.1082 11.429 17.367C10.4888 18.9405 9.48286 20.4279 8.62318 21.6749C8.45985 21.9187 8.29511 22.1241 8.13605 22.3229L7.85912 22.6638ZM7.66076 21.2909L7.87521 21.5783C7.94101 21.4912 8.00634 21.4003 8.07167 21.3028C8.92615 20.0568 9.9269 18.5827 10.8576 17.0247C11.6075 15.7821 12.2702 14.5342 12.7649 13.5855C14.0488 11.032 14.7285 9.00777 14.7314 7.73102C14.7404 3.64468 12.0004 0.893305 7.9145 0.884311H7.89273C3.69135 0.884311 1.07679 3.49461 1.06779 7.7012C1.06495 8.94859 1.72297 10.9761 2.97037 13.5656C3.49489 14.5829 4.16237 15.774 4.90229 17.0105C5.76245 18.4667 6.71634 19.946 7.66076 21.2876V21.2909ZM7.90077 12.4262H7.88941C6.53464 12.4247 5.23593 11.8851 4.27899 10.9262C3.32204 9.96717 2.78524 8.66731 2.78669 7.31254C2.78813 5.95777 3.3277 4.65906 4.28669 3.70211C5.24567 2.74517 6.54553 2.20837 7.9003 2.20982H7.91166C8.92176 2.21089 9.90879 2.51181 10.7477 3.07443C11.5866 3.63706 12.2396 4.43606 12.6239 5.37019C13.0082 6.30431 13.1065 7.3315 12.9065 8.32158C12.7064 9.31166 12.2169 10.2201 11.5 10.9316C11.0282 11.4056 10.4672 11.7814 9.84952 12.0377C9.23181 12.2939 8.56952 12.4255 7.90077 12.4247V12.4262ZM7.90077 2.87541C6.73004 2.88618 5.61085 3.35849 4.78636 4.18972C3.96187 5.02094 3.49868 6.14394 3.49743 7.31472C3.49619 8.4855 3.95698 9.60948 4.7797 10.4425C5.60242 11.2754 6.7206 11.7501 7.89131 11.7634H7.90125C9.08025 11.7646 10.2114 11.2974 11.0459 10.4645C11.8805 9.63171 12.35 8.50148 12.3512 7.32248C12.3524 6.14348 11.8851 5.0123 11.0523 4.17778C10.2195 3.34326 9.08924 2.87376 7.91024 2.87257L7.90077 2.87541Z" fill="#426572"/>
<path d="M6.37407 7.18191L7.6948 5.86137L7.26182 5.42839L6.65651 6.0337C6.64929 6.04094 6.64072 6.04667 6.63128 6.05059C6.62184 6.0545 6.61172 6.05652 6.6015 6.05652C6.59128 6.05652 6.58117 6.0545 6.57173 6.05059C6.56229 6.04667 6.55372 6.04094 6.5465 6.0337L6.43648 5.92369C6.40606 5.89327 6.40606 5.844 6.43648 5.81368L7.0418 5.20837L6.71166 4.87813C6.59007 4.75654 6.39301 4.75654 6.27142 4.87813L5.39102 5.75853C5.26953 5.88012 5.26943 6.07718 5.39102 6.19877L6.37407 7.18191V7.18191ZM10.1864 6.03567C10.3705 5.85156 10.3704 5.55312 10.1864 5.36902L9.74235 4.92494C9.55824 4.74084 9.25971 4.74084 9.0755 4.92494L8.62387 5.37648L9.73479 6.48739L10.1864 6.03567V6.03567ZM8.40179 5.59866L5.4871 8.51296L5.30299 9.56735C5.27817 9.70955 5.40202 9.8334 5.54432 9.80837L6.5988 9.62348L9.51271 6.70948L8.40179 5.59866ZM10.2333 8.3998L9.9032 8.06967L9.29788 8.67498C9.26746 8.7054 9.2182 8.7054 9.18787 8.67498L9.07786 8.56497C9.04753 8.53455 9.04753 8.48528 9.07786 8.45496L9.68317 7.84964L9.24999 7.41646L7.92926 8.737L8.91269 9.72034C9.03429 9.84194 9.23135 9.84194 9.35294 9.72034L10.2333 8.84005C10.3549 8.71846 10.3549 8.5214 10.2333 8.3998Z" fill="#282C4D"/>
</svg>
