<svg width="16" height="23" viewBox="0 0 16 23" fill="none" xmlns="http://www.w3.org/2000/svg">
<path d="M4.80831 2.56743C4.65991 2.56743 4.51484 2.52343 4.39145 2.44098C4.26806 2.35853 4.17189 2.24135 4.1151 2.10424C4.05831 1.96714 4.04345 1.81627 4.0724 1.67072C4.10135 1.52517 4.17282 1.39148 4.27775 1.28654C4.38269 1.1816 4.51638 1.11014 4.66193 1.08119C4.80748 1.05224 4.95835 1.0671 5.09545 1.12389C5.23256 1.18068 5.34974 1.27685 5.43219 1.40024C5.51464 1.52363 5.55865 1.6687 5.55865 1.8171C5.5584 2.01603 5.47926 2.20673 5.3386 2.34739C5.19794 2.48805 5.00724 2.56718 4.80831 2.56743V2.56743ZM4.80831 1.63485C4.77227 1.63485 4.73703 1.64554 4.70706 1.66556C4.67709 1.68559 4.65373 1.71405 4.63993 1.74736C4.62614 1.78066 4.62253 1.81731 4.62956 1.85266C4.63659 1.88801 4.65395 1.92049 4.67944 1.94598C4.70493 1.97147 4.7374 1.98883 4.77276 1.99586C4.80811 2.00289 4.84476 1.99928 4.87806 1.98549C4.91136 1.97169 4.93983 1.94833 4.95986 1.91836C4.97988 1.88839 4.99057 1.85315 4.99057 1.8171C4.99057 1.79317 4.98586 1.76947 4.9767 1.74736C4.96754 1.72524 4.95411 1.70515 4.93719 1.68823C4.92027 1.6713 4.90017 1.65788 4.87806 1.64872C4.85595 1.63956 4.83225 1.63485 4.80831 1.63485V1.63485Z" fill="#E7F6FF"/>
<path d="M6.147 2.1823C6.29236 2.1823 6.4102 2.06446 6.4102 1.91909C6.4102 1.77373 6.29236 1.65588 6.147 1.65588C6.00163 1.65588 5.88379 1.77373 5.88379 1.91909C5.88379 2.06446 6.00163 2.1823 6.147 2.1823Z" fill="#E7F6FF"/>
<g opacity="0.5">
<path opacity="0.5" d="M9.96205 15.649V16.2271C9.79494 16.7587 9.5322 17.3807 9.1871 18.0667C9.04508 18.3389 8.89312 18.6262 8.73027 18.9216C8.84152 18.7323 8.94851 18.5472 9.05171 18.3625C8.93146 18.5907 8.80412 18.8279 8.66968 19.0689V18.1694L8.70944 18.0941L8.66968 18.1651V18.132C8.72964 18.0187 8.78803 17.9082 8.84483 17.8006C9.21929 17.0555 9.49717 16.3866 9.66097 15.8261C9.76275 15.7688 9.86311 15.7096 9.96205 15.649Z" fill="#BBD2E5"/>
</g>
<path d="M12.4489 7.25425C12.4432 9.88159 10.2893 12.0251 7.6629 12.0194C5.38824 12.0147 3.47477 10.3985 3.00753 8.2588C2.95927 7.98387 2.93535 7.70522 2.93605 7.42609C2.94173 4.80017 5.09568 2.65522 7.7216 2.6609C9.99389 2.66563 11.904 4.27754 12.3755 6.41161C12.3754 6.41271 12.3754 6.41382 12.3755 6.41492C12.4249 6.69197 12.4494 6.97285 12.4489 7.25425V7.25425Z" fill="white"/>
<path d="M7.38263 0.62185C2.96538 0.612382 0.213533 3.39216 0.202645 7.76964C0.199805 9.1226 0.912737 11.233 2.13978 13.7818C2.6946 14.8578 3.3706 16.0541 4.0807 17.2484C4.95269 18.7226 5.90469 20.1972 6.85716 21.5521L7.33339 22.1902C7.49293 21.9909 7.65246 21.7925 7.812 21.554C8.77062 20.1636 9.7283 18.7325 10.605 17.2626C11.3241 16.0701 11.9637 14.8777 12.5227 13.8045C13.8009 11.2605 14.5228 9.1529 14.5257 7.79994C14.5394 3.54222 11.6806 0.631318 7.38263 0.62185ZM7.35754 12.1609C4.73114 12.1552 2.58666 10.0022 2.59234 7.3753C2.59802 4.74843 4.75197 2.60585 7.37837 2.61153C10.0048 2.61721 12.1492 4.77068 12.1436 7.39708C12.1379 10.0235 9.98393 12.168 7.35754 12.1609Z" fill="#E47066"/>
<path d="M12.5834 14.3359C12.092 15.267 11.5443 16.2692 10.9398 17.2709C10.0616 18.7408 9.10346 20.1719 8.14673 21.5622C7.9872 21.7989 7.82766 21.9992 7.66765 22.1985L7.19 21.5608C6.23753 20.206 5.28553 18.7313 4.4159 17.2577C3.70155 16.0619 3.02791 14.8665 2.47499 13.791C1.24416 11.2413 0.531226 9.13041 0.534066 7.77745C0.537853 5.97098 1.00746 4.43718 1.87093 3.25842C1.52962 4.14746 1.3502 5.16005 1.34641 6.27632C1.34357 7.62928 2.0565 9.74015 3.28354 12.2884C3.83836 13.364 4.512 14.5607 5.22446 15.7551C6.09646 17.2288 7.04845 18.7034 8.00045 20.0583L8.47669 20.6964C8.63669 20.4971 8.79623 20.2987 8.95576 20.0602C9.91391 18.6698 10.8721 17.2387 11.7488 15.7688C12.0423 15.2898 12.3192 14.8088 12.5834 14.3359Z" fill="#BE5A52"/>
<path d="M7.65672 22.6638L6.91917 21.6749C5.96386 20.3162 4.99908 18.8208 4.12851 17.3495C3.38291 16.1011 2.70833 14.8959 2.1767 13.8657L2.17292 13.8577C0.862558 11.1385 0.199805 9.06647 0.202646 7.7012C0.20738 5.45778 0.912738 3.57225 2.23824 2.24721C3.56375 0.922182 5.44786 0.221558 7.69033 0.221558H7.71353C9.90772 0.226292 11.7847 0.950586 13.1372 2.31538C14.4897 3.68018 15.1965 5.54867 15.1922 7.73197C15.1894 9.11097 14.4821 11.2389 13.1543 13.8861V13.8904C12.6553 14.848 11.9854 16.1082 11.2266 17.367C10.2864 18.9405 9.28047 20.4279 8.42078 21.6749C8.25746 21.9187 8.09272 22.1241 7.93366 22.3229L7.65672 22.6638ZM7.45837 21.2909L7.67282 21.5783C7.73862 21.4912 7.80395 21.4003 7.86928 21.3028C8.72376 20.0568 9.72451 18.5827 10.6552 17.0247C11.4051 15.7821 12.0678 14.5342 12.5625 13.5855C13.8464 11.032 14.5262 9.00777 14.529 7.73102C14.538 3.64468 11.798 0.893305 7.71211 0.884311H7.69033C3.48895 0.884311 0.874393 3.49461 0.865399 7.7012C0.862558 8.94859 1.52058 10.9761 2.76797 13.5656C3.29249 14.5829 3.95998 15.774 4.6999 17.0105C5.56006 18.4667 6.51395 19.946 7.45837 21.2876V21.2909ZM7.69838 12.4262H7.68702C6.33225 12.4247 5.03354 11.8851 4.07659 10.9262C3.11965 9.96717 2.58285 8.66731 2.5843 7.31254C2.58574 5.95777 3.1253 4.65906 4.08429 3.70211C5.04328 2.74517 6.34314 2.20837 7.69791 2.20982H7.70927C8.71936 2.21089 9.7064 2.51181 10.5453 3.07443C11.3842 3.63706 12.0372 4.43606 12.4215 5.37019C12.8058 6.30431 12.9042 7.3315 12.7041 8.32158C12.504 9.31166 12.0145 10.2201 11.2976 10.9316C10.8258 11.4056 10.2648 11.7814 9.64713 12.0377C9.02942 12.2939 8.36713 12.4255 7.69838 12.4247V12.4262ZM7.69838 2.87541C6.52765 2.88618 5.40846 3.35849 4.58397 4.18972C3.75947 5.02094 3.29629 6.14394 3.29504 7.31472C3.29379 8.4855 3.75459 9.60948 4.57731 10.4425C5.40003 11.2754 6.51821 11.7501 7.68891 11.7634H7.69886C8.87785 11.7646 10.009 11.2974 10.8436 10.4645C11.6781 9.63171 12.1476 8.50148 12.1488 7.32248C12.15 6.14348 11.6827 5.0123 10.8499 4.17778C10.0171 3.34326 8.88685 2.87376 7.70785 2.87257L7.69838 2.87541Z" fill="#426572"/>
<path d="M7.17376 5.08484C7.03633 5.08484 6.90453 5.13943 6.80736 5.23661C6.71018 5.33378 6.65559 5.46558 6.65559 5.60301V5.77574H5.44652C5.30909 5.77574 5.17729 5.83033 5.08011 5.9275C4.98294 6.02468 4.92834 6.15648 4.92834 6.29391V6.77201L7.55859 7.47327C7.64596 7.49654 7.7379 7.49654 7.82527 7.47327L10.4555 6.77201V6.29391C10.4555 6.15648 10.4009 6.02468 10.3037 5.9275C10.2066 5.83033 10.0748 5.77574 9.93735 5.77574H8.72828V5.60301C8.72828 5.46558 8.67368 5.33378 8.57651 5.23661C8.47933 5.13943 8.34753 5.08484 8.2101 5.08484H7.17376ZM7.17376 5.43029H8.2101C8.25591 5.43029 8.29985 5.44848 8.33224 5.48088C8.36463 5.51327 8.38283 5.5572 8.38283 5.60301V5.77574H7.00103V5.60301C7.00103 5.5572 7.01923 5.51327 7.05162 5.48088C7.08402 5.44848 7.12795 5.43029 7.17376 5.43029V5.43029Z" fill="#282C4D"/>
<path d="M4.92834 9.0575C4.92834 9.19492 4.98294 9.32672 5.08011 9.4239C5.17729 9.52108 5.30909 9.57567 5.44652 9.57567H9.93735C10.0748 9.57567 10.2066 9.52108 10.3037 9.4239C10.4009 9.32672 10.4555 9.19492 10.4555 9.0575V7.10571L7.73649 7.83012C7.7073 7.83791 7.67657 7.83791 7.64737 7.83012L4.92834 7.10571V9.0575Z" fill="#282C4D"/>
</svg>
