<svg width="30" height="42" viewBox="0 0 30 42" fill="none" xmlns="http://www.w3.org/2000/svg">
<path d="M14.6 19.8148C13.2171 19.8148 11.8908 19.2654 10.913 18.2875C9.9351 17.3096 9.38573 15.9833 9.38573 14.6003C9.38573 13.2174 9.9351 11.8911 10.913 10.9132C11.8908 9.93531 13.2171 9.38594 14.6 9.38594C15.9829 9.38594 17.3092 9.93531 18.2871 10.9132C19.265 11.8911 19.8143 13.2174 19.8143 14.6003C19.8143 15.2851 19.6795 15.9632 19.4174 16.5958C19.1554 17.2285 18.7713 17.8033 18.2871 18.2875C17.8029 18.7717 17.2281 19.1558 16.5955 19.4178C15.9628 19.6799 15.2848 19.8148 14.6 19.8148M14.6 0C10.7279 0 7.01429 1.53825 4.27625 4.27634C1.53821 7.01444 0 10.7281 0 14.6003C0 25.5506 14.6 41.7153 14.6 41.7153C14.6 41.7153 29.2001 25.5506 29.2001 14.6003C29.2001 10.7281 27.6618 7.01444 24.9238 4.27634C22.1858 1.53825 18.4722 0 14.6 0V0Z" fill="#E94335"/>
</svg>
