<svg width="31" height="45" viewBox="0 0 31 45" fill="none" xmlns="http://www.w3.org/2000/svg">
<path d="M9.76099 4.98993C9.46564 4.98993 9.17693 4.90235 8.93136 4.73826C8.68579 4.57418 8.49439 4.34096 8.38137 4.0681C8.26835 3.79523 8.23878 3.49499 8.29639 3.20532C8.35401 2.91565 8.49623 2.64957 8.70507 2.44073C8.91391 2.23189 9.17999 2.08967 9.46966 2.03205C9.75933 1.97443 10.0596 2.004 10.3324 2.11703C10.6053 2.23005 10.8385 2.42145 11.0026 2.66702C11.1667 2.91259 11.2543 3.2013 11.2543 3.49664C11.2538 3.89253 11.0963 4.27207 10.8163 4.552C10.5364 4.83194 10.1569 4.98943 9.76099 4.98993ZM9.76099 3.13392C9.68925 3.13392 9.61912 3.15519 9.55947 3.19505C9.49982 3.23491 9.45333 3.29156 9.42587 3.35783C9.39842 3.42411 9.39124 3.49704 9.40523 3.56741C9.41923 3.63777 9.45377 3.7024 9.5045 3.75312C9.55523 3.80385 9.61986 3.8384 9.69022 3.85239C9.76058 3.86639 9.83351 3.85921 9.89979 3.83175C9.96607 3.8043 10.0227 3.75781 10.0626 3.69816C10.1024 3.63851 10.1237 3.56838 10.1237 3.49664C10.1237 3.44901 10.1143 3.40184 10.0961 3.35783C10.0779 3.31383 10.0512 3.27384 10.0175 3.24016C9.98379 3.20648 9.9438 3.17976 9.89979 3.16153C9.85579 3.1433 9.80862 3.13392 9.76099 3.13392Z" fill="#E7F6FF"/>
<path d="M12.4252 4.22337C12.7145 4.22337 12.949 3.98885 12.949 3.69955C12.949 3.41025 12.7145 3.17572 12.4252 3.17572C12.1359 3.17572 11.9014 3.41025 11.9014 3.69955C11.9014 3.98885 12.1359 4.22337 12.4252 4.22337Z" fill="#E7F6FF"/>
<g opacity="0.5">
<path opacity="0.5" d="M20.018 31.0244V32.1747C19.6854 33.2327 19.1625 34.4707 18.4757 35.8358C18.193 36.3776 17.8906 36.9494 17.5665 37.5373C17.7879 37.1605 18.0008 36.7921 18.2062 36.4247C17.9669 36.8788 17.7135 37.3508 17.4459 37.8303V36.0403L17.5251 35.8905L17.4459 36.0318V35.9659C17.5653 35.7404 17.6815 35.5205 17.7945 35.3064C18.5397 33.8234 19.0928 32.4922 19.4188 31.3767C19.6213 31.2627 19.821 31.1449 20.018 31.0244Z" fill="#BBD2E5"/>
</g>
<path d="M24.967 14.3175C24.9557 19.5464 20.669 23.8124 15.442 23.8011C10.9151 23.7916 7.10697 20.5752 6.17708 16.3167C6.08102 15.7696 6.03342 15.215 6.03482 14.6595C6.04613 9.4335 10.3328 5.16468 15.5589 5.17599C20.0811 5.18541 23.8826 8.39338 24.821 12.6405C24.8207 12.6427 24.8207 12.6449 24.821 12.6471C24.9191 13.1985 24.968 13.7575 24.967 14.3175Z" fill="white"/>
<path d="M14.8844 1.11778C6.09329 1.09894 0.616657 6.63116 0.594988 15.3431C0.589335 18.0357 2.00819 22.2357 4.4502 27.3082C5.55439 29.4497 6.89976 31.8305 8.31296 34.2075C10.0484 37.1413 11.943 40.076 13.8386 42.7724L14.7864 44.0424C15.1039 43.6458 15.4214 43.251 15.7389 42.7762C17.6467 40.0091 19.5526 37.1611 21.2975 34.2357C22.7286 31.8625 24.0014 29.4892 25.1141 27.3534C27.6578 22.2904 29.0946 18.096 29.1002 15.4034C29.1276 6.92982 23.438 1.13663 14.8844 1.11778ZM14.8344 24.0823C9.60745 24.071 5.33958 19.7862 5.35089 14.5583C5.36219 9.33038 9.64891 5.06627 14.8759 5.07758C20.1028 5.08888 24.3707 9.37466 24.3594 14.6016C24.3481 19.8286 20.0614 24.0965 14.8344 24.0823Z" fill="#E47066"/>
<path d="M25.2347 28.411C24.2568 30.2641 23.1667 32.2586 21.9636 34.2522C20.2159 37.1775 18.3091 40.0256 16.405 42.7926C16.0875 43.2637 15.77 43.6622 15.4516 44.0589L14.501 42.7898C12.6054 40.0934 10.7107 37.1587 8.98004 34.2258C7.55836 31.846 6.2177 29.4671 5.11729 27.3266C2.66774 22.2522 1.24888 18.0512 1.25453 15.3586C1.26207 11.7634 2.19667 8.71091 3.91512 6.36499C3.23584 8.13432 2.87877 10.1495 2.87124 12.3711C2.86558 15.0637 4.28444 19.2647 6.72646 24.3362C7.83064 26.4767 9.1713 28.8585 10.5892 31.2355C12.3246 34.1683 14.2193 37.1031 16.1139 39.7995L17.0617 41.0695C17.3801 40.6728 17.6976 40.2781 18.0151 39.8033C19.922 37.0362 21.8289 34.1881 23.5737 31.2628C24.1578 30.3094 24.709 29.3521 25.2347 28.411Z" fill="#BE5A52"/>
<path d="M15.4299 44.985L13.962 43.0168C12.0608 40.3129 10.1407 37.3367 8.40812 34.4086C6.92425 31.9242 5.58171 29.5255 4.52369 27.4754L4.51616 27.4594C1.90833 22.0477 0.589336 17.924 0.594989 15.2069C0.60441 10.7421 2.00819 6.9896 4.64617 4.35256C7.28415 1.71553 11.0338 0.321167 15.4967 0.321167H15.5429C19.9097 0.330588 23.6453 1.77206 26.337 4.48823C29.0286 7.20441 30.4352 10.923 30.4268 15.2681C30.4211 18.0126 29.0136 22.2475 26.3709 27.5159V27.5244C25.3779 29.4303 24.0447 31.9383 22.5345 34.4434C20.6634 37.5751 18.6614 40.5353 16.9505 43.0168C16.6254 43.502 16.2976 43.9109 15.981 44.3066L15.4299 44.985ZM15.0351 42.2528L15.4619 42.8247C15.5928 42.6513 15.7229 42.4704 15.8529 42.2763C17.5534 39.7966 19.5451 36.8628 21.3973 33.7623C22.8897 31.2892 24.2087 28.8057 25.1932 26.9176C27.7483 21.8358 29.1012 17.8072 29.1068 15.2663C29.1247 7.13375 23.6716 1.65806 15.5401 1.64016H15.4967C7.13529 1.64016 1.93188 6.83509 1.91398 15.2069C1.90833 17.6894 3.21789 21.7246 5.70042 26.8781C6.74431 28.9027 8.07272 31.2731 9.54527 33.734C11.2571 36.632 13.1555 39.5762 15.0351 42.2462V42.2528ZM15.5128 24.6104H15.4901C12.7939 24.6075 10.2093 23.5337 8.30479 21.6251C6.40031 19.7166 5.332 17.1296 5.33487 14.4334C5.33774 11.7372 6.41157 9.15254 8.32012 7.24806C10.2287 5.34357 12.8156 4.27526 15.5118 4.27814H15.5344C17.5447 4.28027 19.5091 4.87915 21.1786 5.99887C22.8481 7.11859 24.1477 8.70874 24.9125 10.5678C25.6774 12.4269 25.8731 14.4711 25.4749 16.4416C25.0767 18.412 24.1025 20.2199 22.6758 21.636C21.7368 22.5792 20.6204 23.3273 19.3911 23.8373C18.1618 24.3472 16.8437 24.609 15.5128 24.6075V24.6104ZM15.5128 5.60278C13.1828 5.62421 10.9554 6.56418 9.31455 8.21847C7.67367 9.87275 6.75185 12.1077 6.74937 14.4377C6.74689 16.7678 7.66394 19.0047 9.3013 20.6625C10.9386 22.3203 13.164 23.265 15.4939 23.2914H15.5137C17.8601 23.2937 20.1113 22.3639 21.7722 20.7064C23.433 19.049 24.3674 16.7996 24.3698 14.4532C24.3721 12.1068 23.4423 9.85555 21.7848 8.19471C20.1274 6.53388 17.878 5.5995 15.5316 5.59712L15.5128 5.60278Z" fill="#426572"/>
<path d="M26.8975 9.69159C27.1709 10.3564 27.3841 11.0444 27.5344 11.7473C27.5664 11.9094 27.5909 12.0686 27.6173 12.2184C27.6437 12.3682 27.6729 12.5218 27.6823 12.6678L27.7209 13.0899C27.7313 13.2255 27.7473 13.3546 27.7454 13.479C27.7454 13.7277 27.7501 13.95 27.7454 14.1488C27.7407 14.3476 27.7172 14.5153 27.7002 14.6529C27.6644 14.9289 27.6201 15.0797 27.5711 15.0797C27.5221 15.0797 27.4703 14.9289 27.4194 14.6604C27.3931 14.5257 27.3733 14.3618 27.3422 14.1724C27.3111 13.983 27.2715 13.7682 27.2357 13.5317C27.2207 13.413 27.1905 13.2905 27.166 13.1624L27.0888 12.7639C27.0671 12.6254 27.0237 12.486 26.9945 12.3409C26.9653 12.1958 26.9267 12.046 26.8871 11.8943C26.7085 11.2387 26.4898 10.5946 26.2324 9.96575C25.9648 9.34156 25.6564 8.73571 25.3091 8.15214L25.0688 7.76398L24.8276 7.40314C24.7523 7.28443 24.6722 7.17609 24.5959 7.07057C24.5196 6.96505 24.4489 6.86141 24.3773 6.76532C23.8035 5.99842 23.4078 5.54054 23.4794 5.46234C23.551 5.38415 24.0664 5.72237 24.7654 6.43463C24.8531 6.52319 24.9388 6.62305 25.0302 6.72198C25.1216 6.8209 25.2186 6.9283 25.3062 7.04419C25.3939 7.16007 25.4947 7.27689 25.5889 7.40126L25.8715 7.79601C26.2724 8.39415 26.616 9.02883 26.8975 9.69159Z" fill="white"/>
<path d="M21.2457 3.36796C21.8731 3.73162 22.2481 4.21117 22.1313 4.36851C22.0144 4.52584 21.4718 4.33176 20.8829 3.99165C20.2941 3.65154 19.8607 3.28976 19.9314 3.10699C20.002 2.92421 20.6201 3.00241 21.2457 3.36796Z" fill="white"/>
<path d="M17.5619 11.0958V11.4941H17.9602H20.1906C20.6291 11.4941 20.9075 11.801 20.9075 12.102V17.636C20.9075 17.937 20.6291 18.244 20.1906 18.244H11.269C10.8306 18.244 10.5522 17.9371 10.5521 17.6362C10.5521 17.6362 10.5521 17.6361 10.5521 17.636L10.5577 12.1024V12.102C10.5577 11.7986 10.8332 11.4941 11.269 11.4941H13.4994H13.8977V11.0958V10.0896C13.8977 9.78865 14.1761 9.48166 14.6146 9.48166H16.845C17.2835 9.48166 17.5619 9.78865 17.5619 10.0896V11.0958ZM14.6146 9.69128H14.2163V10.0896V11.0958V11.4941H14.6146H16.845H17.2433V11.0958V10.0896V9.69128H16.845H14.6146ZM20.1906 18.0343H20.5889V17.636V12.102V11.7037H20.1906H11.269H10.8707V12.102V17.636V18.0343H11.269H20.1906Z" fill="white" stroke="#282C4D" stroke-width="0.796572"/>
</svg>
