<?xml version="1.0" standalone="no"?>
<!DOCTYPE svg PUBLIC "-//W3C//DTD SVG 20010904//EN"
 "http://www.w3.org/TR/2001/REC-SVG-20010904/DTD/svg10.dtd">
<svg version="1.0" xmlns="http://www.w3.org/2000/svg"
 width="189.000000pt" height="189.000000pt" viewBox="0 0 189.000000 189.000000"
 preserveAspectRatio="xMidYMid meet">
<metadata>
Created by potrace 1.14, written by Peter Selinger 2001-2017
</metadata>
<g transform="translate(0.000000,189.000000) scale(0.100000,-0.100000)"
fill="#000000" stroke="none">
<path d="M1669 1516 c-2 -3 -79 -28 -169 -57 -155 -49 -172 -53 -284 -55 -88
-2 -126 1 -146 11 -58 30 -171 38 -250 18 -59 -15 -114 -47 -153 -88 l-24 -27
-64 39 c-112 68 -165 87 -251 87 -107 0 -186 -39 -266 -132 l-57 -67 1 -70 c3
-128 15 -166 80 -256 75 -103 80 -137 44 -281 -24 -93 -25 -117 -3 -163 12
-26 31 -43 70 -62 47 -22 62 -25 126 -21 43 3 92 15 122 28 28 12 76 23 110
25 33 2 99 17 148 33 48 17 87 28 87 26 0 -3 9 0 20 6 24 13 70 -8 94 -41 8
-12 19 -18 25 -15 6 4 21 0 34 -9 51 -33 173 -61 258 -59 291 6 530 223 600
547 13 58 27 98 40 110 30 28 19 97 -16 97 -8 0 -18 12 -21 28 -12 45 -42 95
-86 140 l-43 44 -1 81 c0 70 -9 99 -25 83z"/>
<path d="M63 743 c-19 -7 -16 -51 4 -62 37 -20 71 27 41 57 -13 13 -24 14 -45
5z m40 -28 c4 -8 2 -17 -4 -21 -12 -7 -41 15 -33 27 8 14 31 11 37 -6z"/>
<path d="M1805 733 c-19 -18 -19 -37 0 -53 17 -14 51 -5 59 15 14 37 -32 66
-59 38z m40 -24 c0 -7 -8 -15 -17 -17 -18 -3 -25 18 -11 32 10 10 28 1 28 -15z"/>
<path d="M1767 643 c-12 -11 -8 -23 8 -23 8 0 15 7 15 15 0 16 -12 20 -23 8z"/>
<path d="M42 628 c6 -18 25 -20 31 -3 5 10 0 15 -14 15 -12 0 -19 -5 -17 -12z"/>
</g>
</svg>
