<svg width="554" height="496" viewBox="0 0 554 496" fill="none" xmlns="http://www.w3.org/2000/svg">
<path opacity="0.4" d="M263.5 455.629C206.091 440.846 126.724 450.302 76.204 419.284C24.2905 387.41 82.8351 344.556 62.3601 287.182C53.7417 263.032 16.8725 151.529 62.36 124.061C103.86 99.0006 151.136 127.396 199 102.561C252 75.0609 266.158 50.3608 341.5 46.5754C435.5 41.8525 506.497 110.055 521.187 204.225C528.259 249.557 450.947 310.562 463.5 369.952C487.425 483.139 400.5 381.428 380 433.18C356.805 491.737 324.494 471.335 263.5 455.629Z" fill="#66D9E8"/>
<path d="M108.718 315.541L133.421 346.055C133.678 346.372 133.995 346.636 134.355 346.83C134.714 347.024 135.108 347.146 135.515 347.187C135.921 347.229 136.332 347.19 136.723 347.072C137.114 346.955 137.478 346.761 137.795 346.502L230.022 271.796C230.659 271.277 231.065 270.528 231.15 269.711C231.235 268.893 230.993 268.076 230.476 267.438V267.438C230.037 266.889 229.424 266.506 228.738 266.351C228.053 266.196 227.335 266.278 226.702 266.584C196.255 281.728 158.601 319.254 111.722 310.563C111.098 310.434 110.449 310.503 109.865 310.758C109.281 311.014 108.79 311.444 108.461 311.99C108.131 312.536 107.979 313.171 108.025 313.807C108.071 314.442 108.313 315.049 108.718 315.541V315.541Z" fill="white"/>
<path d="M137.138 347.038L230.672 271.273C231.644 270.485 231.794 269.059 231.006 268.087L127.039 139.737C126.251 138.765 124.824 138.615 123.852 139.403L30.3188 215.168C29.3465 215.955 29.1968 217.382 29.9843 218.354L133.952 346.704C134.739 347.676 136.166 347.826 137.138 347.038Z" fill="white"/>
<path d="M145.645 295.24C147.092 294.584 147.733 292.88 147.077 291.434C146.421 289.987 144.717 289.346 143.271 290.002C141.824 290.658 141.183 292.362 141.839 293.808C142.495 295.255 144.199 295.896 145.645 295.24Z" fill="white"/>
<path d="M138.559 314.258C142.644 312.406 144.454 307.593 142.602 303.508C140.75 299.423 135.937 297.613 131.852 299.465C127.767 301.317 125.957 306.13 127.809 310.215C129.661 314.3 134.474 316.11 138.559 314.258Z" fill="white"/>
<path d="M108.718 315.541L133.421 346.055C133.678 346.372 133.995 346.636 134.355 346.83C134.714 347.024 135.108 347.146 135.515 347.187C135.921 347.229 136.332 347.19 136.723 347.072C137.114 346.955 137.478 346.761 137.795 346.502L230.022 271.796C230.659 271.277 231.065 270.528 231.15 269.711C231.235 268.893 230.993 268.076 230.476 267.438V267.438C230.037 266.889 229.424 266.506 228.738 266.351C228.053 266.196 227.335 266.278 226.702 266.584C196.255 281.728 158.601 319.254 111.722 310.563C111.098 310.434 110.449 310.503 109.865 310.758C109.281 311.014 108.79 311.444 108.461 311.99C108.131 312.536 107.979 313.171 108.025 313.807C108.071 314.442 108.313 315.049 108.718 315.541V315.541Z" fill="#DBCEC8"/>
<path d="M137.138 347.038L230.672 271.273C231.644 270.485 231.794 269.059 231.006 268.087L127.039 139.737C126.251 138.765 124.824 138.615 123.852 139.403L30.3188 215.168C29.3465 215.955 29.1968 217.382 29.9843 218.354L133.952 346.704C134.739 347.676 136.166 347.826 137.138 347.038Z" stroke="#030518" stroke-width="8.7136" stroke-miterlimit="10"/>
<path d="M145.613 294.872C146.98 294.252 147.586 292.641 146.966 291.273C146.346 289.906 144.735 289.3 143.368 289.92C142 290.54 141.394 292.151 142.014 293.519C142.634 294.886 144.245 295.492 145.613 294.872Z" fill="#DBCEC8"/>
<path d="M138.927 312.79C142.776 311.045 144.481 306.511 142.736 302.663C140.991 298.814 136.457 297.109 132.609 298.854C128.761 300.599 127.056 305.133 128.8 308.981C130.545 312.829 135.079 314.534 138.927 312.79Z" fill="#DBCEC8"/>
<path d="M128.262 176.583L73.5484 220.754" stroke="#282C4D" stroke-width="5.22816" stroke-miterlimit="10"/>
<path opacity="0.5" d="M137.864 187.251L112.491 207.002" stroke="#ADB5BD" stroke-width="5.22816" stroke-miterlimit="10"/>
<path d="M192.259 198.677L200.685 195.737" stroke="white" stroke-width="5.22816" stroke-miterlimit="10" stroke-linecap="round"/>
<path d="M317.229 217.715L248.701 66.5652L101.63 133.244L185.723 318.726L299.272 267.245L317.229 217.715Z" fill="white"/>
<path d="M245.585 64.6295L314.113 215.78L296.14 265.316L275.316 274.758L298.308 213.627L233.284 70.2064L245.585 64.6295Z" fill="#DBCEC8"/>
<path d="M255.363 122.115C259.904 120.057 261.916 114.707 259.857 110.166C257.799 105.625 252.449 103.613 247.908 105.672C243.367 107.731 241.355 113.081 243.414 117.621C245.472 122.162 250.822 124.174 255.363 122.115Z" fill="#DBCEC8"/>
<path d="M235.516 117.337C237.541 116.419 238.438 114.033 237.52 112.008C236.602 109.983 234.216 109.086 232.191 110.004C230.167 110.922 229.269 113.308 230.187 115.333C231.105 117.358 233.491 118.255 235.516 117.337Z" fill="#DBCEC8"/>
<path d="M317.286 216.197L248.757 65.0469L101.686 131.726L185.78 317.207L299.313 265.734L317.286 216.197Z" stroke="#030518" stroke-width="8.7136" stroke-miterlimit="10"/>
<path d="M122.421 121.579L121.09 118.643C119.101 114.256 118.937 109.259 120.632 104.752C122.327 100.244 125.744 96.5941 130.13 94.6054C132.302 93.6184 134.647 93.0693 137.031 92.9895C139.415 92.9097 141.791 93.3009 144.024 94.1406C146.257 94.9803 148.302 96.2521 150.042 97.8831C151.783 99.5141 153.185 101.472 154.168 103.646L172.035 143.056C172.919 145.005 173.41 147.109 173.481 149.248C173.551 151.386 173.2 153.518 172.446 155.521C171.693 157.524 170.553 159.358 169.09 160.921C167.628 162.483 165.872 163.741 163.923 164.625V164.625C159.987 166.41 155.504 166.557 151.459 165.036C147.414 163.515 144.139 160.449 142.355 156.513L137.447 145.688" stroke="#030518" stroke-width="6.97088" stroke-miterlimit="10"/>
<path d="M163.526 196.626L240.807 161.588" stroke="#282C4D" stroke-width="6.97088" stroke-miterlimit="10"/>
<path d="M170.736 212.53L208.337 195.483" stroke="#282C4D" stroke-width="6.97088" stroke-miterlimit="10"/>
<path d="M177.868 228.259L242.451 198.978" stroke="#282C4D" stroke-width="6.97088" stroke-miterlimit="10"/>
<path d="M378.247 265.097C346.262 267.014 301.812 265.162 274.231 272.211C261.137 275.551 257.909 282.03 255.798 287.387L255.839 272.388C255.839 270.465 256.022 268.372 259.496 266.902C263.794 265.091 271.338 264.95 277.982 264.956C310.602 264.968 346.273 263.674 378.247 265.097Z" fill="#4ED9FF"/>
<path d="M537.073 91.0372H227.382C219.157 91.0372 212.489 97.7051 212.489 105.93V382.383C212.489 390.609 219.157 397.276 227.382 397.276H537.073C545.298 397.276 551.966 390.609 551.966 382.383V105.93C551.966 97.7051 545.298 91.0372 537.073 91.0372Z" fill="#15AABF"/>
<path d="M551.966 282.712V378.915C551.966 389.045 544.687 397.253 535.709 397.253H228.717C219.739 397.253 212.46 389.022 212.46 378.915V323.282C233.156 338.616 256.715 348.964 280.875 355.39C310.049 363.157 340.171 365.427 370.145 365.756C405.975 366.162 442.417 363.727 476.154 350.116C507.116 337.64 535.785 314.697 551.966 282.712Z" fill="#1098AD"/>
<path d="M335.226 91.8074C303.247 97.8692 258.826 92.019 231.221 114.267C218.133 124.815 214.905 145.271 212.795 162.186L212.842 114.838C212.842 108.776 213.024 102.15 216.499 97.5223C220.797 91.8074 228.34 91.3664 234.978 91.3664C267.587 91.4017 303.252 87.3918 335.226 91.8074Z" fill="#1098AD"/>
<path d="M536.755 399.993H227.059C222.486 399.988 218.103 398.17 214.87 394.937C211.637 391.704 209.818 387.32 209.814 382.748V106.295C209.818 101.722 211.637 97.3389 214.87 94.1059C218.103 90.8728 222.486 89.0545 227.059 89.0498H536.755C541.327 89.0545 545.711 90.8728 548.944 94.1059C552.177 97.3389 553.995 101.722 554 106.295V382.754C553.994 387.325 552.175 391.707 548.942 394.939C545.709 398.17 541.326 399.988 536.755 399.993V399.993ZM227.059 93.7535C223.734 93.7566 220.545 95.0789 218.194 97.4302C215.843 99.7814 214.521 102.97 214.517 106.295V382.754C214.521 386.079 215.843 389.267 218.194 391.618C220.545 393.969 223.734 395.292 227.059 395.295H536.755C540.08 395.292 543.268 393.969 545.62 391.618C547.971 389.267 549.293 386.079 549.296 382.754V106.295C549.293 102.97 547.971 99.7814 545.62 97.4302C543.268 95.0789 540.08 93.7566 536.755 93.7535H227.059Z" fill="#314E5D"/>
<path d="M513.272 110.781H252.558C247.408 110.781 243.233 114.956 243.233 120.106V365.139C243.233 370.289 247.408 374.464 252.558 374.464H513.272C518.422 374.464 522.597 370.289 522.597 365.139V120.106C522.597 114.956 518.422 110.781 513.272 110.781Z" fill="white"/>
<path d="M522.15 118.26V169.459H242.769V118.26C242.769 114.332 246.767 111.145 251.7 111.145H513.219C518.152 111.145 522.15 114.332 522.15 118.26Z" fill="#DCEAEF"/>
<path d="M512.937 378.279H252.235C249.139 378.276 246.171 377.045 243.982 374.856C241.793 372.667 240.561 369.698 240.558 366.602V119.659C240.563 116.564 241.795 113.597 243.984 111.409C246.173 109.221 249.14 107.991 252.235 107.988H512.937C516.033 107.991 519.001 109.222 521.19 111.411C523.379 113.601 524.611 116.569 524.614 119.665V366.608C524.609 369.703 523.377 372.67 521.188 374.858C518.999 377.046 516.032 378.276 512.937 378.279V378.279ZM252.235 112.692C250.387 112.695 248.615 113.43 247.308 114.737C246.001 116.044 245.265 117.816 245.262 119.665V366.608C245.267 368.456 246.003 370.226 247.31 371.532C248.617 372.838 250.388 373.572 252.235 373.576H512.937C514.785 373.572 516.557 372.837 517.864 371.53C519.171 370.223 519.907 368.451 519.91 366.602V119.659C519.905 117.811 519.169 116.041 517.862 114.735C516.555 113.43 514.784 112.695 512.937 112.692H252.235Z" fill="#314E5D"/>
<path d="M393.111 145.253H274.29V155.519H393.111V145.253Z" fill="white"/>
<path d="M270.585 194.724H328.717V192.284H270.585V194.724Z" fill="#CED5D8"/>
<path d="M270.585 200.098L397.109 200.098V197.658L270.585 197.658V200.098Z" fill="#CED5D8"/>
<path d="M270.585 205.472H328.717V203.032H270.585V205.472Z" fill="#CED5D8"/>
<path d="M270.585 210.846L397.109 210.846V208.406L270.585 208.406V210.846Z" fill="#CED5D8"/>
<path d="M270.585 216.22H328.717V213.78H270.585V216.22Z" fill="#CED5D8"/>
<path d="M270.585 221.588L397.109 221.588V219.148L270.585 219.148V221.588Z" fill="#CED5D8"/>
<path d="M270.585 243.284H328.717V240.844H270.585V243.284Z" fill="#CED5D8"/>
<path d="M270.585 248.657L397.109 248.657V246.217L270.585 246.217V248.657Z" fill="#CED5D8"/>
<path d="M270.585 254.032H328.717V251.592H270.585V254.032Z" fill="#CED5D8"/>
<path d="M270.585 259.406H397.109V256.965H270.585V259.406Z" fill="#CED5D8"/>
<path d="M270.585 264.78H328.717V262.34H270.585V264.78Z" fill="#CED5D8"/>
<path d="M270.585 270.147H397.109V267.707H270.585V270.147Z" fill="#CED5D8"/>
<path d="M270.585 291.843H328.717V289.403H270.585V291.843Z" fill="#CED5D8"/>
<path d="M270.585 297.217H397.109V294.777H270.585V297.217Z" fill="#CED5D8"/>
<path d="M270.585 302.591H328.717V300.151H270.585V302.591Z" fill="#CED5D8"/>
<path d="M270.585 307.965H397.109V305.525H270.585V307.965Z" fill="#CED5D8"/>
<path d="M270.585 313.339H328.717V310.899H270.585V313.339Z" fill="#CED5D8"/>
<path d="M270.585 318.707H397.109V316.267H270.585V318.707Z" fill="#CED5D8"/>
<path d="M466.817 127.22H510.456V122.087H466.817V127.22Z" fill="#EEA248"/>
<path d="M417.158 127.22H460.797V122.087H417.158V127.22Z" fill="#EEA248"/>
<path d="M256.651 129.601C259.385 129.601 261.601 127.385 261.601 124.651C261.601 121.917 259.385 119.7 256.651 119.7C253.917 119.7 251.7 121.917 251.7 124.651C251.7 127.385 253.917 129.601 256.651 129.601Z" fill="#EEA248"/>
<path d="M431.671 310.264L415.886 325.233L447.916 359.009L463.701 344.04L431.671 310.264Z" fill="#314E5D"/>
<g opacity="0.5">
<path opacity="0.5" d="M417.976 310.798C438.548 291.289 439.41 258.797 419.902 238.225C400.393 217.653 367.901 216.791 347.329 236.299C326.757 255.808 325.894 288.3 345.403 308.872C364.912 329.445 397.404 330.307 417.976 310.798Z" fill="#8BDDEB"/>
<path opacity="0.5" d="M355.599 303.215C350.407 297.743 346.486 291.194 344.114 284.034C341.742 276.874 340.978 269.279 341.876 261.79C342.774 254.301 345.313 247.103 349.311 240.707C353.309 234.311 358.668 228.875 365.006 224.786C358.224 227.272 352.043 231.16 346.866 236.198C341.69 241.236 337.635 247.309 334.966 254.021C332.298 260.733 331.076 267.933 331.38 275.149C331.684 282.366 333.508 289.437 336.732 295.901C339.956 302.364 344.508 308.075 350.09 312.659C355.672 317.243 362.159 320.597 369.126 322.503C376.093 324.409 383.384 324.822 390.522 323.718C397.66 322.613 404.484 320.014 410.549 316.091C401.134 319.547 390.912 320.169 381.146 317.881C371.38 315.593 362.499 310.494 355.599 303.215V303.215Z" fill="#62D6F8"/>
</g>
<path d="M438.677 218.742C433.083 212.829 426.608 207.817 419.481 203.884C419.357 203.808 419.234 203.743 419.098 203.679C402.622 194.706 383.491 191.885 365.126 195.721C346.761 199.556 330.358 209.798 318.85 224.616C307.342 239.433 301.479 257.861 302.308 276.604C303.138 295.347 310.606 313.184 323.378 326.927C323.561 327.133 323.749 327.333 323.966 327.515C329.806 333.689 336.607 338.877 344.104 342.878L344.316 342.99C360.884 351.753 380.027 354.345 398.329 350.303C416.631 346.261 432.901 335.847 444.237 320.921C455.573 305.994 461.238 287.526 460.219 268.811C459.201 250.095 451.566 232.35 438.677 218.742V218.742ZM419.339 238.227C426.326 245.594 430.972 254.867 432.688 264.874C434.405 274.881 433.115 285.173 428.983 294.447C424.85 303.721 418.06 311.561 409.472 316.976C400.884 322.392 390.882 325.139 380.733 324.87C370.583 324.601 360.741 321.328 352.451 315.466C344.162 309.603 337.797 301.414 334.161 291.935C330.526 282.455 329.783 272.11 332.027 262.207C334.271 252.305 339.4 243.291 346.767 236.305C351.659 231.665 357.416 228.035 363.711 225.621C370.005 223.208 376.714 222.057 383.453 222.236C390.192 222.416 396.83 223.92 402.987 226.665C409.145 229.41 414.701 233.341 419.339 238.233V238.227Z" fill="#E7E7E7"/>
<path d="M444.222 319.189C430.798 331.92 413.334 339.54 394.871 340.722C376.408 341.905 358.115 336.574 343.177 325.659C328.24 314.744 317.603 298.936 313.119 280.986C308.636 263.037 310.589 244.084 318.639 227.426C312.132 236.285 307.542 246.403 305.165 257.134C302.787 267.866 302.673 278.976 304.831 289.754C306.988 300.532 311.369 310.742 317.695 319.732C324.02 328.721 332.15 336.293 341.566 341.964C350.982 347.635 361.477 351.28 372.381 352.667C383.286 354.054 394.359 353.152 404.895 350.018C415.431 346.885 425.197 341.589 433.571 334.468C441.945 327.348 448.743 318.56 453.529 308.665C450.743 312.441 447.629 315.962 444.222 319.189V319.189Z" fill="#CED0D0"/>
<path d="M381.975 354.967C368.439 354.973 355.118 351.581 343.234 345.101L342.94 344.942C325.681 335.447 312.434 320.034 305.64 301.545C305.487 301.145 305.34 300.727 305.205 300.298C299.837 284.855 299.243 268.155 303.5 252.37C307.757 236.585 316.666 222.447 329.07 211.796C341.473 201.146 356.796 194.476 373.043 192.654C389.29 190.833 405.709 193.945 420.163 201.585C420.321 201.662 420.48 201.75 420.633 201.838C435.848 210.018 448.067 222.825 455.523 238.408C462.978 253.99 465.285 271.54 462.108 288.52C458.931 305.5 450.436 321.029 437.85 332.862C425.265 344.695 409.242 352.218 392.099 354.343C388.74 354.758 385.359 354.966 381.975 354.967V354.967ZM382.11 196.805C369.865 196.81 357.799 199.744 346.919 205.362C336.039 210.981 326.662 219.121 319.57 229.102C312.477 239.084 307.876 250.618 306.15 262.741C304.425 274.863 305.624 287.223 309.649 298.787V298.858C309.761 299.21 309.891 299.563 310.02 299.91C316.422 317.351 328.917 331.888 345.198 340.838L345.403 340.95C361.455 349.73 380.116 352.483 398.02 348.712C415.923 344.941 431.888 334.895 443.035 320.386C454.181 305.877 459.774 287.862 458.803 269.591C457.833 251.321 450.363 233.999 437.743 220.753V220.753C432.12 214.808 425.579 209.805 418.369 205.936L418.281 205.883L418.093 205.783L418.005 205.736C406.949 199.875 394.624 196.814 382.11 196.823V196.805ZM382.11 327.221C381.622 327.221 381.14 327.221 380.652 327.221C366.495 327.028 352.988 321.245 343.08 311.132C333.171 301.019 327.664 287.397 327.76 273.239C327.856 259.081 333.548 245.536 343.593 235.559C353.639 225.581 367.222 219.982 381.381 219.982C395.539 219.982 409.123 225.581 419.168 235.559C429.213 245.536 434.905 259.081 435.001 273.239C435.098 287.397 429.591 301.019 419.682 311.132C409.773 321.245 396.267 327.028 382.11 327.221V327.221ZM382.045 224.551C369.508 224.525 357.446 229.34 348.373 237.992V237.992C340.151 245.789 334.888 256.196 333.479 267.439C332.07 278.681 334.603 290.065 340.646 299.65C346.689 309.235 355.868 316.427 366.62 320.003C377.372 323.579 389.031 323.316 399.611 319.259C410.19 315.202 419.036 307.603 424.641 297.756C430.246 287.908 432.263 276.422 430.349 265.254C428.435 254.086 422.707 243.927 414.143 236.509C405.578 229.09 394.707 224.87 383.38 224.569C382.945 224.569 382.506 224.569 382.063 224.569L382.045 224.551Z" fill="#314E5D"/>
<path d="M444.288 338.002L444.284 338.007C437.583 344.361 437.302 354.945 443.657 361.646L491.199 411.78C497.553 418.481 508.137 418.762 514.838 412.407L514.842 412.403C521.544 406.048 521.824 395.465 515.47 388.763L467.928 338.63C461.573 331.929 450.99 331.648 444.288 338.002Z" fill="#426372"/>
<path d="M502.642 419.337H502.118C499.615 419.281 497.147 418.728 494.858 417.712C492.569 416.696 490.504 415.236 488.783 413.416L441.247 363.275C439.523 361.457 438.174 359.318 437.277 356.979C436.38 354.64 435.953 352.147 436.019 349.643C436.085 347.139 436.644 344.673 437.664 342.385C438.683 340.097 440.144 338.032 441.961 336.308C443.779 334.584 445.918 333.235 448.257 332.338C450.596 331.441 453.088 331.014 455.593 331.08C458.097 331.146 460.563 331.705 462.851 332.725C465.139 333.744 467.204 335.205 468.928 337.022L516.47 387.146C519.939 390.822 521.811 395.723 521.677 400.776C521.542 405.829 519.412 410.623 515.753 414.11V414.11C512.22 417.478 507.523 419.35 502.642 419.337V419.337ZM455.081 335.788C452.275 335.794 449.532 336.622 447.191 338.168C444.849 339.714 443.011 341.912 441.902 344.49C440.794 347.068 440.465 349.914 440.954 352.677C441.444 355.441 442.731 358 444.657 360.041L492.194 410.17C494.823 412.925 498.435 414.528 502.242 414.629C506.049 414.73 509.741 413.322 512.513 410.711V410.711C515.268 408.082 516.871 404.47 516.972 400.663C517.073 396.856 515.665 393.164 513.054 390.391L465.518 340.262C464.175 338.845 462.556 337.717 460.762 336.947C458.967 336.178 457.034 335.783 455.081 335.788Z" fill="#314E5D"/>
<g opacity="0.5">
<path opacity="0.5" d="M460.314 344.272C466.194 349.211 470.739 355.355 476.23 360.67C477.865 362.252 480.346 359.759 478.723 358.177C473.232 352.885 468.687 346.718 462.807 341.779C461.079 340.326 458.574 342.808 460.314 344.272Z" fill="white"/>
<path opacity="0.5" d="M450.166 343.16C451.108 342.577 452.167 342.208 453.267 342.08C454.368 341.952 455.483 342.068 456.534 342.42C458.715 343.055 459.65 339.65 457.475 339.015C455.969 338.54 454.379 338.392 452.812 338.581C451.244 338.769 449.735 339.29 448.385 340.109C446.439 341.285 448.208 344.325 450.149 343.155L450.166 343.16Z" fill="white"/>
</g>
<path d="M401.606 209.082C410.984 211.934 419.804 216.496 427.13 223.005C436.431 231.236 442.758 242.043 446.627 253.779C447.332 255.925 450.742 255.008 450.031 252.838C445.98 240.55 439.371 229.149 429.629 220.5C421.821 213.574 412.496 208.741 402.553 205.672C400.378 205.008 399.449 208.412 401.612 209.076L401.606 209.082Z" fill="white"/>
<path d="M367.346 205.807C373.478 204.996 379.834 205.296 385.961 205.919C388.219 206.148 388.201 202.62 385.961 202.391C379.834 201.768 373.478 201.468 367.346 202.279C365.129 202.573 365.1 206.107 367.346 205.807Z" fill="white"/>
<path d="M82.8766 428.251L108.057 480.927L104.934 482.42C103.88 482.923 102.669 482.988 101.568 482.599C100.467 482.21 99.5647 481.399 99.0614 480.346L77.6791 435.616C77.1758 434.562 77.1111 433.352 77.4997 432.251C77.8889 431.149 78.6997 430.247 79.7534 429.744L82.8766 428.251Z" fill="#71C8EA"/>
<path d="M110.29 416.356L92.9125 423.54L102.661 437.326L118.067 432.625L110.29 416.356Z" fill="#FFCCB3"/>
<path d="M99.1902 424.09C99.1902 424.09 105.975 434.569 106.998 440.424C108.021 446.279 111.527 475.897 110.584 478.567C109.906 480.486 107.443 481.309 105.881 481.484C105.538 481.52 105.193 481.449 104.892 481.281C104.592 481.112 104.351 480.854 104.204 480.542L81.3467 432.726C80.9646 431.928 80.9111 431.013 81.1968 430.176C81.4832 429.339 82.0858 428.647 82.8766 428.251C86.0387 426.662 90.8758 424.281 92.9125 423.54C96.0605 422.394 98.1383 422.401 99.1902 424.09Z" fill="#5661AE"/>
<path d="M222.207 449.158L198.593 492.75C198.036 493.777 197.095 494.541 195.976 494.874C194.856 495.207 193.65 495.081 192.623 494.525L189.579 492.876L217.389 441.539L220.433 443.189C221.46 443.745 222.224 444.686 222.557 445.806C222.889 446.925 222.764 448.131 222.207 449.158Z" fill="#71C8EA"/>
<path d="M190.612 428.275L207.604 436.327L197.171 449.604L182.022 444.13L190.612 428.275Z" fill="#FFCCB3"/>
<path d="M201.307 436.56C201.307 436.56 194.001 446.682 192.683 452.478C191.365 458.274 186.368 487.677 187.175 490.392C187.755 492.343 190.172 493.289 191.724 493.542C192.064 493.596 192.413 493.543 192.722 493.389C193.03 493.236 193.284 492.99 193.447 492.686L218.691 446.087C219.113 445.309 219.213 444.397 218.969 443.547C218.726 442.696 218.159 441.976 217.39 441.539C214.312 439.793 209.6 437.171 207.604 436.328C204.518 435.024 202.443 434.926 201.307 436.56Z" fill="#5661AE"/>
<path d="M241.805 366.179C241.805 366.179 248.31 398.483 243.262 404.812L114.625 437.751L103.655 417.204L178.773 383.117L193.817 362.497L241.805 366.179Z" fill="#1F2D49"/>
<path d="M209.253 389.229L180.871 398.722L167.627 404.275L184.85 419.77L169.452 423.248L127.453 389.229H209.253Z" fill="#030518"/>
<path d="M111.716 414.509L112.589 417.543L132.532 433.11L151.266 428.539C151.266 428.539 115.126 411.34 111.716 414.509Z" fill="#1F2D49"/>
<path d="M147.82 364.294C147.82 364.294 111.446 362.321 93.4164 363.905C81.8071 364.926 77.622 394.634 86.8865 400.038L186.314 450.948L198.031 429.775L133.891 386.36L179.778 379.905L147.82 364.294Z" fill="#1F2D49"/>
<path d="M96.4738 402.567C107.216 402.567 115.924 393.859 115.924 383.117C115.924 372.374 107.216 363.666 96.4738 363.666C85.7312 363.666 77.0229 372.374 77.0229 383.117C77.0229 393.859 85.7312 402.567 96.4738 402.567Z" fill="#1F2D49"/>
<path d="M240.03 405.08C250.772 405.08 259.481 396.371 259.481 385.629C259.481 374.887 250.772 366.178 240.03 366.178C229.288 366.178 220.579 374.887 220.579 385.629C220.579 396.371 229.288 405.08 240.03 405.08Z" fill="#1F2D49"/>
<path d="M186.748 293.845C184.699 283.728 189.518 283.989 191.122 282.381C191.122 282.381 197.138 277.42 201.722 282.044C206.575 286.936 234.391 324.936 234.391 324.936L216.986 340.943L213.715 337.039L205.241 326.933L196.177 316.131L195.051 314.901L182.823 301.051C182.823 301.051 187.907 299.171 186.748 293.845Z" fill="#5661AE"/>
<path d="M196.4 304.004C203.404 301.657 207.181 294.077 204.835 287.073C202.489 280.068 194.909 276.292 187.904 278.638C180.9 280.984 177.123 288.564 179.469 295.569C181.816 302.573 189.396 306.349 196.4 304.004Z" fill="#5661AE"/>
<path d="M195.211 314.847C194.86 312.733 194.158 308.504 193.403 304.65L189.387 285.997C189.387 285.997 200.172 301.937 205.14 313.039C208.82 321.359 213.089 329.839 213.795 337.013L205.321 326.906L196.257 316.104L195.211 314.847Z" fill="#465393"/>
<path d="M251.775 282.154C255.91 274.611 253.923 273.331 255.682 269.038C257.416 264.85 254.338 254.469 257.285 255.885C260.23 257.3 261.142 261.062 261.142 261.062C263.157 257.498 265.013 250.94 269.836 250.189C274.66 249.438 275.087 250.956 277.821 253.2C285.094 259.252 275.819 268.347 274.271 271.811C273.275 273.981 265.957 280.6 265.146 282.047L261.463 287.39L251.775 282.154Z" fill="#FFCCB3"/>
<path d="M265.985 261.53L271.863 250.678L265.985 261.53Z" fill="#E56441"/>
<path d="M265.985 261.53L271.863 250.678" stroke="#E56441" stroke-width="0.556599" stroke-linecap="round"/>
<path d="M269.836 263.287L276.243 253.181L269.836 263.287Z" fill="#E56441"/>
<path d="M269.836 263.287L276.243 253.181" stroke="#E56441" stroke-width="0.556599" stroke-linecap="round"/>
<path d="M274.412 265.23L278.073 259.11L274.412 265.23Z" fill="#E56441"/>
<path d="M274.412 265.23L278.073 259.11" stroke="#E56441" stroke-width="0.556599" stroke-linecap="round"/>
<path d="M264.533 271.083C264.502 267.326 262.247 262.779 262.247 262.779L264.533 271.083Z" fill="#E56441"/>
<path d="M264.533 271.083C264.502 267.326 262.247 262.779 262.247 262.779" stroke="#E56441" stroke-width="0.556599" stroke-linecap="round"/>
<path d="M216.839 324.634L252.23 277.503C252.455 277.226 252.775 277.042 253.128 276.988C253.481 276.932 253.842 277.01 254.141 277.206L263.408 283.334C263.849 283.633 264.162 284.084 264.288 284.601C264.415 285.117 264.344 285.663 264.091 286.13L235.63 338.617L216.839 324.634Z" fill="#5661AE"/>
<path d="M225.438 344.54C231.983 344.54 237.29 339.235 237.29 332.689C237.29 326.144 231.983 320.837 225.438 320.837C218.893 320.837 213.586 326.144 213.586 332.689C213.586 339.235 218.893 344.54 225.438 344.54Z" fill="#5661AE"/>
<path d="M172.882 271.963C172.882 271.963 192.742 277.219 196.152 278.583C199.562 279.946 199.788 285.401 200.016 289.265C200.243 293.129 199.48 379.905 199.48 379.905L155.526 378.215L122.656 358.973C122.656 358.973 124.084 290.12 124.54 286.938C124.994 283.756 121.422 281.016 125.294 279.414L150.182 272.84L172.882 271.963Z" fill="#5661AE"/>
<path d="M139.808 302.876L140.162 366.99L121.266 345.929L130.408 300.881L139.808 302.876Z" fill="#465393"/>
<path d="M146.941 273.819C146.941 273.819 144.129 279.474 146.941 283.374C149.752 287.275 161.008 291.064 168.698 290.952C176.388 290.841 180.462 283.509 176.976 273.245L164.24 269.667L150.182 272.839L146.941 273.819Z" fill="#465393"/>
<path d="M178.774 225.086C178.774 225.086 184.312 237.035 178.406 239.504C172.499 241.972 173.187 225.666 178.774 225.086Z" fill="#93523E"/>
<path d="M172.528 263.322L174.13 281.387C174.13 281.387 175.666 283.809 169.684 285.08C165.837 285.899 155.475 281.817 153.465 280.592C152.61 280.138 151.941 279.4 151.572 278.506C151.202 277.612 151.156 276.616 151.442 275.692C152.052 273.481 154.584 255.065 154.584 255.065L172.528 263.322Z" fill="#FFCCB3"/>
<path d="M172.836 266.806L163.293 262.091L173.932 279.16L172.836 266.806Z" fill="#FF967C"/>
<path d="M175.594 228.545C175.594 228.545 181.195 242.591 183.226 252.445C185.276 262.386 182.006 264.869 177.69 266.332C174.287 267.485 168.852 268.404 165.154 267.247C158.412 265.136 151.817 259.044 150.239 257.793C147.797 255.856 145.385 247.068 148.965 242.097C152.545 237.125 166.65 221.502 175.594 228.545Z" fill="#FFCCB3"/>
<path d="M168.383 247.933C169.128 247.64 169.369 246.48 168.922 245.344C168.474 244.207 167.508 243.523 166.763 243.816C166.018 244.109 165.777 245.268 166.224 246.405C166.672 247.542 167.638 248.226 168.383 247.933Z" fill="#080B09"/>
<path d="M178.621 243.83C179.366 243.538 179.607 242.378 179.159 241.241C178.712 240.104 177.746 239.42 177.001 239.713C176.256 240.006 176.015 241.166 176.462 242.302C176.909 243.439 177.876 244.123 178.621 243.83Z" fill="#080B09"/>
<path d="M174.866 245.77C174.866 245.77 173.956 248.523 175.868 248.255C177.686 247.935 178.919 248.833 177.331 250.678" fill="#E56441"/>
<path d="M174.866 245.77C174.866 245.77 173.956 248.523 175.868 248.255C177.686 247.935 178.919 248.833 177.331 250.678" stroke="#E56441" stroke-width="0.556599" stroke-linecap="round"/>
<path d="M177.42 253.112L177.43 253.109L177.439 253.107C177.465 253.099 177.494 253.098 177.52 253.104C177.547 253.111 177.572 253.124 177.592 253.144C177.612 253.162 177.626 253.187 177.634 253.214C177.641 253.24 177.642 253.268 177.635 253.295L177.629 253.318L177.626 253.342C177.509 254.546 177.21 255.262 176.846 255.665C176.494 256.053 176.053 256.183 175.553 256.145C175.039 256.106 174.476 255.889 173.929 255.592C173.39 255.299 172.888 254.939 172.501 254.629C172.474 254.605 172.455 254.573 172.444 254.539C172.432 254.503 172.431 254.464 172.441 254.428C172.45 254.391 172.469 254.357 172.495 254.33C172.522 254.304 172.556 254.285 172.593 254.276L172.596 254.275C174.074 253.901 176.304 253.375 177.42 253.112Z" fill="#E56441" stroke="#E56441" stroke-width="0.58796"/>
<path d="M161.897 243.12L162.037 243.316C162.217 243.62 162.509 243.841 162.85 243.93C163.191 244.02 163.554 243.971 163.86 243.793L169.026 240.611C169.283 240.467 169.476 240.232 169.567 239.953C169.658 239.674 169.642 239.37 169.52 239.102C169.453 238.935 169.352 238.783 169.222 238.658C169.093 238.533 168.938 238.436 168.768 238.375C168.599 238.315 168.418 238.29 168.238 238.304C168.059 238.318 167.884 238.37 167.726 238.456L162.419 241.443C162.273 241.517 162.143 241.619 162.037 241.744C161.931 241.869 161.851 242.014 161.802 242.171C161.754 242.327 161.737 242.492 161.753 242.655C161.769 242.818 161.819 242.976 161.897 243.12Z" fill="#080B09"/>
<path d="M179.745 234.957L173.682 235.519C173.502 235.538 173.329 235.594 173.173 235.685C173.017 235.776 172.883 235.899 172.778 236.045C172.673 236.192 172.601 236.359 172.566 236.536C172.531 236.713 172.533 236.895 172.573 237.071C172.625 237.36 172.784 237.619 173.018 237.797C173.253 237.974 173.545 238.058 173.838 238.03L179.897 237.709C180.249 237.682 180.576 237.515 180.806 237.248C181.035 236.98 181.15 236.632 181.124 236.28L181.128 236.039C181.111 235.876 181.061 235.718 180.982 235.574C180.903 235.431 180.795 235.305 180.666 235.204C180.537 235.103 180.389 235.029 180.231 234.987C180.072 234.945 179.907 234.934 179.745 234.957Z" fill="#080B09"/>
<path d="M168.642 231.347C168.642 231.347 165.616 237.105 160.126 238.813C154.635 240.521 157.636 249.186 157.636 249.186C157.636 249.186 153.871 245.442 149.543 247.549C145.216 249.658 148.501 257.931 154.48 258.037L152.853 267.347C152.853 267.347 149.825 263.575 146.641 261.558C143.456 259.54 132.015 251.707 137.07 241.392C137.07 241.392 133.116 226.907 143.96 219.398C154.804 211.888 164.19 214.722 164.19 214.722C164.19 214.722 166.776 210.621 172.768 211.459C178.76 212.296 180.142 223.102 178.158 227.01C176.174 230.918 172.94 232.579 168.642 231.347Z" fill="#443015"/>
<path d="M123.463 289.081C131.089 282.125 133.341 286.393 135.545 286.943C135.545 286.943 142.892 289.556 141.28 295.864C139.576 302.541 121.266 345.929 121.266 345.929L98.591 339.221L100.26 334.409L104.576 321.946L109.187 308.62L109.664 307.022L115.263 289.416C115.263 289.416 119.489 292.811 123.463 289.081Z" fill="#5661AE"/>
<path d="M138.565 301.118C143.37 295.507 142.715 287.063 137.103 282.259C131.492 277.455 123.048 278.11 118.244 283.722C113.44 289.333 114.094 297.777 119.706 302.58C125.318 307.385 133.761 306.73 138.565 301.118Z" fill="#5661AE"/>
<path d="M119.021 335.272L161.118 376.523C161.363 376.783 161.503 377.124 161.511 377.481C161.519 377.838 161.395 378.186 161.162 378.457L153.875 386.842C153.521 387.24 153.033 387.492 152.504 387.55C151.975 387.607 151.443 387.466 151.013 387.153L102.7 352.073L119.021 335.272Z" fill="#5661AE"/>
<path d="M109.91 354.595C116.456 354.595 121.762 349.289 121.762 342.744C121.762 336.198 116.456 330.892 109.91 330.892C103.365 330.892 98.0583 336.198 98.0583 342.744C98.0583 349.289 103.365 354.595 109.91 354.595Z" fill="#5661AE"/>
<path d="M178.398 327.325L155.551 390.62H109.615C109.615 388.688 110.383 386.835 111.75 385.468C113.117 384.101 114.97 383.333 116.902 383.333H150.136L169.864 327.325H178.398Z" fill="white"/>
<path d="M178.398 327.325H240.03L216.194 390.621H155.551L178.398 327.325Z" fill="url(#paint0_linear_768_455)"/>
<path d="M374.113 245.366C373.672 245.366 373.241 245.235 372.874 244.99C372.507 244.745 372.221 244.397 372.052 243.989C371.883 243.582 371.839 243.133 371.925 242.7C372.011 242.268 372.224 241.87 372.536 241.558C372.848 241.246 373.245 241.034 373.678 240.948C374.111 240.861 374.559 240.906 374.967 241.074C375.374 241.243 375.723 241.529 375.968 241.896C376.213 242.263 376.344 242.694 376.344 243.135C376.343 243.727 376.108 244.294 375.69 244.712C375.272 245.13 374.705 245.366 374.113 245.366V245.366ZM374.113 242.594C374.006 242.594 373.901 242.625 373.812 242.685C373.723 242.744 373.653 242.829 373.612 242.928C373.571 243.027 373.561 243.136 373.582 243.241C373.603 243.346 373.654 243.443 373.73 243.519C373.806 243.594 373.902 243.646 374.007 243.667C374.113 243.688 374.221 243.677 374.32 243.636C374.419 243.595 374.504 243.526 374.564 243.437C374.623 243.347 374.655 243.243 374.655 243.135C374.655 243.064 374.641 242.994 374.614 242.928C374.586 242.862 374.547 242.803 374.496 242.752C374.446 242.702 374.386 242.662 374.32 242.635C374.255 242.608 374.184 242.594 374.113 242.594V242.594Z" fill="#E7F6FF"/>
<path d="M378.093 244.221C378.525 244.221 378.876 243.871 378.876 243.439C378.876 243.007 378.525 242.656 378.093 242.656C377.661 242.656 377.311 243.007 377.311 243.439C377.311 243.871 377.661 244.221 378.093 244.221Z" fill="#E7F6FF"/>
<g opacity="0.5">
<path opacity="0.5" d="M389.436 284.26V285.978C388.939 287.559 388.158 289.408 387.132 291.447C386.709 292.257 386.258 293.111 385.773 293.989C386.104 293.426 386.422 292.876 386.729 292.327C386.372 293.005 385.993 293.711 385.593 294.427V291.753L385.712 291.529L385.593 291.74V291.642C385.772 291.305 385.945 290.976 386.114 290.656C387.227 288.441 388.054 286.452 388.54 284.786C388.843 284.616 389.141 284.44 389.436 284.26Z" fill="#BBD2E5"/>
</g>
<path d="M396.829 259.301C396.812 267.112 390.408 273.485 382.6 273.468C375.837 273.454 370.148 268.649 368.759 262.288C368.615 261.47 368.544 260.642 368.546 259.812C368.563 252.005 374.967 245.628 382.774 245.645C389.53 245.659 395.209 250.451 396.611 256.796C396.61 256.799 396.61 256.802 396.611 256.806C396.757 257.629 396.83 258.464 396.829 259.301V259.301Z" fill="white"/>
<path d="M381.767 239.582C368.634 239.554 360.452 247.819 360.42 260.833C360.411 264.856 362.531 271.13 366.179 278.708C367.829 281.907 369.838 285.464 371.95 289.015C374.542 293.397 377.373 297.782 380.204 301.81L381.62 303.707C382.095 303.115 382.569 302.525 383.043 301.815C385.893 297.682 388.74 293.427 391.347 289.057C393.485 285.512 395.386 281.966 397.049 278.775C400.849 271.212 402.995 264.946 403.004 260.923C403.044 248.265 394.545 239.61 381.767 239.582ZM381.692 273.889C373.883 273.872 367.508 267.471 367.525 259.661C367.541 251.851 373.945 245.481 381.754 245.498C389.562 245.515 395.938 251.917 395.921 259.726C395.904 267.534 389.501 273.91 381.692 273.889Z" fill="#66D9E8"/>
<path d="M397.229 280.355C395.768 283.123 394.139 286.103 392.342 289.081C389.731 293.451 386.883 297.706 384.038 301.84C383.564 302.543 383.09 303.139 382.614 303.731L381.194 301.835C378.362 297.807 375.532 293.423 372.946 289.042C370.822 285.486 368.819 281.933 367.175 278.735C363.516 271.154 361.396 264.879 361.405 260.856C361.416 255.485 362.812 250.925 365.38 247.421C364.365 250.064 363.831 253.074 363.82 256.393C363.812 260.416 365.931 266.691 369.579 274.268C371.229 277.465 373.232 281.023 375.35 284.574C377.942 288.956 380.773 293.34 383.603 297.368L385.019 299.265C385.495 298.673 385.969 298.083 386.443 297.374C389.292 293.24 392.141 288.985 394.747 284.615C395.62 283.191 396.443 281.761 397.229 280.355Z" fill="#61BBC7"/>
<path d="M382.582 305.115L380.389 302.175C377.549 298.135 374.68 293.689 372.092 289.315C369.875 285.603 367.87 282.02 366.289 278.957L366.278 278.933C362.382 270.849 360.411 264.689 360.42 260.629C360.434 253.96 362.531 248.354 366.472 244.414C370.413 240.475 376.014 238.392 382.682 238.392H382.75C389.274 238.406 394.855 240.559 398.876 244.617C402.897 248.675 404.998 254.23 404.985 260.721C404.977 264.821 402.874 271.147 398.926 279.018V279.031C397.443 281.878 395.451 285.624 393.195 289.367C390.4 294.045 387.409 298.467 384.853 302.175C384.368 302.899 383.878 303.51 383.405 304.101L382.582 305.115ZM381.992 301.033L382.629 301.888C382.825 301.629 383.019 301.358 383.214 301.068C385.754 297.364 388.729 292.981 391.496 288.349C393.726 284.655 395.696 280.945 397.167 278.124C400.984 270.532 403.005 264.514 403.014 260.718C403.04 248.569 394.894 240.389 382.746 240.362H382.682C370.19 240.362 362.417 248.123 362.39 260.629C362.382 264.338 364.338 270.366 368.047 278.065C369.606 281.09 371.591 284.631 373.791 288.307C376.348 292.636 379.184 297.035 381.992 301.023V301.033ZM382.705 274.677H382.672C378.644 274.673 374.783 273.069 371.938 270.218C369.092 267.366 367.496 263.502 367.501 259.474C367.505 255.446 369.109 251.585 371.96 248.74C374.812 245.895 378.676 244.299 382.704 244.303H382.738C385.741 244.306 388.676 245.201 391.17 246.874C393.664 248.546 395.605 250.922 396.748 253.699C397.89 256.476 398.183 259.53 397.588 262.474C396.993 265.418 395.538 268.118 393.406 270.234C392.003 271.643 390.336 272.76 388.499 273.522C386.663 274.284 384.694 274.675 382.705 274.673V274.677ZM382.705 246.282C379.225 246.314 375.897 247.718 373.446 250.189C370.995 252.661 369.618 256 369.614 259.48C369.61 262.961 370.98 266.303 373.426 268.78C375.872 271.256 379.197 272.667 382.677 272.707H382.707C386.212 272.71 389.575 271.321 392.056 268.845C394.538 266.369 395.933 263.009 395.937 259.504C395.94 255.998 394.551 252.635 392.075 250.154C389.599 247.673 386.239 246.277 382.734 246.273L382.705 246.282Z" fill="#426572"/>
<path d="M399.713 252.39C400.121 253.383 400.44 254.411 400.664 255.461C400.712 255.703 400.749 255.941 400.788 256.165C400.828 256.389 400.871 256.618 400.885 256.836L400.943 257.467C400.959 257.67 400.982 257.863 400.98 258.048C400.98 258.42 400.987 258.752 400.98 259.049C400.973 259.346 400.937 259.597 400.912 259.802C400.859 260.214 400.792 260.44 400.719 260.44C400.646 260.44 400.569 260.214 400.493 259.813C400.453 259.612 400.424 259.367 400.377 259.084C400.331 258.801 400.272 258.48 400.218 258.127C400.196 257.95 400.151 257.767 400.114 257.575L399.999 256.98C399.966 256.773 399.902 256.565 399.858 256.348C399.814 256.131 399.757 255.908 399.697 255.681C399.431 254.702 399.104 253.739 398.719 252.8C398.32 251.867 397.859 250.962 397.34 250.091L396.981 249.511L396.621 248.972C396.508 248.794 396.389 248.632 396.275 248.475C396.161 248.317 396.055 248.162 395.948 248.019C395.091 246.873 394.5 246.189 394.607 246.072C394.714 245.955 395.484 246.461 396.528 247.525C396.659 247.657 396.787 247.806 396.923 247.954C397.06 248.102 397.205 248.262 397.336 248.435C397.467 248.609 397.617 248.783 397.758 248.969L398.18 249.559C398.779 250.452 399.292 251.4 399.713 252.39V252.39Z" fill="white"/>
<path d="M391.27 242.943C392.207 243.487 392.767 244.203 392.593 244.438C392.418 244.673 391.608 244.383 390.728 243.875C389.848 243.367 389.201 242.826 389.306 242.553C389.412 242.28 390.335 242.397 391.27 242.943Z" fill="white"/>
<path d="M390.998 257.094V262.807H390.578V257.636V256.865L390.998 257.094ZM382.392 252.4L390.312 256.72L389.647 257.083L387.968 257.998L387.64 258.177V258.551V263.214L382.392 266.078L377.145 263.214V258.551V258.177L376.817 257.998L374.472 256.72L382.392 252.4ZM388.42 257.273L389.433 256.721L388.42 256.168L382.694 253.045L382.392 252.88L382.091 253.045L376.365 256.168L375.352 256.721L376.365 257.273L382.091 260.397L382.392 260.561L382.694 260.397L388.42 257.273ZM386.892 263.142L387.22 262.963V262.589V259.466V258.405L386.288 258.913L382.392 261.041L378.496 258.913L377.565 258.405V259.466V262.589V262.963L377.893 263.142L382.091 265.434L382.392 265.599L382.694 265.434L386.892 263.142Z" fill="white" stroke="#282C4D" stroke-width="1.25935"/>
<defs>
<linearGradient id="paint0_linear_768_455" x1="195.688" y1="327.175" x2="206.645" y2="462.062" gradientUnits="userSpaceOnUse">
<stop stop-color="white"/>
<stop offset="1" stop-color="#94B9FF"/>
</linearGradient>
</defs>
</svg>
