<svg width="534" height="424" viewBox="0 0 534 424" fill="none" xmlns="http://www.w3.org/2000/svg">
<path opacity="0.2" d="M5.34921 94.7176C20.3086 53.6662 63.94 14.6693 202.314 3.49254C390.553 -11.7118 497 24.5 523 77.7355C547.728 128.366 471.755 162.162 509.498 228.748C524.367 254.982 508.032 269.885 478.457 305.748C330.847 484.74 51.474 420.5 10.5 363.5C-18.0733 323.751 91.3656 263.484 51.474 207.229C21.2486 164.604 -13.4167 146.215 5.34921 94.7176Z" fill="black"/>
<path d="M461.777 57.0474H365.583C362.571 57.0474 360.13 59.4887 360.13 62.5006V80.0881C360.13 83.0999 362.571 85.5412 365.583 85.5412H461.777C464.788 85.5412 467.23 83.0999 467.23 80.0881V62.5006C467.23 59.4887 464.788 57.0474 461.777 57.0474Z" fill="#66D9E8"/>
<path d="M455.163 68.3597C454.87 65.3983 452.83 62.4505 449.241 62.4505C445.652 62.4505 443.621 65.3983 443.323 68.3597C442.871 72.9326 445.954 77.0721 449.241 80.8505C452.536 77.0721 455.619 72.9326 455.163 68.3597ZM449.241 71.6505C448.6 71.6496 447.972 71.4582 447.44 71.1011C446.907 70.7441 446.492 70.2367 446.243 69.6435C446 69.0503 445.936 68.398 446.063 67.7687C446.189 67.1395 446.496 66.5616 446.952 66.108C447.403 65.6547 447.986 65.346 448.613 65.2209C449.241 65.0963 449.895 65.1609 450.487 65.4064C451.083 65.6525 451.588 66.0682 451.945 66.6018C452.301 67.1354 452.491 67.7629 452.491 68.4048C452.491 68.8314 452.41 69.2544 452.243 69.6485C452.08 70.043 451.841 70.401 451.538 70.7025C451.236 71.0041 450.879 71.2434 450.487 71.4059C450.089 71.5684 449.665 71.6514 449.241 71.6505Z" fill="#F4F4F4"/>
<path d="M431.906 68.049H375.636C375.397 68.049 375.167 67.9538 374.998 67.7845C374.829 67.6152 374.734 67.3859 374.734 67.1462C374.734 66.9069 374.829 66.6772 374.998 66.5079C375.167 66.3386 375.397 66.2433 375.636 66.2433H431.906C432.145 66.2433 432.376 66.3386 432.547 66.5079C432.714 66.6772 432.809 66.9069 432.809 67.1462C432.809 67.3859 432.714 67.6152 432.547 67.7845C432.376 67.9538 432.145 68.049 431.906 68.049Z" fill="#F4F4F4"/>
<path d="M401.959 76.7073H375.636C375.397 76.7073 375.167 76.6121 374.998 76.4428C374.829 76.2735 374.734 76.0437 374.734 75.8045C374.734 75.5648 374.829 75.3354 374.998 75.1661C375.167 74.9964 375.397 74.9016 375.636 74.9016H401.959C402.198 74.9016 402.428 74.9964 402.6 75.1661C402.767 75.3354 402.862 75.5648 402.862 75.8045C402.862 76.0437 402.767 76.2735 402.6 76.4428C402.428 76.6121 402.198 76.7073 401.959 76.7073Z" fill="#F4F4F4"/>
<path d="M423.239 76.8834H407.191C406.951 76.8834 406.721 76.7886 406.554 76.6193C406.383 76.45 406.288 76.2202 406.288 75.9805C406.288 75.7413 406.383 75.5115 406.554 75.3422C406.721 75.1729 406.951 75.0777 407.191 75.0777H423.239C423.478 75.0777 423.708 75.1729 423.875 75.3422C424.047 75.5115 424.142 75.7413 424.142 75.9805C424.142 76.2202 424.047 76.45 423.875 76.6193C423.708 76.7886 423.478 76.8834 423.239 76.8834Z" fill="#F4F4F4"/>
<path d="M420.49 121.149H516.683C519.694 121.149 522.136 118.708 522.136 115.696V98.1088C522.136 95.0969 519.694 92.6556 516.683 92.6556H420.49C417.479 92.6556 415.036 95.0969 415.036 98.1088V115.696C415.036 118.708 417.479 121.149 420.49 121.149Z" fill="#66D9E8"/>
<path d="M433.021 116.463C436.312 112.685 439.395 108.541 438.944 103.972C438.646 101.011 436.605 98.0632 433.021 98.0632C429.437 98.0632 427.392 101.011 427.098 103.995C426.647 108.541 429.73 112.685 433.021 116.463ZM429.775 104.018C429.775 103.376 429.965 102.748 430.322 102.213C430.678 101.679 431.184 101.262 431.775 101.016C432.371 100.77 433.021 100.705 433.653 100.829C434.281 100.954 434.863 101.263 435.314 101.717C435.77 102.17 436.077 102.749 436.204 103.378C436.33 104.008 436.267 104.661 436.023 105.254C435.775 105.848 435.359 106.355 434.827 106.712C434.29 107.068 433.662 107.259 433.021 107.259C432.163 107.259 431.337 106.917 430.728 106.31C430.118 105.702 429.775 104.878 429.775 104.018Z" fill="#F4F4F4"/>
<path d="M450.374 103.662H506.63C506.869 103.662 507.1 103.567 507.267 103.398C507.438 103.228 507.533 102.999 507.533 102.759C507.533 102.52 507.438 102.29 507.267 102.121C507.1 101.951 506.869 101.857 506.63 101.857H450.374C450.135 101.857 449.904 101.951 449.737 102.121C449.566 102.29 449.471 102.52 449.471 102.759C449.471 102.999 449.566 103.228 449.737 103.398C449.904 103.567 450.135 103.662 450.374 103.662Z" fill="#F4F4F4"/>
<path d="M480.303 112.315H506.63C506.87 112.315 507.1 112.22 507.271 112.051C507.438 111.881 507.533 111.651 507.533 111.412C507.533 111.173 507.438 110.943 507.271 110.774C507.1 110.604 506.87 110.509 506.63 110.509H480.303C480.064 110.509 479.834 110.604 479.667 110.774C479.495 110.943 479.4 111.173 479.4 111.412C479.4 111.651 479.495 111.881 479.667 112.051C479.834 112.22 480.064 112.315 480.303 112.315Z" fill="#F4F4F4"/>
<path d="M459.028 112.495H475.076C475.315 112.495 475.545 112.4 475.712 112.23C475.884 112.061 475.979 111.832 475.979 111.592C475.979 111.353 475.884 111.123 475.712 110.954C475.545 110.784 475.315 110.689 475.076 110.689H459.028C458.788 110.689 458.558 110.784 458.387 110.954C458.22 111.123 458.125 111.353 458.125 111.592C458.125 111.832 458.22 112.061 458.387 112.23C458.558 112.4 458.788 112.495 459.028 112.495Z" fill="#F4F4F4"/>
<path d="M127.1 245.458V364.525L127.141 364.453H144.304V245.458H127.1Z" fill="#DADDDF"/>
<path opacity="0.1" d="M127.1 245.458V364.525L127.141 364.453H144.304V245.458H127.1Z" fill="black"/>
<path d="M127.101 243.725H80.6179V364.525H127.101V243.725Z" fill="#66D9E8"/>
<path d="M144.305 251.923H131.354V258.08H144.305V251.923Z" fill="#B2B6BB"/>
<path d="M144.305 262.052H131.354V268.209H144.305V262.052Z" fill="#B2B6BB"/>
<path d="M144.305 272.182H131.354V278.339H144.305V272.182Z" fill="#B2B6BB"/>
<path d="M144.305 283.81H131.354V289.967H144.305V283.81Z" fill="#B2B6BB"/>
<path d="M144.305 294.573H131.354V300.731H144.305V294.573Z" fill="#B2B6BB"/>
<path d="M144.305 305.339H131.354V311.496H144.305V305.339Z" fill="#B2B6BB"/>
<path d="M144.305 317.203H131.354V323.36H144.305V317.203Z" fill="#B2B6BB"/>
<path d="M144.305 329.066H131.354V335.223H144.305V329.066Z" fill="#B2B6BB"/>
<path d="M144.31 347.082H131.354V340.929H144.061" fill="#B2B6BB"/>
<path d="M144.31 352.793H131.354V358.95H144.31V352.793Z" fill="#B2B6BB"/>
<path d="M144.31 352.793H131.354V358.945H144.246L144.31 352.793Z" fill="#B2B6BB"/>
<path d="M127.101 243.725H80.6179V364.525H127.101V243.725Z" fill="#DADDDF"/>
<path d="M123.047 251.926H84.6756V258.079H123.047V251.926Z" fill="#B2B6BB"/>
<g opacity="0.2">
<g opacity="0.2">
<path opacity="0.2" d="M123.047 251.926H86.1653V258.079H123.047V251.926Z" fill="white"/>
</g>
</g>
<path d="M123.047 262.283H84.6756V268.436H123.047V262.283Z" fill="#B2B6BB"/>
<g opacity="0.2">
<g opacity="0.2">
<path opacity="0.2" d="M123.047 262.283H86.1653V268.436H123.047V262.283Z" fill="white"/>
</g>
</g>
<path d="M123.047 273.048H84.6756V279.201H123.047V273.048Z" fill="#B2B6BB"/>
<g opacity="0.2">
<g opacity="0.2">
<path opacity="0.2" d="M123.047 273.048H86.1653V279.201H123.047V273.048Z" fill="white"/>
</g>
</g>
<path d="M123.047 283.81H84.6756V289.963H123.047V283.81Z" fill="#B2B6BB"/>
<g opacity="0.2">
<g opacity="0.2">
<path opacity="0.2" d="M123.047 283.81H86.1653V289.963H123.047V283.81Z" fill="white"/>
</g>
</g>
<path d="M123.047 294.577H84.6756V300.73H123.047V294.577Z" fill="#B2B6BB"/>
<g opacity="0.2">
<g opacity="0.2">
<path opacity="0.2" d="M123.047 294.614H86.1653V300.767H123.047V294.614Z" fill="white"/>
</g>
</g>
<path d="M123.047 305.339H84.6756V311.492H123.047V305.339Z" fill="#B2B6BB"/>
<g opacity="0.2">
<g opacity="0.2">
<path opacity="0.2" d="M123.047 305.339H86.1653V311.492H123.047V305.339Z" fill="white"/>
</g>
</g>
<path d="M123.047 317.203H84.6756V323.356H123.047V317.203Z" fill="#B2B6BB"/>
<g opacity="0.2">
<g opacity="0.2">
<path opacity="0.2" d="M123.047 317.203H86.1653V323.356H123.047V317.203Z" fill="white"/>
</g>
</g>
<path d="M123.047 329.066H84.6756V335.219H123.047V329.066Z" fill="#B2B6BB"/>
<g opacity="0.2">
<g opacity="0.2">
<path opacity="0.2" d="M123.047 329.066H86.1653V335.219H123.047V329.066Z" fill="white"/>
</g>
</g>
<path d="M123.047 340.929H84.6756V347.082H123.047V340.929Z" fill="#B2B6BB"/>
<g opacity="0.2">
<g opacity="0.2">
<path opacity="0.2" d="M123.047 340.929H86.1653V347.082H123.047V340.929Z" fill="white"/>
</g>
</g>
<path d="M123.047 352.793H84.6756V358.945H123.047V352.793Z" fill="#B2B6BB"/>
<g opacity="0.2">
<g opacity="0.2">
<path opacity="0.2" d="M123.047 352.793H86.1653V358.945H123.047V352.793Z" fill="white"/>
</g>
</g>
<path d="M143.311 240.14H127.1V242.51H143.311V240.14Z" fill="#66D9E8"/>
<path d="M143.312 239.562H80.6179V242.509H143.312V239.562Z" fill="#DADDDF"/>
<path d="M145.51 242.51H79.3043V245.458H145.51V242.51Z" fill="#B2B6BB"/>
<path d="M145.51 237.192H79.3043V240.139H145.51V237.192Z" fill="#B2B6BB"/>
<path d="M145.51 242.51H79.3043V245.458H145.51V242.51Z" fill="#B2B6BB"/>
<path d="M145.51 242.51H79.3043V245.458H145.51V242.51Z" fill="#B2B6BB"/>
<path d="M145.51 237.192H79.3043V240.139H145.51V237.192Z" fill="#B2B6BB"/>
<path d="M145.51 237.192H79.3043V240.139H145.51V237.192Z" fill="#B2B6BB"/>
<g opacity="0.2">
<g opacity="0.2">
<path opacity="0.2" d="M145.509 242.51H127.1V245.458H145.509V242.51Z" fill="black"/>
</g>
</g>
<g opacity="0.2">
<g opacity="0.2">
<path opacity="0.2" d="M145.509 237.192H127.1V240.139H145.509V237.192Z" fill="black"/>
</g>
</g>
<g opacity="0.2">
<g opacity="0.2">
<path opacity="0.2" d="M143.311 240.14H127.1V242.51H143.311V240.14Z" fill="black"/>
</g>
</g>
<path d="M206.8 206.387H142.689V365.487H206.8V206.387Z" fill="#DADDDF"/>
<path d="M221.967 206.384H141.005V208.975H221.967V206.384Z" fill="#B2B6BB"/>
<path d="M221.967 201.187H141.005V203.792H221.967V201.187Z" fill="#B2B6BB"/>
<path d="M220.269 203.791H142.692V206.383H220.269V203.791Z" fill="#DADDDF"/>
<path d="M160.817 215.75H148.778V228.277H160.817V215.75Z" fill="#B2B6BB"/>
<path opacity="0.1" d="M160.818 215.75H149.839V228.277H160.818V215.75Z" fill="white"/>
<path d="M179.05 215.75H167.011V228.277H179.05V215.75Z" fill="#B2B6BB"/>
<path opacity="0.1" d="M179.051 215.75H168.072V228.277H179.051V215.75Z" fill="white"/>
<path d="M197.284 215.75H185.244V228.277H197.284V215.75Z" fill="#B2B6BB"/>
<path opacity="0.1" d="M197.284 215.75H186.305V228.277H197.284V215.75Z" fill="white"/>
<path d="M160.817 234.199H148.778V246.726H160.817V234.199Z" fill="#B2B6BB"/>
<path opacity="0.1" d="M160.818 234.199H149.839V246.726H160.818V234.199Z" fill="white"/>
<path d="M179.05 234.199H167.011V246.726H179.05V234.199Z" fill="#B2B6BB"/>
<path opacity="0.1" d="M179.051 234.199H168.072V246.726H179.051V234.199Z" fill="white"/>
<path d="M197.284 234.199H185.244V246.726H197.284V234.199Z" fill="#B2B6BB"/>
<path opacity="0.1" d="M197.284 234.199H186.305V246.726H197.284V234.199Z" fill="white"/>
<path d="M160.817 267.984H148.778V280.511H160.817V267.984Z" fill="#B2B6BB"/>
<path opacity="0.1" d="M160.818 267.984H149.839V280.511H160.818V267.984Z" fill="white"/>
<path d="M179.05 267.984H167.011V280.511H179.05V267.984Z" fill="#B2B6BB"/>
<path opacity="0.1" d="M179.051 267.984H168.072V280.511H179.051V267.984Z" fill="white"/>
<path d="M197.284 267.984H185.244V280.511H197.284V267.984Z" fill="#B2B6BB"/>
<path opacity="0.1" d="M197.284 267.984H186.305V280.511H197.284V267.984Z" fill="white"/>
<path d="M160.817 286.434H148.778V298.961H160.817V286.434Z" fill="#B2B6BB"/>
<path opacity="0.1" d="M160.818 286.434H149.839V298.961H160.818V286.434Z" fill="white"/>
<path d="M179.05 286.434H167.011V298.961H179.05V286.434Z" fill="#B2B6BB"/>
<path opacity="0.1" d="M179.051 286.434H168.072V298.961H179.051V286.434Z" fill="white"/>
<path d="M197.284 286.434H185.244V298.961H197.284V286.434Z" fill="#B2B6BB"/>
<path d="M221.046 208.983H206.8V365.487H221.046V208.983Z" fill="#DADDDF"/>
<path opacity="0.1" d="M221.046 208.983H206.8V365.487H221.046V208.983Z" fill="black"/>
<path opacity="0.1" d="M197.284 286.434H186.305V298.961H197.284V286.434Z" fill="white"/>
<path d="M160.817 323.979H148.778V336.505H160.817V323.979Z" fill="#B2B6BB"/>
<path opacity="0.1" d="M160.818 323.979H149.839V336.505H160.818V323.979Z" fill="white"/>
<path d="M179.05 323.979H167.011V336.505H179.05V323.979Z" fill="#B2B6BB"/>
<path opacity="0.1" d="M179.051 323.979H168.072V336.505H179.051V323.979Z" fill="white"/>
<path d="M197.284 323.979H185.244V336.505H197.284V323.979Z" fill="#B2B6BB"/>
<path opacity="0.1" d="M197.284 323.979H186.305V336.505H197.284V323.979Z" fill="white"/>
<path d="M160.817 342.423H148.778V354.95H160.817V342.423Z" fill="#B2B6BB"/>
<path opacity="0.1" d="M160.818 342.423H149.839V354.95H160.818V342.423Z" fill="white"/>
<path d="M179.05 342.423H167.011V354.95H179.05V342.423Z" fill="#B2B6BB"/>
<path opacity="0.1" d="M179.051 342.423H168.072V354.95H179.051V342.423Z" fill="white"/>
<path d="M197.284 342.423H185.244V354.95H197.284V342.423Z" fill="#B2B6BB"/>
<path opacity="0.1" d="M197.284 342.423H186.305V354.95H197.284V342.423Z" fill="white"/>
<path d="M221.047 255.538H142.689V256.698H221.047V255.538Z" fill="#F4F4F4"/>
<path d="M221.047 313.285H142.689V314.445H221.047V313.285Z" fill="#F4F4F4"/>
<g opacity="0.2">
<g opacity="0.2">
<path opacity="0.2" d="M221.967 206.384H206.8V208.979H221.967V206.384Z" fill="black"/>
</g>
</g>
<g opacity="0.2">
<g opacity="0.2">
<path opacity="0.2" d="M221.967 201.192H206.8V203.788H221.967V201.192Z" fill="black"/>
</g>
</g>
<g opacity="0.2">
<g opacity="0.2">
<path opacity="0.2" d="M220.27 203.793H206.8V206.384H220.27V203.793Z" fill="black"/>
</g>
</g>
<path d="M412.955 217.343V365.482L413 365.396H434.357V217.343H412.955Z" fill="#DADDDF"/>
<path opacity="0.1" d="M412.955 217.343V365.482L413 365.396H434.357V217.343H412.955Z" fill="black"/>
<path d="M412.951 215.19H355.118V365.487H412.951V215.19Z" fill="#66D9E8"/>
<path d="M434.362 225.387H418.246V233.048H434.362V225.387Z" fill="#B2B6BB"/>
<path d="M434.362 237.99H418.246V245.651H434.362V237.99Z" fill="#B2B6BB"/>
<path d="M434.362 250.59H418.246V258.25H434.362V250.59Z" fill="#B2B6BB"/>
<path d="M434.362 265.063H418.246V272.724H434.362V265.063Z" fill="#B2B6BB"/>
<path d="M434.362 278.453H418.246V286.113H434.362V278.453Z" fill="#B2B6BB"/>
<path d="M434.362 291.845H418.246V299.506H434.362V291.845Z" fill="#B2B6BB"/>
<path d="M434.362 306.607H418.246V314.267H434.362V306.607Z" fill="#B2B6BB"/>
<path d="M434.362 321.369H418.246V329.03H434.362V321.369Z" fill="#B2B6BB"/>
<path d="M434.362 343.787H418.246V336.126H434.05" fill="#B2B6BB"/>
<path d="M434.366 350.888H418.246V358.548H434.366V350.888Z" fill="#B2B6BB"/>
<path d="M434.362 350.888H418.246V358.544H434.285L434.362 350.888Z" fill="#B2B6BB"/>
<path d="M412.951 215.19H355.118V365.487H412.951V215.19Z" fill="#DADDDF"/>
<path d="M407.904 225.393H360.165V233.049H407.904V225.393Z" fill="#B2B6BB"/>
<g opacity="0.2">
<g opacity="0.2">
<path opacity="0.2" d="M407.909 225.393H362.022V233.049H407.909V225.393Z" fill="white"/>
</g>
</g>
<path d="M407.904 238.276H360.165V245.932H407.904V238.276Z" fill="#B2B6BB"/>
<g opacity="0.2">
<g opacity="0.2">
<path opacity="0.2" d="M407.909 238.276H362.022V245.932H407.909V238.276Z" fill="white"/>
</g>
</g>
<path d="M407.904 251.669H360.165V259.325H407.904V251.669Z" fill="#B2B6BB"/>
<g opacity="0.2">
<g opacity="0.2">
<path opacity="0.2" d="M407.909 251.669H362.022V259.325H407.909V251.669Z" fill="white"/>
</g>
</g>
<path d="M407.904 265.063H360.165V272.72H407.904V265.063Z" fill="#B2B6BB"/>
<g opacity="0.2">
<g opacity="0.2">
<path opacity="0.2" d="M407.909 265.063H362.022V272.72H407.909V265.063Z" fill="white"/>
</g>
</g>
<path d="M407.904 278.456H360.165V286.112H407.904V278.456Z" fill="#B2B6BB"/>
<g opacity="0.2">
<g opacity="0.2">
<path opacity="0.2" d="M407.909 278.502H362.022V286.158H407.909V278.502Z" fill="white"/>
</g>
</g>
<path d="M407.904 291.851H360.165V299.507H407.904V291.851Z" fill="#B2B6BB"/>
<g opacity="0.2">
<g opacity="0.2">
<path opacity="0.2" d="M407.909 291.851H362.022V299.507H407.909V291.851Z" fill="white"/>
</g>
</g>
<path d="M407.904 306.607H360.165V314.263H407.904V306.607Z" fill="#B2B6BB"/>
<g opacity="0.2">
<g opacity="0.2">
<path opacity="0.2" d="M407.909 306.607H362.022V314.263H407.909V306.607Z" fill="white"/>
</g>
</g>
<path d="M407.904 321.369H360.165V329.025H407.904V321.369Z" fill="#B2B6BB"/>
<g opacity="0.2">
<g opacity="0.2">
<path opacity="0.2" d="M407.909 321.369H362.022V329.025H407.909V321.369Z" fill="white"/>
</g>
</g>
<path d="M407.904 336.13H360.165V343.787H407.904V336.13Z" fill="#B2B6BB"/>
<g opacity="0.2">
<g opacity="0.2">
<path opacity="0.2" d="M407.909 336.13H362.022V343.787H407.909V336.13Z" fill="white"/>
</g>
</g>
<path d="M407.904 350.888H360.165V358.544H407.904V350.888Z" fill="#B2B6BB"/>
<g opacity="0.2">
<g opacity="0.2">
<path opacity="0.2" d="M407.909 350.888H362.022V358.544H407.909V350.888Z" fill="white"/>
</g>
</g>
<path d="M433.125 210.725H412.955V213.673H433.125V210.725Z" fill="#66D9E8"/>
<path d="M433.12 210.007H355.118V213.678H433.12V210.007Z" fill="#DADDDF"/>
<path d="M435.861 213.677H353.485V217.343H435.861V213.677Z" fill="#B2B6BB"/>
<path d="M435.861 207.059H353.485V210.725H435.861V207.059Z" fill="#B2B6BB"/>
<path d="M435.861 213.677H353.485V217.343H435.861V213.677Z" fill="#B2B6BB"/>
<path d="M435.861 213.677H353.485V217.343H435.861V213.677Z" fill="#B2B6BB"/>
<path d="M435.861 207.059H353.485V210.725H435.861V207.059Z" fill="#B2B6BB"/>
<path d="M435.861 207.059H353.485V210.725H435.861V207.059Z" fill="#B2B6BB"/>
<g opacity="0.2">
<g opacity="0.2">
<path opacity="0.2" d="M435.861 213.677H412.955V217.343H435.861V213.677Z" fill="black"/>
</g>
</g>
<g opacity="0.2">
<g opacity="0.2">
<path opacity="0.2" d="M435.861 207.059H412.955V210.725H435.861V207.059Z" fill="black"/>
</g>
</g>
<g opacity="0.2">
<g opacity="0.2">
<path opacity="0.2" d="M433.125 210.725H412.955V213.673H433.125V210.725Z" fill="black"/>
</g>
</g>
<path d="M477.238 233.143H430.583V365.482H477.238V233.143Z" fill="#DADDDF"/>
<path d="M451.426 238.514H435.102V246.757H451.426V238.514Z" fill="#B2B6BB"/>
<g opacity="0.2">
<g opacity="0.2">
<path opacity="0.2" d="M451.426 238.514H436.19V246.757H451.426V238.514Z" fill="white"/>
</g>
</g>
<path d="M470.309 238.514H453.985V246.757H470.309V238.514Z" fill="#B2B6BB"/>
<g opacity="0.2">
<g opacity="0.2">
<path opacity="0.2" d="M470.304 238.514H455.069V246.757H470.304V238.514Z" fill="white"/>
</g>
</g>
<path d="M451.426 254.03H435.102V262.273H451.426V254.03Z" fill="#B2B6BB"/>
<g opacity="0.2">
<g opacity="0.2">
<path opacity="0.2" d="M451.426 254.03H436.19V262.273H451.426V254.03Z" fill="white"/>
</g>
</g>
<path d="M470.309 254.03H453.985V262.273H470.309V254.03Z" fill="#B2B6BB"/>
<g opacity="0.2">
<g opacity="0.2">
<path opacity="0.2" d="M470.304 254.03H455.069V262.273H470.304V254.03Z" fill="white"/>
</g>
</g>
<path d="M451.426 273.861H435.102V282.104H451.426V273.861Z" fill="#B2B6BB"/>
<g opacity="0.2">
<g opacity="0.2">
<path opacity="0.2" d="M451.426 273.861H436.19V282.104H451.426V273.861Z" fill="white"/>
</g>
</g>
<path d="M470.309 273.861H453.985V282.104H470.309V273.861Z" fill="#B2B6BB"/>
<g opacity="0.2">
<g opacity="0.2">
<path opacity="0.2" d="M470.304 273.861H455.069V282.104H470.304V273.861Z" fill="white"/>
</g>
</g>
<path d="M451.426 285.259H435.102V293.502H451.426V285.259Z" fill="#B2B6BB"/>
<g opacity="0.2">
<g opacity="0.2">
<path opacity="0.2" d="M451.426 285.259H436.19V293.502H451.426V285.259Z" fill="white"/>
</g>
</g>
<path d="M470.309 285.259H453.985V293.502H470.309V285.259Z" fill="#B2B6BB"/>
<g opacity="0.2">
<g opacity="0.2">
<path opacity="0.2" d="M470.304 285.259H455.069V293.502H470.304V285.259Z" fill="white"/>
</g>
</g>
<path d="M451.426 303.981H435.102V312.224H451.426V303.981Z" fill="#B2B6BB"/>
<g opacity="0.2">
<g opacity="0.2">
<path opacity="0.2" d="M451.426 303.981H436.19V312.224H451.426V303.981Z" fill="white"/>
</g>
</g>
<path d="M470.309 303.981H453.985V312.224H470.309V303.981Z" fill="#B2B6BB"/>
<g opacity="0.2">
<g opacity="0.2">
<path opacity="0.2" d="M470.304 303.981H455.069V312.224H470.304V303.981Z" fill="white"/>
</g>
</g>
<path d="M451.426 315.374H435.102V323.617H451.426V315.374Z" fill="#B2B6BB"/>
<g opacity="0.2">
<g opacity="0.2">
<path opacity="0.2" d="M451.426 315.374H436.19V323.617H451.426V315.374Z" fill="white"/>
</g>
</g>
<path d="M470.309 315.374H453.985V323.617H470.309V315.374Z" fill="#B2B6BB"/>
<g opacity="0.2">
<g opacity="0.2">
<path opacity="0.2" d="M470.304 315.374H455.069V323.617H470.304V315.374Z" fill="white"/>
</g>
</g>
<path d="M451.426 335.751H435.102V343.994H451.426V335.751Z" fill="#B2B6BB"/>
<g opacity="0.2">
<g opacity="0.2">
<path opacity="0.2" d="M451.426 335.751H436.19V343.994H451.426V335.751Z" fill="white"/>
</g>
</g>
<path d="M470.309 335.751H453.985V343.994H470.309V335.751Z" fill="#B2B6BB"/>
<g opacity="0.2">
<g opacity="0.2">
<path opacity="0.2" d="M470.304 335.751H455.069V343.994H470.304V335.751Z" fill="white"/>
</g>
</g>
<path d="M451.426 350.797H435.102V359.04H451.426V350.797Z" fill="#B2B6BB"/>
<g opacity="0.2">
<g opacity="0.2">
<path opacity="0.2" d="M451.426 350.797H436.19V359.04H451.426V350.797Z" fill="white"/>
</g>
</g>
<path d="M470.309 350.797H453.985V359.04H470.309V350.797Z" fill="#B2B6BB"/>
<g opacity="0.2">
<g opacity="0.2">
<path opacity="0.2" d="M470.304 350.797H455.069V359.04H470.304V350.797Z" fill="white"/>
</g>
</g>
<path d="M494.916 228.553H427.694V233.514H494.916V228.553Z" fill="#B2B6BB"/>
<g opacity="0.2">
<g opacity="0.2">
<path opacity="0.2" d="M494.916 228.553H477.342V233.514H494.916V228.553Z" fill="black"/>
</g>
</g>
<path d="M491.914 233.455H477.238V365.482H491.914V233.455Z" fill="#DADDDF"/>
<path opacity="0.1" d="M491.914 233.455H477.238V365.482H491.914V233.455Z" fill="black"/>
<path opacity="0.1" d="M491.909 267.13H430.583V268.548H491.909V267.13Z" fill="black"/>
<path opacity="0.1" d="M491.909 297.804H430.583V299.221H491.909V297.804Z" fill="black"/>
<path opacity="0.1" d="M491.909 328.745H430.583V330.163H491.909V328.745Z" fill="black"/>
<path d="M388.57 364.669H241.803C240.472 364.669 239.153 364.408 237.924 363.897C236.694 363.392 235.576 362.643 234.635 361.704C233.694 360.76 232.948 359.645 232.439 358.413C231.929 357.185 231.668 355.867 231.668 354.535V31.5329C231.668 28.061 233.048 24.7313 235.503 22.2761C237.958 19.8212 241.287 18.4417 244.76 18.4417H388.57C393.747 18.4417 398.713 20.4988 402.374 24.1603C406.035 27.8218 408.094 32.7879 408.094 37.9657V345.15C408.094 350.328 406.035 355.293 402.374 358.954C398.713 362.615 393.747 364.669 388.57 364.669Z" fill="#3F4249"/>
<path opacity="0.3" d="M388.57 364.669H244.191C242.547 364.669 240.919 364.344 239.4 363.717C237.881 363.085 236.501 362.164 235.339 360.999C234.176 359.839 233.254 358.458 232.625 356.937C231.996 355.42 231.673 353.79 231.673 352.147V31.5366C231.673 28.0647 233.053 24.735 235.508 22.2797C237.963 19.8249 241.293 18.4453 244.765 18.4453H388.57C393.747 18.4453 398.713 20.5025 402.374 24.164C406.035 27.8255 408.094 32.7916 408.094 37.9694V345.154C408.094 350.332 406.035 355.293 402.374 358.954C398.713 362.611 393.747 364.669 388.57 364.669Z" fill="black"/>
<path d="M390.885 45.9067V340.685C390.885 349.014 384.823 355.758 377.343 355.758H243.767C236.273 355.758 230.224 349.014 230.224 340.685V45.9067C230.224 28.9332 236.282 28.1071 243.767 28.1071H270.518C272.075 28.1071 273.344 29.9127 273.344 32.1699V33.1404C273.344 38.4266 276.156 38.4446 279.61 38.4446H341.491C344.972 38.4446 347.752 38.4446 347.752 33.1404V32.1699C347.752 29.9127 349.007 28.1071 350.587 28.1071H377.352C384.823 28.1071 390.885 30.3642 390.885 45.9067Z" fill="#F4F4F4"/>
<path d="M377.352 28.1071C384.823 28.1071 390.894 30.3642 390.894 45.9067V70.6988H230.21V45.9067C230.21 28.9332 236.268 28.1071 243.753 28.1071H377.352Z" fill="#282C4D"/>
<path d="M370.883 334.176H299.396V339.557H370.883V334.176Z" fill="white"/>
<path d="M390.881 80.3583V74.9774H345.328V71.1809H340.105V83.4957L296.082 104.261L291.889 111.308L265.07 83.6808V71.1809H262.456V83.4596H230.215V88.8406H234.784V194.063H261.95L254.091 212.571V252.59H230.292V255.298H254.091V265.884H296.782V304.616H230.215V309.979H296.782V355.772H302.005V265.871H316.74V295.213H324.748V292.509H319.331V265.875H332.919L368.256 304.427V355.758H373.479V302.305L356.776 284.054L390.881 248.929V241.327L353.187 280.149L335.198 260.499H281.93L314.884 223.622H390.809V220.913H317.272L347.87 186.655H390.881V181.296H372.991V80.3583H390.881ZM240.007 188.682V132.286H261.806V129.577H240.007V88.8406H262.682L289.085 116.03L276.306 137.527C266.74 138.317 259.201 146.555 259.201 156.622C259.179 160.318 260.224 163.943 262.209 167.062C264.195 170.18 267.037 172.66 270.396 174.205L264.235 188.682H240.007ZM277.804 142.817C285.185 142.817 291.194 149.002 291.194 156.604C291.194 164.206 285.194 170.413 277.804 170.413C270.415 170.413 264.429 164.228 264.429 156.622C264.429 149.015 270.424 142.817 277.804 142.817ZM274.834 260.476H259.314V213.691L275.48 175.627C276.251 175.724 277.027 175.774 277.804 175.776C280.71 175.764 283.573 175.065 286.157 173.736C288.741 172.407 290.975 170.485 292.674 168.128L330.503 186.637H340.769L274.834 260.476ZM367.768 181.296H331.691L295.22 163.429C296.023 161.249 296.433 158.944 296.43 156.622C296.43 147.593 290.336 140.009 282.17 137.987L299.721 108.473L328.161 95.0522L367.777 135.861L367.768 181.296ZM367.768 132.06L330.689 93.8604L345.328 86.9491V80.3583H367.768V132.06Z" fill="white"/>
<path d="M271.389 248.59H263.792V256.413H271.389V248.59Z" fill="#DADDDF"/>
<path d="M342.719 226.417V241.522H337.383V247.833H327.989V226.417H342.719Z" fill="#DADDDF"/>
<path d="M304.411 331.706V322.912H308.708V313.658H316.667V331.706H304.411Z" fill="#DADDDF"/>
<path d="M365.186 318.525H355.841V331.702H365.186V318.525Z" fill="#DADDDF"/>
<path d="M321.415 268.155V279.387H341.851L330.809 268.015L321.415 268.155Z" fill="#DADDDF"/>
<path d="M314.676 268.015H304.411V278.588H314.676V268.015Z" fill="#DADDDF"/>
<path d="M240.44 258.11H232.233V275.693H240.44V258.11Z" fill="#DADDDF"/>
<path d="M251.928 258.11H242.656V266.2H251.928V258.11Z" fill="#DADDDF"/>
<path d="M294.33 290.777H281.961V302.491H294.33V290.777Z" fill="#DADDDF"/>
<path d="M294.325 288.478V268.015H279.203L269.556 277.951V288.478H294.325Z" fill="#DADDDF"/>
<path d="M266.83 275.69L274.423 267.867H254.149V275.69H266.83Z" fill="#DADDDF"/>
<path d="M262.049 186.255H242.656V176.833H265.741L262.049 186.255Z" fill="#DADDDF"/>
<path d="M250.98 159.24H242.656V172.209H250.98V159.24Z" fill="#DADDDF"/>
<path d="M262.193 135.988V140.502C258.411 144.91 256.015 150.335 255.305 156.099H242.665V135.988H262.193Z" fill="#DADDDF"/>
<path d="M307.611 179.609L299.662 197.291H289.983L273.457 189.391L277.772 179.672H277.808C280.733 179.668 283.628 179.081 286.323 177.947C289.019 176.812 291.462 175.152 293.509 173.063L307.611 179.609Z" fill="#DADDDF"/>
<path d="M339.564 201.633L350.05 189.888H370.662V201.633H339.564Z" fill="#DADDDF"/>
<path d="M386.43 189.888H373.392V201.629H386.43V189.888Z" fill="#DADDDF"/>
<path d="M321.713 87.839L336.393 80.9142V70.703H321.713V87.839Z" fill="#DADDDF"/>
<path d="M272.192 86.1863L285.554 99.9502V76.4356H272.192V86.1863Z" fill="#DADDDF"/>
<path opacity="0.8" d="M290.278 99.9502H295.054L314.375 90.9714V76.4356H290.278V99.9502Z" fill="#66D9E8"/>
<path opacity="0.8" d="M261.214 91.708L272.323 103.147H249.508V91.708H261.214Z" fill="#66D9E8"/>
<path d="M273.557 135.244L284.396 117.006L274.067 105.766H259.992V117.878H267.729V130.206L273.557 135.244Z" fill="#DADDDF"/>
<path d="M259.992 72.2368H247.577V80.9809H259.992V72.2368Z" fill="#DADDDF"/>
<path d="M244.683 80.9809H232.91V72.2368H236.287L239.821 75.8753H244.683V80.9809Z" fill="#DADDDF"/>
<path d="M321.212 137.734L305.529 154.554L299.512 149.711C297.772 143.823 293.773 138.863 288.389 135.915L301.507 113.841L321.212 137.734Z" fill="#DADDDF"/>
<path d="M304.13 162.004L331.681 176.029H345.418V151.359L323.997 140.462L304.13 162.004Z" fill="#DADDDF"/>
<path d="M364.852 124.359V112.17H353.02L364.852 124.359Z" fill="#DADDDF"/>
<path d="M364.851 99.3913H357.867V109.305H364.851V99.3913Z" fill="#DADDDF"/>
<path d="M364.852 83.8208V96.1898H355.341V103.038H348.601V83.8208H364.852Z" fill="#DADDDF"/>
<path d="M345.417 101.083V89.6979L334.998 94.5913L341.3 101.083H345.417Z" fill="#DADDDF"/>
<path opacity="0.8" d="M263.792 245.327V214.319L272.193 193.151L287.523 200.975H323.276L283.18 245.327H263.792Z" fill="#66D9E8"/>
<path opacity="0.8" d="M390.885 83.8172H376.828V103.039H390.885V83.8172Z" fill="#66D9E8"/>
<path opacity="0.8" d="M350.992 289.675H321.415V282.041H344L350.992 289.675Z" fill="#66D9E8"/>
<path d="M251.928 227.13H232.233V249.475H251.928V227.13Z" fill="#DADDDF"/>
<path d="M251.928 213.989H242.656V223.537H251.928V213.989Z" fill="#DADDDF"/>
<path d="M251.928 211.086H237.482V196.604H258L251.928 211.086Z" fill="#DADDDF"/>
<path d="M240.44 220.653H232.233V223.537H240.44V220.653Z" fill="#DADDDF"/>
<path d="M240.44 213.989H232.233V218.765H240.44V213.989Z" fill="#DADDDF"/>
<path d="M364.333 159.891H349.229V176.029H364.333V159.891Z" fill="#DADDDF"/>
<path d="M364.333 151.716H349.229V157.381H364.333V151.716Z" fill="#DADDDF"/>
<path d="M303.995 109.786L327.608 98.6451L345.927 117.519L324.236 135.242L303.995 109.786Z" fill="#DADDDF"/>
<path opacity="0.8" d="M347.833 120.188L356.78 129.032L345.928 138.76V147.513L326.797 137.478L347.833 120.188Z" fill="#66D9E8"/>
<path d="M364.333 137.28L358.939 132.061L349.229 140.462V149.215H364.333V137.28Z" fill="#DADDDF"/>
<path d="M256.117 105.891H242.656V126.516H256.117V105.891Z" fill="#DADDDF"/>
<path d="M264.601 120.504H259.992V125.253H264.601V120.504Z" fill="#DADDDF"/>
<path d="M390.863 156.045H376.896V175.962H390.863V156.045Z" fill="#DADDDF"/>
<path d="M376.896 151.643H390.863V129.058L376.896 137.829V151.643Z" fill="#DADDDF"/>
<path d="M376.828 133.158V119.245H390.881V125.005L376.828 133.158Z" fill="#DADDDF"/>
<path d="M381.992 105.381H376.828V117.01H381.992V105.381Z" fill="#DADDDF"/>
<path d="M390.885 105.381H384.597V117.01H390.885V105.381Z" fill="#DADDDF"/>
<path opacity="0.8" d="M390.881 314.932H377.406V340.694H390.881V314.932Z" fill="#66D9E8"/>
<path opacity="0.8" d="M293.532 345.868H279.885L264.289 331.111V313.212H293.532V345.868Z" fill="#66D9E8"/>
<path d="M261.805 313.212H244.583V322.819H261.805V313.212Z" fill="#DADDDF"/>
<path d="M261.805 325.296H244.583V330.664H261.805V325.296Z" fill="#DADDDF"/>
<path d="M238.819 330.366H242.39V313.212H234.432V325.595L238.819 330.366Z" fill="#DADDDF"/>
<path d="M293.532 347.732H279.88V355.776H293.532V347.732Z" fill="#DADDDF"/>
<path d="M276.932 345.868V355.772H243.766C242.008 355.758 240.271 355.384 238.664 354.67C237.057 353.957 235.614 352.919 234.426 351.623V332.822H263.412L276.932 345.868Z" fill="#DADDDF"/>
<path d="M324.965 217.673L337.384 204.243H349.229V217.673H324.965Z" fill="#DADDDF"/>
<path d="M365.781 204.243H351.692V210.423H365.781V204.243Z" fill="#DADDDF"/>
<path d="M358.039 212.062H351.692V217.673H358.039V212.062Z" fill="#DADDDF"/>
<path d="M365.781 212.062H359.615V217.673H365.781V212.062Z" fill="#DADDDF"/>
<path d="M376.395 204.243H367.492V217.677H376.395V204.243Z" fill="#DADDDF"/>
<path d="M386.308 204.243H378.602V213.425L382.29 217.673H386.308V204.243Z" fill="#DADDDF"/>
<path d="M303.372 197.291H323.275V187.491L310.55 181.541L303.372 197.291Z" fill="#DADDDF"/>
<path d="M277.804 165.746C282.738 165.746 286.738 161.627 286.738 156.546C286.738 151.465 282.738 147.346 277.804 147.346C272.87 147.346 268.87 151.465 268.87 156.546C268.87 161.627 272.87 165.746 277.804 165.746Z" fill="#DADDDF"/>
<path opacity="0.8" d="M246.823 302.491H232.233V277.396H240.444L246.823 285.978V302.491Z" fill="#66D9E8"/>
<path d="M251.928 282.999H246.823L242.656 277.396V268.553H251.928V282.999Z" fill="#DADDDF"/>
<path d="M257.494 295.422H249.378V302.491H257.494V295.422Z" fill="#DADDDF"/>
<path d="M266.608 278.245V302.486H259.313V282.994H254.153V278.245H266.608Z" fill="#DADDDF"/>
<path d="M279.88 291.426H269.556V302.486H279.88V291.426Z" fill="#DADDDF"/>
<path d="M257.495 285.129H249.369V294.067H257.495V285.129Z" fill="#DADDDF"/>
<path d="M362.784 264.639V226.417H387.716V239.405L362.784 264.639Z" fill="#DADDDF"/>
<path opacity="0.8" d="M360.284 226.417H344.94V241.526H360.284V226.417Z" fill="#66D9E8"/>
<path d="M288.923 257.795L304.931 239.86H325.015V257.795H288.923Z" fill="#DADDDF"/>
<path d="M307.21 237.788L317.362 226.417H324.964V237.788H307.21Z" fill="#DADDDF"/>
<path d="M337.383 250.302H327.989V257.796H337.383V250.302Z" fill="#DADDDF"/>
<path d="M360.282 250.617V267.46L352.857 275.69L339.923 261.397V245.056H355.258V250.617H360.282Z" fill="#DADDDF"/>
<path d="M373.511 298.464L360.361 283.685L375.284 268.675L383.527 277.83L373.511 298.464Z" fill="#DADDDF"/>
<path d="M376.972 266.755L384.926 275.595H390.885V252.522L376.972 266.755Z" fill="#DADDDF"/>
<path d="M377.406 303.122L375.456 300.964L381.961 286.614H390.881V312.665H377.406V303.122Z" fill="#DADDDF"/>
<path d="M390.885 277.634H385.08V284.861H390.885V277.634Z" fill="#DADDDF"/>
<path d="M318.053 341.737H304.411V351.894H318.053V341.737Z" fill="#DADDDF"/>
<path d="M325.18 341.737H320.093V355.767H325.18V341.737Z" fill="#DADDDF"/>
<path d="M334.421 341.737H327.28V346.96H334.421V341.737Z" fill="#DADDDF"/>
<path d="M337.378 348.5H327.28V355.767H337.378V348.5Z" fill="#DADDDF"/>
<path d="M349.453 341.733V355.772H339.553V346.96H336.804V341.733H349.453Z" fill="#DADDDF"/>
<path d="M357.578 355.772L351.096 349.095V341.737H366.408V355.772H357.578Z" fill="#DADDDF"/>
<path d="M390.61 343.701C389.377 350.59 383.933 355.772 377.406 355.795V343.701H390.61Z" fill="#DADDDF"/>
<path d="M365.187 316.07H341.853V292.108H353.572L365.187 305.249V316.07Z" fill="#DADDDF"/>
<path d="M339.121 292.103H327.714V307.293H339.121V292.103Z" fill="#DADDDF"/>
<path d="M353.57 318.525V331.707H327.717V309.199H339.12V318.525H353.57Z" fill="#DADDDF"/>
<path d="M326.242 318.846H318.049V331.707H326.242V318.846Z" fill="#DADDDF"/>
<path d="M326.242 300.964H304.411V312.019H326.242V300.964Z" fill="#DADDDF"/>
<path opacity="0.4" d="M326.242 313.658H318.049V317.247H326.242V313.658Z" fill="#66D9E8"/>
<path d="M314.676 280.701H308.708L304.411 284.903V297.123H314.676V280.701Z" fill="#DADDDF"/>
<path d="M363.696 296.875L333.64 263.894H255.833V213.05L264.672 192.334H236.611V162.003H238.354V190.542H267.34L257.571 213.425V262.102H334.394L334.651 262.382L364.969 295.651L363.696 296.875Z" fill="#1098AD"/>
<path d="M239.239 160.423C239.229 160.768 239.118 161.103 238.919 161.385C238.721 161.667 238.443 161.885 238.121 162.01C237.8 162.135 237.448 162.163 237.111 162.089C236.774 162.016 236.465 161.845 236.225 161.598C235.984 161.35 235.822 161.038 235.758 160.698C235.694 160.359 235.732 160.008 235.866 159.691C236 159.373 236.225 159.102 236.513 158.911C236.8 158.72 237.138 158.618 237.483 158.618C237.955 158.625 238.405 158.819 238.734 159.157C239.064 159.496 239.245 159.951 239.239 160.423Z" fill="#66D9E8"/>
<path d="M366.188 296.409C366.179 296.755 366.068 297.091 365.869 297.375C365.671 297.658 365.392 297.877 365.07 298.003C364.748 298.129 364.395 298.158 364.057 298.085C363.719 298.012 363.409 297.841 363.167 297.593C362.925 297.345 362.762 297.032 362.698 296.691C362.633 296.351 362.671 295.999 362.805 295.68C362.94 295.361 363.166 295.089 363.454 294.897C363.742 294.706 364.081 294.604 364.427 294.603C364.898 294.615 365.346 294.811 365.675 295.148C366.004 295.485 366.188 295.938 366.188 296.409Z" fill="#66D9E8"/>
<path d="M362.017 35.208L361.751 35.4698L361.602 35.6233C361.266 35.2838 360.866 35.0139 360.425 34.8297C359.984 34.6455 359.511 34.5507 359.033 34.5507C358.555 34.5507 358.082 34.6455 357.641 34.8297C357.201 35.0139 356.801 35.2838 356.464 35.6233L356.324 35.4698L356.058 35.208C356.171 35.1087 356.279 35.0049 356.392 34.9101C356.631 34.7137 356.894 34.5467 357.174 34.4135C357.5 34.251 357.848 34.1341 358.207 34.0659C358.374 34.0343 358.55 34.0208 358.721 33.9982C358.78 33.9982 359.173 33.9982 359.173 33.9982C359.29 33.9982 359.408 33.9982 359.525 34.0253C359.848 34.0614 360.165 34.1372 360.468 34.251C360.692 34.3309 360.906 34.432 361.109 34.5534C361.327 34.6762 361.532 34.8184 361.724 34.9778L362.004 35.2306L362.017 35.208Z" fill="white"/>
<path d="M357.313 36.4581L356.889 36.0428C357.349 35.5733 357.953 35.2713 358.604 35.185C359.07 35.1151 359.546 35.1557 359.993 35.3042C360.44 35.4523 360.846 35.7037 361.177 36.0382L360.753 36.4581C360.529 36.2296 360.261 36.0486 359.966 35.9263C359.67 35.8035 359.353 35.7416 359.033 35.7448C358.713 35.7435 358.396 35.8058 358.101 35.9281C357.806 36.0509 357.538 36.2305 357.313 36.4581Z" fill="white"/>
<path d="M360.333 36.8778C360.193 37.0177 360.058 37.1577 359.914 37.2976C359.799 37.1811 359.662 37.0886 359.51 37.0254C359.359 36.9622 359.197 36.9297 359.033 36.9297C358.87 36.9297 358.707 36.9622 358.557 37.0254C358.405 37.0886 358.268 37.1811 358.153 37.2976L357.733 36.8778C357.903 36.7058 358.106 36.569 358.329 36.476C358.552 36.3826 358.792 36.3347 359.033 36.3347C359.275 36.3347 359.515 36.3826 359.738 36.476C359.961 36.569 360.164 36.7058 360.333 36.8778Z" fill="white"/>
<path d="M359.412 37.6777C359.413 37.7527 359.392 37.8267 359.351 37.8894C359.31 37.9526 359.251 38.0018 359.181 38.0312C359.112 38.0605 359.036 38.0687 358.962 38.0547C358.888 38.0402 358.82 38.0046 358.767 37.9517C358.713 37.8989 358.677 37.8312 358.661 37.7576C358.647 37.684 358.654 37.6077 358.682 37.5382C358.711 37.4687 358.759 37.4091 358.822 37.3671C358.884 37.3252 358.958 37.303 359.033 37.303C359.133 37.303 359.229 37.3423 359.3 37.4123C359.371 37.4827 359.411 37.578 359.412 37.6777Z" fill="white"/>
<path d="M241.003 35.5326C241.003 35.3159 241.068 35.1037 241.188 34.9232C241.309 34.743 241.48 34.6022 241.68 34.5191C241.881 34.4361 242.102 34.4144 242.314 34.4568C242.527 34.4993 242.723 34.6036 242.876 34.757C243.029 34.9105 243.134 35.106 243.176 35.3186C243.218 35.5312 243.197 35.752 243.114 35.9524C243.031 36.1528 242.89 36.3244 242.71 36.4449C242.53 36.5654 242.317 36.6295 242.1 36.6295C241.956 36.6295 241.814 36.6011 241.68 36.546C241.548 36.4909 241.427 36.4101 241.325 36.3081C241.223 36.2066 241.142 36.0856 241.087 35.9524C241.032 35.8192 241.003 35.6766 241.003 35.5326Z" fill="white"/>
<path d="M244.458 35.5326C244.458 35.3159 244.522 35.1037 244.643 34.9232C244.763 34.743 244.935 34.6022 245.135 34.5191C245.336 34.4361 245.556 34.4144 245.769 34.4568C245.982 34.4993 246.177 34.6036 246.331 34.757C246.484 34.9105 246.589 35.106 246.631 35.3186C246.673 35.5312 246.652 35.752 246.569 35.9524C246.486 36.1528 246.345 36.3244 246.165 36.4449C245.984 36.5654 245.772 36.6295 245.555 36.6295C245.411 36.6295 245.269 36.6011 245.135 36.546C245.002 36.4909 244.881 36.4101 244.779 36.3081C244.678 36.2066 244.597 36.0856 244.542 35.9524C244.487 35.8192 244.458 35.6766 244.458 35.5326Z" fill="white"/>
<path d="M247.911 35.5326C247.911 35.3159 247.975 35.1037 248.096 34.9232C248.216 34.743 248.387 34.6022 248.588 34.5191C248.788 34.4361 249.009 34.4144 249.222 34.4568C249.435 34.4993 249.63 34.6036 249.783 34.757C249.937 34.9105 250.041 35.106 250.084 35.3186C250.126 35.5312 250.104 35.752 250.021 35.9524C249.938 36.1528 249.798 36.3244 249.617 36.4449C249.437 36.5654 249.225 36.6295 249.008 36.6295C248.864 36.6295 248.721 36.6011 248.588 36.546C248.455 36.4909 248.334 36.4101 248.232 36.3081C248.13 36.2066 248.049 36.0856 247.994 35.9524C247.939 35.8192 247.911 35.6766 247.911 35.5326Z" fill="white"/>
<path d="M251.364 35.5326C251.364 35.3159 251.428 35.1037 251.548 34.9232C251.669 34.743 251.84 34.6022 252.041 34.5191C252.241 34.4361 252.461 34.4144 252.675 34.4568C252.887 34.4993 253.083 34.6036 253.236 34.757C253.39 34.9105 253.494 35.106 253.536 35.3186C253.579 35.5312 253.557 35.752 253.474 35.9524C253.391 36.1528 253.25 36.3244 253.07 36.4449C252.889 36.5654 252.677 36.6295 252.461 36.6295C252.316 36.6295 252.173 36.6011 252.041 36.546C251.908 36.4909 251.787 36.4101 251.685 36.3081C251.583 36.2066 251.502 36.0856 251.447 35.9524C251.392 35.8192 251.364 35.6766 251.364 35.5326Z" fill="white"/>
<path d="M254.821 35.5326C254.821 35.3155 254.886 35.1033 255.007 34.9227C255.128 34.7422 255.299 34.6018 255.5 34.5187C255.7 34.4361 255.921 34.4144 256.134 34.4573C256.347 34.4998 256.542 34.6049 256.696 34.7584C256.849 34.9124 256.953 35.1083 256.995 35.3213C257.037 35.5344 257.014 35.7552 256.931 35.9556C256.847 36.156 256.705 36.3271 256.525 36.4467C256.344 36.5668 256.131 36.6305 255.914 36.6296C255.77 36.6296 255.628 36.6011 255.495 36.5461C255.362 36.491 255.241 36.4102 255.14 36.3082C255.038 36.2061 254.958 36.0852 254.903 35.952C254.849 35.8193 254.821 35.6766 254.821 35.5326Z" fill="white"/>
<path d="M383.265 37.9197H374.344V33.7937H383.265V37.9197ZM374.791 37.4682H382.818V34.2361H374.791V37.4682Z" fill="white"/>
<path d="M380.841 34.4939H375.086V37.225H380.841V34.4939Z" fill="white"/>
<path d="M384.069 34.7512H383.274V36.9632H384.069V34.7512Z" fill="white"/>
<path d="M246.718 62.5602L241.811 57.9647L246.718 53.3692L247.476 54.1773L243.436 57.9647L247.476 61.7476L246.718 62.5602Z" fill="white"/>
<path d="M384.091 54.528C384.091 54.7194 384.037 54.9063 383.933 55.0661C383.825 55.2254 383.676 55.35 383.5 55.4236C383.324 55.4977 383.13 55.5175 382.94 55.4805C382.751 55.4439 382.579 55.3523 382.444 55.2173C382.308 55.0824 382.218 54.9104 382.177 54.7226C382.141 54.5352 382.159 54.3407 382.232 54.1637C382.304 53.9872 382.43 53.836 382.588 53.7294C382.746 53.6233 382.936 53.5665 383.125 53.5665C383.383 53.5665 383.626 53.6676 383.807 53.8477C383.988 54.0278 384.091 54.2725 384.091 54.528Z" fill="white"/>
<path d="M384.091 57.9498C384.091 58.1412 384.037 58.3276 383.929 58.4865C383.821 58.6454 383.672 58.7696 383.496 58.8427C383.319 58.9154 383.125 58.9348 382.936 58.8973C382.751 58.8603 382.579 58.7682 382.444 58.6333C382.308 58.4978 382.213 58.3258 382.177 58.1385C382.141 57.9512 382.159 57.7571 382.232 57.5801C382.308 57.4036 382.43 57.2528 382.588 57.1467C382.746 57.0406 382.936 56.9838 383.125 56.9838C383.252 56.9833 383.378 57.0081 383.496 57.0564C383.613 57.1047 383.721 57.1756 383.812 57.2655C383.902 57.3553 383.969 57.4623 384.019 57.5796C384.069 57.697 384.091 57.823 384.091 57.9498Z" fill="white"/>
<path d="M384.091 61.3937C384.091 61.5851 384.037 61.7715 383.929 61.9305C383.821 62.0894 383.672 62.2131 383.496 62.2862C383.319 62.3593 383.125 62.3787 382.936 62.3412C382.751 62.3042 382.579 62.2121 382.444 62.0772C382.308 61.9417 382.213 61.7697 382.177 61.5824C382.141 61.3951 382.159 61.2005 382.232 61.024C382.308 60.8475 382.43 60.6967 382.588 60.5906C382.746 60.4845 382.936 60.4277 383.125 60.4277C383.383 60.4277 383.626 60.5297 383.807 60.7107C383.992 60.8917 384.091 61.1378 384.091 61.3937Z" fill="white"/>
<path d="M336.227 56.2168H284.864V61.0154H336.227V56.2168Z" fill="white"/>
<path d="M378.485 354.201H242.994C236.169 354.201 230.634 348.928 230.634 342.428V39.8125C230.634 33.312 236.169 28.0394 242.994 28.0394H267.371C268.802 28.0101 270.205 28.4344 271.379 29.2519C272.553 30.0695 273.439 31.2377 273.908 32.5898L275.023 35.989C275.489 37.3369 276.37 38.5034 277.539 39.3214C278.708 40.1393 280.106 40.5673 281.532 40.5438H339.982C341.409 40.5669 342.807 40.1384 343.976 39.3196C345.145 38.5007 346.026 37.3333 346.492 35.9845L347.607 32.5898C348.073 31.2414 348.952 30.0744 350.12 29.256C351.289 28.4371 352.685 28.0083 354.112 28.0304H378.489C385.315 28.0304 390.849 33.303 390.849 39.808V342.419C390.827 348.928 385.31 354.201 378.485 354.201ZM222.545 34.9281V347.786C222.545 352.215 224.304 356.463 227.437 359.595C230.569 362.728 234.818 364.489 239.247 364.489H382.25C386.678 364.489 390.926 362.728 394.059 359.595C397.192 356.463 398.952 352.215 398.952 347.786V34.9507C398.952 30.5209 397.192 26.2725 394.059 23.1401C390.926 20.0077 386.678 18.248 382.25 18.248H239.202C234.784 18.2598 230.551 20.0217 227.429 23.1478C224.307 26.2743 222.551 30.5101 222.545 34.9281Z" fill="#3F4249"/>
<path d="M318.851 244.388V254.838H328.34L330.494 258.824L332.651 254.838H342.136V244.388H318.851Z" fill="white"/>
<path d="M321.624 252.635C321.381 252.599 321.358 252.36 321.489 252.148C321.62 251.936 322.112 251.195 322.153 251.123C322.288 250.858 322.381 250.573 322.428 250.279C322.559 249.615 322.672 248.947 322.798 248.284C322.798 248.257 322.798 248.225 322.798 248.166L322.22 248.478C322.189 248.478 322.171 248.559 322.162 248.604C322.112 248.839 322.071 249.056 322.026 249.313C322.028 249.35 322.028 249.388 322.026 249.426C322.02 249.453 322.008 249.479 321.991 249.503C321.974 249.526 321.953 249.545 321.929 249.559C321.904 249.573 321.877 249.583 321.848 249.586C321.82 249.59 321.791 249.587 321.764 249.579C321.737 249.577 321.711 249.568 321.687 249.555C321.663 249.541 321.643 249.522 321.627 249.5C321.611 249.478 321.6 249.452 321.595 249.425C321.59 249.399 321.591 249.371 321.597 249.344C321.652 249.006 321.71 248.667 321.787 248.333C321.815 248.259 321.87 248.197 321.94 248.162C322.392 247.927 322.794 247.71 323.227 247.471C323.291 247.439 323.36 247.42 323.432 247.415C323.503 247.41 323.574 247.421 323.641 247.444C323.709 247.469 323.77 247.506 323.822 247.555C323.874 247.604 323.916 247.663 323.945 247.728C324.107 248.053 324.261 248.383 324.423 248.713C324.458 248.776 324.511 248.826 324.577 248.857C324.784 248.961 324.997 249.047 325.204 249.141C325.412 249.236 325.407 249.322 325.353 249.448C325.341 249.478 325.323 249.506 325.3 249.528C325.276 249.55 325.248 249.567 325.218 249.577C325.187 249.586 325.155 249.59 325.123 249.585C325.09 249.581 325.06 249.57 325.033 249.552C324.78 249.444 324.532 249.335 324.283 249.218C324.219 249.183 324.167 249.13 324.134 249.065C324.053 248.925 323.985 248.771 323.895 248.613C323.814 248.983 323.737 249.317 323.669 249.651C323.928 250.031 324.205 250.397 324.5 250.748C324.579 250.848 324.636 250.963 324.667 251.087C324.757 251.457 324.83 251.832 324.906 252.207C324.956 252.455 324.906 252.595 324.69 252.631C324.473 252.667 324.387 252.464 324.356 252.288C324.292 251.94 324.216 251.597 324.139 251.25C323.839 250.831 323.51 250.434 323.155 250.062C323.046 250.476 322.908 250.882 322.744 251.277C322.591 251.561 321.895 252.681 321.624 252.635Z" fill="#B2B6BB"/>
<path d="M324.297 246.807C324.299 246.877 324.285 246.948 324.259 247.014C324.233 247.08 324.194 247.14 324.145 247.191C324.095 247.241 324.036 247.282 323.971 247.31C323.906 247.337 323.835 247.352 323.765 247.353C323.656 247.355 323.549 247.326 323.458 247.267C323.366 247.209 323.294 247.125 323.25 247.025C323.207 246.926 323.194 246.816 323.214 246.709C323.233 246.602 323.284 246.503 323.36 246.426C323.436 246.347 323.533 246.294 323.64 246.272C323.746 246.25 323.856 246.26 323.957 246.301C324.058 246.342 324.144 246.412 324.204 246.502C324.265 246.592 324.297 246.698 324.297 246.807Z" fill="#B2B6BB"/>
<path d="M339.337 247.625H328.701V248.745H339.337V247.625Z" fill="#B2B6BB"/>
<path d="M339.337 249.863H328.701V250.423H339.337V249.863Z" fill="#B2B6BB"/>
<path d="M370.292 284.14C370.003 281.242 368.008 278.357 364.496 278.357C360.984 278.357 358.993 281.242 358.704 284.14C358.253 288.614 361.282 292.663 364.496 296.36C367.719 292.663 370.739 288.627 370.292 284.14ZM364.496 287.359C363.871 287.359 363.26 287.173 362.74 286.826C362.22 286.479 361.815 285.986 361.576 285.408C361.337 284.831 361.275 284.195 361.397 283.582C361.518 282.969 361.82 282.406 362.261 281.964C362.703 281.522 363.266 281.222 363.879 281.1C364.492 280.977 365.128 281.04 365.705 281.279C366.282 281.519 366.776 281.924 367.123 282.443C367.47 282.963 367.656 283.574 367.656 284.199C367.656 285.037 367.323 285.841 366.73 286.433C366.138 287.026 365.334 287.359 364.496 287.359Z" fill="#F231A5"/>
<path d="M430.769 344.229C431.247 344.441 431.676 344.744 432.033 345.123C432.389 345.502 432.665 345.949 432.845 346.437C433.197 347.421 433.319 348.468 433.206 349.506C433.044 351.515 431.969 353.569 430.796 355.199C429.071 353.781 428.602 351.235 428.448 349.926C428.2 347.859 429.013 343.972 430.769 344.229Z" fill="#66D9E8"/>
<path d="M433.075 358.724C432.886 358.174 432.84 357.582 432.953 357.013C433.062 356.44 433.319 355.907 433.703 355.47C434.095 355.036 434.565 354.689 435.093 354.44C435.621 354.192 436.19 354.052 436.772 354.025C437.039 353.984 437.31 354.007 437.571 354.084C437.829 354.165 438.068 354.296 438.267 354.476C438.425 354.671 438.528 354.905 438.569 355.158C438.605 355.406 438.578 355.659 438.483 355.894C438.289 356.359 437.978 356.765 437.58 357.072C436.262 358.178 434.782 359.004 433.066 358.738" fill="#66D9E8"/>
<path d="M429.031 358.792C428.791 357.587 428.268 356.458 427.505 355.496C426.737 354.535 425.758 353.768 424.638 353.262C424.065 353.009 423.325 352.856 422.878 353.289C422.431 353.722 422.553 354.472 422.801 355.045C423.329 356.237 424.2 357.244 425.306 357.939C426.408 358.634 427.69 358.991 428.995 358.954" fill="#66D9E8"/>
<path d="M430.597 347.312C430.705 348.775 430.796 350.238 430.863 351.705C430.935 353.172 430.985 354.639 431.039 356.106C431.093 357.573 431.107 359.04 431.116 360.507C431.125 361.975 431.116 363.442 431.071 364.909L430.8 356.111L430.683 351.714C430.647 350.256 430.619 348.788 430.597 347.312Z" fill="#21252B"/>
<path d="M431.31 364.678C431.342 363.785 431.459 362.891 431.671 362.02C431.879 361.139 432.182 360.286 432.574 359.469C432.963 358.647 433.5 357.907 434.163 357.284C434.497 356.977 434.872 356.72 435.278 356.517C435.685 356.327 436.118 356.192 436.565 356.119C435.712 356.345 434.935 356.792 434.308 357.415C433.685 358.043 433.179 358.774 432.809 359.573C432.425 360.372 432.123 361.207 431.906 362.065C431.649 362.922 431.45 363.794 431.31 364.678Z" fill="#21252B"/>
<path d="M430.836 364.678C430.714 363.798 430.534 362.922 430.299 362.065C430.078 361.207 429.775 360.372 429.396 359.573C429.026 358.774 428.516 358.043 427.893 357.415C427.266 356.792 426.489 356.345 425.636 356.119C426.078 356.192 426.512 356.327 426.918 356.517C427.324 356.72 427.699 356.977 428.037 357.284C428.697 357.907 429.238 358.647 429.626 359.469C430.015 360.286 430.308 361.139 430.507 362.02C430.701 362.895 430.814 363.785 430.836 364.678Z" fill="#21252B"/>
<path d="M116.876 344.229C117.353 344.441 117.783 344.744 118.14 345.123C118.496 345.502 118.773 345.949 118.953 346.437C119.307 347.421 119.43 348.468 119.314 349.506C119.151 351.515 118.077 353.569 116.908 355.199C115.179 353.781 114.714 351.235 114.556 349.926C114.312 347.859 115.12 343.972 116.876 344.229Z" fill="#66D9E8"/>
<path d="M119.187 358.724C118.994 358.174 118.95 357.582 119.061 357.013C119.171 356.44 119.431 355.907 119.814 355.47C120.204 355.036 120.676 354.689 121.202 354.44C121.728 354.192 122.298 354.052 122.88 354.025C123.146 353.984 123.419 354.007 123.677 354.084C123.935 354.16 124.173 354.296 124.374 354.476C124.533 354.671 124.638 354.905 124.677 355.154C124.716 355.406 124.688 355.659 124.595 355.894C124.4 356.359 124.089 356.765 123.692 357.072C122.369 358.178 120.888 359.004 119.177 358.738" fill="#66D9E8"/>
<path d="M115.142 358.792C114.901 357.587 114.376 356.458 113.611 355.496C112.847 354.535 111.864 353.768 110.745 353.262C110.177 353.009 109.436 352.856 108.985 353.289C108.533 353.722 108.664 354.472 108.908 355.045C109.439 356.237 110.312 357.244 111.415 357.939C112.518 358.634 113.802 358.991 115.106 358.954" fill="#66D9E8"/>
<path d="M116.705 347.312C116.814 348.775 116.904 350.238 116.976 351.705C117.049 353.172 117.094 354.639 117.148 356.106C117.202 357.573 117.22 359.04 117.229 360.507C117.238 361.975 117.229 363.442 117.184 364.909L116.913 356.111L116.791 351.714C116.755 350.256 116.726 348.788 116.705 347.312Z" fill="#21252B"/>
<path d="M117.418 364.678C117.453 363.785 117.574 362.891 117.779 362.02C117.982 361.139 118.277 360.286 118.659 359.469C119.048 358.647 119.587 357.907 120.248 357.284C120.585 356.982 120.962 356.72 121.368 356.517C121.774 356.327 122.206 356.192 122.65 356.119C121.797 356.35 121.019 356.797 120.393 357.415C119.769 358.043 119.262 358.769 118.894 359.573C118.511 360.372 118.209 361.207 117.991 362.065C117.745 362.922 117.553 363.798 117.418 364.678Z" fill="#21252B"/>
<path d="M116.943 364.678C116.821 363.798 116.643 362.922 116.41 362.065C116.19 361.207 115.888 360.372 115.507 359.573C115.138 358.774 114.631 358.043 114.009 357.415C113.376 356.792 112.59 356.345 111.729 356.119C112.175 356.192 112.608 356.327 113.016 356.517C113.421 356.72 113.796 356.977 114.131 357.284C114.793 357.907 115.332 358.647 115.72 359.469C116.112 360.286 116.414 361.139 116.622 362.02C116.817 362.895 116.924 363.785 116.943 364.678Z" fill="#21252B"/>
<path d="M533.174 365.925H19.6086C19.5083 365.943 19.405 365.943 19.3056 365.916C19.2068 365.893 19.1142 365.848 19.0348 365.78C18.9558 365.717 18.8921 365.636 18.8484 365.541C18.8046 365.451 18.782 365.351 18.782 365.247C18.782 365.144 18.8046 365.044 18.8484 364.949C18.8921 364.859 18.9558 364.778 19.0348 364.715C19.1142 364.647 19.2068 364.602 19.3056 364.575C19.405 364.552 19.5083 364.548 19.6086 364.57H533.174C533.273 364.548 533.377 364.552 533.476 364.575C533.576 364.602 533.67 364.647 533.747 364.715C533.828 364.778 533.892 364.859 533.937 364.949C533.977 365.044 534 365.144 534 365.247C534 365.351 533.977 365.451 533.937 365.541C533.892 365.636 533.828 365.717 533.747 365.78C533.67 365.848 533.576 365.893 533.476 365.916C533.377 365.943 533.273 365.943 533.174 365.925Z" fill="#B2B6BB"/>
<path d="M202.064 355.998L227.989 356.634L217.642 349.244C216.791 348.635 216.091 347.84 215.592 346.92C215.094 345.999 214.812 344.978 214.767 343.931L214.406 335.806L200.303 335.842L202.064 355.998Z" fill="#FC9D9D"/>
<path d="M207.21 164.287L204.154 142.168L216.487 140.732L217.634 148.817L232.007 130.846L238.476 133.365C238.476 133.365 229.493 160.319 221.354 168.152C220.669 168.808 219.884 169.352 219.029 169.763C217.839 170.327 216.506 170.517 215.206 170.305C213.906 170.094 212.702 169.493 211.752 168.58L207.21 164.287Z" fill="#FC9D9D"/>
<path opacity="0.15" d="M204.94 346.527V346.369C204.896 345.935 205.021 345.502 205.29 345.159C205.558 344.816 205.949 344.59 206.38 344.531L214.65 343.331L214.569 341.697H200.746L201.983 355.438L213.291 354.201L209.576 352.72C208.305 352.219 207.199 351.375 206.381 350.278C205.562 349.186 205.063 347.885 204.94 346.527Z" fill="black"/>
<path opacity="0.15" d="M212.149 161.083L211.16 143.446L206.845 144.525L206.276 158.564L207.206 164.279L211.747 168.59C212.698 169.5 213.903 170.1 215.202 170.31C216.502 170.521 217.834 170.331 219.024 169.768C219.879 169.359 220.664 168.816 221.349 168.161C221.669 167.854 223.778 165.367 224.098 165.001C224.098 165.001 218.049 171.05 213.869 165.841C212.812 164.473 212.211 162.809 212.149 161.083Z" fill="black"/>
<path d="M155.36 355.519H167.025L169.183 335.783L155.401 335.824L155.36 355.519Z" fill="#FC9D9D"/>
<path opacity="0.15" d="M158.276 352.201L158.556 346.129C158.577 345.741 158.733 345.376 158.995 345.091C159.258 344.807 159.612 344.622 159.996 344.572L168.384 343.295L168.587 341.615L155.441 341.656L155.401 355.65L158.276 352.201Z" fill="black"/>
<path d="M154.602 194.731V341.719H169.743L182.929 220.914C182.96 220.495 183.148 220.104 183.455 219.819C183.762 219.534 184.166 219.375 184.586 219.375C185.005 219.375 185.409 219.534 185.716 219.819C186.023 220.104 186.211 220.495 186.242 220.914L200.268 341.692H215.409L209.933 194.731H154.602Z" fill="#21252B"/>
<path d="M156.24 348.567L156.601 348.206C157.949 346.897 159.76 346.175 161.639 346.197C163.518 346.22 165.311 346.987 166.627 348.328L166.826 348.567C167.487 349.253 167.858 350.17 167.864 351.122V352.639C167.858 353.519 167.993 354.4 168.266 355.239L169.503 359.352C169.821 360.345 169.982 361.383 169.981 362.43V362.949C169.963 363.347 169.788 363.717 169.497 363.988C169.206 364.254 168.82 364.398 168.424 364.385H154.082C153.885 364.394 153.688 364.367 153.503 364.299C153.318 364.231 153.148 364.128 153.003 363.992C152.858 363.861 152.741 363.699 152.659 363.518C152.577 363.338 152.531 363.148 152.525 362.949V362.746C152.525 361.536 152.728 360.336 153.125 359.194L154.561 355.158C154.895 354.237 155.07 353.262 155.08 352.282L155.12 351.122C155.176 350.165 155.574 349.258 156.24 348.567Z" fill="#66D9E8"/>
<path d="M154.203 341.697H170.342L170.662 338.379H154.24L154.203 341.697Z" fill="#21252B"/>
<path opacity="0.3" d="M154.203 341.697H160.952L161.115 338.379H154.24L154.203 341.697Z" fill="black"/>
<path d="M141.127 185.134H144.68V140.931H141.488C138.685 140.931 136.41 143.382 136.41 146.402L136.053 179.658C136.053 182.683 138.324 185.134 141.127 185.134Z" fill="#3F4249"/>
<path d="M143.641 186.213H147.194V140.931H143.285C140.481 140.931 138.929 142.863 138.929 145.96L138.567 180.602C138.567 183.699 140.838 186.213 143.641 186.213Z" fill="#21252B"/>
<path d="M148.413 107.864H184.13C188.535 107.864 192.106 111.074 192.106 115.028V180.128C192.106 184.082 188.535 187.287 184.13 187.287H147.262C142.856 187.287 139.285 184.082 139.285 180.128L140.445 115.028C140.445 111.074 144.016 107.864 148.413 107.864Z" fill="#3F4249"/>
<path d="M156.335 110.348L186.522 109.305C190.206 109.305 193.194 112.411 193.194 116.243V178.932C193.194 182.765 190.206 185.871 186.522 185.871L155.663 187.306C151.979 187.306 148.991 184.2 148.991 180.368L149.659 117.304C149.659 113.476 152.647 110.348 156.335 110.348Z" fill="#21252B"/>
<path d="M176.851 113.078C176.634 113.078 176.422 113.012 176.242 112.89C176.063 112.767 175.924 112.594 175.845 112.391L174.558 109.105C174.283 108.568 173.865 108.117 173.349 107.804C172.834 107.489 172.241 107.325 171.637 107.326H164.464C163.793 107.328 163.138 107.533 162.587 107.916C162.036 108.3 161.615 108.842 161.381 109.471L160.632 112.274C160.602 112.418 160.544 112.555 160.46 112.676C160.376 112.797 160.268 112.899 160.143 112.976C160.018 113.054 159.878 113.105 159.732 113.127C159.587 113.148 159.439 113.14 159.296 113.102C159.154 113.064 159.021 112.998 158.905 112.906C158.79 112.815 158.695 112.701 158.625 112.571C158.555 112.442 158.512 112.3 158.5 112.153C158.487 112.006 158.504 111.859 158.551 111.719L159.336 108.784C159.716 107.729 160.412 106.815 161.33 106.169C162.247 105.522 163.342 105.175 164.464 105.173H171.628C172.64 105.17 173.633 105.45 174.494 105.982C175.355 106.515 176.05 107.278 176.499 108.184L176.535 108.27L177.844 111.61C177.896 111.742 177.922 111.883 177.919 112.024C177.917 112.166 177.886 112.305 177.829 112.435C177.773 112.564 177.691 112.681 177.589 112.779C177.487 112.877 177.367 112.954 177.235 113.005C177.113 113.052 176.983 113.077 176.851 113.078Z" fill="#21252B"/>
<path opacity="0.3" d="M152.525 362.747V362.95C152.544 363.347 152.717 363.717 153.009 363.988C153.301 364.254 153.686 364.399 154.082 364.385H168.424C168.621 364.394 168.818 364.367 169.003 364.299C169.188 364.232 169.359 364.128 169.504 363.992C169.648 363.862 169.765 363.699 169.848 363.518C169.929 363.342 169.975 363.148 169.981 362.95V362.431C169.988 362.227 169.974 362.029 169.941 361.83H152.525V362.747Z" fill="black"/>
<path d="M185.384 110.802L202.362 113.375C203.905 113.63 205.364 114.256 206.611 115.2C207.858 116.143 208.857 117.376 209.522 118.792C212.6 125.112 217.453 142.203 217.453 142.203L208.826 144.009L211.345 199.696H153.112V145.421L136.224 142.546L143.045 121.207C143.479 119.516 144.372 117.977 145.625 116.761C146.878 115.544 148.442 114.698 150.146 114.314L164.592 110.919L185.384 110.802Z" fill="#66D9E8"/>
<path d="M185.384 110.803L202.362 113.376C203.905 113.631 205.364 114.257 206.611 115.2C207.858 116.144 208.857 117.377 209.522 118.793C212.6 125.113 217.453 142.204 217.453 142.204L208.826 144.01L211.345 199.697H153.112V145.422L136.224 142.547L143.045 121.208C143.479 119.517 144.372 117.978 145.625 116.761C146.878 115.545 148.442 114.698 150.146 114.315L170.009 109.566L185.384 110.803Z" fill="#66D9E8"/>
<path d="M200.268 351.402V361.509C200.266 361.898 200.342 362.281 200.49 362.642C200.638 362.999 200.855 363.329 201.13 363.604C201.404 363.875 201.73 364.096 202.089 364.245C202.447 364.39 202.832 364.466 203.22 364.466H237.578C237.906 364.466 238.22 364.335 238.453 364.105C238.685 363.87 238.817 363.559 238.819 363.229C238.815 362.056 238.443 360.909 237.755 359.957C237.067 359.004 236.097 358.291 234.982 357.916L227.231 355.357L217.404 347.728C216.91 347.344 216.298 347.141 215.672 347.154C215.045 347.168 214.443 347.402 213.969 347.809L209.612 351.524C209.299 351.795 208.922 351.98 208.516 352.066C208.111 352.147 207.691 352.124 207.296 352.002L201.785 350.283C201.609 350.233 201.425 350.219 201.245 350.251C201.065 350.283 200.895 350.359 200.748 350.468C200.601 350.576 200.481 350.716 200.398 350.878C200.315 351.041 200.27 351.222 200.268 351.402Z" fill="#66D9E8"/>
<g opacity="0.2">
<path opacity="0.2" d="M210.321 179.094H152.927V179.671H210.348L210.321 179.094Z" fill="white"/>
<path opacity="0.2" d="M210.515 183.834H152.927V184.411H210.537L210.515 183.834Z" fill="white"/>
<path opacity="0.2" d="M210.709 188.573H152.927V189.151H210.731L210.709 188.573Z" fill="white"/>
<path opacity="0.2" d="M200.042 113.023L198.106 112.734H158.317L158.222 113.312H200.127L200.042 113.023Z" fill="white"/>
<path opacity="0.2" d="M203.567 117.474H157.527L157.432 118.052H203.73L203.567 117.474Z" fill="white"/>
<path opacity="0.2" d="M204.913 122.214H156.737L156.642 122.792H205.08L204.913 122.214Z" fill="white"/>
<path opacity="0.2" d="M206.263 126.954H155.947L155.852 127.532H206.43L206.263 126.954Z" fill="white"/>
<path opacity="0.2" d="M207.161 131.694H155.157L155.062 132.272H207.323L207.161 131.694Z" fill="white"/>
<path opacity="0.2" d="M207.603 136.434H154.367L154.272 137.012H207.77L207.603 136.434Z" fill="white"/>
<path opacity="0.2" d="M208.05 141.174H153.577L153.482 141.752H208.217L208.05 141.174Z" fill="white"/>
<path opacity="0.2" d="M208.975 145.914H152.927V146.492H208.998L208.975 145.914Z" fill="white"/>
<path opacity="0.2" d="M209.165 150.654H152.927V151.232H209.192L209.165 150.654Z" fill="white"/>
<path opacity="0.2" d="M209.359 155.394H152.927V155.972H209.382L209.359 155.394Z" fill="white"/>
<path opacity="0.2" d="M209.553 160.134H152.927V160.712H209.576L209.553 160.134Z" fill="white"/>
<path opacity="0.2" d="M209.743 164.874H152.927V165.452H209.77L209.743 164.874Z" fill="white"/>
<path opacity="0.2" d="M209.937 169.614H152.927V170.192H209.959L209.937 169.614Z" fill="white"/>
<path opacity="0.2" d="M210.131 174.354H152.927V174.931H210.154L210.131 174.354Z" fill="white"/>
<path opacity="0.2" d="M210.898 193.313H152.927V193.891H210.926L210.898 193.313Z" fill="white"/>
</g>
<path opacity="0.3" d="M203.22 364.466H237.578C237.906 364.466 238.22 364.335 238.453 364.105C238.685 363.87 238.817 363.559 238.819 363.229C238.828 362.81 238.773 362.394 238.657 361.988H200.326C200.441 362.674 200.793 363.302 201.323 363.753C201.852 364.209 202.523 364.462 203.22 364.466Z" fill="black"/>
<path d="M217.205 351.763C217.131 351.763 217.06 351.732 217.006 351.682C216.975 351.655 216.95 351.619 216.933 351.578C216.916 351.542 216.907 351.497 216.907 351.456C216.907 351.411 216.916 351.371 216.933 351.335C216.95 351.294 216.975 351.258 217.006 351.231L219.083 348.974C219.112 348.942 219.147 348.919 219.186 348.901C219.225 348.888 219.266 348.879 219.308 348.879C219.35 348.879 219.392 348.888 219.431 348.901C219.47 348.919 219.504 348.942 219.534 348.974C219.565 349.001 219.59 349.037 219.607 349.077C219.624 349.114 219.633 349.154 219.633 349.199C219.633 349.24 219.624 349.285 219.607 349.321C219.59 349.362 219.565 349.398 219.534 349.425L217.458 351.682C217.381 351.727 217.294 351.754 217.205 351.763Z" fill="white"/>
<path d="M218.834 353.041C218.76 353.041 218.689 353.014 218.635 352.96C218.604 352.933 218.579 352.896 218.562 352.856C218.545 352.82 218.537 352.779 218.537 352.734C218.537 352.693 218.545 352.648 218.562 352.612C218.579 352.571 218.604 352.54 218.635 352.508L220.712 350.251C220.772 350.192 220.853 350.156 220.938 350.156C221.022 350.156 221.103 350.192 221.163 350.251C221.223 350.31 221.257 350.391 221.257 350.477C221.257 350.563 221.223 350.644 221.163 350.703L219.087 352.96C219.01 353.005 218.923 353.036 218.834 353.041Z" fill="white"/>
<path d="M220.481 354.318C220.406 354.318 220.334 354.287 220.278 354.237C220.248 354.205 220.224 354.174 220.208 354.133C220.192 354.093 220.183 354.052 220.183 354.011C220.183 353.971 220.192 353.926 220.208 353.889C220.224 353.849 220.248 353.813 220.278 353.786L222.359 351.528C222.389 351.497 222.424 351.474 222.463 351.456C222.501 351.443 222.543 351.434 222.585 351.434C222.627 351.434 222.669 351.443 222.708 351.456C222.746 351.474 222.781 351.497 222.811 351.528C222.87 351.587 222.904 351.668 222.904 351.754C222.904 351.84 222.87 351.921 222.811 351.98L220.734 354.214C220.702 354.246 220.662 354.273 220.619 354.291C220.575 354.309 220.529 354.318 220.481 354.318Z" fill="white"/>
<path d="M164.213 351.962C164.173 351.962 164.091 351.962 164.055 351.921C163.231 351.529 162.33 351.325 161.417 351.325C160.504 351.325 159.602 351.529 158.778 351.921C158.737 351.944 158.691 351.957 158.644 351.962C158.597 351.967 158.55 351.962 158.505 351.944C158.46 351.93 158.419 351.908 158.384 351.876C158.348 351.845 158.32 351.808 158.3 351.763C158.277 351.723 158.263 351.678 158.259 351.628C158.255 351.583 158.26 351.533 158.276 351.488C158.291 351.443 158.315 351.402 158.348 351.366C158.38 351.334 158.419 351.303 158.462 351.285C159.388 350.829 160.405 350.594 161.437 350.594C162.469 350.594 163.487 350.829 164.412 351.285C164.492 351.33 164.553 351.407 164.583 351.493C164.613 351.583 164.61 351.678 164.574 351.763C164.534 351.822 164.481 351.872 164.418 351.908C164.355 351.939 164.285 351.962 164.213 351.962Z" fill="white"/>
<path d="M164.213 353.799C164.173 353.799 164.091 353.799 164.055 353.759C163.231 353.366 162.33 353.163 161.417 353.163C160.504 353.163 159.602 353.366 158.778 353.759C158.737 353.781 158.691 353.795 158.644 353.799C158.597 353.804 158.55 353.799 158.505 353.781C158.46 353.768 158.419 353.745 158.384 353.713C158.348 353.682 158.32 353.646 158.3 353.601C158.277 353.56 158.263 353.515 158.259 353.465C158.255 353.42 158.26 353.37 158.276 353.325C158.291 353.28 158.315 353.239 158.348 353.203C158.38 353.172 158.419 353.14 158.462 353.122C159.388 352.666 160.405 352.431 161.437 352.431C162.469 352.431 163.487 352.666 164.412 353.122C164.492 353.167 164.553 353.244 164.583 353.33C164.613 353.42 164.61 353.515 164.574 353.601C164.534 353.659 164.481 353.709 164.418 353.745C164.355 353.777 164.285 353.799 164.213 353.799Z" fill="white"/>
<path d="M164.212 355.596C164.171 355.596 164.09 355.596 164.054 355.555C163.229 355.167 162.328 354.964 161.415 354.964C160.503 354.964 159.602 355.167 158.776 355.555C158.734 355.582 158.687 355.596 158.638 355.605C158.59 355.609 158.539 355.605 158.492 355.591C158.445 355.578 158.4 355.555 158.362 355.524C158.325 355.492 158.294 355.451 158.272 355.411C158.25 355.366 158.237 355.316 158.235 355.266C158.233 355.217 158.241 355.167 158.259 355.122C158.276 355.077 158.303 355.036 158.338 355C158.373 354.964 158.415 354.937 158.46 354.919C159.387 354.467 160.404 354.228 161.435 354.228C162.467 354.228 163.484 354.467 164.41 354.919C164.491 354.964 164.551 355.041 164.582 355.126C164.611 355.217 164.608 355.311 164.573 355.397C164.535 355.46 164.481 355.51 164.418 355.542C164.355 355.578 164.284 355.596 164.212 355.596Z" fill="white"/>
<path opacity="0.3" d="M209.297 339.855L194.355 226.429C194.123 224.504 193.194 222.73 191.744 221.443C190.293 220.155 188.421 219.443 186.482 219.441H184.604C185.018 219.442 185.416 219.599 185.719 219.88C186.023 220.161 186.21 220.546 186.243 220.958L200.187 341.015L209.297 339.855Z" fill="black"/>
<path d="M199.875 341.697H215.977L215.733 338.379H199.545L199.875 341.697Z" fill="#21252B"/>
<path opacity="0.3" d="M199.875 341.697H209.463L209.102 338.379H199.545L199.875 341.697Z" fill="black"/>
<path opacity="0.3" d="M167.03 199.734L154.561 199.589V338.297L161.075 338.338L166.989 225.871L167.03 199.734Z" fill="black"/>
<path d="M172.79 92.7093L173.21 90.7773C174.207 77.537 191.267 88.8045 191.267 88.8045C191.267 88.8045 190.702 93.5219 190.409 98.7358C190.409 99.8599 189.402 100.668 189.195 101.526V105.227L189.556 112.351C189.556 112.351 186.798 116.098 180.527 116.129C180.527 116.129 173.824 116.17 170.023 111.164L172.79 92.7093Z" fill="#FC9D9D"/>
<path d="M190.905 88.1956C191.665 88.1875 192.416 88.0259 193.112 87.7216C193.809 87.4169 194.437 86.9749 194.959 86.4228C195.481 85.8703 195.887 85.2184 196.152 84.5061C196.417 83.7933 196.536 83.0349 196.502 82.2756C196.468 81.5159 196.281 80.771 195.953 80.0853C195.625 79.3996 195.162 78.787 194.592 78.2837C194.022 77.7808 193.357 77.3971 192.636 77.1565C191.915 76.9159 191.153 76.8229 190.395 76.8829C190.219 76.8829 189.763 76.7701 189.822 76.9416C191.099 81.8757 189.645 88.1956 190.905 88.1956Z" fill="#21252B"/>
<path d="M193.735 73.2629C193.735 73.2629 199.965 104.47 185.56 106.05C173.082 107.404 172.171 87.9613 172.171 87.9613L173.073 75.4162L182.752 71.8048L193.735 73.2629Z" fill="#FC9D9D"/>
<path d="M189.65 80.7339C188.192 78.7071 185.772 77.2219 183.204 77.2896C180.31 77.3573 177.963 79.6731 178.238 83.0497L178.297 83.7991C178.321 84.139 178.212 84.4749 177.993 84.7363C177.774 84.9972 177.462 85.1633 177.123 85.1985C176.806 85.2066 176.494 85.2775 176.205 85.4066C175.915 85.5357 175.654 85.7208 175.437 85.951C175.219 86.1813 175.049 86.4521 174.936 86.7483C174.823 87.0444 174.77 87.3599 174.78 87.6768L174.848 89.8753C174.848 89.9389 174.836 90.0021 174.812 90.0608C174.788 90.1199 174.753 90.1732 174.707 90.2183C174.663 90.263 174.609 90.2987 174.55 90.3226C174.491 90.347 174.428 90.3587 174.365 90.3583C174.365 90.3583 173.724 90.4711 173.615 89.9339L173.281 87.5775L175.457 74.2786L186.477 71.3218L191.108 75.2085L189.65 80.7339Z" fill="#814828"/>
<path opacity="0.15" d="M172.79 92.7775C172.79 92.7775 173.648 92.7188 174.339 91.5902L172.641 94.5471L172.79 92.7775Z" fill="black"/>
<path d="M188.409 97.6764L182.667 96.3673C182.64 97.0223 182.84 97.6665 183.233 98.191C183.626 98.7156 184.188 99.0889 184.824 99.2474C187.564 99.9335 188.409 97.6764 188.409 97.6764Z" fill="white"/>
<path d="M183.275 90.3087C183.043 90.3096 182.815 90.2415 182.621 90.1128C182.427 89.9846 182.275 89.8013 182.185 89.5864C182.095 89.372 182.07 89.1355 182.114 88.9066C182.159 88.6782 182.27 88.4678 182.433 88.3021C182.597 88.1365 182.806 88.0232 183.034 87.9762C183.262 87.9297 183.499 87.9514 183.715 88.039C183.93 88.1266 184.115 88.2764 184.246 88.4687C184.377 88.6615 184.447 88.8885 184.449 89.1215C184.45 89.2763 184.421 89.4302 184.362 89.5743C184.304 89.7178 184.218 89.8487 184.109 89.9589C184 90.069 183.87 90.1566 183.727 90.2166C183.584 90.2767 183.431 90.3083 183.275 90.3087Z" fill="#21252B"/>
<path d="M183.804 89.0167C183.748 89.0167 183.694 88.9946 183.654 88.9549C183.614 88.9152 183.592 88.861 183.592 88.8046C183.592 88.7486 183.614 88.6944 183.654 88.6547C183.694 88.615 183.748 88.5924 183.804 88.5924C183.833 88.5915 183.861 88.596 183.887 88.6059C183.914 88.6163 183.938 88.6317 183.959 88.6515C183.979 88.6714 183.995 88.6953 184.005 88.7215C184.016 88.7481 184.021 88.7761 184.021 88.8046C184.021 88.833 184.015 88.861 184.004 88.8872C183.993 88.9129 183.977 88.9364 183.957 88.9562C183.937 88.9761 183.913 88.9915 183.887 89.0018C183.86 89.0127 183.832 89.0176 183.804 89.0167Z" fill="white"/>
<path d="M161.053 111.67C161.053 111.67 176.13 130.53 179.868 151.016C179.868 151.016 183.868 169.343 153.103 184.615V182.588C153.103 182.588 171.612 171.835 174.352 156.022L173.729 149.842C173.729 149.842 166.447 129.979 154.507 113.277L161.053 111.67Z" fill="#21252B"/>
<path d="M192.44 90.5786C192.207 90.5795 191.979 90.5114 191.785 90.3827C191.591 90.2541 191.439 90.0708 191.349 89.8563C191.259 89.6415 191.234 89.4049 191.279 89.1765C191.323 88.9476 191.434 88.7373 191.597 88.5721C191.761 88.4064 191.97 88.2931 192.198 88.2461C192.426 88.1992 192.663 88.2208 192.879 88.3089C193.095 88.3964 193.279 88.5459 193.41 88.7386C193.541 88.9314 193.612 89.1584 193.613 89.3914C193.615 89.5462 193.585 89.7002 193.527 89.8437C193.469 89.9877 193.382 90.1182 193.273 90.2288C193.164 90.3389 193.034 90.4265 192.891 90.4865C192.749 90.5466 192.595 90.5777 192.44 90.5786Z" fill="#21252B"/>
<path d="M192.915 89.2379C192.857 89.237 192.803 89.214 192.763 89.1733C192.722 89.1332 192.699 89.0785 192.698 89.0212C192.699 88.9648 192.722 88.9106 192.763 88.8713C192.803 88.8316 192.858 88.809 192.915 88.809C192.943 88.8086 192.97 88.8136 192.996 88.8244C193.023 88.8348 193.046 88.8501 193.066 88.87C193.086 88.8898 193.101 88.9133 193.112 88.9395C193.122 88.9657 193.127 88.9932 193.127 89.0212C193.127 89.0781 193.104 89.1327 193.065 89.1729C193.025 89.2135 192.971 89.237 192.915 89.2379Z" fill="white"/>
<path opacity="0.2" d="M152.927 145.603L153.798 137.883C153.933 135.852 154.728 133.852 155.441 131.943C155.441 131.943 158.579 124.196 164.736 199.588L152.927 199.868V145.603Z" fill="black"/>
<g opacity="0.3">
<path opacity="0.3" d="M188.29 95.9054L186.787 95.9686C186.742 95.9722 186.696 95.9668 186.652 95.9524C186.608 95.9384 186.568 95.9158 186.533 95.886C186.499 95.8562 186.47 95.8201 186.449 95.779C186.429 95.7384 186.416 95.6937 186.412 95.6481C186.409 95.6025 186.414 95.5565 186.429 95.5131C186.443 95.4693 186.465 95.4292 186.495 95.3944C186.525 95.3596 186.561 95.3312 186.602 95.3104C186.643 95.2897 186.687 95.277 186.733 95.2734L188.232 95.2102C188.606 95.1561 188.927 94.831 188.873 94.5105C188.819 94.19 188.494 93.8153 188.169 93.8695C188.082 93.8587 188.001 93.823 187.935 93.767C187.868 93.7106 187.819 93.6366 187.794 93.5535C187.74 93.391 187.952 93.2285 188.114 93.1743C188.474 93.1626 188.824 93.2876 189.094 93.5251C189.364 93.7625 189.534 94.0939 189.568 94.4518C189.581 94.6315 189.559 94.8121 189.502 94.9832C189.445 95.1543 189.353 95.3118 189.235 95.4472C189.116 95.5827 188.971 95.6928 188.809 95.7714C188.647 95.8504 188.471 95.8959 188.29 95.9054Z" fill="black"/>
</g>
<path d="M195.811 86.4345L190.774 86.2991H190.074L185.682 86.2178H185.627L179.948 86.0869C179.508 86.0783 179.082 86.2436 178.763 86.5469C178.443 86.8503 178.257 87.2674 178.242 87.7075L178.197 88.9941C178.169 90.1949 178.618 91.3577 179.446 92.2272C180.275 93.0966 181.416 93.6013 182.616 93.6302C183.818 93.6586 184.98 93.2095 185.85 92.3807C186.719 91.5518 187.224 90.4116 187.252 89.2108L187.298 87.9242C187.315 87.7418 187.295 87.5577 187.239 87.383C187.183 87.2083 187.093 87.0471 186.973 86.9085L188.738 86.9491C188.612 87.0864 188.516 87.2475 188.453 87.4227C188.39 87.5978 188.363 87.7834 188.372 87.9694L188.322 89.2559C188.308 89.8509 188.411 90.4427 188.626 90.9975C188.841 91.5528 189.162 92.0602 189.573 92.4908C189.984 92.9215 190.475 93.2673 191.019 93.5079C191.563 93.7489 192.15 93.8798 192.744 93.8943C193.339 93.9083 193.931 93.8053 194.486 93.5909C195.041 93.3765 195.548 93.0546 195.979 92.6438C196.41 92.2335 196.755 91.7419 196.996 91.1979C197.237 90.6535 197.368 90.0676 197.382 89.4726L197.428 88.186C197.428 87.7441 197.262 87.3189 196.962 86.9943C196.663 86.6693 196.252 86.4697 195.811 86.4345ZM186.711 87.9332L186.661 89.2153C186.613 90.2202 186.174 91.1663 185.439 91.852C184.703 92.5382 183.728 92.9102 182.722 92.8885C181.717 92.8664 180.759 92.4529 180.054 91.7356C179.349 91.0183 178.951 90.054 178.946 89.0483L178.991 87.7617C179.001 87.5003 179.112 87.2525 179.301 87.0715C179.489 86.8905 179.741 86.7898 180.003 86.7911L185.74 86.9175C185.989 86.9582 186.217 87.0796 186.389 87.2633C186.562 87.4471 186.668 87.6827 186.693 87.9332H186.711ZM196.714 89.4816C196.717 89.9967 196.615 90.5072 196.417 90.983C196.218 91.4584 195.927 91.8895 195.559 92.2502C195.191 92.6113 194.755 92.8948 194.276 93.0849C193.796 93.2745 193.284 93.3661 192.769 93.3548C192.254 93.3431 191.746 93.2289 191.276 93.0181C190.806 92.8073 190.383 92.5043 190.031 92.1274C189.68 91.7505 189.408 91.3067 189.231 90.8233C189.053 90.3393 188.975 89.8247 188.999 89.3101L189.045 88.0235C189.055 87.7621 189.167 87.5157 189.355 87.3346C189.543 87.1536 189.795 87.0525 190.056 87.053H190.756L195.793 87.1839C196.055 87.1943 196.302 87.3053 196.482 87.494C196.663 87.6827 196.764 87.9337 196.764 88.1951L196.714 89.4816Z" fill="#21252B"/>
<path d="M169.335 79.2945C169.746 75.9178 171.497 73.3898 174.441 72.7308C175.684 72.4766 176.971 72.5249 178.192 72.8707C178.302 72.9041 178.416 72.9154 178.53 72.9032C178.644 72.891 178.754 72.8563 178.854 72.8007C178.954 72.7452 179.041 72.6698 179.112 72.5795C179.182 72.4888 179.233 72.3854 179.262 72.2748C179.534 71.1594 180.17 70.1662 181.069 69.4525C181.968 68.7388 183.079 68.3452 184.227 68.3339C185.033 68.3199 185.83 68.5005 186.55 68.8607C187.271 69.2205 187.894 69.7491 188.367 70.4014C188.433 70.4985 188.519 70.5806 188.619 70.642C188.72 70.7034 188.832 70.7427 188.948 70.7571C189.065 70.7716 189.184 70.7612 189.296 70.726C189.408 70.6912 189.512 70.633 189.599 70.5549C189.599 70.5549 193.012 67.8012 197.531 70.5549C199.059 71.534 200.169 73.0472 200.643 74.7992C201.118 76.5516 200.925 78.4173 200.099 80.0348C198.294 83.6462 193.59 84.7341 190.683 82.0165C189.456 80.8144 188.737 79.187 188.674 77.4707C188.528 76.2839 188.631 75.08 188.976 73.9361H187.473C185.704 73.8413 182.918 73.5343 180.296 73.9361C180.35 73.9902 180.399 73.9902 180.454 74.0444L175.804 75.6244C175.804 75.6244 174.423 87.9573 173.673 87.8534C170.396 87.1673 168.924 82.3506 169.335 79.2945Z" fill="#814828"/>
<path d="M173.286 86.5072C173.286 86.5072 172.794 84.205 170.329 84.9137C167.548 85.7353 168.072 91.3555 171.769 92.624C174.076 93.0754 173.746 91.7211 173.575 89.8252L173.286 86.5072Z" fill="#FC9D9D"/>
<path opacity="0.15" d="M170.017 86.472C170.214 86.3406 170.439 86.2576 170.674 86.2287C170.91 86.1993 171.148 86.2255 171.371 86.305C171.779 86.4756 172.103 86.7997 172.274 87.2078C172.511 87.7274 172.588 88.3057 172.495 88.8691V89.3521C172.494 89.3895 172.484 89.4266 172.466 89.4595C172.447 89.4925 172.421 89.5209 172.39 89.5417C172.359 89.5629 172.323 89.5764 172.285 89.5809C172.248 89.5859 172.21 89.5814 172.175 89.5688C172.137 89.5683 172.099 89.5588 172.066 89.5408C172.032 89.5227 172.003 89.497 171.982 89.4654C171.961 89.4338 171.947 89.3977 171.943 89.3598C171.939 89.3218 171.944 89.2835 171.958 89.2482V88.7652C171.994 88.2935 171.937 87.8199 171.791 87.3703C171.667 87.0999 171.46 86.8769 171.2 86.7338C170.91 86.6693 170.606 86.709 170.342 86.8467C170.276 86.8706 170.204 86.8733 170.137 86.8539C170.069 86.834 170.01 86.7939 169.967 86.7383C169.859 86.7383 169.913 86.5803 170.017 86.472Z" fill="black"/>
<path opacity="0.15" d="M176.287 102.967C177.936 105.004 180.297 106.34 182.892 106.704C184.807 108.032 187.094 108.718 189.424 108.663L189.225 104.786L188.697 105.084C186.721 106.103 184.454 106.409 182.279 105.95C180.103 105.492 178.153 104.295 176.757 102.565C176.698 102.447 176.464 102.447 176.346 102.511C176.297 102.574 176.265 102.65 176.255 102.73C176.244 102.811 176.256 102.892 176.287 102.967Z" fill="black"/>
<path d="M169.295 165.185L176.274 165.159C176.65 165.177 177.026 165.136 177.389 165.036L182.721 163.583C183.226 163.443 183.661 163.121 183.944 162.68C184.285 162.196 184.446 161.609 184.4 161.019C184.354 160.428 184.103 159.873 183.691 159.448C183.691 159.448 184.77 158.008 183.335 156.211C183.335 156.211 184.77 154.406 182.973 152.979C182.973 152.979 183.515 150.641 181.719 149.923L173.814 149.842C172.878 149.895 171.982 150.243 171.255 150.835L166.442 154.776L153.143 157.646V145.422L137.872 142.714C137.872 142.714 132.789 160.531 131.895 172.322C131.84 173.056 131.945 173.793 132.201 174.482C132.457 175.172 132.86 175.798 133.38 176.318C134.698 177.636 136.581 177.902 138.423 177.613C143.239 176.869 151.482 175.591 169.295 165.185Z" fill="#FC9D9D"/>
<path opacity="0.15" d="M153.121 145.604L152.218 145.242L150.783 157.101C147.744 157.871 144.837 159.088 142.156 160.713C142.156 160.713 144.675 159.277 153.117 157.693L153.121 145.604Z" fill="black"/>
<path d="M245.229 113.024H235.934C235.77 113.024 235.608 113.065 235.464 113.144C235.319 113.223 235.197 113.337 235.108 113.475L224.274 130.557C224.238 130.615 224.217 130.682 224.215 130.751C224.212 130.819 224.228 130.888 224.26 130.948C224.292 131.009 224.339 131.06 224.397 131.097C224.455 131.134 224.521 131.154 224.59 131.158L234.697 131.541L245.572 113.615C245.607 113.555 245.626 113.487 245.626 113.418C245.626 113.348 245.608 113.28 245.573 113.219C245.538 113.159 245.488 113.11 245.428 113.075C245.367 113.041 245.299 113.023 245.229 113.024Z" fill="#66D9E8"/>
<path opacity="0.2" d="M245.229 113.024H235.609C235.543 113.024 235.479 113.041 235.421 113.072C235.364 113.104 235.315 113.149 235.279 113.205L224.251 130.562C224.215 130.62 224.194 130.687 224.192 130.755C224.189 130.824 224.205 130.892 224.237 130.953C224.269 131.014 224.316 131.065 224.374 131.102C224.432 131.138 224.498 131.159 224.567 131.162L234.674 131.546L245.549 113.62C245.585 113.562 245.604 113.495 245.606 113.427C245.608 113.358 245.592 113.291 245.559 113.23C245.527 113.17 245.479 113.12 245.421 113.083C245.364 113.047 245.297 113.027 245.229 113.024Z" fill="black"/>
<path d="M245.51 113.643H236.242C236.117 113.642 235.995 113.673 235.886 113.733C235.777 113.793 235.685 113.88 235.619 113.986L224.726 131.14L234.563 131.758L245.51 113.643Z" fill="#66D9E8"/>
<path opacity="0.15" d="M179.538 153.146L182.77 152.79" stroke="black" stroke-width="0.537193" stroke-miterlimit="10" stroke-linecap="round"/>
<path opacity="0.15" d="M180.076 156.563L183.313 156.201" stroke="black" stroke-width="0.537193" stroke-miterlimit="10" stroke-linecap="round"/>
<path opacity="0.15" d="M180.437 159.796L183.669 159.439" stroke="black" stroke-width="0.537193" stroke-miterlimit="10" stroke-linecap="round"/>
<path opacity="0.15" d="M131.963 171.645C131.898 172.016 131.869 172.392 131.877 172.769C131.896 173.676 132.146 174.563 132.604 175.346C133.881 177.513 136.165 177.974 138.4 177.626C143.239 176.868 151.491 175.59 169.295 165.185L176.274 165.158C176.65 165.176 177.026 165.135 177.389 165.036L182.721 163.582C183.226 163.442 183.662 163.121 183.944 162.679C184.285 162.195 184.446 161.608 184.4 161.018C184.354 160.428 184.103 159.872 183.691 159.447C183.691 159.447 184.77 158.007 183.335 156.211C183.335 156.211 184.77 154.405 182.974 152.978C182.974 152.978 183.515 150.64 181.719 149.922H180.459C180.772 150.396 180.967 150.938 181.03 151.502C181.092 152.066 181.018 152.637 180.816 153.168C181.895 155.145 181.177 156.585 181.177 156.585C182.617 157.66 181.719 159.817 181.719 159.817C181.79 160.103 181.837 160.395 181.859 160.689C181.899 161.301 181.701 161.905 181.305 162.374C180.909 162.843 180.347 163.14 179.737 163.203L175.949 163.582H168.758C152.958 172.209 138.653 174.006 138.653 174.006C132.098 174.006 132.098 168.616 132.098 168.616L131.963 171.645Z" fill="black"/>
<path opacity="0.2" d="M208.826 143.983L206.493 127.993C206.493 127.993 208.835 126.977 211.255 143.477L208.826 143.983Z" fill="black"/>
<path opacity="0.15" d="M217.454 149.279C214.217 154.461 213.319 155.666 213.319 155.666C214.398 152.055 217.296 146.475 217.296 146.475L217.454 149.279Z" fill="black"/>
<path d="M242.931 123.505L243.509 117.209L241.649 119.827L242.931 123.505Z" fill="#FC9D9D"/>
<path opacity="0.15" d="M242.931 123.505L243.509 117.209L241.649 119.827L242.931 123.505Z" fill="black"/>
<path d="M241.997 120.387L239.289 116.044C239.17 115.845 238.979 115.699 238.755 115.637C238.532 115.574 238.293 115.6 238.088 115.71C237.888 115.808 237.731 115.976 237.648 116.183C237.564 116.39 237.56 116.62 237.636 116.83L239.28 121.601L233.659 120.003C233.523 119.963 233.38 119.954 233.239 119.977C233.1 120.001 232.967 120.056 232.851 120.139L232.747 120.211C232.607 120.312 232.496 120.449 232.427 120.608C232.357 120.767 232.333 120.942 232.355 121.114C232.375 121.253 232.427 121.387 232.505 121.505C232.583 121.622 232.686 121.721 232.806 121.795L237.826 124.554L238.061 126.097L231.474 123.759C231.238 123.668 230.977 123.67 230.742 123.764C230.507 123.859 230.317 124.039 230.21 124.269C230.104 124.503 230.092 124.768 230.176 125.011C230.26 125.254 230.434 125.455 230.662 125.574L236.354 128.734L235.763 129.524L230.4 127.145C230.174 127.044 229.918 127.035 229.686 127.12C229.454 127.204 229.263 127.374 229.154 127.596C229.047 127.824 229.035 128.084 229.119 128.321C229.204 128.558 229.379 128.751 229.606 128.86L232.007 130.864C232.007 130.864 228.441 133.031 232.129 136.909L233.908 138.218L242.069 130.092C242.241 129.926 242.372 129.722 242.45 129.496C242.529 129.27 242.553 129.029 242.521 128.792L242.322 127.488L243.121 126.409C243.28 126.191 243.387 125.94 243.434 125.675C243.48 125.409 243.464 125.137 243.387 124.879L241.997 120.387Z" fill="#FC9D9D"/>
<path opacity="0.15" d="M235.731 129.501L238.101 131.248L236.323 128.711L235.731 129.501Z" fill="black"/>
<path opacity="0.15" d="M237.84 124.553C237.84 124.553 239.619 125.862 239.93 127.925L238.125 126.191L237.84 124.553Z" fill="black"/>
<path opacity="0.15" d="M237.861 117.452L240.231 120.914L241.649 123.334L239.279 121.587L237.861 117.452Z" fill="black"/>
<path opacity="0.1" d="M233.442 137.401C232.878 137.048 232.375 136.605 231.952 136.091C231.891 135.715 231.962 135.328 232.155 134.998C232.348 134.668 232.65 134.416 233.009 134.285L235.022 133.559L233.668 131.654L231.993 130.864C229.682 132.313 230.567 134.516 230.914 135.18C230.914 135.18 230.914 135.216 230.968 135.297C230.967 135.331 230.975 135.366 230.991 135.396C231.243 135.815 231.538 136.208 231.871 136.566C231.984 136.701 232.101 136.85 232.241 137.017C232.217 136.975 232.196 136.931 232.178 136.886C232.501 137.203 232.859 137.483 233.243 137.721C233.271 137.728 233.301 137.728 233.329 137.721C233.362 137.723 233.394 137.716 233.423 137.701C233.451 137.686 233.475 137.663 233.492 137.635C233.513 137.597 233.519 137.552 233.51 137.509C233.501 137.466 233.477 137.427 233.442 137.401Z" fill="black"/>
<path d="M79.4171 364.466H72.6458V64.6674C72.6458 62.4554 74.1625 60.6588 76.0359 60.6588C77.9093 60.6588 79.4261 62.4645 79.4261 64.6674L79.4171 364.466Z" fill="#61656D"/>
<path d="M37.4754 79.5969L53.1037 90.1737L105.852 90.6342L105.911 84.084L105.947 79.9445L106.024 70.9837L53.6228 70.5233L37.4754 79.5969Z" fill="#66D9E8"/>
<path opacity="0.2" d="M105.911 84.084L105.852 90.6342L53.1037 90.1737L37.4754 79.5969L53.6228 70.5233L106.024 70.9837L105.947 79.9445L105.911 84.084Z" fill="black"/>
<path d="M101.595 79.939L101.672 70.9783L51.2979 70.5268C49.9693 70.5178 48.6611 70.8537 47.5014 71.5019L35.9631 77.9934C35.6642 78.1618 35.4132 78.4037 35.234 78.6963C35.0548 78.9888 34.9537 79.3224 34.9397 79.665C34.9257 80.0081 34.9993 80.3485 35.1541 80.655C35.3085 80.961 35.5387 81.2229 35.8231 81.4152L46.8423 88.8772C48.0833 89.7191 49.5455 90.1746 51.0451 90.1863L101.492 90.6377L101.55 84.0876L101.595 79.939Z" fill="#66D9E8"/>
<path d="M120.396 115.949L104.764 126.525L52.0148 126.986L51.9607 120.431L51.9246 116.296L51.8433 107.331L104.249 106.875L120.396 115.949Z" fill="#66D9E8"/>
<path opacity="0.2" d="M51.9607 120.431L52.0148 126.986L104.764 126.525L120.396 115.949L104.249 106.875L51.8433 107.331L51.9246 116.296L51.9607 120.431Z" fill="black"/>
<path d="M56.2767 116.293L56.1955 107.332L106.574 106.88C107.903 106.871 109.211 107.207 110.371 107.855L121.909 114.338C122.208 114.506 122.459 114.748 122.638 115.041C122.817 115.333 122.918 115.667 122.932 116.01C122.946 116.353 122.873 116.693 122.718 116.999C122.563 117.306 122.333 117.567 122.049 117.76L111.021 125.213C109.779 126.052 108.317 126.508 106.818 126.522L56.367 126.973L56.3219 120.432L56.2767 116.293Z" fill="#66D9E8"/>
</svg>
