<svg width="81" height="49" viewBox="0 0 81 49" fill="none" xmlns="http://www.w3.org/2000/svg">
<path d="M76.0664 30.5968C73.2283 37.7952 67.8926 44.0994 60.4813 46.8705C59.5174 47.2304 58.5331 47.5357 57.5334 47.7849C52.2458 49.1053 46.4611 48.646 41.5868 46.24C39.5181 45.218 37.6317 43.8676 35.5555 42.8604C33.4793 41.8531 31.1083 41.1938 28.8485 41.691C26.9028 42.1191 25.2612 43.346 23.6083 44.4389C19.7119 47.0155 15.0269 49.0545 10.413 48.1695C8.28994 47.7628 6.19936 46.6363 5.21339 44.7532C3.03414 40.5901 7.14411 35.6406 6.31176 31.0365C5.77912 28.0899 3.34636 25.8833 1.834 23.2828C-0.754247 18.836 -0.448278 12.9262 2.58643 8.75825C5.62114 4.59029 11.2235 2.3794 16.36 3.32491C22.623 4.47776 27.3593 9.67013 33.4499 11.5067C37.2589 12.6547 41.3945 12.3122 45.0324 10.8003C50.9101 8.35705 58.9852 4.60986 65.5997 5.22022C69.1171 5.54497 72.5671 7.07394 74.8887 9.68481C77.8235 12.9807 78.7033 17.6599 78.2138 22.0058C77.8778 24.948 77.156 27.8354 76.0664 30.5968Z" fill="url(#paint0_linear_343_1333)"/>
<path d="M77.9545 36.29C77.824 36.2898 77.6941 36.2744 77.5673 36.2441C77.1666 36.1476 76.8185 35.9049 76.5943 35.5656C76.37 35.2263 76.2864 34.816 76.3606 34.4184C76.4348 34.0207 76.6611 33.6659 76.9934 33.4261C77.3257 33.1864 77.7388 33.08 78.1485 33.1285C78.5582 33.1771 78.9335 33.3769 79.1979 33.6873C79.4622 33.9977 79.5956 34.3952 79.5709 34.7987C79.5461 35.2022 79.365 35.5812 79.0646 35.8583C78.7642 36.1354 78.3672 36.2898 77.9545 36.29ZM77.9545 33.8326C77.7398 33.8334 77.5328 33.9111 77.3725 34.0509C77.2123 34.1908 77.1097 34.3832 77.0842 34.592C77.0587 34.8008 77.1121 35.0115 77.2342 35.1844C77.3563 35.3574 77.5387 35.4806 77.7472 35.531C77.8678 35.5594 77.9933 35.5625 78.1153 35.54C78.2372 35.5175 78.353 35.47 78.4548 35.4005C78.5567 35.3311 78.6424 35.2413 78.7063 35.1371C78.7702 35.0329 78.8109 34.9166 78.8256 34.7959C78.8404 34.6752 78.8288 34.5528 78.7918 34.4368C78.7548 34.3208 78.6931 34.2138 78.6108 34.1228C78.5285 34.0318 78.4275 33.9589 78.3144 33.9088C78.2012 33.8588 78.0786 33.8328 77.9545 33.8326Z" fill="#E7F6FF"/>
<path d="M76.4765 37.9722C76.5686 37.6003 76.3354 37.2257 75.9557 37.1355C75.576 37.0453 75.1935 37.2737 75.1014 37.6456C75.0093 38.0175 75.2425 38.3921 75.6222 38.4823C76.002 38.5725 76.3844 38.3441 76.4765 37.9722Z" fill="#E7F6FF"/>
<path d="M3.44626 36.1386C3.01737 36.1294 2.60949 35.9549 2.31116 35.653C2.01283 35.3511 1.84813 34.9461 1.85282 34.5259C1.85751 34.1058 2.0312 33.7044 2.33619 33.4089C2.64119 33.1135 3.05286 32.9477 3.48185 32.9477C3.91084 32.9477 4.32251 33.1135 4.62751 33.4089C4.9325 33.7044 5.10619 34.1058 5.11088 34.5259C5.11557 34.9461 4.95087 35.3511 4.65254 35.653C4.35421 35.9549 3.94633 36.1294 3.51744 36.1386H3.44626ZM3.44626 33.6819H3.40942C3.17778 33.6868 2.95747 33.781 2.79632 33.944C2.63517 34.1071 2.54619 34.3258 2.5487 34.5527C2.5512 34.7796 2.645 34.9964 2.80971 35.156C2.97443 35.3156 3.19677 35.4051 3.42846 35.4051C3.66015 35.4051 3.88249 35.3156 4.04721 35.156C4.21193 34.9964 4.30572 34.7796 4.30823 34.5527C4.31073 34.3258 4.22175 34.1071 4.0606 33.944C3.89945 33.781 3.67914 33.6868 3.44751 33.6819H3.44626Z" fill="#E7F6FF"/>
<path d="M2.28458 38.8164C2.67495 38.7999 2.97775 38.4766 2.96091 38.0943C2.94407 37.7119 2.61397 37.4153 2.2236 37.4318C1.83324 37.4483 1.53044 37.7717 1.54727 38.154C1.56411 38.5363 1.89422 38.8329 2.28458 38.8164Z" fill="#E7F6FF"/>
<path d="M44.2769 10.3418C43.8881 10.3423 43.512 10.2066 43.2167 9.95904C42.9213 9.71152 42.7261 9.3686 42.6665 8.99235C42.6069 8.6161 42.6868 8.23138 42.8917 7.90783C43.0967 7.58428 43.4131 7.34327 43.7837 7.22843C44.1544 7.11359 44.5547 7.1325 44.9124 7.28174C45.27 7.43098 45.5613 7.70069 45.7335 8.04206C45.9057 8.38342 45.9474 8.77388 45.8511 9.14277C45.7548 9.51165 45.5269 9.83459 45.2085 10.0531C44.9355 10.2405 44.6103 10.3413 44.2769 10.3418ZM44.2719 7.88505C44.0444 7.88482 43.8256 7.97058 43.6612 8.12445C43.4967 8.27832 43.3991 8.48843 43.3889 8.71099C43.3787 8.93355 43.4566 9.15139 43.6063 9.31909C43.756 9.4868 43.9661 9.59144 44.1926 9.61121C44.4192 9.63098 44.6448 9.56434 44.8225 9.42519C45.0001 9.28604 45.116 9.08511 45.1461 8.86428C45.1763 8.64346 45.1182 8.41978 44.984 8.23985C44.8499 8.05993 44.65 7.93765 44.4261 7.89851C44.3752 7.88962 44.3236 7.88511 44.2719 7.88505Z" fill="#E7F6FF"/>
<path d="M40.9556 10.2543C41.2755 10.0346 41.353 9.60244 41.1287 9.2891C40.9043 8.97577 40.4631 8.89989 40.1432 9.11961C39.8233 9.33933 39.7458 9.77146 39.9702 10.0848C40.1945 10.3981 40.6357 10.474 40.9556 10.2543Z" fill="#E7F6FF"/>
<path d="M80.3011 18.561C80.3017 17.8886 80.0297 17.2435 79.5448 16.7675C79.0599 16.2915 78.4018 16.0237 77.7153 16.0229C77.6579 16.0229 77.6011 16.0229 77.5449 16.0284C77.5486 15.9733 77.5505 15.9177 77.5505 15.8614C77.5504 15.501 77.4719 15.1448 77.3202 14.8165C77.1685 14.4881 76.9471 14.1953 76.6707 13.9573C76.3943 13.7194 76.0693 13.5419 75.7174 13.4367C75.3655 13.3315 74.9947 13.301 74.6298 13.3472C74.2649 13.3934 73.9142 13.5152 73.6012 13.7046C73.2881 13.894 73.0199 14.1465 72.8143 14.4455C72.6088 14.7444 72.4707 15.0828 72.4092 15.4381C72.3477 15.7934 72.3642 16.1575 72.4577 16.506C72.1448 16.2838 71.7851 16.133 71.4049 16.0647C71.0247 15.9964 70.6338 16.0123 70.2607 16.1113C69.8877 16.2103 69.542 16.3899 69.249 16.6368C68.9561 16.8838 68.7233 17.1918 68.5678 17.5384C68.4123 17.8849 68.3379 18.2612 68.3503 18.6396C68.3626 19.018 68.4613 19.3888 68.639 19.725C68.8168 20.0611 69.0692 20.354 69.3776 20.5821C69.686 20.8103 70.0427 20.9679 70.4214 21.0434C70.5761 21.4451 70.8323 21.8017 71.1661 22.0799C71.4999 22.3581 71.9004 22.5488 72.33 22.634C72.7596 22.7192 73.2042 22.6961 73.6222 22.5671C74.0402 22.438 74.4179 22.2071 74.72 21.896C75.029 22.1244 75.3864 22.2821 75.7659 22.3573C76.1453 22.4326 76.5372 22.4235 76.9126 22.3308C77.288 22.2381 77.6375 22.0641 77.9351 21.8216C78.2328 21.5791 78.4711 21.2743 78.6326 20.9296C79.123 20.7469 79.5451 20.4225 79.843 19.9995C80.141 19.5765 80.3007 19.0749 80.3011 18.561Z" fill="white"/>
<path d="M11.9547 12.4637C11.9547 11.7913 11.682 11.1464 11.1966 10.6709C10.7112 10.1954 10.0529 9.92818 9.36641 9.92802C9.30896 9.92802 9.25214 9.92802 9.19594 9.93352C9.19969 9.87848 9.20156 9.82283 9.20156 9.76656C9.20149 9.40618 9.12298 9.04995 8.97128 8.72162C8.81957 8.39329 8.59815 8.1004 8.32178 7.86249C8.0454 7.62457 7.72042 7.44709 7.3685 7.34188C7.01658 7.23667 6.6458 7.20614 6.28089 7.25233C5.91597 7.29852 5.5653 7.42036 5.25225 7.60974C4.9392 7.79912 4.67096 8.05169 4.46541 8.3506C4.25987 8.64951 4.12174 8.98791 4.06024 9.34322C3.99874 9.69854 4.01527 10.0626 4.10874 10.4112C3.79585 10.1889 3.43613 10.0381 3.05596 9.96982C2.6758 9.90152 2.28484 9.91746 1.91179 10.0165C1.53874 10.1155 1.19305 10.295 0.9001 10.542C0.60715 10.7889 0.37437 11.097 0.218843 11.4435C0.0633162 11.7901 -0.0110105 12.1664 0.00131733 12.5447C0.0136452 12.9231 0.112315 13.294 0.290085 13.6301C0.467856 13.9662 0.720215 14.2591 1.02864 14.4873C1.33707 14.7154 1.69375 14.873 2.07249 14.9485C2.22727 15.3499 2.48348 15.7062 2.81714 15.9841C3.15081 16.262 3.55101 16.4525 3.9803 16.5377C4.40959 16.6228 4.85392 16.6 5.27172 16.4711C5.68952 16.3423 6.06711 16.1118 6.36916 15.8011C6.67818 16.0295 7.03559 16.1872 7.41506 16.2625C7.79453 16.3377 8.18641 16.3287 8.56183 16.2359C8.93725 16.1432 9.28666 15.9692 9.58433 15.7267C9.88199 15.4842 10.1203 15.1794 10.2818 14.8348C10.7734 14.6525 11.1967 14.3281 11.4955 13.9046C11.7943 13.481 11.9545 12.9785 11.9547 12.4637Z" fill="white"/>
<g opacity="0.04">
<path opacity="0.04" d="M57.3348 33.8725H38.9929L20.917 39.4771V39.6006H2.44214V45.5886H20.917V45.4651L38.9929 39.8605H57.3348V39.8195L75.6767 34.133V28.145L57.3348 33.8315V33.8725Z" fill="#A8A8A8"/>
</g>
<path d="M25.4304 10.4538H9.6618V45.7864H25.4304V10.4538Z" fill="white"/>
<path d="M71.8377 35.7443L56.0697 40.6328V5.30013L71.8377 0.411713V35.7443Z" fill="#E5E5E5"/>
<path d="M56.1834 5.29996H40.4147V40.6326H56.1834V5.29996Z" fill="white"/>
<path d="M40.5283 40.6326L24.7596 45.5216V10.189L40.5283 5.29996V40.6326Z" fill="#E5E5E5"/>
<path d="M23.6251 23.6328H20.1083V42.9656H23.6251V23.6328Z" fill="#E8EDF7"/>
<path d="M44.18 19.4111H41.8896V37.8554H49.3877L44.18 19.4111Z" fill="#C0CEE2"/>
<path d="M44.9774 19.4111L50.1851 37.8554H54.7085V19.4111H44.9774Z" fill="#C0CEE2"/>
<path d="M69.6004 3.60562L57.998 7.08555V8.74418V12.4272V12.7446L69.6004 3.60562Z" fill="#C0CEE2"/>
<path d="M57.998 13.8006V14.0648V18.0138L70.2498 14.3119V8.7446V4.15036L57.998 13.8006Z" fill="#66D9E8"/>
<path d="M70.2498 28.3985V27.2597V18.0009V16.3637V15.1258L57.998 18.8271V19.2877L70.2498 28.3985Z" fill="#C0CEE2"/>
<path d="M26.9152 37.1887V42.5217V42.5462L29.6364 41.6808L29.6408 41.6563L31.3423 41.1163L31.3386 41.1395L39.167 38.6498V38.6326V33.7852V32.148V25.1887L26.9152 37.1887Z" fill="#C0CEE2"/>
<path d="M39.142 24.1633L39.167 24.1877V22.89V21.2527V19.758L26.9152 23.46V28.212V29.8492V36.1388L39.142 24.1633Z" fill="#C0CEE2"/>
<path d="M65.3737 25.6699L57.998 20.1852V23.3233V24.9599V27.8986L65.3737 25.6699Z" fill="#66D9E8"/>
<path d="M19.3147 35.7214V23.6328H10.8063V38.2919L19.3147 35.7214Z" fill="#66D9E8"/>
<path d="M10.8063 39.106V42.9658H19.3147V36.5349L10.8063 39.106Z" fill="#E8EDF7"/>
<path d="M70.5899 7.07809H70.0229V7.74473H70.5899V7.07809Z" fill="white"/>
<path d="M70.5899 13.0777H70.0229V11.742H70.5899V13.0777ZM70.5899 10.4111H70.0229V9.07788H70.5899V10.4111Z" fill="white"/>
<path d="M69.9949 15.8439L69.6128 15.4335L70.023 15.0665V14.5222H70.59V15.3118L69.9949 15.8439Z" fill="white"/>
<path d="M54.935 23.9663H53.5757V23.4109H54.9369L54.935 23.9663ZM52.3262 23.9663H50.9649V23.4109H52.3268L52.3262 23.9663ZM49.6037 23.9663H48.2424V23.4109H49.6037V23.9663ZM56.3881 23.8439L56.2563 23.3033L57.572 22.9951L57.7037 23.5357L56.3881 23.8439ZM59.0219 23.2275L58.8895 22.6893L60.2064 22.3835L60.3382 22.9241L59.0219 23.2275ZM61.6557 22.611L61.524 22.0703L62.342 21.8789L62.613 21.6343L62.9951 22.0447L62.6161 22.3835L61.6557 22.611ZM63.9948 21.153L63.6127 20.7426L64.6118 19.8484L64.9939 20.2588L63.9948 21.153ZM65.993 19.3641L65.6108 18.9537L66.6099 18.0596L66.9921 18.4699L65.993 19.3641ZM67.9912 17.5758L67.609 17.1654L68.6081 16.2713L68.9902 16.6816L67.9912 17.5758Z" fill="white"/>
<path d="M46.1363 24.4081L45.6336 24.1506L46.0282 23.4106H46.8806V23.9659H46.3717L46.1363 24.4081Z" fill="white"/>
<path d="M44.0025 28.2963L43.4999 28.0394L44.0256 27.0535L44.5283 27.3104L44.0025 28.2963ZM45.0541 26.3245L44.5514 26.0677L45.0772 25.0818L45.5798 25.3387L45.0541 26.3245Z" fill="white"/>
<path d="M42.9142 30.3373L42.3379 29.289L42.8374 29.0255L42.9067 29.1514L42.9742 29.0248L43.4768 29.2817L42.9142 30.3373Z" fill="white"/>
<path d="M41.6794 26.9187L41.1802 27.182L41.7592 28.2353L42.2584 27.972L41.6794 26.9187Z" fill="white"/>
<path d="M40.6013 26.1294L40.3865 25.7399L39.9519 25.8616L39.7958 25.3276L40.6694 25.0824L41.1003 25.8665L40.6013 26.1294Z" fill="white"/>
<path d="M25.1325 30.0774H24.8728V29.5221H25.0526L26.0517 29.2414L26.2078 29.7753L25.1325 30.0774ZM23.509 30.0774H22.2602V29.5221H23.509V30.0774ZM20.9002 30.0774H19.6513V29.5221H20.9002V30.0774ZM18.4025 30.0774H17.1536V29.5221H18.4025V30.0774ZM15.7936 30.0774H14.5491V29.5221H15.798L15.7936 30.0774ZM27.4604 29.3692L27.3037 28.8353L28.5525 28.4842L28.7092 29.0182L27.4604 29.3692ZM29.9581 28.6677L29.802 28.1338L31.0508 27.7834L31.2069 28.3173L29.9581 28.6677ZM32.4558 27.9662L32.2997 27.4323L33.5485 27.0819L33.7046 27.6158L32.4558 27.9662ZM34.9535 27.2647L34.7974 26.7308L36.0462 26.3804L36.2023 26.9143L34.9535 27.2647ZM37.4512 26.5632L37.2951 26.0293L38.5439 25.6789L38.7001 26.2128L37.4512 26.5632Z" fill="white"/>
<path d="M12.735 30.4104H12.1674V29.4105H13.1884V29.9664H12.735V30.4104Z" fill="white"/>
<path d="M12.8482 32.0779H12.2812V33.7445H12.8482V32.0779Z" fill="white"/>
<path d="M12.8482 35.5214H12.2812V36.188H12.8482V35.5214Z" fill="white"/>
<path d="M23.6251 12.8557H15.4576V22.8558H23.6251V12.8557Z" fill="#E8EDF7"/>
<path d="M14.6634 12.8557H10.8063V22.8558H14.6634V12.8557Z" fill="#66D9E8"/>
<path d="M66.1517 26.2486L60.7111 27.8926L64.4058 35.6194L70.2498 33.7608V33.7442V29.2962L66.1517 26.2486Z" fill="#66D9E8"/>
<path d="M63.6447 35.8614L59.9449 28.1242L57.998 28.7125V37.6325V37.6576L60.7192 36.7922L60.7236 36.7677L62.4252 36.2277L62.4214 36.2503L63.6447 35.8614Z" fill="#C0CEE2"/>
<path d="M9.6873 45.8372L8.93799 45.8348L8.95672 40.4993V9.91199H24.7016L40.3535 5.05905L42.4328 5.02296H56.0116L72.2123 0V8.20383H71.463V1.00239L56.1277 5.75687H42.4366L40.4759 5.79112L24.8178 10.6459H9.70603V40.5005L9.6873 45.8372Z" fill="#426572"/>
<path d="M25.1219 45.9783H9.33142V45.2443H25.0782L25.1575 45.2352L40.4684 40.3553H56.159L56.3757 40.3278L71.463 35.5666V17.1933H72.2123V36.1011L56.5405 41.047L56.2071 41.0892H40.5877L25.318 45.9556L25.1219 45.9783Z" fill="#426572"/>
<path d="M72.2123 14.1972H71.463V15.5733H72.2123V14.1972Z" fill="#426572"/>
<path d="M72.2123 9.60004H71.463V13.3099H72.2123V9.60004Z" fill="#426572"/>
<path d="M33.6536 7.61705C33.3714 7.61705 33.0956 7.53337 32.861 7.3766C32.6263 7.21983 32.4435 6.997 32.3355 6.7363C32.2275 6.4756 32.1992 6.18873 32.2543 5.91197C32.3093 5.63521 32.4452 5.38099 32.6447 5.18146C32.8443 4.98193 33.0985 4.84605 33.3753 4.791C33.652 4.73594 33.9389 4.7642 34.1996 4.87218C34.4603 4.98017 34.6831 5.16304 34.8399 5.39766C34.9967 5.63229 35.0803 5.90813 35.0803 6.19032C35.0799 6.56856 34.9294 6.93118 34.6619 7.19864C34.3945 7.4661 34.0319 7.61657 33.6536 7.61705ZM33.6536 5.84376C33.5851 5.84376 33.5181 5.86408 33.4611 5.90216C33.4041 5.94024 33.3597 5.99437 33.3334 6.05769C33.3072 6.12102 33.3003 6.1907 33.3137 6.25793C33.3271 6.32515 33.3601 6.3869 33.4086 6.43537C33.457 6.48384 33.5188 6.51684 33.586 6.53021C33.6532 6.54359 33.7229 6.53672 33.7862 6.51049C33.8495 6.48426 33.9037 6.43984 33.9418 6.38285C33.9798 6.32586 34.0002 6.25886 34.0002 6.19032C34.0002 6.14481 33.9912 6.09974 33.9738 6.05769C33.9564 6.01565 33.9308 5.97744 33.8987 5.94526C33.8665 5.91308 33.8283 5.88755 33.7862 5.87014C33.7442 5.85272 33.6991 5.84376 33.6536 5.84376Z" fill="#E7F6FF"/>
<path d="M36.1992 6.885C36.4756 6.885 36.6996 6.66092 36.6996 6.38452C36.6996 6.10811 36.4756 5.88403 36.1992 5.88403C35.9227 5.88403 35.6987 6.10811 35.6987 6.38452C35.6987 6.66092 35.9227 6.885 36.1992 6.885Z" fill="#E7F6FF"/>
<g opacity="0.5">
<path opacity="0.5" d="M43.4535 32.4915V33.5906C43.1357 34.6015 42.6362 35.7843 41.98 37.0886C41.7099 37.6062 41.421 38.1525 41.1113 38.7142C41.3228 38.3542 41.5263 38.0022 41.7225 37.6512C41.4939 38.085 41.2517 38.536 40.9961 38.9942V37.2839L41.0717 37.1408L40.9961 37.2758V37.2128C41.1101 36.9974 41.2211 36.7873 41.3291 36.5827C42.0412 35.1659 42.5696 33.8939 42.881 32.8282C43.0745 32.7193 43.2654 32.6067 43.4535 32.4915Z" fill="#BBD2E5"/>
</g>
<path d="M48.1819 16.5291C48.1711 21.5249 44.0755 25.6008 39.0815 25.59C34.7562 25.581 31.1178 22.5079 30.2294 18.4392C30.1376 17.9164 30.0921 17.3866 30.0935 16.8558C30.1043 11.8627 34.1999 7.78414 39.1931 7.79494C43.5138 7.80394 47.1459 10.8689 48.0424 14.9268C48.0421 14.9289 48.0421 14.931 48.0424 14.9331C48.1362 15.4599 48.1829 15.994 48.1819 16.5291Z" fill="white"/>
<path d="M38.5486 3.91759C30.1493 3.89958 24.9167 9.18525 24.896 17.5089C24.8906 20.0815 26.2462 24.0944 28.5794 28.9408C29.6344 30.9868 30.9198 33.2615 32.27 35.5326C33.9281 38.3357 35.7383 41.1396 37.5494 43.7158L38.4549 44.9292C38.7583 44.5503 39.0616 44.1731 39.365 43.7194C41.1878 41.0757 43.0088 38.3546 44.6759 35.5596C46.0432 33.2921 47.2593 31.0246 48.3224 28.984C50.7528 24.1466 52.1255 20.1392 52.1309 17.5665C52.157 9.4706 46.721 3.93559 38.5486 3.91759ZM38.5009 25.8587C33.5068 25.8479 29.4292 21.754 29.44 16.7591C29.4508 11.7642 33.5464 7.69011 38.5405 7.70091C43.5345 7.71171 47.6122 11.8065 47.6013 16.8005C47.5905 21.7945 43.4949 25.8722 38.5009 25.8587Z" fill="#66D9E8"/>
<path d="M48.4376 29.9943C47.5033 31.7649 46.4618 33.6705 45.3123 35.5753C43.6425 38.3702 41.8206 41.0914 40.0014 43.7351C39.6981 44.1852 39.3947 44.5659 39.0905 44.9449L38.1822 43.7324C36.3711 41.1562 34.5609 38.3522 32.9074 35.5501C31.549 33.2763 30.2681 31.0034 29.2167 28.9583C26.8764 24.1101 25.5207 20.0963 25.5261 17.5237C25.5333 14.0887 26.4263 11.1722 28.0682 8.93088C27.4192 10.6214 27.078 12.5468 27.0708 14.6693C27.0654 17.2419 28.421 21.2557 30.7542 26.1012C31.8092 28.1463 33.0901 30.4219 34.4448 32.693C36.1029 35.4951 37.9131 38.2991 39.7233 40.8753L40.6288 42.0887C40.9331 41.7098 41.2364 41.3326 41.5398 40.8789C43.3617 38.2352 45.1836 35.5141 46.8506 32.7191C47.4087 31.8081 47.9353 30.8936 48.4376 29.9943Z" fill="#61BBC7"/>
<path d="M39.0697 45.8298L37.6673 43.9494C35.8508 41.3659 34.0163 38.5224 32.3609 35.7247C30.9432 33.351 29.6605 31.0593 28.6496 29.1005L28.6424 29.0852C26.1508 23.9148 24.8906 19.9748 24.896 17.3788C24.905 13.113 26.2462 9.52771 28.7666 7.0082C31.2871 4.48868 34.8697 3.15646 39.1337 3.15646H39.1778C43.35 3.16547 46.919 4.54269 49.4908 7.13782C52.0625 9.73294 53.4064 13.2858 53.3983 17.4373C53.3929 20.0594 52.0481 24.1056 49.5232 29.1392V29.1473C48.5744 30.9683 47.3007 33.3645 45.8578 35.758C44.0701 38.7501 42.1573 41.5784 40.5226 43.9494C40.212 44.4129 39.8988 44.8036 39.5963 45.1817L39.0697 45.8298ZM38.6926 43.2194L39.1004 43.7657C39.2255 43.6001 39.3497 43.4273 39.4739 43.2419C41.0987 40.8727 43.0016 38.0696 44.7713 35.1072C46.1971 32.7443 47.4573 30.3715 48.398 28.5676C50.8392 23.7122 52.1318 19.8632 52.1372 17.4355C52.1543 9.66543 46.9442 4.43377 39.1751 4.41667H39.1337C31.1448 4.41667 26.1733 9.38009 26.1562 17.3788C26.1508 19.7507 27.402 23.606 29.7739 28.5298C30.7713 30.4643 32.0405 32.729 33.4474 35.0802C35.083 37.8491 36.8968 40.662 38.6926 43.2131V43.2194ZM39.149 26.3632H39.1274C36.5513 26.3604 34.0818 25.3345 32.2622 23.511C30.4426 21.6875 29.4219 19.2158 29.4247 16.6398C29.4274 14.0637 30.4534 11.5943 32.2769 9.77465C34.1004 7.95504 36.572 6.93434 39.1481 6.93709H39.1697C41.0903 6.93913 42.9672 7.51131 44.5623 8.58113C46.1574 9.65095 47.399 11.1702 48.1298 12.9464C48.8606 14.7227 49.0476 16.6758 48.6671 18.5584C48.2867 20.4411 47.3559 22.1683 45.9928 23.5214C45.0956 24.4225 44.029 25.1373 42.8545 25.6245C41.6799 26.1118 40.4206 26.3619 39.149 26.3605V26.3632ZM39.149 8.20269C36.9228 8.22318 34.7947 9.12125 33.227 10.7018C31.6592 12.2824 30.7785 14.4177 30.7761 16.6439C30.7737 18.8701 31.6499 21.0073 33.2143 22.5912C34.7787 24.1751 36.9049 25.0777 39.131 25.103H39.1499C41.3917 25.1052 43.5426 24.2169 45.1294 22.6332C46.7162 21.0496 47.609 18.9005 47.6113 16.6587C47.6135 14.4169 46.7251 12.2659 45.1415 10.6791C43.5579 9.0923 41.4088 8.19956 39.167 8.19729L39.149 8.20269Z" fill="#426572"/>
<path d="M50.0264 12.1094C50.2876 12.7445 50.4912 13.4019 50.6349 14.0735C50.6655 14.2283 50.6889 14.3804 50.7141 14.5236C50.7393 14.6667 50.7672 14.8134 50.7762 14.9529L50.8131 15.3562C50.823 15.4858 50.8383 15.6091 50.8365 15.728C50.8365 15.9656 50.841 16.178 50.8365 16.368C50.832 16.5579 50.8095 16.7181 50.7933 16.8495C50.7591 17.1133 50.7168 17.2573 50.67 17.2573C50.6232 17.2573 50.5736 17.1133 50.525 16.8567C50.4998 16.728 50.4809 16.5714 50.4512 16.3905C50.4215 16.2095 50.3837 16.0043 50.3495 15.7784C50.3351 15.665 50.3063 15.5479 50.2829 15.4255L50.2091 15.0447C50.1884 14.9124 50.147 14.7792 50.1191 14.6406C50.0912 14.502 50.0543 14.3588 50.0165 14.2139C49.8457 13.5875 49.6368 12.9722 49.3908 12.3713C49.1352 11.7749 48.8405 11.1961 48.5087 10.6385L48.2792 10.2677L48.0487 9.92291C47.9767 9.80949 47.9002 9.70597 47.8273 9.60515C47.7544 9.50434 47.6869 9.40532 47.6185 9.31351C47.0703 8.58078 46.6922 8.14331 46.7606 8.0686C46.829 7.99389 47.3214 8.31704 47.9893 8.99755C48.073 9.08217 48.1549 9.17758 48.2423 9.2721C48.3296 9.36661 48.4223 9.46923 48.506 9.57995C48.5897 9.69067 48.686 9.80229 48.776 9.92111L49.0461 10.2983C49.4292 10.8697 49.7574 11.4761 50.0264 12.1094Z" fill="white"/>
<path d="M44.6263 6.06752C45.2258 6.41498 45.5841 6.87315 45.4725 7.02348C45.3608 7.1738 44.8424 6.98837 44.2798 6.66342C43.7172 6.33847 43.3031 5.99281 43.3706 5.81818C43.4381 5.64355 44.0286 5.71826 44.6263 6.06752Z" fill="white"/>
<defs>
<linearGradient id="paint0_linear_343_1333" x1="0.0824836" y1="25.8099" x2="78.3405" y2="25.8099" gradientUnits="userSpaceOnUse">
<stop stop-color="#C5E9FA"/>
<stop offset="1" stop-color="#C4F4EA"/>
</linearGradient>
</defs>
</svg>
