<svg width="120" height="121" viewBox="0 0 120 121" fill="none" xmlns="http://www.w3.org/2000/svg">
<g clip-path="url(#clip0_918_2720)">
<path d="M119.062 60.5C119.062 65.6 114.244 69.9969 112.987 74.7031C111.684 79.5688 113.625 85.775 111.112 90.0406C108.6 94.3063 102.244 95.7781 98.7375 99.2844C95.2312 102.791 93.8156 109.156 89.4937 111.659C85.1719 114.162 79.0219 112.184 74.1562 113.534C69.4687 114.791 65.0531 119.609 59.9531 119.609C54.8531 119.609 50.4562 114.791 45.75 113.534C40.8844 112.231 34.6781 114.172 30.4125 111.659C26.1469 109.147 24.675 102.791 21.1687 99.2844C17.6625 95.7781 11.2969 94.3625 8.79375 90.0406C6.29063 85.7188 8.31563 79.5688 7.0125 74.7031C5.75625 69.9969 0.9375 65.6 0.9375 60.5C0.9375 55.4 5.75625 51.0031 7.0125 46.2969C8.31563 41.4312 6.375 35.1875 8.84063 30.9594C11.3063 26.7313 17.7094 25.2219 21.2156 21.7156C24.7219 18.2094 26.1375 11.8438 30.4594 9.34063C34.7813 6.8375 40.9312 8.81563 45.7969 7.5125C50.5031 6.25625 54.9 1.4375 60 1.4375C65.1 1.4375 69.4969 6.25625 74.2031 7.5125C79.0688 8.81563 85.3125 6.875 89.5406 9.34063C93.7688 11.8063 95.2781 18.2094 98.7844 21.7156C102.291 25.2219 108.656 26.6375 111.159 30.9594C113.662 35.2813 111.684 41.4312 113.034 46.2969C114.244 51.0031 119.062 55.4 119.062 60.5Z" fill="url(#paint0_linear_918_2720)"/>
<path d="M2.81251 54.4531C2.85513 60.0432 3.72067 65.5965 5.38126 70.9344C1.58439 64.1281 -1.02186 61.4938 2.81251 54.4531Z" fill="#4DA67F"/>
<path d="M112.697 76.1656C112.022 80.7594 113.381 86.1875 111.159 90.0407C108.656 94.3625 102.291 95.7782 98.7844 99.2844C95.2781 102.791 93.8625 109.156 89.5406 111.659C85.2187 114.163 79.0687 112.184 74.2031 113.534C69.5156 114.791 65.1 119.609 60 119.609C54.9 119.609 50.5031 114.791 45.7968 113.534C40.9312 112.231 34.725 114.172 30.4594 111.659C26.1937 109.147 24.7218 102.791 21.2156 99.2844C17.7093 95.7782 11.3437 94.3625 8.8406 90.0407C6.61873 86.1875 7.9781 80.7594 7.3031 76.1656C11.673 86.5321 19.0033 95.3795 28.3767 101.6C37.7501 107.821 48.7501 111.139 60 111.139C71.2499 111.139 82.2499 107.821 91.6232 101.6C100.997 95.3795 108.327 86.5321 112.697 76.1656V76.1656Z" fill="#4DA67F"/>
<path d="M114.619 70.9344C116.279 65.5965 117.145 60.0432 117.188 54.4531C121.003 61.4375 118.434 64.0812 114.619 70.9344Z" fill="#4DA67F"/>
<path d="M7.3031 76.1656C6.59077 74.4576 5.96498 72.7147 5.4281 70.9437C6.39165 72.5435 7.0289 74.3183 7.3031 76.1656V76.1656Z" fill="#4DA67F"/>
<path d="M114.619 70.9437C114.067 72.7156 113.425 74.4585 112.697 76.1656C112.986 74.3149 113.639 72.54 114.619 70.9437V70.9437Z" fill="#4DA67F"/>
<path d="M60 103.625C83.8173 103.625 103.125 84.3173 103.125 60.5C103.125 36.6827 83.8173 17.375 60 17.375C36.1827 17.375 16.875 36.6827 16.875 60.5C16.875 84.3173 36.1827 103.625 60 103.625Z" fill="url(#paint1_linear_918_2720)"/>
<path d="M60 17.375C65.9 17.3753 71.7372 18.5862 77.1505 20.9328C82.5637 23.2795 87.4379 26.7119 91.4714 31.0179C95.5049 35.3238 98.6119 40.4116 100.6 45.9664C102.589 51.5213 103.416 57.4251 103.031 63.3125C102.31 52.3908 97.4627 42.152 89.4721 34.6718C81.4815 27.1915 70.9455 23.0295 60 23.0295C49.0545 23.0295 38.5186 27.1915 30.528 34.6718C22.5374 42.152 17.6901 52.3908 16.9688 63.3125C16.584 57.4251 17.4114 51.5213 19.3997 45.9664C21.3881 40.4116 24.4951 35.3238 28.5286 31.0179C32.5622 26.7119 37.4363 23.2795 42.8496 20.9328C48.2628 18.5862 54.1 17.3753 60 17.375V17.375Z" fill="#C7CDD8"/>
<path d="M52.4999 80.8062L34.8468 63.1531L40.1531 57.8468L52.4999 70.1937L79.8468 42.8468L85.1531 48.1531L52.4999 80.8062Z" fill="#4DA67F"/>
<path d="M60 16.4375C51.2853 16.4375 42.7662 19.0217 35.5202 23.8634C28.2742 28.705 22.6266 35.5866 19.2916 43.638C15.9566 51.6894 15.084 60.5489 16.7842 69.0962C18.4843 77.6435 22.6809 85.4946 28.8431 91.6569C35.0054 97.8191 42.8566 102.016 51.4039 103.716C59.9511 105.416 68.8106 104.543 76.862 101.208C84.9134 97.8735 91.795 92.2259 96.6367 84.9798C101.478 77.7338 104.063 69.2147 104.063 60.5C104.045 48.8192 99.3973 37.6218 91.1377 29.3623C82.8782 21.1027 71.6808 16.4549 60 16.4375ZM60 102.688C51.6561 102.688 43.4996 100.213 36.5619 95.5776C29.6242 90.942 24.2169 84.3532 21.0239 76.6445C17.8308 68.9357 16.9953 60.4532 18.6231 52.2696C20.251 44.0861 24.2689 36.569 30.169 30.6689C36.069 24.7689 43.5861 20.7509 51.7696 19.1231C59.9532 17.4953 68.4357 18.3308 76.1445 21.5238C83.8532 24.7169 90.442 30.1242 95.0776 37.0619C99.7133 43.9996 102.188 52.1561 102.188 60.5C102.188 66.0401 101.096 71.526 98.9762 76.6445C96.8561 81.7629 93.7486 86.4136 89.8311 90.3311C85.9136 94.2485 81.2629 97.356 76.1445 99.4762C71.0261 101.596 65.5402 102.688 60 102.688V102.688Z" fill="#47566A"/>
<path d="M116.616 51.6125C113.681 46.7187 113.353 45.6875 113.437 39.65C113.55 31.025 112.35 28.8594 104.691 24.5937C99.5531 21.7344 98.7844 20.9656 95.9062 15.8094C91.6031 8.08435 89.3437 6.94998 80.85 7.06248C74.8218 7.13748 73.8 6.8281 68.8875 3.88435C61.3219 -0.643773 58.6875 -0.653149 51.075 3.88435C46.2094 6.8281 45.1781 7.14685 39.15 7.06248C30.6187 6.94998 28.3969 8.08435 24.0937 15.8094C21.2344 20.9469 20.4656 21.7156 15.3094 24.5937C7.63123 28.8687 6.45935 31.0343 6.56248 39.65C6.64685 45.6593 6.33748 46.6906 3.38435 51.6125C-1.14377 59.1781 -1.15315 61.8125 3.38435 69.425C6.31873 74.2812 6.64685 75.3125 6.56248 81.35C6.44998 89.975 7.64998 92.1406 15.3094 96.4062C20.4469 99.2187 21.2156 100.034 24.0937 105.191C28.4062 112.934 30.6562 114.05 39.15 113.937C45.1781 113.862 46.2 114.172 51.1125 117.116C58.6781 121.644 61.3125 121.653 68.925 117.116C73.8281 114.181 74.85 113.862 80.8875 113.937C89.4844 114.041 91.6593 112.887 95.9437 105.191C98.7562 100.053 99.5719 99.2844 104.728 96.4062C112.406 92.1312 113.578 89.9656 113.475 81.35C113.391 75.3406 113.7 74.3094 116.653 69.3875C121.144 61.8219 121.153 59.1875 116.616 51.6125ZM115.003 68.4218C111.891 73.6156 111.478 74.9843 111.562 81.3781C111.666 89.3 110.822 90.8469 103.781 94.7656C98.325 97.8031 97.3125 98.8156 94.2656 104.281C90.3375 111.341 88.7906 112.156 80.8781 112.062C74.4937 111.978 73.1343 112.391 67.9218 115.503C61.0031 119.656 59.0531 119.684 52.0781 115.503C47.5875 112.812 45.9375 112.062 40.6875 112.062C37.35 112.062 33.5812 112.4 30.9281 110.862C26.9062 108.537 25.5 102.256 21.8812 98.675C18.2625 95.0937 11.9812 93.5844 9.65623 89.5625C7.33123 85.5406 9.2531 79.4562 7.92185 74.4594C6.63748 69.6781 1.87498 65.1875 1.87498 60.5C1.87498 55.8125 6.65623 51.2469 7.92185 46.5406C9.2531 41.5531 7.36873 35.3844 9.65623 31.4375C11.9437 27.4906 18.2625 26.0094 21.8437 22.3906C25.425 18.7719 26.8781 12.4906 30.8906 10.2031C34.9031 7.9156 41.0156 9.79998 46.0031 8.46873C50.8219 7.13748 55.3125 2.37498 60 2.37498C64.6875 2.37498 69.2531 7.15623 73.9594 8.42185C78.9562 9.7531 85.1156 7.86873 89.0625 10.1562C93.0094 12.4437 94.4906 18.7625 98.1094 22.3437C101.728 25.925 108.009 27.3781 110.297 31.3906C112.584 35.4031 110.7 41.5062 112.031 46.5031C113.362 51.3219 118.125 55.8125 118.125 60.5C118.125 63.2187 116.541 65.8625 115.003 68.4218Z" fill="#47566A"/>
<path d="M80.5219 42.1718C80.3392 41.9998 80.0978 41.9039 79.8469 41.9039C79.596 41.9039 79.3545 41.9998 79.1719 42.1718L52.5 68.8437L40.8281 57.1718C40.6455 56.9997 40.4041 56.9039 40.1531 56.9039C39.9022 56.9039 39.6608 56.9997 39.4781 57.1718C33.7969 62.8531 33.8531 62.5999 33.8531 63.1531C33.8531 63.7062 32.7469 62.3749 51.825 81.4812C51.9125 81.5719 52.0173 81.6441 52.1333 81.6934C52.2493 81.7427 52.374 81.7681 52.5 81.7681C52.626 81.7681 52.7508 81.7427 52.8667 81.6934C52.9827 81.6441 53.0876 81.5719 53.175 81.4812C88.0594 46.5968 86.1094 48.7437 86.1094 48.1531C86.1094 47.5624 86.1938 47.8437 80.5219 42.1718ZM52.5 79.4468L36.1969 63.1531L40.1531 59.1968L51.825 70.8687C51.9125 70.9594 52.0173 71.0316 52.1333 71.0809C52.2493 71.1302 52.374 71.1556 52.5 71.1556C52.626 71.1556 52.7508 71.1302 52.8667 71.0809C52.9827 71.0316 53.0876 70.9594 53.175 70.8687L79.8469 44.1968L83.8031 48.1531L52.5 79.4468Z" fill="#47566A"/>
</g>
<defs>
<linearGradient id="paint0_linear_918_2720" x1="60" y1="119.562" x2="60" y2="1.4375" gradientUnits="userSpaceOnUse">
<stop stop-color="#6AB891"/>
<stop offset="1" stop-color="#85CBA9"/>
</linearGradient>
<linearGradient id="paint1_linear_918_2720" x1="60" y1="103.625" x2="60" y2="17.375" gradientUnits="userSpaceOnUse">
<stop stop-color="#DDE1E8"/>
<stop offset="1" stop-color="#F3F4F5"/>
</linearGradient>
<clipPath id="clip0_918_2720">
<rect width="120" height="120" fill="white" transform="translate(0 0.5)"/>
</clipPath>
</defs>
</svg>
