<svg width="130" height="120" viewBox="0 0 130 120" fill="none" xmlns="http://www.w3.org/2000/svg">
<path d="M128.044 1.99646L112.044 105.996L2.04382 68.9965L128.044 1.99646Z" fill="url(#paint0_linear_919_2776)"/>
<path d="M112.824 100.916L112.044 105.996L2.04382 68.9964L8.20382 65.7264C113.974 101.286 27.6738 72.2664 112.824 100.916Z" fill="#C7CDD8"/>
<path d="M128.044 1.99646L60.8938 88.7865L54.0438 117.996L42.0038 82.4365L128.044 1.99646Z" fill="url(#paint1_linear_919_2776)"/>
<path d="M77.7638 94.4664L54.0438 117.996L60.8938 88.7864L77.7638 94.4664Z" fill="#8288A1"/>
<path d="M129.044 1.89643C129.018 1.63635 128.892 1.39655 128.692 1.22835C128.492 1.06014 128.234 0.976898 127.974 0.996427C127.604 0.996427 133.474 -2.00357 1.56382 68.1064C1.37112 68.1886 1.2091 68.3293 1.10064 68.5085C0.992172 68.6877 0.942737 68.8965 0.959312 69.1054C0.975887 69.3142 1.05763 69.5126 1.19301 69.6724C1.32839 69.8323 1.51057 69.9457 1.71382 69.9964L41.1938 83.2364C47.8438 102.856 53.1938 118.546 53.1938 118.436C53.2734 118.608 53.4003 118.754 53.5597 118.857C53.719 118.96 53.9043 119.015 54.0938 119.016C54.7438 119.016 53.4838 120.016 78.0938 95.6264C114.414 107.846 112.014 107.246 112.634 106.866C113.254 106.486 129.044 1.99643 129.044 1.89643ZM121.704 6.51643L41.7038 81.2764L4.61382 68.7864L121.704 6.51643ZM119.464 11.4064C57.2638 91.8164 60.0438 88.1664 59.9238 88.5164C59.8038 88.8664 60.3538 86.6164 53.8638 114.286L43.1738 82.7364L119.464 11.4064ZM55.8538 114.766L61.6338 90.1064L75.8738 94.9064L55.8538 114.766ZM111.224 104.646L62.5838 88.2764L126.434 5.74643L111.224 104.646Z" fill="#47566A"/>
<defs>
<linearGradient id="paint0_linear_919_2776" x1="65.0438" y1="105.996" x2="65.0438" y2="1.99646" gradientUnits="userSpaceOnUse">
<stop stop-color="#DDE1E8"/>
<stop offset="1" stop-color="#F3F4F5"/>
</linearGradient>
<linearGradient id="paint1_linear_919_2776" x1="85.0238" y1="117.996" x2="85.0238" y2="1.99646" gradientUnits="userSpaceOnUse">
<stop stop-color="#949AAF"/>
<stop offset="1" stop-color="#C6CCDA"/>
</linearGradient>
</defs>
</svg>
