<svg width="102" height="129" viewBox="0 0 102 129" fill="none" xmlns="http://www.w3.org/2000/svg">
<path d="M51 127.498C21.7 119.298 1 91.3978 1 59.1678V15.4978C18.631 15.4746 35.9205 10.6336 51 1.4978C66.0791 10.6345 83.3688 15.4756 101 15.4978V59.1678C101 91.4978 80.25 119.308 51 127.498Z" fill="url(#paint0_linear_918_2740)"/>
<path d="M101 56.1678V59.1678C101 91.1678 80.48 119.238 51 127.498C21.52 119.238 1 91.2078 1 59.1678V56.1678C1 88.1678 21.52 116.238 51 124.498C80.48 116.238 101 88.2078 101 56.1678Z" fill="#5B8DC9"/>
<path d="M51 119.148C26.16 111.148 9 86.7878 9 59.1478V23.1478C23.7181 22.003 38.0295 17.7676 51 10.7178C63.9683 17.7793 78.2793 22.0283 93 23.1878V59.1878C93 86.7878 75.84 111.118 51 119.148Z" fill="url(#paint1_linear_918_2740)"/>
<path d="M78 51.4978H24V93.4978H78V51.4978Z" fill="#C7CDD8"/>
<path d="M70 44.4978V51.4978H64C64 44.6078 64.78 39.8978 60.19 35.3078C52.06 27.1778 38 32.9078 38 44.4978V51.4978H32V44.4978C32 39.4587 34.0018 34.626 37.565 31.0628C41.1282 27.4996 45.9609 25.4978 51 25.4978C56.0391 25.4978 60.8718 27.4996 64.435 31.0628C67.9982 34.626 70 39.4587 70 44.4978V44.4978Z" fill="#C7CDD8"/>
<path d="M93 56.1678V59.1678C93 86.7878 75.84 111.168 51 119.168C26.16 111.168 9 86.8078 9 59.1678V56.1678C9 83.7878 26.16 108.168 51 116.168C75.84 108.118 93 83.7878 93 56.1678Z" fill="#C7CDD8"/>
<path d="M93 23.1878V26.1878C78.2793 25.0283 63.9683 20.7793 51 13.7178C38.0326 20.7815 23.7211 25.0307 9 26.1878V23.1878C23.7211 22.0307 38.0326 17.7815 51 10.7178C63.9683 17.7793 78.2793 22.0283 93 23.1878V23.1878Z" fill="#C7CDD8"/>
<path d="M78 47.4978H24V89.4978H78V47.4978Z" fill="url(#paint2_linear_918_2740)"/>
<path d="M78 85.4978H24V89.4978H78V85.4978Z" fill="#8288A1"/>
<path d="M70 40.4978V47.4978H64C64 40.6078 64.78 35.8978 60.19 31.3078C52.06 23.1778 38 28.9078 38 40.4978V47.4978H32V40.4978C32 35.4587 34.0018 30.626 37.565 27.0628C41.1282 23.4996 45.9609 21.4978 51 21.4978C56.0391 21.4978 60.8718 23.4996 64.435 27.0628C67.9982 30.626 70 35.4587 70 40.4978V40.4978Z" fill="url(#paint3_linear_918_2740)"/>
<path d="M60.64 79.9778C58.7934 81.5307 56.5995 82.6153 54.2445 83.1395C51.8894 83.6637 49.4426 83.6121 47.1117 82.989C44.7808 82.3659 42.6346 81.1897 40.8552 79.5603C39.0759 77.9309 37.7158 75.8962 36.8904 73.6291C36.0651 71.3619 35.7988 68.9291 36.1142 66.5371C36.4296 64.1451 37.3173 61.8644 38.7021 59.8886C40.0868 57.9129 41.9278 56.3003 44.0687 55.1877C46.2096 54.0752 48.5873 53.4955 51 53.4978C65 53.4978 71.3 71.0578 60.64 79.9778Z" fill="url(#paint4_linear_918_2740)"/>
<path d="M60.64 79.9778C50.3 88.7278 34.3 80.1178 36.16 66.4778C36.654 70.068 38.4311 73.358 41.1628 75.7396C43.8944 78.1211 47.396 79.4332 51.02 79.4332C54.6441 79.4332 58.1456 78.1211 60.8773 75.7396C63.6089 73.358 65.386 70.068 65.88 66.4778C66.2256 68.9879 65.9259 71.5446 65.009 73.9067C64.0922 76.2687 62.5886 78.3582 60.64 79.9778V79.9778Z" fill="#F6B756"/>
<path d="M60.62 79.9878C57.9277 82.2562 54.5205 83.5003 51 83.5003C47.4795 83.5003 44.0723 82.2562 41.38 79.9878C42.5 75.2178 46.12 70.4978 51 70.4978C55.88 70.4978 59.5 75.2178 60.62 79.9878Z" fill="url(#paint5_linear_918_2740)"/>
<path d="M51 70.4978C53.7614 70.4978 56 68.2592 56 65.4978C56 62.7364 53.7614 60.4978 51 60.4978C48.2386 60.4978 46 62.7364 46 65.4978C46 68.2592 48.2386 70.4978 51 70.4978Z" fill="url(#paint6_linear_918_2740)"/>
<path d="M38 43.4978H32V47.4978H38V43.4978Z" fill="#8288A1"/>
<path d="M70 43.4978H64V47.4978H70V43.4978Z" fill="#8288A1"/>
<path d="M60.62 79.9878C57.9277 82.2562 54.5205 83.5002 51 83.5002C47.4795 83.5002 44.0723 82.2562 41.38 79.9878C41.634 78.8991 42.0097 77.8424 42.5 76.8378C44.9956 78.5712 47.9615 79.5001 51 79.5001C54.0385 79.5001 57.0044 78.5712 59.5 76.8378C59.9903 77.8424 60.366 78.8991 60.62 79.9878Z" fill="#5B8DC9"/>
<path d="M101 14.4978C83.5504 14.4633 66.4416 9.66399 51.52 0.617829C51.41 0.557829 51 0.297829 50.29 0.727829C35.4131 9.70357 18.3748 14.4635 1 14.4978C0.734784 14.4978 0.48043 14.6032 0.292893 14.7907C0.105357 14.9783 0 15.2326 0 15.4978V59.1678C0 91.6078 20.87 120.168 50.75 128.478C50.9266 128.527 51.1134 128.527 51.29 128.478C81.15 120.118 102 91.6078 102 59.1678V15.4978C102 15.2326 101.895 14.9783 101.707 14.7907C101.52 14.6032 101.265 14.4978 101 14.4978ZM100 59.1878C100 90.6178 79.87 118.238 51 126.458C22.15 118.218 2 90.5978 2 59.1678V16.4978C19.2641 16.2876 36.1669 11.5238 51 2.68783C65.8331 11.5238 82.7359 16.2876 100 16.4978V59.1878Z" fill="#47566A"/>
<path d="M8.91998 22.1678C8.6653 22.1831 8.4261 22.2952 8.25135 22.4811C8.07661 22.667 7.97952 22.9127 7.97998 23.1678V59.1678C7.97998 86.9278 25.54 111.998 50.69 120.168C50.8923 120.228 51.1077 120.228 51.31 120.168C76.46 111.998 94 86.9278 94 59.1678V23.1678C94.0004 22.9127 93.9034 22.667 93.7286 22.4811C93.5539 22.2952 93.3147 22.1831 93.06 22.1678C78.4852 21.0407 64.316 16.8311 51.49 9.81784C51.3362 9.73556 51.1644 9.6925 50.99 9.6925C50.8155 9.6925 50.6438 9.73556 50.49 9.81784C37.6639 16.8311 23.4947 21.0407 8.91998 22.1678V22.1678ZM91.98 24.1678V59.1678C91.98 85.9378 75.14 110.108 50.98 118.068C26.84 110.068 9.97998 85.9378 9.97998 59.1678V24.1678C24.351 22.9251 38.3132 18.7419 51 11.8778C63.6837 18.7253 77.6387 22.8948 92 24.1278L91.98 24.1678Z" fill="#47566A"/>
<path d="M24 90.4978H78C78.2652 90.4978 78.5196 90.3924 78.7071 90.2049C78.8946 90.0174 79 89.763 79 89.4978V47.4978C79 47.2326 78.8946 46.9782 78.7071 46.7907C78.5196 46.6032 78.2652 46.4978 78 46.4978H71V40.4978C71 35.1935 68.8929 30.1064 65.1421 26.3557C61.3914 22.6049 56.3043 20.4978 51 20.4978C45.6957 20.4978 40.6086 22.6049 36.8579 26.3557C33.1071 30.1064 31 35.1935 31 40.4978V46.4978H24C23.7348 46.4978 23.4804 46.6032 23.2929 46.7907C23.1054 46.9782 23 47.2326 23 47.4978V89.4978C23 89.763 23.1054 90.0174 23.2929 90.2049C23.4804 90.3924 23.7348 90.4978 24 90.4978ZM33 40.4978C33 35.7239 34.8964 31.1455 38.2721 27.7699C41.6477 24.3942 46.2261 22.4978 51 22.4978C55.7739 22.4978 60.3523 24.3942 63.7279 27.7699C67.1036 31.1455 69 35.7239 69 40.4978V46.4978H65V40.4978C65 36.7848 63.525 33.2238 60.8995 30.5983C58.274 27.9728 54.713 26.4978 51 26.4978C47.287 26.4978 43.726 27.9728 41.1005 30.5983C38.475 33.2238 37 36.7848 37 40.4978V46.4978H33V40.4978ZM63 46.4978H39V40.4978C39 37.3152 40.2643 34.263 42.5147 32.0125C44.7652 29.7621 47.8174 28.4978 51 28.4978C54.1826 28.4978 57.2348 29.7621 59.4853 32.0125C61.7357 34.263 63 37.3152 63 40.4978V46.4978ZM25 48.4978H77V88.4978H25V48.4978Z" fill="#47566A"/>
<path d="M51 52.4978C36.14 52.4978 29.3 71.2178 40.64 80.7078C42.6046 82.3715 44.9416 83.5366 47.4527 84.1041C49.9637 84.6717 52.5747 84.6249 55.0638 83.9679C57.5529 83.3108 59.8467 82.0628 61.7505 80.3298C63.6543 78.5969 65.1118 76.4301 65.9992 74.0135C66.8867 71.5969 67.178 69.0019 66.8483 66.4487C66.5186 63.8955 65.5777 61.4596 64.1054 59.3477C62.6332 57.2358 60.6731 55.5104 58.3915 54.3179C56.11 53.1254 53.5744 52.501 51 52.4978V52.4978ZM47 65.4978C47 64.7067 47.2346 63.9333 47.6741 63.2755C48.1137 62.6177 48.7384 62.105 49.4693 61.8023C50.2002 61.4995 51.0045 61.4203 51.7804 61.5747C52.5563 61.729 53.269 62.11 53.8285 62.6694C54.3879 63.2288 54.7688 63.9415 54.9232 64.7174C55.0775 65.4934 54.9983 66.2976 54.6955 67.0285C54.3928 67.7594 53.8801 68.3842 53.2223 68.8237C52.5645 69.2632 51.7911 69.4978 51 69.4978C49.9392 69.4978 48.9217 69.0764 48.1716 68.3262C47.4215 67.5761 47 66.5587 47 65.4978ZM42.53 79.5978C43.87 74.8778 47.35 71.4978 51 71.4978C54.65 71.4978 58.13 74.8578 59.47 79.5778C57.0405 81.441 54.0651 82.4525 51.0034 82.4561C47.9417 82.4597 44.964 81.4552 42.53 79.5978V79.5978ZM61.13 78.1178C60.6265 76.4436 59.7905 74.8881 58.6719 73.5444C57.5533 72.2008 56.1752 71.0965 54.62 70.2978C55.6226 69.5393 56.3616 68.4851 56.7327 67.2839C57.1038 66.0828 57.0882 64.7954 56.6881 63.6036C56.2881 62.4118 55.5238 61.3758 54.5032 60.6418C53.4826 59.9077 52.2572 59.5129 51 59.5129C49.7429 59.5129 48.5175 59.9077 47.4968 60.6418C46.4762 61.3758 45.7119 62.4118 45.3119 63.6036C44.9119 64.7954 44.8963 66.0828 45.2674 67.2839C45.6385 68.4851 46.3775 69.5393 47.38 70.2978C45.8248 71.0965 44.4467 72.2008 43.3282 73.5444C42.2096 74.8881 41.3735 76.4436 40.87 78.1178C32.48 69.3078 38.7 54.4978 51 54.4978C63.3 54.4978 69.52 69.3178 61.13 78.1178V78.1178Z" fill="#47566A"/>
<defs>
<linearGradient id="paint0_linear_918_2740" x1="51" y1="127.498" x2="51" y2="1.4978" gradientUnits="userSpaceOnUse">
<stop stop-color="#7AA8D7"/>
<stop offset="1" stop-color="#96C8EA"/>
</linearGradient>
<linearGradient id="paint1_linear_918_2740" x1="51" y1="119.148" x2="51" y2="10.7178" gradientUnits="userSpaceOnUse">
<stop stop-color="#DDE1E8"/>
<stop offset="1" stop-color="#F3F4F5"/>
</linearGradient>
<linearGradient id="paint2_linear_918_2740" x1="51" y1="89.4978" x2="51" y2="47.4978" gradientUnits="userSpaceOnUse">
<stop stop-color="#949AAF"/>
<stop offset="1" stop-color="#C6CCDA"/>
</linearGradient>
<linearGradient id="paint3_linear_918_2740" x1="-13" y1="47.4978" x2="-12" y2="21.4978" gradientUnits="userSpaceOnUse">
<stop stop-color="#949AAF"/>
<stop offset="1" stop-color="#C6CCDA"/>
</linearGradient>
<linearGradient id="paint4_linear_918_2740" x1="51" y1="83.5178" x2="51" y2="53.4978" gradientUnits="userSpaceOnUse">
<stop stop-color="#FBCC88"/>
<stop offset="1" stop-color="#FFE5C3"/>
</linearGradient>
<linearGradient id="paint5_linear_918_2740" x1="51" y1="83.4978" x2="51" y2="70.4978" gradientUnits="userSpaceOnUse">
<stop stop-color="#7AA8D7"/>
<stop offset="1" stop-color="#96C8EA"/>
</linearGradient>
<linearGradient id="paint6_linear_918_2740" x1="51" y1="70.4978" x2="51" y2="60.4978" gradientUnits="userSpaceOnUse">
<stop stop-color="#7AA8D7"/>
<stop offset="1" stop-color="#96C8EA"/>
</linearGradient>
</defs>
</svg>
