<svg width="148" height="100" viewBox="0 0 148 100" fill="none" xmlns="http://www.w3.org/2000/svg">
<path d="M146.383 14.3927C143.328 33.3679 135.805 80.0018 134.897 85.607H41.8592C42.2153 83.4591 40.4234 94.5548 53.3454 14.3927H146.383Z" fill="url(#paint0_linear_918_2762)"/>
<path d="M146.383 14.3927C99.6461 52.0674 102.276 50.3789 99.0604 51.5046C96.5042 52.4052 93.7403 52.5382 91.1094 51.8871C88.4786 51.236 86.0957 49.8294 84.2547 47.8405L53.3453 14.3927H59.8006C88.1829 45.1068 86.437 43.7973 90.0322 45.4054C92.3591 46.4222 94.9201 46.7821 97.4371 46.446C99.9542 46.1098 102.331 45.0905 104.31 43.4987L140.411 14.3927H146.383Z" fill="#C7CDD8"/>
<path d="M33.8188 75.2695H31.5216C31.217 75.2695 30.9248 75.1485 30.7094 74.9331C30.494 74.7177 30.373 74.4255 30.373 74.1209C30.373 73.8163 30.494 73.5241 30.7094 73.3087C30.9248 73.0933 31.217 72.9723 31.5216 72.9723H33.8188C34.1235 72.9723 34.4156 73.0933 34.631 73.3087C34.8464 73.5241 34.9675 73.8163 34.9675 74.1209C34.9675 74.4255 34.8464 74.7177 34.631 74.9331C34.4156 75.1485 34.1235 75.2695 33.8188 75.2695Z" fill="#FFE5C3"/>
<path d="M135.644 81.0126C135.035 84.78 135.207 83.7233 134.897 85.607H41.8592C42.2267 83.3902 42.0545 84.4584 42.6058 81.0126H135.644Z" fill="#C7CDD8"/>
<path d="M147.291 13.6577C146.74 12.9686 152.23 13.2213 53.3454 13.2213C53.0568 13.2191 52.7779 13.3258 52.5643 13.5199C52.0589 13.9793 40.7106 85.343 40.7106 85.4579C40.689 85.6947 40.7416 85.9325 40.8609 86.1382C40.9802 86.3439 41.1605 86.5076 41.3768 86.6065C41.5721 86.6984 135.093 86.9511 135.678 86.4227C135.876 86.2383 136.012 85.9978 136.069 85.7335C148.29 9.91323 147.796 14.2665 147.291 13.6577ZM134.128 83.0113L104.195 49.8966L144.741 17.2184L134.128 83.0113ZM54.115 16.9543C86.4026 51.8837 83.2095 48.4034 83.979 49.196L43.5132 82.7127L54.115 16.9543ZM102.426 48.3115C99.9163 50.3304 96.7345 51.3226 93.5222 51.0881C90.3099 50.8536 87.306 49.4099 85.1162 47.0481L56.0217 15.5415H143.064L102.426 48.3115ZM85.8054 50.7351C88.1949 52.4273 91.0292 53.3796 93.9558 53.4735C96.8823 53.5675 99.7719 52.7989 102.265 51.2635L132.255 84.4586H45.1098L85.8054 50.7351Z" fill="#47566A"/>
<path d="M28.0758 47.7026H1.65753C1.3529 47.7026 1.06074 47.8237 0.845334 48.0391C0.629926 48.2545 0.508911 48.5466 0.508911 48.8513C0.508911 49.1559 0.629926 49.448 0.845334 49.6635C1.06074 49.8789 1.3529 49.9999 1.65753 49.9999H28.0758C28.3804 49.9999 28.6725 49.8789 28.8879 49.6635C29.1034 49.448 29.2244 49.1559 29.2244 48.8513C29.2244 48.5466 29.1034 48.2545 28.8879 48.0391C28.6725 47.8237 28.3804 47.7026 28.0758 47.7026Z" fill="#47566A"/>
<path d="M43.0078 23.5817H22.3326C22.028 23.5817 21.7359 23.7027 21.5204 23.9181C21.305 24.1335 21.184 24.4257 21.184 24.7303C21.184 25.0349 21.305 25.3271 21.5204 25.5425C21.7359 25.7579 22.028 25.8789 22.3326 25.8789H43.0078C43.3124 25.8789 43.6046 25.7579 43.82 25.5425C44.0354 25.3271 44.1564 25.0349 44.1564 24.7303C44.1564 24.4257 44.0354 24.1335 43.82 23.9181C43.6046 23.7027 43.3124 23.5817 43.0078 23.5817Z" fill="#47566A"/>
<path d="M14.2924 2.90661H78.615C78.9196 2.90661 79.2118 2.7856 79.4272 2.57019C79.6426 2.35478 79.7636 2.06263 79.7636 1.75799C79.7636 1.45336 79.6426 1.1612 79.4272 0.945797C79.2118 0.730389 78.9196 0.609375 78.615 0.609375H14.2924C13.9877 0.609375 13.6956 0.730389 13.4802 0.945797C13.2648 1.1612 13.1437 1.45336 13.1437 1.75799C13.1437 2.06263 13.2648 2.35478 13.4802 2.57019C13.6956 2.7856 13.9877 2.90661 14.2924 2.90661V2.90661Z" fill="#47566A"/>
<path d="M70.5746 97.0933H61.3857C61.081 97.0933 60.7889 97.2143 60.5735 97.4297C60.3581 97.6451 60.2371 97.9372 60.2371 98.2419C60.2371 98.5465 60.3581 98.8387 60.5735 99.0541C60.7889 99.2695 61.081 99.3905 61.3857 99.3905H70.5746C70.8793 99.3905 71.1714 99.2695 71.3868 99.0541C71.6022 98.8387 71.7232 98.5465 71.7232 98.2419C71.7232 97.9372 71.6022 97.6451 71.3868 97.4297C71.1714 97.2143 70.8793 97.0933 70.5746 97.0933Z" fill="#47566A"/>
<path d="M54.494 97.0933H14.2924C13.9877 97.0933 13.6956 97.2143 13.4802 97.4297C13.2648 97.6451 13.1437 97.9372 13.1437 98.2419C13.1437 98.5465 13.2648 98.8387 13.4802 99.0541C13.6956 99.2695 13.9877 99.3905 14.2924 99.3905H54.494C54.7986 99.3905 55.0908 99.2695 55.3062 99.0541C55.5216 98.8387 55.6426 98.5465 55.6426 98.2419C55.6426 97.9372 55.5216 97.6451 55.3062 97.4297C55.0908 97.2143 54.7986 97.0933 54.494 97.0933Z" fill="#47566A"/>
<path d="M23.4813 72.9723H8.54925C8.24462 72.9723 7.95247 73.0933 7.73706 73.3087C7.52165 73.5241 7.40063 73.8163 7.40063 74.1209C7.40063 74.4255 7.52165 74.7177 7.73706 74.9331C7.95247 75.1485 8.24462 75.2695 8.54925 75.2695H23.4813C23.7859 75.2695 24.0781 75.1485 24.2935 74.9331C24.5089 74.7177 24.6299 74.4255 24.6299 74.1209C24.6299 73.8163 24.5089 73.5241 24.2935 73.3087C24.0781 73.0933 23.7859 72.9723 23.4813 72.9723Z" fill="#47566A"/>
<path d="M30.373 72.9723C30.0684 72.9723 29.7762 73.0933 29.5608 73.3087C29.3454 73.5241 29.2244 73.8163 29.2244 74.1209C29.2244 74.4255 29.3454 74.7177 29.5608 74.9331C29.7762 75.1485 30.0684 75.2695 30.373 75.2695H32.6702C32.9749 75.2695 33.267 75.1485 33.4824 74.9331C33.6978 74.7177 33.8188 74.4255 33.8188 74.1209C33.8188 73.8163 33.6978 73.5241 33.4824 73.3087C33.267 73.0933 32.9749 72.9723 32.6702 72.9723H30.373Z" fill="#47566A"/>
<path d="M14.2924 25.8789H16.5896C16.8942 25.8789 17.1864 25.7579 17.4018 25.5425C17.6172 25.3271 17.7382 25.0349 17.7382 24.7303C17.7382 24.4257 17.6172 24.1335 17.4018 23.9181C17.1864 23.7027 16.8942 23.5817 16.5896 23.5817H14.2924C13.9877 23.5817 13.6956 23.7027 13.4802 23.9181C13.2648 24.1335 13.1437 24.4257 13.1437 24.7303C13.1437 25.0349 13.2648 25.3271 13.4802 25.5425C13.6956 25.7579 13.9877 25.8789 14.2924 25.8789V25.8789Z" fill="#47566A"/>
<defs>
<linearGradient id="paint0_linear_918_2762" x1="94.1213" y1="85.607" x2="94.1213" y2="14.3927" gradientUnits="userSpaceOnUse">
<stop stop-color="#DDE1E8"/>
<stop offset="1" stop-color="#F3F4F5"/>
</linearGradient>
</defs>
</svg>
